<REAPER_PROJECT 0.1 "5.70/x64" 1584557601
  RIPPLE 0
  GROUPOVERRIDE 0 0 0
  AUTOXFADE 1
  ENVATTACH 1
  POOLEDENVATTACH 0
  MIXERUIFLAGS 11 48
  PEAKGAIN 1
  FEEDBACK 0
  PANLAW 1.67880402
  PROJOFFS 0 0
  MAXPROJLEN 0 600
  GRID 3199 8 0.5 8 1 0 0 0
  TIMEMODE 1 5 -1 30 0
  VIDEO_CONFIG 0 0 256
  PANMODE 3
  CURSOR 219.13046399996421
  ZOOM 35.85960413681377 7072 0
  VZOOMEX 9
  USE_REC_CFG 0
  RECMODE 1
  SMPTESYNC 0 30 100 40 1000 300 0 0 1 0 0
  LOOP 1
  LOOPGRAN 0 4
  RECORD_PATH "" ""
  <RECORD_CFG
    ZXZhdxgAAA==
  >
  <APPLYFX_CFG
  >
  RENDER_FILE ""
  RENDER_PATTERN ""
  RENDER_FMT 0 2 0
  RENDER_1X 0
  RENDER_RANGE 1 0 0 18 1000
  RENDER_RESAMPLE 3 0 1
  RENDER_ADDTOPROJ 0
  RENDER_STEMS 0
  RENDER_DITHER 0
  TIMELOCKMODE 1
  TEMPOENVLOCKMODE 1
  ITEMMIX 0
  DEFPITCHMODE 589824
  TAKELANE 1
  SAMPLERATE 44100 0 0
  <RENDER_CFG
  >
  LOCK 1
  <METRONOME 6 2
    VOL 0.25 0.125
    FREQ 800 1600 1
    BEATLEN 4
    SAMPLES "" ""
    PATTERN 2863311530 2863311529
  >
  GLOBAL_AUTO -1
  TEMPO 77 4 4
  PLAYRATE 1 0 0.25 4
  SELECTION 0 0
  SELECTION2 0 0
  MASTERAUTOMODE 0
  MASTERTRACKHEIGHT 0
  MASTERPEAKCOL 16576
  MASTERMUTESOLO 0
  MASTERTRACKVIEW 0 0.6667 0.5 0.5 0 0 0
  MASTERHWOUT 0 0 1 0 0 0 0 -1
  MASTER_NCH 2 2
  MASTER_VOLUME 1 0 -1 -1 1
  MASTER_FX 1
  MASTER_SEL 0
  <MASTERPLAYSPEEDENV
    ACT 0 -1
    VIS 0 1 1
    LANEHEIGHT 0 0
    ARM 0
    DEFSHAPE 0 -1 -1
  >
  <TEMPOENVEX
    ACT 1 -1
    VIS 1 0 1
    LANEHEIGHT 0 0
    ARM 0
    DEFSHAPE 1 -1 -1
    PT 0.000000000000 183.9999754667 1
  >
  <PROJBAY
  >
  <KEYSIG
    0 8 1 0xAB5
  >
  <TRACK {F0423AAC-2E18-4179-A926-51171F92A9BA}
    NAME Bass
    PEAKCOL 16576
    BEAT -1
    AUTOMODE 0
    VOLPAN 1 0 -1 -1 1
    MUTESOLO 0 0 0
    IPHASE 0
    ISBUS 0 0
    BUSCOMP 0 0
    SHOWINMIX 1 0.6667 0.5 1 0.5 0 0 0
    FREEMODE 0
    SEL 0
    REC 0 0 0 0 0 0 0
    VU 2
    TRACKHEIGHT 0 0
    INQ 0 0 0 0.5 100 0 0 100
    NCHAN 2
    FX 1
    TRACKID {F0423AAC-2E18-4179-A926-51171F92A9BA}
    PERF 0
    MIDIOUT -1
    MAINSEND 1 0
    <ITEM
      POSITION 0
      SNAPOFFS 0
      LENGTH 219.130464
      LOOP 1
      ALLTAKES 0
      FADEIN 1 0 0 1 0 0
      FADEOUT 1 0 0 1 0 0
      MUTE 0
      SEL 0
      IGUID {BE44E594-3D81-4C20-A8C5-AED99C8BFC38}
      IID 1
      NAME "Bass - Lucky Hardcore =).mid"
      VOLPAN 1 0 1 -1
      SOFFS 0 0
      PLAYRATE 1 1 0 -1 0 0.0025
      CHANMODE 0
      GUID {1805171F-2B6D-4CB4-A693-D904BBDDAE1F}
      <SOURCE MIDI
        HASDATA 1 960 QN
        POOLEDEVTS {5AB5AC58-0164-49B8-9CB0-50613F6F4030}
        <X 0 0 0 0 3 Bass
          /wNCYXNz
        >
        E 46080 90 2c 7f
        E 640 80 2c 00
        E 0 90 2c 7f
        E 640 80 2c 00
        E 0 90 2c 7f
        E 640 80 2c 00
        E 0 90 2c 7f
        E 1920 80 2c 00
        E 0 90 2e 7f
        E 640 80 2e 00
        E 0 90 2e 7f
        E 640 80 2e 00
        E 0 90 2e 7f
        E 640 80 2e 00
        E 0 90 2e 7f
        E 1920 80 2e 00
        E 0 90 29 7f
        E 640 80 29 00
        E 0 90 29 7f
        E 640 80 29 00
        E 0 90 29 7f
        E 640 80 29 00
        E 0 90 29 7f
        E 1920 80 29 00
        E 0 90 2e 7f
        E 640 80 2e 00
        E 0 90 2e 7f
        E 640 80 2e 00
        E 0 90 2e 7f
        E 640 80 2e 00
        E 0 90 2e 7f
        E 1920 80 2e 00
        E 0 90 2c 7f
        E 640 80 2c 00
        E 0 90 2c 7f
        E 640 80 2c 00
        E 0 90 2c 7f
        E 640 80 2c 00
        E 0 90 2c 7f
        E 1920 80 2c 00
        E 0 90 2c 7f
        E 640 80 2c 00
        E 0 90 2c 7f
        E 640 80 2c 00
        E 0 90 2c 7f
        E 640 80 2c 00
        E 0 90 2c 7f
        E 1920 80 2c 00
        E 0 90 29 7f
        E 640 80 29 00
        E 0 90 29 7f
        E 640 80 29 00
        E 0 90 29 7f
        E 640 80 29 00
        E 0 90 29 7f
        E 1920 80 29 00
        E 0 90 2e 7f
        E 640 80 2e 00
        E 0 90 2e 7f
        E 640 80 2e 00
        E 0 90 2e 7f
        E 640 80 2e 00
        E 0 90 2e 7f
        E 1920 80 2e 00
        E 0 90 2c 7f
        E 640 80 2c 00
        E 0 90 2c 7f
        E 640 80 2c 00
        E 0 90 2c 7f
        E 640 80 2c 00
        E 0 90 2c 7f
        E 1920 80 2c 00
        E 0 90 2e 7f
        E 640 80 2e 00
        E 0 90 2e 7f
        E 640 80 2e 00
        E 0 90 2e 7f
        E 640 80 2e 00
        E 0 90 2e 7f
        E 1920 80 2e 00
        E 0 90 29 7f
        E 640 80 29 00
        E 0 90 29 7f
        E 640 80 29 00
        E 0 90 29 7f
        E 640 80 29 00
        E 0 90 29 7f
        E 1920 80 29 00
        E 0 90 2e 7f
        E 640 80 2e 00
        E 0 90 2e 7f
        E 640 80 2e 00
        E 0 90 2e 7f
        E 640 80 2e 00
        E 0 90 2e 7f
        E 1920 80 2e 00
        E 0 90 2c 7f
        E 640 80 2c 00
        E 0 90 2c 7f
        E 640 80 2c 00
        E 0 90 2c 7f
        E 640 80 2c 00
        E 0 90 2c 7f
        E 1920 80 2c 00
        E 0 90 2c 7f
        E 640 80 2c 00
        E 0 90 2c 7f
        E 640 80 2c 00
        E 0 90 2c 7f
        E 640 80 2c 00
        E 0 90 2c 7f
        E 1920 80 2c 00
        E 0 90 29 7f
        E 640 80 29 00
        E 0 90 29 7f
        E 640 80 29 00
        E 0 90 29 7f
        E 640 80 29 00
        E 0 90 29 7f
        E 1920 80 29 00
        E 0 90 2e 7f
        E 640 80 2e 00
        E 0 90 2e 7f
        E 640 80 2e 00
        E 0 90 2e 7f
        E 640 80 2e 00
        E 0 90 2e 7f
        E 1920 80 2e 00
        E 0 90 2c 7f
        E 640 80 2c 00
        E 0 90 2c 7f
        E 640 80 2c 00
        E 0 90 2c 7f
        E 640 80 2c 00
        E 0 90 2c 7f
        E 1920 80 2c 00
        E 0 90 2e 7f
        E 640 80 2e 00
        E 0 90 2e 7f
        E 640 80 2e 00
        E 0 90 2e 7f
        E 640 80 2e 00
        E 0 90 2e 7f
        E 1920 80 2e 00
        E 0 90 29 7f
        E 640 80 29 00
        E 0 90 29 7f
        E 640 80 29 00
        E 0 90 29 7f
        E 640 80 29 00
        E 0 90 29 7f
        E 1920 80 29 00
        E 0 90 2e 7f
        E 640 80 2e 00
        E 0 90 2e 7f
        E 640 80 2e 00
        E 0 90 2e 7f
        E 640 80 2e 00
        E 0 90 2e 7f
        E 1920 80 2e 00
        E 30720 90 2c 7f
        E 640 80 2c 00
        E 0 90 2c 7f
        E 640 80 2c 00
        E 0 90 2c 7f
        E 640 80 2c 00
        E 0 90 2c 7f
        E 1920 80 2c 00
        E 0 90 2c 7f
        E 640 80 2c 00
        E 0 90 2c 7f
        E 640 80 2c 00
        E 0 90 2c 7f
        E 640 80 2c 00
        E 0 90 2c 7f
        E 1920 80 2c 00
        E 0 90 29 7f
        E 640 80 29 00
        E 0 90 29 7f
        E 640 80 29 00
        E 0 90 29 7f
        E 640 80 29 00
        E 0 90 29 7f
        E 1920 80 29 00
        E 0 90 2e 7f
        E 640 80 2e 00
        E 0 90 2e 7f
        E 640 80 2e 00
        E 0 90 2e 7f
        E 640 80 2e 00
        E 0 90 2e 7f
        E 1920 80 2e 00
        E 0 90 2c 7f
        E 640 80 2c 00
        E 0 90 2c 7f
        E 640 80 2c 00
        E 0 90 2c 7f
        E 640 80 2c 00
        E 0 90 2c 7f
        E 1920 80 2c 00
        E 0 90 2e 7f
        E 640 80 2e 00
        E 0 90 2e 7f
        E 640 80 2e 00
        E 0 90 2e 7f
        E 640 80 2e 00
        E 0 90 2e 7f
        E 1920 80 2e 00
        E 0 90 29 7f
        E 640 80 29 00
        E 0 90 29 7f
        E 640 80 29 00
        E 0 90 29 7f
        E 640 80 29 00
        E 0 90 29 7f
        E 1920 80 29 00
        E 0 90 2e 7f
        E 640 80 2e 00
        E 0 90 2e 7f
        E 640 80 2e 00
        E 0 90 2e 7f
        E 640 80 2e 00
        E 0 90 2e 7f
        E 1920 80 2e 00
        E 0 90 2c 7f
        E 640 80 2c 00
        E 0 90 2c 7f
        E 640 80 2c 00
        E 0 90 2c 7f
        E 640 80 2c 00
        E 0 90 2c 7f
        E 1920 80 2c 00
        E 0 90 2c 7f
        E 640 80 2c 00
        E 0 90 2c 7f
        E 640 80 2c 00
        E 0 90 2c 7f
        E 640 80 2c 00
        E 0 90 2c 7f
        E 1920 80 2c 00
        E 0 90 29 7f
        E 640 80 29 00
        E 0 90 29 7f
        E 640 80 29 00
        E 0 90 29 7f
        E 640 80 29 00
        E 0 90 29 7f
        E 1920 80 29 00
        E 0 90 2e 7f
        E 640 80 2e 00
        E 0 90 2e 7f
        E 640 80 2e 00
        E 0 90 2e 7f
        E 640 80 2e 00
        E 0 90 2e 7f
        E 1920 80 2e 00
        E 0 90 2c 7f
        E 640 80 2c 00
        E 0 90 2c 7f
        E 640 80 2c 00
        E 0 90 2c 7f
        E 640 80 2c 00
        E 0 90 2c 7f
        E 1920 80 2c 00
        E 0 90 2e 7f
        E 640 80 2e 00
        E 0 90 2e 7f
        E 640 80 2e 00
        E 0 90 2e 7f
        E 640 80 2e 00
        E 0 90 2e 7f
        E 1920 80 2e 00
        E 0 90 29 7f
        E 640 80 29 00
        E 0 90 29 7f
        E 640 80 29 00
        E 0 90 29 7f
        E 640 80 29 00
        E 0 90 29 7f
        E 1920 80 29 00
        E 0 90 2e 7f
        E 640 80 2e 00
        E 0 90 2e 7f
        E 640 80 2e 00
        E 0 90 2e 7f
        E 640 80 2e 00
        E 0 90 2e 7f
        E 1920 80 2e 00
        E 23040 90 29 7f
        E 640 80 29 00
        E 0 90 29 7f
        E 640 80 29 00
        E 0 90 29 7f
        E 640 80 29 00
        E 0 90 29 7f
        E 1920 80 29 00
        E 0 90 2e 3c
        E 3840 80 2e 00
        E 0 90 2c 7f
        E 640 80 2c 00
        E 0 90 2c 7f
        E 640 80 2c 00
        E 0 90 2c 7f
        E 640 80 2c 00
        E 0 90 2c 7f
        E 1920 80 2c 00
        E 0 90 2c 7f
        E 640 80 2c 00
        E 0 90 2c 7f
        E 640 80 2c 00
        E 0 90 2c 7f
        E 640 80 2c 00
        E 0 90 2c 7f
        E 1920 80 2c 00
        E 0 90 29 7f
        E 640 80 29 00
        E 0 90 29 7f
        E 640 80 29 00
        E 0 90 29 7f
        E 640 80 29 00
        E 0 90 29 7f
        E 1920 80 29 00
        E 0 90 2e 7f
        E 640 80 2e 00
        E 0 90 2e 7f
        E 640 80 2e 00
        E 0 90 2e 7f
        E 640 80 2e 00
        E 0 90 2e 7f
        E 1920 80 2e 00
        E 0 90 2c 7f
        E 640 80 2c 00
        E 0 90 2c 7f
        E 640 80 2c 00
        E 0 90 2c 7f
        E 640 80 2c 00
        E 0 90 2c 7f
        E 1920 80 2c 00
        E 0 90 2e 7f
        E 640 80 2e 00
        E 0 90 2e 7f
        E 640 80 2e 00
        E 0 90 2e 7f
        E 640 80 2e 00
        E 0 90 2e 7f
        E 1920 80 2e 00
        E 0 90 29 7f
        E 640 80 29 00
        E 0 90 29 7f
        E 640 80 29 00
        E 0 90 29 7f
        E 640 80 29 00
        E 0 90 29 7f
        E 1920 80 29 00
        E 0 90 2e 7f
        E 640 80 2e 00
        E 0 90 2e 7f
        E 640 80 2e 00
        E 0 90 2e 7f
        E 640 80 2e 00
        E 0 90 2e 7f
        E 1920 80 2e 00
        E 0 90 2c 7f
        E 640 80 2c 00
        E 0 90 2c 7f
        E 640 80 2c 00
        E 0 90 2c 7f
        E 640 80 2c 00
        E 0 90 2c 7f
        E 1920 80 2c 00
        E 0 90 2c 7f
        E 640 80 2c 00
        E 0 90 2c 7f
        E 640 80 2c 00
        E 0 90 2c 7f
        E 640 80 2c 00
        E 0 90 2c 7f
        E 1920 80 2c 00
        E 0 90 29 7f
        E 640 80 29 00
        E 0 90 29 7f
        E 640 80 29 00
        E 0 90 29 7f
        E 640 80 29 00
        E 0 90 29 7f
        E 1920 80 29 00
        E 0 90 2e 7f
        E 640 80 2e 00
        E 0 90 2e 7f
        E 640 80 2e 00
        E 0 90 2e 7f
        E 640 80 2e 00
        E 0 90 2e 7f
        E 1920 80 2e 00
        E 0 90 2c 7f
        E 640 80 2c 00
        E 0 90 2c 7f
        E 640 80 2c 00
        E 0 90 2c 7f
        E 640 80 2c 00
        E 0 90 2c 7f
        E 1920 80 2c 00
        E 0 90 2e 7f
        E 640 80 2e 00
        E 0 90 2e 7f
        E 640 80 2e 00
        E 0 90 2e 7f
        E 640 80 2e 00
        E 0 90 2e 7f
        E 1920 80 2e 00
        E 0 90 29 7f
        E 640 80 29 00
        E 0 90 29 7f
        E 640 80 29 00
        E 0 90 29 7f
        E 640 80 29 00
        E 0 90 29 7f
        E 1920 80 29 00
        E 0 90 2e 7f
        E 640 80 2e 00
        E 0 90 2e 7f
        E 640 80 2e 00
        E 0 90 2e 7f
        E 640 80 2e 00
        E 0 90 2e 7f
        E 1920 80 2e 00
        E 0 90 2c 7f
        E 640 80 2c 00
        E 0 90 2c 7f
        E 640 80 2c 00
        E 0 90 2c 7f
        E 640 80 2c 00
        E 0 90 2c 7f
        E 1920 80 2c 00
        E 0 90 2c 7f
        E 640 80 2c 00
        E 0 90 2c 7f
        E 640 80 2c 00
        E 0 90 2c 7f
        E 640 80 2c 00
        E 0 90 2c 7f
        E 1920 80 2c 00
        E 0 90 29 7f
        E 640 80 29 00
        E 0 90 29 7f
        E 640 80 29 00
        E 0 90 29 7f
        E 640 80 29 00
        E 0 90 29 7f
        E 1920 80 29 00
        E 0 90 2e 7f
        E 640 80 2e 00
        E 0 90 2e 7f
        E 640 80 2e 00
        E 0 90 2e 7f
        E 640 80 2e 00
        E 0 90 2e 7f
        E 1920 80 2e 00
        E 0 90 2c 7f
        E 640 80 2c 00
        E 0 90 2c 7f
        E 640 80 2c 00
        E 0 90 2c 7f
        E 640 80 2c 00
        E 0 90 2c 7f
        E 1920 80 2c 00
        E 0 90 2e 7f
        E 640 80 2e 00
        E 0 90 2e 7f
        E 640 80 2e 00
        E 0 90 2e 7f
        E 640 80 2e 00
        E 0 90 2e 7f
        E 1920 80 2e 00
        E 0 90 29 7f
        E 640 80 29 00
        E 0 90 29 7f
        E 640 80 29 00
        E 0 90 29 7f
        E 640 80 29 00
        E 0 90 29 7f
        E 1920 80 29 00
        E 0 90 2e 7f
        E 640 80 2e 00
        E 0 90 2e 7f
        E 640 80 2e 00
        E 0 90 2e 7f
        E 640 80 2e 00
        E 0 90 2e 7f
        E 1920 80 2e 00
        E 0 90 2c 12
        E 15360 80 2c 00
        E 0 90 2c 12
        E 13440 80 2c 00
        E 0 90 2c 12
        E 480 80 2c 00
        E 0 90 2c 12
        E 480 80 2c 00
        E 0 90 2c 12
        E 480 80 2c 00
        E 0 90 2c 12
        E 480 80 2c 00
        E 0 90 2c 7f
        E 960 80 2c 00
        E 0 90 2c 7f
        E 1440 80 2c 00
        E 0 90 2c 7f
        E 480 80 2c 00
        E 0 90 2c 7f
        E 960 80 2c 00
        E 0 90 30 7f
        E 960 80 30 00
        E 0 90 30 7f
        E 1440 80 30 00
        E 0 90 32 7f
        E 480 80 32 00
        E 0 90 32 7f
        E 480 80 32 00
        E 0 90 31 7f
        E 480 80 31 00
        E 0 90 2e 7f
        E 960 80 2e 00
        E 0 90 2e 7f
        E 1440 80 2e 00
        E 0 90 2e 7f
        E 480 80 2e 00
        E 0 90 2e 7f
        E 960 80 2e 00
        E 0 90 33 7f
        E 960 80 33 00
        E 0 90 33 7f
        E 480 80 33 00
        E 0 90 33 7f
        E 960 80 33 00
        E 0 90 33 7f
        E 480 80 33 00
        E 0 90 33 7f
        E 480 80 33 00
        E 0 90 33 7f
        E 480 80 33 00
        E 0 90 2c 7f
        E 960 80 2c 00
        E 0 90 2c 7f
        E 1440 80 2c 00
        E 0 90 2c 7f
        E 480 80 2c 00
        E 0 90 2c 7f
        E 960 80 2c 00
        E 0 90 30 7f
        E 960 80 30 00
        E 0 90 30 7f
        E 1440 80 30 00
        E 0 90 32 7f
        E 480 80 32 00
        E 0 90 32 7f
        E 480 80 32 00
        E 0 90 31 7f
        E 480 80 31 00
        E 0 90 2e 7f
        E 960 80 2e 00
        E 0 90 2e 7f
        E 1440 80 2e 00
        E 0 90 2e 7f
        E 480 80 2e 00
        E 0 90 2e 7f
        E 960 80 2e 00
        E 0 90 2b 7f
        E 960 80 2b 00
        E 0 90 2b 7f
        E 960 80 2b 00
        E 0 90 2b 7f
        E 960 80 2b 00
        E 0 90 2b 7f
        E 960 80 2b 00
        E 0 90 2c 7f
        E 960 80 2c 00
        E 0 90 2c 7f
        E 1440 80 2c 00
        E 0 90 2c 7f
        E 480 80 2c 00
        E 0 90 2c 7f
        E 960 80 2c 00
        E 0 90 30 7f
        E 960 80 30 00
        E 0 90 30 7f
        E 1440 80 30 00
        E 0 90 32 7f
        E 480 80 32 00
        E 0 90 32 7f
        E 480 80 32 00
        E 0 90 31 7f
        E 480 80 31 00
        E 0 90 2e 7f
        E 960 80 2e 00
        E 0 90 2e 7f
        E 1440 80 2e 00
        E 0 90 2e 7f
        E 480 80 2e 00
        E 0 90 2e 7f
        E 960 80 2e 00
        E 0 90 33 7f
        E 960 80 33 00
        E 0 90 33 7f
        E 480 80 33 00
        E 0 90 33 7f
        E 960 80 33 00
        E 0 90 33 7f
        E 480 80 33 00
        E 0 90 33 7f
        E 480 80 33 00
        E 0 90 33 7f
        E 480 80 33 00
        E 0 90 2c 7f
        E 960 80 2c 00
        E 0 90 2c 7f
        E 1440 80 2c 00
        E 0 90 2c 7f
        E 480 80 2c 00
        E 0 90 2c 7f
        E 960 80 2c 00
        E 0 90 30 7f
        E 960 80 30 00
        E 0 90 30 7f
        E 1440 80 30 00
        E 0 90 32 7f
        E 480 80 32 00
        E 0 90 32 7f
        E 480 80 32 00
        E 0 90 31 7f
        E 480 80 31 00
        E 0 90 2e 7f
        E 960 80 2e 00
        E 0 90 2e 7f
        E 1440 80 2e 00
        E 0 90 2e 7f
        E 480 80 2e 00
        E 0 90 2e 7f
        E 960 80 2e 00
        E 0 90 2b 7f
        E 960 80 2b 00
        E 0 90 2b 7f
        E 960 80 2b 00
        E 0 90 2b 7f
        E 960 80 2b 00
        E 0 90 2b 7f
        E 960 80 2b 00
        E 0 90 2c 7f
        E 960 80 2c 00
        E 0 90 2c 7f
        E 1440 80 2c 00
        E 0 90 2c 7f
        E 480 80 2c 00
        E 0 90 2c 7f
        E 960 80 2c 00
        E 0 90 30 7f
        E 960 80 30 00
        E 0 90 30 7f
        E 1440 80 30 00
        E 0 90 32 7f
        E 480 80 32 00
        E 0 90 32 7f
        E 480 80 32 00
        E 0 90 31 7f
        E 480 80 31 00
        E 0 90 2e 7f
        E 960 80 2e 00
        E 0 90 2e 7f
        E 1440 80 2e 00
        E 0 90 2e 7f
        E 480 80 2e 00
        E 0 90 2e 7f
        E 960 80 2e 00
        E 0 90 33 7f
        E 960 80 33 00
        E 0 90 33 7f
        E 480 80 33 00
        E 0 90 33 7f
        E 960 80 33 00
        E 0 90 33 7f
        E 480 80 33 00
        E 0 90 33 7f
        E 480 80 33 00
        E 0 90 33 7f
        E 480 80 33 00
        E 0 90 2c 7f
        E 960 80 2c 00
        E 0 90 2c 7f
        E 1440 80 2c 00
        E 0 90 2c 7f
        E 480 80 2c 00
        E 0 90 2c 7f
        E 960 80 2c 00
        E 0 90 30 7f
        E 960 80 30 00
        E 0 90 30 7f
        E 1440 80 30 00
        E 0 90 32 7f
        E 480 80 32 00
        E 0 90 32 7f
        E 480 80 32 00
        E 0 90 31 7f
        E 480 80 31 00
        E 0 90 2e 7f
        E 960 80 2e 00
        E 0 90 2e 7f
        E 1440 80 2e 00
        E 0 90 2e 7f
        E 480 80 2e 00
        E 0 90 2e 7f
        E 960 80 2e 00
        E 0 90 2b 7f
        E 960 80 2b 00
        E 0 90 2b 7f
        E 960 80 2b 00
        E 0 90 2b 7f
        E 960 80 2b 00
        E 0 90 2b 7f
        E 960 80 2b 00
        E 53760 90 29 7f
        E 640 80 29 00
        E 0 90 29 7f
        E 640 80 29 00
        E 0 90 29 7f
        E 640 80 29 00
        E 0 90 29 7f
        E 1920 80 29 00
        E 0 90 2e 7f
        E 640 80 2e 00
        E 0 90 2e 7f
        E 640 80 2e 00
        E 0 90 2e 7f
        E 640 80 2e 00
        E 0 90 2e 7f
        E 1920 80 2e 00
        E 0 90 2c 7f
        E 640 80 2c 00
        E 0 90 2c 7f
        E 640 80 2c 00
        E 0 90 2c 7f
        E 640 80 2c 00
        E 0 90 2c 7f
        E 1920 80 2c 00
        E 0 90 2c 7f
        E 640 80 2c 00
        E 0 90 2c 7f
        E 640 80 2c 00
        E 0 90 2c 7f
        E 640 80 2c 00
        E 0 90 2c 7f
        E 1920 80 2c 00
        E 0 90 29 7f
        E 640 80 29 00
        E 0 90 29 7f
        E 640 80 29 00
        E 0 90 29 7f
        E 640 80 29 00
        E 0 90 29 7f
        E 1920 80 29 00
        E 0 90 2e 7f
        E 640 80 2e 00
        E 0 90 2e 7f
        E 640 80 2e 00
        E 0 90 2e 7f
        E 640 80 2e 00
        E 0 90 2e 7f
        E 1920 80 2e 00
        E 0 90 2c 7f
        E 640 80 2c 00
        E 0 90 2c 7f
        E 640 80 2c 00
        E 0 90 2c 7f
        E 640 80 2c 00
        E 0 90 2c 7f
        E 1920 80 2c 00
        E 0 90 2e 7f
        E 640 80 2e 00
        E 0 90 2e 7f
        E 640 80 2e 00
        E 0 90 2e 7f
        E 640 80 2e 00
        E 0 90 2e 7f
        E 1920 80 2e 00
        E 0 90 29 7f
        E 640 80 29 00
        E 0 90 29 7f
        E 640 80 29 00
        E 0 90 29 7f
        E 640 80 29 00
        E 0 90 29 7f
        E 1920 80 29 00
        E 0 90 2e 7f
        E 640 80 2e 00
        E 0 90 2e 7f
        E 640 80 2e 00
        E 0 90 2e 7f
        E 640 80 2e 00
        E 0 90 2e 7f
        E 1920 80 2e 00
        E 0 90 2c 7f
        E 640 80 2c 00
        E 0 90 2c 7f
        E 640 80 2c 00
        E 0 90 2c 7f
        E 640 80 2c 00
        E 0 90 2c 7f
        E 1920 80 2c 00
        E 0 90 2c 7f
        E 640 80 2c 00
        E 0 90 2c 7f
        E 640 80 2c 00
        E 0 90 2c 7f
        E 640 80 2c 00
        E 0 90 2c 7f
        E 1920 80 2c 00
        E 0 90 29 7f
        E 640 80 29 00
        E 0 90 29 7f
        E 640 80 29 00
        E 0 90 29 7f
        E 640 80 29 00
        E 0 90 29 7f
        E 1920 80 29 00
        E 0 90 2e 7f
        E 640 80 2e 00
        E 0 90 2e 7f
        E 640 80 2e 00
        E 0 90 2e 7f
        E 640 80 2e 00
        E 0 90 2e 7f
        E 1920 80 2e 00
        E 0 90 2c 7f
        E 640 80 2c 00
        E 0 90 2c 7f
        E 640 80 2c 00
        E 0 90 2c 7f
        E 640 80 2c 00
        E 0 90 2c 7f
        E 1920 80 2c 00
        E 0 90 2e 7f
        E 640 80 2e 00
        E 0 90 2e 7f
        E 640 80 2e 00
        E 0 90 2e 7f
        E 640 80 2e 00
        E 0 90 2e 7f
        E 1920 80 2e 00
        E 0 90 29 7f
        E 640 80 29 00
        E 0 90 29 7f
        E 640 80 29 00
        E 0 90 29 7f
        E 640 80 29 00
        E 0 90 29 7f
        E 1920 80 29 00
        E 0 90 2e 7f
        E 640 80 2e 00
        E 0 90 2e 7f
        E 640 80 2e 00
        E 0 90 2e 7f
        E 640 80 2e 00
        E 0 90 2e 7f
        E 1920 80 2e 00
        E 0 90 2c 7f
        E 640 80 2c 00
        E 0 90 2c 7f
        E 640 80 2c 00
        E 0 90 2c 7f
        E 640 80 2c 00
        E 0 90 2c 7f
        E 1920 80 2c 00
        E 0 90 2c 7f
        E 640 80 2c 00
        E 0 90 2c 7f
        E 640 80 2c 00
        E 0 90 2c 7f
        E 640 80 2c 00
        E 0 90 2c 7f
        E 1920 80 2c 00
        E 0 90 29 7f
        E 640 80 29 00
        E 0 90 29 7f
        E 640 80 29 00
        E 0 90 29 7f
        E 640 80 29 00
        E 0 90 29 7f
        E 1920 80 29 00
        E 0 90 2e 7f
        E 640 80 2e 00
        E 0 90 2e 7f
        E 640 80 2e 00
        E 0 90 2e 7f
        E 640 80 2e 00
        E 0 90 2e 7f
        E 1920 80 2e 00
        E 0 90 2c 7f
        E 640 80 2c 00
        E 0 90 2c 7f
        E 640 80 2c 00
        E 0 90 2c 7f
        E 640 80 2c 00
        E 0 90 2c 7f
        E 1920 80 2c 00
        E 0 90 2e 7f
        E 640 80 2e 00
        E 0 90 2e 7f
        E 640 80 2e 00
        E 0 90 2e 7f
        E 640 80 2e 00
        E 0 90 2e 7f
        E 1920 80 2e 00
        E 0 90 29 7f
        E 640 80 29 00
        E 0 90 29 7f
        E 640 80 29 00
        E 0 90 29 7f
        E 640 80 29 00
        E 0 90 29 7f
        E 1920 80 29 00
        E 0 90 2e 7f
        E 640 80 2e 00
        E 0 90 2e 7f
        E 640 80 2e 00
        E 0 90 2e 7f
        E 640 80 2e 00
        E 0 90 2e 7f
        E 1920 80 2e 00
        E 0 90 2c 7f
        E 640 80 2c 00
        E 0 90 2c 7f
        E 640 80 2c 00
        E 0 90 2c 7f
        E 640 80 2c 00
        E 0 90 2c 7f
        E 1920 80 2c 00
        E 0 90 2c 7f
        E 640 80 2c 00
        E 0 90 2c 7f
        E 640 80 2c 00
        E 0 90 2c 7f
        E 640 80 2c 00
        E 0 90 2c 7f
        E 1920 80 2c 00
        E 0 90 29 7f
        E 640 80 29 00
        E 0 90 29 7f
        E 640 80 29 00
        E 0 90 29 7f
        E 640 80 29 00
        E 0 90 29 7f
        E 1920 80 29 00
        E 0 90 2e 7f
        E 640 80 2e 00
        E 0 90 2e 7f
        E 640 80 2e 00
        E 0 90 2e 7f
        E 640 80 2e 00
        E 0 90 2e 7f
        E 1920 80 2e 00
        E 0 90 2c 7f
        E 640 80 2c 00
        E 0 90 2c 7f
        E 640 80 2c 00
        E 0 90 2c 7f
        E 640 80 2c 00
        E 0 90 2c 7f
        E 1920 80 2c 00
        E 0 90 2e 7f
        E 640 80 2e 00
        E 0 90 2e 7f
        E 640 80 2e 00
        E 0 90 2e 7f
        E 640 80 2e 00
        E 0 90 2e 7f
        E 1920 80 2e 00
        E 0 90 29 7f
        E 640 80 29 00
        E 0 90 29 7f
        E 640 80 29 00
        E 0 90 29 7f
        E 640 80 29 00
        E 0 90 29 7f
        E 1920 80 29 00
        E 0 90 2e 7f
        E 640 80 2e 00
        E 0 90 2e 7f
        E 640 80 2e 00
        E 0 90 2e 7f
        E 640 80 2e 00
        E 0 90 2e 7f
        E 1919 80 2e 00
        E 1 b0 7b 00
        GUID {8E75E67F-7934-47DF-A6C2-3CAD70CAF7C0}
        IGNTEMPO 0 120 4 4
        SRCCOLOR 14059
        VELLANE -1 100 0
      >
    >
  >
  <TRACK {E131E228-FDA3-4CD7-9624-930B5230B80E}
    NAME Chords
    PEAKCOL 16576
    BEAT -1
    AUTOMODE 0
    VOLPAN 1 0 -1 -1 1
    MUTESOLO 0 0 0
    IPHASE 0
    ISBUS 0 0
    BUSCOMP 0 0
    SHOWINMIX 1 0.6667 0.5 1 0.5 0 0 0
    FREEMODE 0
    SEL 0
    REC 0 0 0 0 0 0 0
    VU 2
    TRACKHEIGHT 0 0
    INQ 0 0 0 0.5 100 0 0 100
    NCHAN 2
    FX 1
    TRACKID {E131E228-FDA3-4CD7-9624-930B5230B80E}
    PERF 0
    MIDIOUT -1
    MAINSEND 1 0
    <ITEM
      POSITION 0
      SNAPOFFS 0
      LENGTH 230.869596
      LOOP 1
      ALLTAKES 0
      FADEIN 1 0 0 1 0 0
      FADEOUT 1 0 0 1 0 0
      MUTE 0
      SEL 0
      IGUID {767389F9-F51F-4EE7-818A-9C055A066F23}
      IID 2
      NAME "Chords - Lucky Hardcore =).mid"
      VOLPAN 1 0 1 -1
      SOFFS 0 0
      PLAYRATE 1 1 0 -1 0 0.0025
      CHANMODE 0
      GUID {131F964A-D205-481A-B39C-694560B00F4F}
      <SOURCE MIDI
        HASDATA 1 960 QN
        POOLEDEVTS {2C2314FA-0F40-4345-BE5D-CBB69C334679}
        <X 0 0 0 0 3 Chords
          /wNDaG9yZHM=
        >
        E 0 90 38 7f
        E 0 90 3c 7f
        E 0 90 3f 7f
        E 960 80 38 00
        E 0 80 3c 00
        E 0 80 3f 00
        E 480 90 38 7f
        E 0 90 3c 7f
        E 0 90 3f 7f
        E 1920 80 38 00
        E 0 80 3c 00
        E 0 80 3f 00
        E 480 90 38 7f
        E 0 90 3c 7f
        E 0 90 41 7f
        E 960 80 38 00
        E 0 80 3c 00
        E 0 80 41 00
        E 480 90 38 7f
        E 0 90 3c 7f
        E 0 90 41 7f
        E 1920 80 38 00
        E 0 80 3c 00
        E 0 80 41 00
        E 480 90 35 7f
        E 0 90 3d 7f
        E 0 90 41 7f
        E 960 80 35 00
        E 0 80 3d 00
        E 0 80 41 00
        E 480 90 35 7f
        E 0 90 3d 7f
        E 0 90 41 7f
        E 1920 80 35 00
        E 0 80 3d 00
        E 0 80 41 00
        E 480 90 3a 7f
        E 0 90 3f 7f
        E 0 90 43 7f
        E 960 80 3a 00
        E 0 80 3f 00
        E 0 80 43 00
        E 480 90 3a 7f
        E 0 90 3f 7f
        E 0 90 43 7f
        E 1440 80 3a 00
        E 0 80 3f 00
        E 0 80 43 00
        E 0 90 3c 7f
        E 0 90 44 7f
        E 480 80 3c 00
        E 0 80 44 00
        E 0 90 3a 7f
        E 0 90 43 7f
        E 480 80 3a 00
        E 0 80 43 00
        E 0 90 38 7f
        E 0 90 3c 7f
        E 0 90 3f 7f
        E 960 80 38 00
        E 0 80 3c 00
        E 0 80 3f 00
        E 480 90 38 7f
        E 0 90 3c 7f
        E 0 90 3f 7f
        E 1920 80 38 00
        E 0 80 3c 00
        E 0 80 3f 00
        E 480 90 3a 7f
        E 0 90 3c 7f
        E 0 90 41 7f
        E 960 80 3a 00
        E 0 80 3c 00
        E 0 80 41 00
        E 480 90 3a 7f
        E 0 90 3c 7f
        E 0 90 41 7f
        E 1440 80 3a 00
        E 0 80 3c 00
        E 0 80 41 00
        E 0 90 37 7f
        E 0 90 3d 7f
        E 960 80 37 00
        E 0 80 3d 00
        E 0 90 37 7f
        E 0 90 35 7f
        E 0 90 3c 7f
        E 960 80 37 00
        E 0 80 35 00
        E 0 80 3c 00
        E 480 90 37 7f
        E 0 90 35 7f
        E 0 90 3c 7f
        E 1920 80 37 00
        E 0 80 35 00
        E 0 80 3c 00
        E 480 90 3a 7f
        E 0 90 3f 7f
        E 0 90 43 7f
        E 960 80 3a 00
        E 0 80 3f 00
        E 0 80 43 00
        E 480 90 3a 7f
        E 0 90 3f 7f
        E 0 90 43 7f
        E 1440 80 3a 00
        E 0 80 3f 00
        E 0 80 43 00
        E 0 90 37 7f
        E 0 90 3c 7f
        E 960 80 37 00
        E 0 80 3c 00
        E 0 90 38 7f
        E 0 90 3c 7f
        E 0 90 3f 7f
        E 960 80 38 00
        E 0 80 3c 00
        E 0 80 3f 00
        E 480 90 38 7f
        E 0 90 3c 7f
        E 0 90 3f 7f
        E 1920 80 38 00
        E 0 80 3c 00
        E 0 80 3f 00
        E 480 90 38 7f
        E 0 90 3c 7f
        E 0 90 41 7f
        E 960 80 38 00
        E 0 80 3c 00
        E 0 80 41 00
        E 480 90 38 7f
        E 0 90 3c 7f
        E 0 90 41 7f
        E 1920 80 38 00
        E 0 80 3c 00
        E 0 80 41 00
        E 480 90 35 7f
        E 0 90 3d 7f
        E 0 90 41 7f
        E 960 80 35 00
        E 0 80 3d 00
        E 0 80 41 00
        E 480 90 35 7f
        E 0 90 3d 7f
        E 0 90 41 7f
        E 1920 80 35 00
        E 0 80 3d 00
        E 0 80 41 00
        E 480 90 3a 7f
        E 0 90 3f 7f
        E 0 90 43 7f
        E 960 80 3a 00
        E 0 80 3f 00
        E 0 80 43 00
        E 480 90 3a 7f
        E 0 90 3f 7f
        E 0 90 43 7f
        E 1440 80 3a 00
        E 0 80 3f 00
        E 0 80 43 00
        E 0 90 3c 7f
        E 0 90 44 7f
        E 480 80 3c 00
        E 0 80 44 00
        E 0 90 3a 7f
        E 0 90 43 7f
        E 480 80 3a 00
        E 0 80 43 00
        E 0 90 38 7f
        E 0 90 3c 7f
        E 0 90 3f 7f
        E 960 80 38 00
        E 0 80 3c 00
        E 0 80 3f 00
        E 480 90 38 7f
        E 0 90 3c 7f
        E 0 90 3f 7f
        E 1920 80 38 00
        E 0 80 3c 00
        E 0 80 3f 00
        E 480 90 3a 7f
        E 0 90 3c 7f
        E 0 90 41 7f
        E 960 80 3a 00
        E 0 80 3c 00
        E 0 80 41 00
        E 480 90 3a 7f
        E 0 90 3c 7f
        E 0 90 41 7f
        E 1440 80 3a 00
        E 0 80 3c 00
        E 0 80 41 00
        E 0 90 37 7f
        E 0 90 3d 7f
        E 960 80 37 00
        E 0 80 3d 00
        E 0 90 37 7f
        E 0 90 35 7f
        E 0 90 3c 7f
        E 960 80 37 00
        E 0 80 35 00
        E 0 80 3c 00
        E 480 90 37 7f
        E 0 90 35 7f
        E 0 90 3c 7f
        E 1920 80 37 00
        E 0 80 35 00
        E 0 80 3c 00
        E 480 90 3a 7f
        E 0 90 3f 7f
        E 0 90 43 7f
        E 960 80 3a 00
        E 0 80 3f 00
        E 0 80 43 00
        E 480 90 3a 7f
        E 0 90 3f 7f
        E 0 90 43 7f
        E 1440 80 3a 00
        E 0 80 3f 00
        E 0 80 43 00
        E 0 90 37 7f
        E 0 90 3c 7f
        E 877 80 37 00
        E 0 80 3c 00
        E 0 90 37 7f
        E 0 90 3c 7f
        E 83 80 37 00
        E 0 80 3c 00
        E 0 90 38 7f
        E 0 90 3c 7f
        E 0 90 3f 7f
        E 960 80 38 00
        E 0 80 3c 00
        E 0 80 3f 00
        E 480 90 38 7f
        E 0 90 3c 7f
        E 0 90 3f 7f
        E 1920 80 38 00
        E 0 80 3c 00
        E 0 80 3f 00
        E 480 90 38 7f
        E 0 90 3c 7f
        E 0 90 41 7f
        E 960 80 38 00
        E 0 80 3c 00
        E 0 80 41 00
        E 480 90 38 7f
        E 0 90 3c 7f
        E 0 90 41 7f
        E 1920 80 38 00
        E 0 80 3c 00
        E 0 80 41 00
        E 480 90 35 7f
        E 0 90 3d 7f
        E 0 90 41 7f
        E 960 80 35 00
        E 0 80 3d 00
        E 0 80 41 00
        E 480 90 35 7f
        E 0 90 3d 7f
        E 0 90 41 7f
        E 1920 80 35 00
        E 0 80 3d 00
        E 0 80 41 00
        E 480 90 3a 7f
        E 0 90 3f 7f
        E 0 90 43 7f
        E 960 80 3a 00
        E 0 80 3f 00
        E 0 80 43 00
        E 480 90 3a 7f
        E 0 90 3f 7f
        E 0 90 43 7f
        E 1440 80 3a 00
        E 0 80 3f 00
        E 0 80 43 00
        E 0 90 3c 7f
        E 0 90 44 7f
        E 480 80 3c 00
        E 0 80 44 00
        E 0 90 3a 7f
        E 0 90 43 7f
        E 480 80 3a 00
        E 0 80 43 00
        E 0 90 38 7f
        E 0 90 3c 7f
        E 0 90 3f 7f
        E 960 80 38 00
        E 0 80 3c 00
        E 0 80 3f 00
        E 480 90 38 7f
        E 0 90 3c 7f
        E 0 90 3f 7f
        E 1920 80 38 00
        E 0 80 3c 00
        E 0 80 3f 00
        E 480 90 3a 7f
        E 0 90 3c 7f
        E 0 90 41 7f
        E 960 80 3a 00
        E 0 80 3c 00
        E 0 80 41 00
        E 480 90 3a 7f
        E 0 90 3c 7f
        E 0 90 41 7f
        E 1440 80 3a 00
        E 0 80 3c 00
        E 0 80 41 00
        E 0 90 37 7f
        E 0 90 3d 7f
        E 960 80 37 00
        E 0 80 3d 00
        E 0 90 37 7f
        E 0 90 35 7f
        E 0 90 3c 7f
        E 960 80 37 00
        E 0 80 35 00
        E 0 80 3c 00
        E 480 90 37 7f
        E 0 90 35 7f
        E 0 90 3c 7f
        E 1920 80 37 00
        E 0 80 35 00
        E 0 80 3c 00
        E 480 90 3a 7f
        E 0 90 3f 7f
        E 0 90 43 7f
        E 960 80 3a 00
        E 0 80 3f 00
        E 0 80 43 00
        E 480 90 3a 7f
        E 0 90 3f 7f
        E 0 90 43 7f
        E 1440 80 3a 00
        E 0 80 3f 00
        E 0 80 43 00
        E 0 90 37 7f
        E 0 90 3c 7f
        E 960 80 37 00
        E 0 80 3c 00
        E 0 90 38 6c
        E 0 90 3c 6c
        E 0 90 3f 6c
        E 3840 80 38 00
        E 0 80 3c 00
        E 0 80 3f 00
        E 0 90 38 6c
        E 0 90 3c 6c
        E 0 90 41 6c
        E 3840 80 38 00
        E 0 80 3c 00
        E 0 80 41 00
        E 0 90 35 6c
        E 0 90 3d 6c
        E 0 90 41 6c
        E 3840 80 35 00
        E 0 80 3d 00
        E 0 80 41 00
        E 0 90 3a 6c
        E 0 90 3f 6c
        E 0 90 43 6c
        E 3840 80 3a 00
        E 0 80 3f 00
        E 0 80 43 00
        E 0 90 38 6c
        E 0 90 3c 6c
        E 0 90 3f 6c
        E 3840 80 38 00
        E 0 80 3c 00
        E 0 80 3f 00
        E 0 90 3a 6c
        E 0 90 3c 6c
        E 0 90 41 6c
        E 3840 80 3a 00
        E 0 80 3c 00
        E 0 80 41 00
        E 0 90 37 6c
        E 0 90 35 6c
        E 0 90 3c 6c
        E 3840 80 37 00
        E 0 80 35 00
        E 0 80 3c 00
        E 0 90 3a 6c
        E 0 90 3f 6c
        E 0 90 43 6c
        E 3840 80 3a 00
        E 0 80 3f 00
        E 0 80 43 00
        E 0 90 38 67
        E 0 90 3c 67
        E 0 90 3f 67
        E 3840 80 38 00
        E 0 80 3c 00
        E 0 80 3f 00
        E 0 90 38 67
        E 0 90 3c 67
        E 0 90 41 67
        E 3840 80 38 00
        E 0 80 3c 00
        E 0 80 41 00
        E 0 90 35 67
        E 0 90 3d 67
        E 0 90 41 67
        E 3840 80 35 00
        E 0 80 3d 00
        E 0 80 41 00
        E 0 90 3a 67
        E 0 90 3f 67
        E 0 90 43 67
        E 3840 80 3a 00
        E 0 80 3f 00
        E 0 80 43 00
        E 0 90 38 67
        E 0 90 3c 67
        E 0 90 3f 67
        E 3840 80 38 00
        E 0 80 3c 00
        E 0 80 3f 00
        E 0 90 3a 67
        E 0 90 3c 67
        E 0 90 41 67
        E 3840 80 3a 00
        E 0 80 3c 00
        E 0 80 41 00
        E 0 90 37 67
        E 0 90 35 67
        E 0 90 3c 67
        E 3840 80 37 00
        E 0 80 35 00
        E 0 80 3c 00
        E 0 90 3a 67
        E 0 90 3f 67
        E 0 90 43 67
        E 3840 80 3a 00
        E 0 80 3f 00
        E 0 80 43 00
        E 0 90 38 7f
        E 0 90 3c 7f
        E 0 90 3f 7f
        E 960 80 38 00
        E 0 80 3c 00
        E 0 80 3f 00
        E 480 90 38 7f
        E 0 90 3c 7f
        E 0 90 3f 7f
        E 1920 80 38 00
        E 0 80 3c 00
        E 0 80 3f 00
        E 480 90 38 7f
        E 0 90 3c 7f
        E 0 90 41 7f
        E 960 80 38 00
        E 0 80 3c 00
        E 0 80 41 00
        E 480 90 38 7f
        E 0 90 3c 7f
        E 0 90 41 7f
        E 1920 80 38 00
        E 0 80 3c 00
        E 0 80 41 00
        E 480 90 35 7f
        E 0 90 3d 7f
        E 0 90 41 7f
        E 960 80 35 00
        E 0 80 3d 00
        E 0 80 41 00
        E 480 90 35 7f
        E 0 90 3d 7f
        E 0 90 41 7f
        E 1920 80 35 00
        E 0 80 3d 00
        E 0 80 41 00
        E 480 90 3a 7f
        E 0 90 3f 7f
        E 0 90 43 7f
        E 960 80 3a 00
        E 0 80 3f 00
        E 0 80 43 00
        E 480 90 3a 7f
        E 0 90 3f 7f
        E 0 90 43 7f
        E 1440 80 3a 00
        E 0 80 3f 00
        E 0 80 43 00
        E 0 90 3c 7f
        E 0 90 44 7f
        E 480 80 3c 00
        E 0 80 44 00
        E 0 90 3a 7f
        E 0 90 43 7f
        E 480 80 3a 00
        E 0 80 43 00
        E 0 90 38 7f
        E 0 90 3c 7f
        E 0 90 3f 7f
        E 960 80 38 00
        E 0 80 3c 00
        E 0 80 3f 00
        E 480 90 38 7f
        E 0 90 3c 7f
        E 0 90 3f 7f
        E 1920 80 38 00
        E 0 80 3c 00
        E 0 80 3f 00
        E 480 90 3a 7f
        E 0 90 3c 7f
        E 0 90 41 7f
        E 960 80 3a 00
        E 0 80 3c 00
        E 0 80 41 00
        E 480 90 3a 7f
        E 0 90 3c 7f
        E 0 90 41 7f
        E 1440 80 3a 00
        E 0 80 3c 00
        E 0 80 41 00
        E 0 90 37 7f
        E 0 90 3d 7f
        E 960 80 37 00
        E 0 80 3d 00
        E 0 90 37 7f
        E 0 90 35 7f
        E 0 90 3c 7f
        E 960 80 37 00
        E 0 80 35 00
        E 0 80 3c 00
        E 480 90 37 7f
        E 0 90 35 7f
        E 0 90 3c 7f
        E 1920 80 37 00
        E 0 80 35 00
        E 0 80 3c 00
        E 480 90 3a 7f
        E 0 90 3f 7f
        E 0 90 43 7f
        E 960 80 3a 00
        E 0 80 3f 00
        E 0 80 43 00
        E 480 90 3a 7f
        E 0 90 3f 7f
        E 0 90 43 7f
        E 1440 80 3a 00
        E 0 80 3f 00
        E 0 80 43 00
        E 0 90 37 7f
        E 0 90 3c 7f
        E 960 80 37 00
        E 0 80 3c 00
        E 0 90 38 7f
        E 0 90 3c 7f
        E 0 90 3f 7f
        E 960 80 38 00
        E 0 80 3c 00
        E 0 80 3f 00
        E 480 90 38 7f
        E 0 90 3c 7f
        E 0 90 3f 7f
        E 1920 80 38 00
        E 0 80 3c 00
        E 0 80 3f 00
        E 480 90 38 7f
        E 0 90 3c 7f
        E 0 90 41 7f
        E 960 80 38 00
        E 0 80 3c 00
        E 0 80 41 00
        E 480 90 38 7f
        E 0 90 3c 7f
        E 0 90 41 7f
        E 1920 80 38 00
        E 0 80 3c 00
        E 0 80 41 00
        E 480 90 35 7f
        E 0 90 3d 7f
        E 0 90 41 7f
        E 960 80 35 00
        E 0 80 3d 00
        E 0 80 41 00
        E 480 90 35 7f
        E 0 90 3d 7f
        E 0 90 41 7f
        E 1920 80 35 00
        E 0 80 3d 00
        E 0 80 41 00
        E 480 90 3a 7f
        E 0 90 3f 7f
        E 0 90 43 7f
        E 960 80 3a 00
        E 0 80 3f 00
        E 0 80 43 00
        E 480 90 3a 7f
        E 0 90 3f 7f
        E 0 90 43 7f
        E 1440 80 3a 00
        E 0 80 3f 00
        E 0 80 43 00
        E 0 90 3c 7f
        E 0 90 44 7f
        E 480 80 3c 00
        E 0 80 44 00
        E 0 90 3a 7f
        E 0 90 43 7f
        E 480 80 3a 00
        E 0 80 43 00
        E 0 90 38 7f
        E 0 90 3c 7f
        E 0 90 3f 7f
        E 960 80 38 00
        E 0 80 3c 00
        E 0 80 3f 00
        E 480 90 38 7f
        E 0 90 3c 7f
        E 0 90 3f 7f
        E 1920 80 38 00
        E 0 80 3c 00
        E 0 80 3f 00
        E 480 90 3a 7f
        E 0 90 3c 7f
        E 0 90 41 7f
        E 960 80 3a 00
        E 0 80 3c 00
        E 0 80 41 00
        E 480 90 3a 7f
        E 0 90 3c 7f
        E 0 90 41 7f
        E 1440 80 3a 00
        E 0 80 3c 00
        E 0 80 41 00
        E 0 90 37 7f
        E 0 90 3d 7f
        E 960 80 37 00
        E 0 80 3d 00
        E 0 90 37 7f
        E 0 90 35 7f
        E 0 90 3c 7f
        E 960 80 37 00
        E 0 80 35 00
        E 0 80 3c 00
        E 480 90 37 7f
        E 0 90 35 7f
        E 0 90 3c 7f
        E 1920 80 37 00
        E 0 80 35 00
        E 0 80 3c 00
        E 480 90 3a 7f
        E 0 90 3f 7f
        E 0 90 43 7f
        E 960 80 3a 00
        E 0 80 3f 00
        E 0 80 43 00
        E 480 90 3a 7f
        E 0 90 3f 7f
        E 0 90 43 7f
        E 1440 80 3a 00
        E 0 80 3f 00
        E 0 80 43 00
        E 0 90 37 7f
        E 0 90 3c 7f
        E 960 80 37 00
        E 0 80 3c 00
        E 0 90 38 7f
        E 0 90 3c 7f
        E 0 90 3f 7f
        E 960 80 38 00
        E 0 80 3c 00
        E 0 80 3f 00
        E 480 90 38 7f
        E 0 90 3c 7f
        E 0 90 3f 7f
        E 1920 80 38 00
        E 0 80 3c 00
        E 0 80 3f 00
        E 480 90 38 7f
        E 0 90 3c 7f
        E 0 90 41 7f
        E 960 80 38 00
        E 0 80 3c 00
        E 0 80 41 00
        E 480 90 38 7f
        E 0 90 3c 7f
        E 0 90 41 7f
        E 1920 80 38 00
        E 0 80 3c 00
        E 0 80 41 00
        E 480 90 35 7f
        E 0 90 3d 7f
        E 0 90 41 7f
        E 960 80 35 00
        E 0 80 3d 00
        E 0 80 41 00
        E 480 90 35 7f
        E 0 90 3d 7f
        E 0 90 41 7f
        E 1920 80 35 00
        E 0 80 3d 00
        E 0 80 41 00
        E 480 90 3a 7f
        E 0 90 3f 7f
        E 0 90 43 7f
        E 960 80 3a 00
        E 0 80 3f 00
        E 0 80 43 00
        E 480 90 3a 7f
        E 0 90 3f 7f
        E 0 90 43 7f
        E 1440 80 3a 00
        E 0 80 3f 00
        E 0 80 43 00
        E 0 90 3c 7f
        E 0 90 44 7f
        E 480 80 3c 00
        E 0 80 44 00
        E 0 90 3a 7f
        E 0 90 43 7f
        E 480 80 3a 00
        E 0 80 43 00
        E 0 90 38 7f
        E 0 90 3c 7f
        E 0 90 3f 7f
        E 960 80 38 00
        E 0 80 3c 00
        E 0 80 3f 00
        E 480 90 38 7f
        E 0 90 3c 7f
        E 0 90 3f 7f
        E 1920 80 38 00
        E 0 80 3c 00
        E 0 80 3f 00
        E 480 90 3a 7f
        E 0 90 3c 7f
        E 0 90 41 7f
        E 960 80 3a 00
        E 0 80 3c 00
        E 0 80 41 00
        E 480 90 3a 7f
        E 0 90 3c 7f
        E 0 90 41 7f
        E 1440 80 3a 00
        E 0 80 3c 00
        E 0 80 41 00
        E 0 90 37 7f
        E 0 90 3d 7f
        E 960 80 37 00
        E 0 80 3d 00
        E 0 90 37 7f
        E 0 90 35 7f
        E 0 90 3c 7f
        E 960 80 37 00
        E 0 80 35 00
        E 0 80 3c 00
        E 480 90 37 7f
        E 0 90 35 7f
        E 0 90 3c 7f
        E 1920 80 37 00
        E 0 80 35 00
        E 0 80 3c 00
        E 480 90 3a 7f
        E 0 90 3f 7f
        E 0 90 43 7f
        E 960 80 3a 00
        E 0 80 3f 00
        E 0 80 43 00
        E 480 90 3a 7f
        E 0 90 3f 7f
        E 0 90 43 7f
        E 1440 80 3a 00
        E 0 80 3f 00
        E 0 80 43 00
        E 0 90 37 7f
        E 0 90 3c 7f
        E 960 80 37 00
        E 0 80 3c 00
        E 30720 90 38 01
        E 0 90 3c 01
        E 0 90 3f 01
        E 3840 80 38 00
        E 0 80 3c 00
        E 0 80 3f 00
        E 0 90 38 17
        E 0 90 3c 17
        E 0 90 41 17
        E 3840 80 38 00
        E 0 80 3c 00
        E 0 80 41 00
        E 0 90 35 2b
        E 0 90 3d 2b
        E 0 90 41 2b
        E 3840 80 35 00
        E 0 80 3d 00
        E 0 80 41 00
        E 0 90 3a 3e
        E 0 90 3f 3e
        E 0 90 43 3e
        E 3840 80 3a 00
        E 0 80 3f 00
        E 0 80 43 00
        E 0 90 38 5c
        E 0 90 3c 5c
        E 0 90 3f 5c
        E 3840 80 38 00
        E 0 80 3c 00
        E 0 80 3f 00
        E 0 90 3a 67
        E 0 90 3c 67
        E 0 90 41 67
        E 3840 80 3a 00
        E 0 80 3c 00
        E 0 80 41 00
        E 0 90 37 70
        E 0 90 35 70
        E 0 90 3c 70
        E 3840 80 37 00
        E 0 80 35 00
        E 0 80 3c 00
        E 0 90 3a 7c
        E 0 90 3f 7c
        E 0 90 43 7c
        E 3840 80 3a 00
        E 0 80 3f 00
        E 0 80 43 00
        E 0 90 38 7e
        E 0 90 3c 7e
        E 0 90 3f 7e
        E 3840 80 38 00
        E 0 80 3c 00
        E 0 80 3f 00
        E 0 90 38 7f
        E 0 90 3c 7f
        E 0 90 41 7f
        E 3840 80 38 00
        E 0 80 3c 00
        E 0 80 41 00
        E 0 90 35 7f
        E 0 90 3d 7f
        E 0 90 41 7f
        E 3840 80 35 00
        E 0 80 3d 00
        E 0 80 41 00
        E 0 90 3a 7f
        E 0 90 3f 7f
        E 0 90 43 7f
        E 3840 80 3a 00
        E 0 80 3f 00
        E 0 80 43 00
        E 0 90 38 7f
        E 0 90 3c 7f
        E 0 90 3f 7f
        E 3840 80 38 00
        E 0 80 3c 00
        E 0 80 3f 00
        E 0 90 3a 7f
        E 0 90 3c 7f
        E 0 90 41 7f
        E 3840 80 3a 00
        E 0 80 3c 00
        E 0 80 41 00
        E 0 90 37 7f
        E 0 90 35 7f
        E 0 90 3c 7f
        E 3840 80 37 00
        E 0 80 35 00
        E 0 80 3c 00
        E 0 90 3a 7f
        E 0 90 3f 7f
        E 0 90 43 7f
        E 2880 80 3a 00
        E 0 80 3f 00
        E 0 80 43 00
        E 0 90 37 7f
        E 0 90 3c 7f
        E 960 80 37 00
        E 0 80 3c 00
        E 28800 90 3f 7f
        E 0 90 48 7f
        E 0 90 44 7f
        E 480 80 3f 00
        E 0 80 48 00
        E 0 80 44 00
        E 0 90 44 7f
        E 0 90 48 7f
        E 0 90 3f 7f
        E 480 80 44 00
        E 0 80 48 00
        E 0 80 3f 00
        E 0 90 44 7f
        E 0 90 48 7f
        E 0 90 3f 7f
        E 480 80 44 00
        E 0 80 48 00
        E 0 80 3f 00
        E 0 90 44 7f
        E 0 90 48 7f
        E 0 90 3f 7f
        E 480 80 44 00
        E 0 80 48 00
        E 0 80 3f 00
        E 0 90 38 7f
        E 0 90 3c 7f
        E 0 90 3f 7f
        E 0 90 43 7f
        E 480 80 3c 00
        E 0 90 3c 7f
        E 480 80 3c 00
        E 0 90 3c 7f
        E 480 80 38 00
        E 0 80 3f 00
        E 0 80 43 00
        E 0 80 3c 00
        E 0 90 3f 7f
        E 0 90 43 7f
        E 0 90 38 7f
        E 0 90 3c 7f
        E 480 80 3f 00
        E 0 90 3f 7f
        E 480 80 43 00
        E 0 80 3f 00
        E 0 90 43 7f
        E 0 90 3f 7f
        E 480 80 38 00
        E 0 80 3c 00
        E 0 80 43 00
        E 0 80 3f 00
        E 0 90 43 7f
        E 0 90 38 7f
        E 0 90 3c 7f
        E 0 90 3f 7f
        E 480 80 43 00
        E 0 90 43 7f
        E 480 80 38 00
        E 0 80 3c 00
        E 0 80 3f 00
        E 0 80 43 00
        E 0 90 3c 7f
        E 0 90 44 7f
        E 0 90 3f 7f
        E 480 80 3f 00
        E 0 90 3f 7f
        E 480 80 3c 00
        E 0 80 44 00
        E 0 80 3f 00
        E 0 90 3c 7f
        E 0 90 44 7f
        E 0 90 3f 7f
        E 480 80 3c 00
        E 0 80 44 00
        E 0 80 3f 00
        E 0 90 44 7f
        E 0 90 3f 7f
        E 0 90 3c 7f
        E 480 80 3f 00
        E 0 90 3f 7f
        E 480 80 44 00
        E 0 80 3c 00
        E 0 80 3f 00
        E 0 90 3e 7f
        E 0 90 43 7f
        E 0 90 3a 7f
        E 480 80 3e 00
        E 0 80 43 00
        E 0 80 3a 00
        E 0 90 3e 7f
        E 0 90 3a 7f
        E 0 90 43 7f
        E 480 80 43 00
        E 0 90 43 7f
        E 480 80 3e 00
        E 0 80 3a 00
        E 0 80 43 00
        E 0 90 37 7f
        E 0 90 3a 7f
        E 0 90 3d 7f
        E 0 90 41 7f
        E 480 80 3a 00
        E 0 90 3a 7f
        E 480 80 37 00
        E 0 80 3d 00
        E 0 80 41 00
        E 0 80 3a 00
        E 0 90 3d 7f
        E 0 90 41 7f
        E 0 90 37 7f
        E 0 90 3a 7f
        E 480 80 3d 00
        E 0 80 41 00
        E 0 80 37 00
        E 0 80 3a 00
        E 0 90 3d 7f
        E 0 90 41 7f
        E 0 90 37 7f
        E 0 90 3a 7f
        E 480 80 3d 00
        E 0 90 3d 7f
        E 480 80 41 00
        E 0 80 3d 00
        E 0 90 41 7f
        E 0 90 3d 7f
        E 480 80 37 00
        E 0 80 3a 00
        E 0 80 41 00
        E 0 80 3d 00
        E 0 90 41 7f
        E 0 90 37 7f
        E 0 90 3a 7f
        E 0 90 3d 7f
        E 480 80 41 00
        E 0 90 41 7f
        E 480 80 37 00
        E 0 80 3a 00
        E 0 80 3d 00
        E 0 80 41 00
        E 0 90 44 7f
        e 0 90 48 7f
        E 0 90 3f 7f
        E 480 80 3f 00
        E 0 90 3f 7f
        E 480 80 44 00
        e 0 80 48 00
        E 0 80 3f 00
        E 0 90 44 7f
        e 0 90 48 7f
        E 0 90 3f 7f
        E 480 80 44 00
        e 0 80 48 00
        E 0 80 3f 00
        e 0 90 48 7f
        E 0 90 3f 7f
        E 0 90 44 7f
        E 480 80 44 00
        E 0 90 44 7f
        e 480 80 48 00
        E 0 80 3f 00
        E 0 80 44 00
        E 0 90 44 7f
        e 0 90 48 7f
        E 0 90 3f 7f
        E 480 80 44 00
        e 0 80 48 00
        E 0 80 3f 00
        E 0 90 44 7f
        e 0 90 48 7f
        E 0 90 3f 7f
        E 480 80 44 00
        e 0 80 48 00
        E 0 80 3f 00
        E 0 90 44 7f
        e 0 90 48 7f
        E 0 90 3f 7f
        E 480 80 44 00
        e 0 80 48 00
        E 0 80 3f 00
        E 0 90 38 7f
        E 0 90 3c 7f
        E 0 90 3f 7f
        E 0 90 43 7f
        E 480 80 3c 00
        E 0 90 3c 7f
        E 480 80 3c 00
        E 0 90 3c 7f
        E 480 80 38 00
        E 0 80 3f 00
        E 0 80 43 00
        E 0 80 3c 00
        E 0 90 3f 7f
        E 0 90 43 7f
        E 0 90 38 7f
        E 0 90 3c 7f
        E 480 80 3f 00
        E 0 90 3f 7f
        E 480 80 43 00
        E 0 80 3f 00
        E 0 90 43 7f
        E 0 90 3f 7f
        E 480 80 38 00
        E 0 80 3c 00
        E 0 80 43 00
        E 0 80 3f 00
        E 0 90 43 7f
        E 0 90 38 7f
        E 0 90 3c 7f
        E 0 90 3f 7f
        E 480 80 43 00
        E 0 90 43 7f
        E 480 80 38 00
        E 0 80 3c 00
        E 0 80 3f 00
        E 0 80 43 00
        E 0 90 3c 7f
        E 0 90 44 7f
        E 0 90 3f 7f
        E 480 80 3f 00
        E 0 90 3f 7f
        E 480 80 3c 00
        E 0 80 44 00
        E 0 80 3f 00
        E 0 90 3c 7f
        E 0 90 44 7f
        E 0 90 3f 7f
        E 480 80 3c 00
        E 0 80 44 00
        E 0 80 3f 00
        E 0 90 44 7f
        E 0 90 3f 7f
        E 0 90 3c 7f
        E 480 80 3f 00
        E 0 90 3f 7f
        E 480 80 44 00
        E 0 80 3c 00
        E 0 80 3f 00
        E 0 90 3e 7f
        E 0 90 43 7f
        E 0 90 3a 7f
        E 480 80 3e 00
        E 0 80 43 00
        E 0 80 3a 00
        E 0 90 3e 7f
        E 0 90 3a 7f
        E 0 90 43 7f
        E 480 80 43 00
        E 0 90 43 7f
        E 480 80 3e 00
        E 0 80 3a 00
        E 0 80 43 00
        E 0 90 37 7f
        E 0 90 3a 7f
        E 0 90 3d 7f
        E 0 90 41 7f
        E 480 80 3a 00
        E 0 90 3a 7f
        E 480 80 37 00
        E 0 80 3d 00
        E 0 80 41 00
        E 0 80 3a 00
        E 0 90 3d 7f
        E 0 90 41 7f
        E 0 90 37 7f
        E 0 90 3a 7f
        E 480 80 3d 00
        E 0 80 41 00
        E 0 80 37 00
        E 0 80 3a 00
        E 0 90 3d 7f
        E 0 90 41 7f
        E 0 90 37 7f
        E 0 90 3a 7f
        E 480 80 3d 00
        E 0 90 3d 7f
        E 480 80 41 00
        E 0 80 3d 00
        E 0 90 41 7f
        E 0 90 3d 7f
        E 480 80 37 00
        E 0 80 3a 00
        E 0 80 41 00
        E 0 80 3d 00
        E 0 90 41 7f
        E 0 90 37 7f
        E 0 90 3a 7f
        E 0 90 3d 7f
        E 480 80 41 00
        E 0 90 41 7f
        E 480 80 37 00
        E 0 80 3a 00
        E 0 80 3d 00
        E 0 80 41 00
        E 0 90 44 7f
        E 0 90 48 7f
        E 0 90 3f 7f
        E 480 80 3f 00
        E 0 90 3f 7f
        E 480 80 44 00
        E 0 80 48 00
        E 0 80 3f 00
        E 0 90 44 7f
        E 0 90 48 7f
        E 0 90 3f 7f
        E 480 80 44 00
        E 0 80 48 00
        E 0 80 3f 00
        E 0 90 48 7f
        E 0 90 3f 7f
        E 0 90 44 7f
        E 480 80 44 00
        E 0 90 44 7f
        E 480 80 48 00
        E 0 80 3f 00
        E 0 80 44 00
        E 0 90 44 7f
        E 0 90 48 7f
        E 0 90 3f 7f
        E 480 80 44 00
        E 0 80 48 00
        E 0 80 3f 00
        E 0 90 44 7f
        E 0 90 48 7f
        E 0 90 3f 7f
        E 480 80 44 00
        E 0 80 48 00
        E 0 80 3f 00
        E 0 90 44 7f
        E 0 90 48 7f
        E 0 90 3f 7f
        E 480 80 44 00
        E 0 80 48 00
        E 0 80 3f 00
        E 0 90 38 7f
        E 0 90 3c 7f
        E 0 90 3f 7f
        E 0 90 43 7f
        E 480 80 3c 00
        E 0 90 3c 7f
        E 480 80 3c 00
        E 0 90 3c 7f
        E 480 80 38 00
        E 0 80 3f 00
        E 0 80 43 00
        E 0 80 3c 00
        E 0 90 3f 7f
        E 0 90 43 7f
        E 0 90 38 7f
        E 0 90 3c 7f
        E 480 80 3f 00
        E 0 90 3f 7f
        E 480 80 43 00
        E 0 80 3f 00
        E 0 90 43 7f
        E 0 90 3f 7f
        E 480 80 38 00
        E 0 80 3c 00
        E 0 80 43 00
        E 0 80 3f 00
        E 0 90 43 7f
        E 0 90 38 7f
        E 0 90 3c 7f
        E 0 90 3f 7f
        E 480 80 43 00
        E 0 90 43 7f
        E 480 80 38 00
        E 0 80 3c 00
        E 0 80 3f 00
        E 0 80 43 00
        E 0 90 3c 7f
        E 0 90 44 7f
        E 0 90 3f 7f
        E 480 80 3f 00
        E 0 90 3f 7f
        E 480 80 3c 00
        E 0 80 44 00
        E 0 80 3f 00
        E 0 90 3c 7f
        E 0 90 44 7f
        E 0 90 3f 7f
        E 480 80 3c 00
        E 0 80 44 00
        E 0 80 3f 00
        E 0 90 44 7f
        E 0 90 3f 7f
        E 0 90 3c 7f
        E 480 80 3f 00
        E 0 90 3f 7f
        E 480 80 44 00
        E 0 80 3c 00
        E 0 80 3f 00
        E 0 90 3e 7f
        E 0 90 43 7f
        E 0 90 3a 7f
        E 480 80 3e 00
        E 0 80 43 00
        E 0 80 3a 00
        E 0 90 3e 7f
        E 0 90 3a 7f
        E 0 90 43 7f
        E 480 80 43 00
        E 0 90 43 7f
        E 480 80 3e 00
        E 0 80 3a 00
        E 0 80 43 00
        E 0 90 37 7f
        E 0 90 3a 7f
        E 0 90 3d 7f
        E 0 90 41 7f
        E 480 80 3a 00
        E 0 90 3a 7f
        E 480 80 37 00
        E 0 80 3d 00
        E 0 80 41 00
        E 0 80 3a 00
        E 0 90 3d 7f
        E 0 90 41 7f
        E 0 90 37 7f
        E 0 90 3a 7f
        E 480 80 3d 00
        E 0 80 41 00
        E 0 80 37 00
        E 0 80 3a 00
        E 0 90 3d 7f
        E 0 90 41 7f
        E 0 90 37 7f
        E 0 90 3a 7f
        E 480 80 3d 00
        E 0 90 3d 7f
        E 480 80 41 00
        E 0 80 3d 00
        E 0 90 41 7f
        E 0 90 3d 7f
        E 480 80 37 00
        E 0 80 3a 00
        E 0 80 41 00
        E 0 80 3d 00
        E 0 90 41 7f
        E 0 90 37 7f
        E 0 90 3a 7f
        E 0 90 3d 7f
        E 480 80 41 00
        E 0 90 41 7f
        E 480 80 37 00
        E 0 80 3a 00
        E 0 80 3d 00
        E 0 80 41 00
        E 0 90 44 7f
        E 0 90 48 7f
        E 0 90 3f 7f
        E 480 80 3f 00
        E 0 90 3f 7f
        E 480 80 44 00
        E 0 80 48 00
        E 0 80 3f 00
        E 0 90 44 7f
        E 0 90 48 7f
        E 0 90 3f 7f
        E 480 80 44 00
        E 0 80 48 00
        E 0 80 3f 00
        E 0 90 48 7f
        E 0 90 3f 7f
        E 0 90 44 7f
        E 480 80 44 00
        E 0 90 44 7f
        E 480 80 48 00
        E 0 80 3f 00
        E 0 80 44 00
        E 0 90 44 7f
        E 0 90 48 7f
        E 0 90 3f 7f
        E 480 80 44 00
        E 0 80 48 00
        E 0 80 3f 00
        E 0 90 44 7f
        E 0 90 48 7f
        E 0 90 3f 7f
        E 480 80 44 00
        E 0 80 48 00
        E 0 80 3f 00
        E 0 90 44 7f
        E 0 90 48 7f
        E 0 90 3f 7f
        E 480 80 44 00
        E 0 80 48 00
        E 0 80 3f 00
        E 0 90 38 7f
        E 0 90 3c 7f
        E 0 90 3f 7f
        E 0 90 43 7f
        E 480 80 3c 00
        E 0 90 3c 7f
        E 480 80 3c 00
        E 0 90 3c 7f
        E 480 80 38 00
        E 0 80 3f 00
        E 0 80 43 00
        E 0 80 3c 00
        E 0 90 3f 7f
        E 0 90 43 7f
        E 0 90 38 7f
        E 0 90 3c 7f
        E 480 80 3f 00
        E 0 90 3f 7f
        E 480 80 43 00
        E 0 80 3f 00
        E 0 90 43 7f
        E 0 90 3f 7f
        E 480 80 38 00
        E 0 80 3c 00
        E 0 80 43 00
        E 0 80 3f 00
        E 0 90 43 7f
        E 0 90 38 7f
        E 0 90 3c 7f
        E 0 90 3f 7f
        E 480 80 43 00
        E 0 90 43 7f
        E 480 80 38 00
        E 0 80 3c 00
        E 0 80 3f 00
        E 0 80 43 00
        E 0 90 3c 7f
        E 0 90 44 7f
        E 0 90 3f 7f
        E 480 80 3f 00
        E 0 90 3f 7f
        E 480 80 3c 00
        E 0 80 44 00
        E 0 80 3f 00
        E 0 90 3c 7f
        E 0 90 44 7f
        E 0 90 3f 7f
        E 480 80 3c 00
        E 0 80 44 00
        E 0 80 3f 00
        E 0 90 44 7f
        E 0 90 3f 7f
        E 0 90 3c 7f
        E 480 80 3f 00
        E 0 90 3f 7f
        E 480 80 44 00
        E 0 80 3c 00
        E 0 80 3f 00
        E 0 90 3e 7f
        E 0 90 43 7f
        E 0 90 3a 7f
        E 480 80 3e 00
        E 0 80 43 00
        E 0 80 3a 00
        E 0 90 3e 7f
        E 0 90 3a 7f
        E 0 90 43 7f
        E 480 80 43 00
        E 0 90 43 7f
        E 480 80 3e 00
        E 0 80 3a 00
        E 0 80 43 00
        E 0 90 37 7f
        E 0 90 3a 7f
        E 0 90 3d 7f
        E 0 90 41 7f
        E 480 80 3a 00
        E 0 90 3a 7f
        E 480 80 37 00
        E 0 80 3d 00
        E 0 80 41 00
        E 0 80 3a 00
        E 0 90 3d 7f
        E 0 90 41 7f
        E 0 90 37 7f
        E 0 90 3a 7f
        E 480 80 3d 00
        E 0 80 41 00
        E 0 80 37 00
        E 0 80 3a 00
        E 0 90 3d 7f
        E 0 90 41 7f
        E 0 90 37 7f
        E 0 90 3a 7f
        E 480 80 3d 00
        E 0 90 3d 7f
        E 480 80 41 00
        E 0 80 3d 00
        E 0 90 41 7f
        E 0 90 3d 7f
        E 480 80 37 00
        E 0 80 3a 00
        E 0 80 41 00
        E 0 80 3d 00
        E 0 90 41 7f
        E 0 90 37 7f
        E 0 90 3a 7f
        E 0 90 3d 7f
        E 480 80 41 00
        E 0 90 41 7f
        E 480 80 37 00
        E 0 80 3a 00
        E 0 80 3d 00
        E 0 80 41 00
        E 0 90 44 7f
        E 0 90 48 7f
        E 0 90 3f 7f
        E 480 80 3f 00
        E 0 90 3f 7f
        E 480 80 44 00
        E 0 80 48 00
        E 0 80 3f 00
        E 0 90 44 7f
        E 0 90 48 7f
        E 0 90 3f 7f
        E 480 80 44 00
        E 0 80 48 00
        E 0 80 3f 00
        E 0 90 48 7f
        E 0 90 3f 7f
        E 0 90 44 7f
        E 480 80 44 00
        E 0 90 44 7f
        E 480 80 48 00
        E 0 80 3f 00
        E 0 80 44 00
        E 0 90 44 7f
        E 0 90 48 7f
        E 0 90 3f 7f
        E 480 80 44 00
        E 0 80 48 00
        E 0 80 3f 00
        E 0 90 44 7f
        E 0 90 48 7f
        E 0 90 3f 7f
        E 480 80 44 00
        E 0 80 48 00
        E 0 80 3f 00
        E 0 90 44 7f
        E 0 90 48 7f
        E 0 90 3f 7f
        E 480 80 44 00
        E 0 80 48 00
        E 0 80 3f 00
        E 0 90 38 7f
        E 0 90 3c 7f
        E 0 90 3f 7f
        E 0 90 43 7f
        E 480 80 3c 00
        E 0 90 3c 7f
        E 480 80 3c 00
        E 0 90 3c 7f
        E 480 80 38 00
        E 0 80 3f 00
        E 0 80 43 00
        E 0 80 3c 00
        E 0 90 3f 7f
        E 0 90 43 7f
        E 0 90 38 7f
        E 0 90 3c 7f
        E 480 80 3f 00
        E 0 90 3f 7f
        E 480 80 43 00
        E 0 80 3f 00
        E 0 90 43 7f
        E 0 90 3f 7f
        E 480 80 38 00
        E 0 80 3c 00
        E 0 80 43 00
        E 0 80 3f 00
        E 0 90 43 7f
        E 0 90 38 7f
        E 0 90 3c 7f
        E 0 90 3f 7f
        E 480 80 43 00
        E 0 90 43 7f
        E 480 80 38 00
        E 0 80 3c 00
        E 0 80 3f 00
        E 0 80 43 00
        E 0 90 3c 7f
        E 0 90 44 7f
        E 0 90 3f 7f
        E 480 80 3f 00
        E 0 90 3f 7f
        E 480 80 3c 00
        E 0 80 44 00
        E 0 80 3f 00
        E 0 90 3c 7f
        E 0 90 44 7f
        E 0 90 3f 7f
        E 480 80 3c 00
        E 0 80 44 00
        E 0 80 3f 00
        E 0 90 44 7f
        E 0 90 3f 7f
        E 0 90 3c 7f
        E 480 80 3f 00
        E 0 90 3f 7f
        E 480 80 44 00
        E 0 80 3c 00
        E 0 80 3f 00
        E 0 90 3e 7f
        E 0 90 43 7f
        E 0 90 3a 7f
        E 480 80 3e 00
        E 0 80 43 00
        E 0 80 3a 00
        E 0 90 3e 7f
        E 0 90 3a 7f
        E 0 90 43 7f
        E 480 80 43 00
        E 0 90 43 7f
        E 480 80 3e 00
        E 0 80 3a 00
        E 0 80 43 00
        E 0 90 37 7f
        E 0 90 3a 7f
        E 0 90 3d 7f
        E 0 90 41 7f
        E 480 80 3a 00
        E 0 90 3a 7f
        E 480 80 37 00
        E 0 80 3d 00
        E 0 80 41 00
        E 0 80 3a 00
        E 0 90 3d 7f
        E 0 90 41 7f
        E 0 90 37 7f
        E 0 90 3a 7f
        E 480 80 3d 00
        E 0 80 41 00
        E 0 80 37 00
        E 0 80 3a 00
        E 0 90 3d 7f
        E 0 90 41 7f
        E 0 90 37 7f
        E 0 90 3a 7f
        E 480 80 3d 00
        E 0 90 3d 7f
        E 480 80 41 00
        E 0 80 3d 00
        E 0 90 41 7f
        E 0 90 3d 7f
        E 480 80 37 00
        E 0 80 3a 00
        E 0 80 41 00
        E 0 80 3d 00
        E 0 90 41 7f
        E 0 90 37 7f
        E 0 90 3a 7f
        E 0 90 3d 7f
        E 480 80 41 00
        E 0 90 41 7f
        E 480 80 37 00
        E 0 80 3a 00
        E 0 80 3d 00
        E 0 80 41 00
        E 0 90 44 7f
        E 0 90 48 7f
        E 0 90 3f 7f
        E 480 80 3f 00
        E 0 90 3f 7f
        E 480 80 44 00
        E 0 80 48 00
        E 0 80 3f 00
        E 0 90 44 7f
        E 0 90 48 7f
        E 0 90 3f 7f
        E 480 80 44 00
        E 0 80 48 00
        E 0 80 3f 00
        E 0 90 48 7f
        E 0 90 3f 7f
        E 0 90 44 7f
        E 480 80 44 00
        E 0 90 44 7f
        E 480 80 48 00
        E 0 80 3f 00
        E 0 80 44 00
        E 0 90 44 7f
        E 0 90 48 7f
        E 0 90 3f 7f
        E 480 80 44 00
        E 0 80 48 00
        E 0 80 3f 00
        E 0 90 44 7f
        E 0 90 48 7f
        E 0 90 3f 7f
        E 480 80 44 00
        E 0 80 48 00
        E 0 80 3f 00
        E 0 90 44 7f
        E 0 90 48 7f
        E 0 90 3f 7f
        E 480 80 44 00
        E 0 80 48 00
        E 0 80 3f 00
        E 0 90 38 7f
        E 0 90 3c 7f
        E 0 90 3f 7f
        E 0 90 43 7f
        E 480 80 3c 00
        E 0 90 3c 7f
        E 480 80 3c 00
        E 0 90 3c 7f
        E 480 80 38 00
        E 0 80 3f 00
        E 0 80 43 00
        E 0 80 3c 00
        E 0 90 3f 7f
        E 0 90 43 7f
        E 0 90 38 7f
        E 0 90 3c 7f
        E 480 80 3f 00
        E 0 90 3f 7f
        E 480 80 43 00
        E 0 80 3f 00
        E 0 90 43 7f
        E 0 90 3f 7f
        E 480 80 38 00
        E 0 80 3c 00
        E 0 80 43 00
        E 0 80 3f 00
        E 0 90 43 7f
        E 0 90 38 7f
        E 0 90 3c 7f
        E 0 90 3f 7f
        E 480 80 43 00
        E 0 90 43 7f
        E 480 80 38 00
        E 0 80 3c 00
        E 0 80 3f 00
        E 0 80 43 00
        E 0 90 3c 7f
        E 0 90 44 7f
        E 0 90 3f 7f
        E 480 80 3f 00
        E 0 90 3f 7f
        E 480 80 3c 00
        E 0 80 44 00
        E 0 80 3f 00
        E 0 90 3c 7f
        E 0 90 44 7f
        E 0 90 3f 7f
        E 480 80 3c 00
        E 0 80 44 00
        E 0 80 3f 00
        E 0 90 44 7f
        E 0 90 3f 7f
        E 0 90 3c 7f
        E 480 80 3f 00
        E 0 90 3f 7f
        E 480 80 44 00
        E 0 80 3c 00
        E 0 80 3f 00
        E 0 90 3e 7f
        E 0 90 43 7f
        E 0 90 3a 7f
        E 480 80 3e 00
        E 0 80 43 00
        E 0 80 3a 00
        E 0 90 3e 7f
        E 0 90 3a 7f
        E 0 90 43 7f
        E 480 80 43 00
        E 0 90 43 7f
        E 480 80 3e 00
        E 0 80 3a 00
        E 0 80 43 00
        E 0 90 37 7f
        E 0 90 3a 7f
        E 0 90 3d 7f
        E 0 90 41 7f
        E 480 80 3a 00
        E 0 90 3a 7f
        E 480 80 37 00
        E 0 80 3d 00
        E 0 80 41 00
        E 0 80 3a 00
        E 0 90 3d 7f
        E 0 90 41 7f
        E 0 90 37 7f
        E 0 90 3a 7f
        E 480 80 3d 00
        E 0 80 41 00
        E 0 80 37 00
        E 0 80 3a 00
        E 0 90 3d 7f
        E 0 90 41 7f
        E 0 90 37 7f
        E 0 90 3a 7f
        E 480 80 3d 00
        E 0 90 3d 7f
        E 480 80 41 00
        E 0 80 3d 00
        E 0 90 41 7f
        E 0 90 3d 7f
        E 480 80 37 00
        E 0 80 3a 00
        E 0 80 41 00
        E 0 80 3d 00
        E 0 90 41 7f
        E 0 90 37 7f
        E 0 90 3a 7f
        E 0 90 3d 7f
        E 480 80 41 00
        E 0 90 41 7f
        E 480 80 37 00
        E 0 80 3a 00
        E 0 80 3d 00
        E 0 80 41 00
        E 0 90 44 7f
        E 0 90 48 7f
        E 0 90 3f 7f
        E 480 80 3f 00
        E 0 90 3f 7f
        E 480 80 44 00
        E 0 80 48 00
        E 0 80 3f 00
        E 0 90 44 7f
        E 0 90 48 7f
        E 0 90 3f 7f
        E 480 80 44 00
        E 0 80 48 00
        E 0 80 3f 00
        E 0 90 48 7f
        E 0 90 3f 7f
        E 0 90 44 7f
        E 480 80 44 00
        E 0 90 44 7f
        E 480 80 48 00
        E 0 80 3f 00
        E 0 80 44 00
        E 0 90 44 7f
        E 0 90 48 7f
        E 0 90 3f 7f
        E 480 80 44 00
        E 0 80 48 00
        E 0 80 3f 00
        E 0 90 44 7f
        E 0 90 48 7f
        E 0 90 3f 7f
        E 480 80 44 00
        E 0 80 48 00
        E 0 80 3f 00
        E 0 90 44 7f
        E 0 90 48 7f
        E 0 90 3f 7f
        E 480 80 44 00
        E 0 80 48 00
        E 0 80 3f 00
        E 0 90 38 7f
        E 0 90 3c 7f
        E 0 90 3f 7f
        E 960 80 38 00
        E 0 80 3c 00
        E 0 80 3f 00
        E 480 90 38 7f
        E 0 90 3c 7f
        E 0 90 3f 7f
        E 1920 80 38 00
        E 0 80 3c 00
        E 0 80 3f 00
        E 480 90 38 7f
        E 0 90 3c 7f
        E 0 90 41 7f
        E 960 80 38 00
        E 0 80 3c 00
        E 0 80 41 00
        E 480 90 38 7f
        E 0 90 3c 7f
        E 0 90 41 7f
        E 1920 80 38 00
        E 0 80 3c 00
        E 0 80 41 00
        E 480 90 35 7f
        E 0 90 3d 7f
        E 0 90 41 7f
        E 960 80 35 00
        E 0 80 3d 00
        E 0 80 41 00
        E 480 90 35 7f
        E 0 90 3d 7f
        E 0 90 41 7f
        E 1920 80 35 00
        E 0 80 3d 00
        E 0 80 41 00
        E 480 90 3a 7f
        E 0 90 3f 7f
        E 0 90 43 7f
        E 960 80 3a 00
        E 0 80 3f 00
        E 0 80 43 00
        E 480 90 3a 7f
        E 0 90 3f 7f
        E 0 90 43 7f
        E 1440 80 3a 00
        E 0 80 3f 00
        E 0 80 43 00
        E 0 90 3c 7f
        E 0 90 44 7f
        E 480 80 3c 00
        E 0 80 44 00
        E 0 90 3a 7f
        E 0 90 43 7f
        E 480 80 3a 00
        E 0 80 43 00
        E 0 90 38 7f
        E 0 90 3c 7f
        E 0 90 3f 7f
        E 960 80 38 00
        E 0 80 3c 00
        E 0 80 3f 00
        E 480 90 38 7f
        E 0 90 3c 7f
        E 0 90 3f 7f
        E 1920 80 38 00
        E 0 80 3c 00
        E 0 80 3f 00
        E 480 90 3a 7f
        E 0 90 3c 7f
        E 0 90 41 7f
        E 960 80 3a 00
        E 0 80 3c 00
        E 0 80 41 00
        E 480 90 3a 7f
        E 0 90 3c 7f
        E 0 90 41 7f
        E 1440 80 3a 00
        E 0 80 3c 00
        E 0 80 41 00
        E 0 90 37 7f
        E 0 90 3d 7f
        E 960 80 37 00
        E 0 80 3d 00
        E 0 90 37 7f
        E 0 90 35 7f
        E 0 90 3c 7f
        E 960 80 37 00
        E 0 80 35 00
        E 0 80 3c 00
        E 480 90 37 7f
        E 0 90 35 7f
        E 0 90 3c 7f
        E 1920 80 37 00
        E 0 80 35 00
        E 0 80 3c 00
        E 480 90 3a 7f
        E 0 90 3f 7f
        E 0 90 43 7f
        E 960 80 3a 00
        E 0 80 3f 00
        E 0 80 43 00
        E 480 90 3a 7f
        E 0 90 3f 7f
        E 0 90 43 7f
        E 1440 80 3a 00
        E 0 80 3f 00
        E 0 80 43 00
        E 0 90 37 7f
        E 0 90 3c 7f
        E 960 80 37 00
        E 0 80 3c 00
        E 0 90 38 7f
        E 0 90 3c 7f
        E 0 90 3f 7f
        E 960 80 38 00
        E 0 80 3c 00
        E 0 80 3f 00
        E 480 90 38 7f
        E 0 90 3c 7f
        E 0 90 3f 7f
        E 1920 80 38 00
        E 0 80 3c 00
        E 0 80 3f 00
        E 480 90 38 7f
        E 0 90 3c 7f
        E 0 90 41 7f
        E 960 80 38 00
        E 0 80 3c 00
        E 0 80 41 00
        E 480 90 38 7f
        E 0 90 3c 7f
        E 0 90 41 7f
        E 1920 80 38 00
        E 0 80 3c 00
        E 0 80 41 00
        E 480 90 35 7f
        E 0 90 3d 7f
        E 0 90 41 7f
        E 960 80 35 00
        E 0 80 3d 00
        E 0 80 41 00
        E 480 90 35 7f
        E 0 90 3d 7f
        E 0 90 41 7f
        E 1920 80 35 00
        E 0 80 3d 00
        E 0 80 41 00
        E 480 90 3a 7f
        E 0 90 3f 7f
        E 0 90 43 7f
        E 960 80 3a 00
        E 0 80 3f 00
        E 0 80 43 00
        E 480 90 3a 7f
        E 0 90 3f 7f
        E 0 90 43 7f
        E 1440 80 3a 00
        E 0 80 3f 00
        E 0 80 43 00
        E 0 90 3c 7f
        E 0 90 44 7f
        E 480 80 3c 00
        E 0 80 44 00
        E 0 90 3a 7f
        E 0 90 43 7f
        E 480 80 3a 00
        E 0 80 43 00
        E 0 90 38 7f
        E 0 90 3c 7f
        E 0 90 3f 7f
        E 960 80 38 00
        E 0 80 3c 00
        E 0 80 3f 00
        E 480 90 38 7f
        E 0 90 3c 7f
        E 0 90 3f 7f
        E 1920 80 38 00
        E 0 80 3c 00
        E 0 80 3f 00
        E 480 90 3a 7f
        E 0 90 3c 7f
        E 0 90 41 7f
        E 960 80 3a 00
        E 0 80 3c 00
        E 0 80 41 00
        E 480 90 3a 7f
        E 0 90 3c 7f
        E 0 90 41 7f
        E 1440 80 3a 00
        E 0 80 3c 00
        E 0 80 41 00
        E 0 90 37 7f
        E 0 90 3d 7f
        E 960 80 37 00
        E 0 80 3d 00
        E 0 90 37 7f
        E 0 90 35 7f
        E 0 90 3c 7f
        E 960 80 37 00
        E 0 80 35 00
        E 0 80 3c 00
        E 480 90 37 7f
        E 0 90 35 7f
        E 0 90 3c 7f
        E 1920 80 37 00
        E 0 80 35 00
        E 0 80 3c 00
        E 480 90 3a 7f
        E 0 90 3f 7f
        E 0 90 43 7f
        E 960 80 3a 00
        E 0 80 3f 00
        E 0 80 43 00
        E 480 90 3a 7f
        E 0 90 3f 7f
        E 0 90 43 7f
        E 1440 80 3a 00
        E 0 80 3f 00
        E 0 80 43 00
        E 0 90 37 7f
        E 0 90 3c 7f
        E 960 80 37 00
        E 0 80 3c 00
        E 0 90 38 67
        E 0 90 3c 67
        E 0 90 3f 67
        E 3840 80 38 00
        E 0 80 3c 00
        E 0 80 3f 00
        E 0 90 38 67
        E 0 90 3c 67
        E 0 90 41 67
        E 3840 80 38 00
        E 0 80 3c 00
        E 0 80 41 00
        E 0 90 35 67
        E 0 90 3d 67
        E 0 90 41 67
        E 3840 80 35 00
        E 0 80 3d 00
        E 0 80 41 00
        E 0 90 3a 67
        E 0 90 3f 67
        E 0 90 43 67
        E 3840 80 3a 00
        E 0 80 3f 00
        E 0 80 43 00
        E 0 90 38 67
        E 0 90 3c 67
        E 0 90 3f 67
        E 3840 80 38 00
        E 0 80 3c 00
        E 0 80 3f 00
        E 0 90 3a 67
        E 0 90 3c 67
        E 0 90 41 67
        E 3840 80 3a 00
        E 0 80 3c 00
        E 0 80 41 00
        E 0 90 37 67
        E 0 90 35 67
        E 0 90 3c 67
        E 3840 80 37 00
        E 0 80 35 00
        E 0 80 3c 00
        E 0 90 3a 67
        E 0 90 3f 67
        E 0 90 43 67
        E 1920 80 3a 00
        E 0 80 3f 00
        E 0 80 43 00
        E 1920 90 38 67
        E 0 90 3c 67
        E 0 90 3f 67
        E 3840 80 38 00
        E 0 80 3c 00
        E 0 80 3f 00
        E 0 90 38 67
        E 0 90 3c 67
        E 0 90 41 67
        E 3840 80 38 00
        E 0 80 3c 00
        E 0 80 41 00
        E 0 90 35 67
        E 0 90 3d 67
        E 0 90 41 67
        E 3840 80 35 00
        E 0 80 3d 00
        E 0 80 41 00
        E 0 90 3a 67
        E 0 90 3f 67
        E 0 90 43 67
        E 3840 80 3a 00
        E 0 80 3f 00
        E 0 80 43 00
        E 0 90 38 67
        E 0 90 3c 67
        E 0 90 3f 67
        E 3840 80 38 00
        E 0 80 3c 00
        E 0 80 3f 00
        E 0 90 3a 67
        E 0 90 3c 67
        E 0 90 41 67
        E 3840 80 3a 00
        E 0 80 3c 00
        E 0 80 41 00
        E 0 90 37 67
        E 0 90 35 67
        E 0 90 3c 67
        E 3840 80 37 00
        E 0 80 35 00
        E 0 80 3c 00
        E 0 90 3a 67
        E 0 90 3f 67
        E 0 90 43 67
        E 3840 80 3a 00
        E 0 80 3f 00
        E 0 80 43 00
        E 0 90 38 67
        E 0 90 3c 67
        E 0 90 3f 67
        E 3840 80 38 00
        E 0 80 3c 00
        E 0 80 3f 00
        E 0 90 38 67
        E 0 90 3c 67
        E 0 90 41 67
        E 3840 80 38 00
        E 0 80 3c 00
        E 0 80 41 00
        E 0 90 35 67
        E 0 90 3d 67
        E 0 90 41 67
        E 3840 80 35 00
        E 0 80 3d 00
        E 0 80 41 00
        E 0 90 3a 67
        E 0 90 3f 67
        E 0 90 43 67
        E 3840 80 3a 00
        E 0 80 3f 00
        E 0 80 43 00
        E 0 90 38 67
        E 0 90 3c 67
        E 0 90 3f 67
        E 3840 80 38 00
        E 0 80 3c 00
        E 0 80 3f 00
        E 0 90 3a 67
        E 0 90 3c 67
        E 0 90 41 67
        E 3840 80 3a 00
        E 0 80 3c 00
        E 0 80 41 00
        E 0 90 37 67
        E 0 90 35 67
        E 0 90 3c 67
        E 3840 80 37 00
        E 0 80 35 00
        E 0 80 3c 00
        E 0 90 3a 67
        E 0 90 3f 67
        E 0 90 43 67
        E 3840 80 3a 00
        E 0 80 3f 00
        E 0 80 43 00
        E 0 90 38 7f
        E 0 90 3c 7f
        E 0 90 3f 7f
        E 960 80 38 00
        E 0 80 3c 00
        E 0 80 3f 00
        E 480 90 38 7f
        E 0 90 3c 7f
        E 0 90 3f 7f
        E 1920 80 38 00
        E 0 80 3c 00
        E 0 80 3f 00
        E 480 90 38 7f
        E 0 90 3c 7f
        E 0 90 41 7f
        E 960 80 38 00
        E 0 80 3c 00
        E 0 80 41 00
        E 480 90 38 7f
        E 0 90 3c 7f
        E 0 90 41 7f
        E 1920 80 38 00
        E 0 80 3c 00
        E 0 80 41 00
        E 480 90 35 7f
        E 0 90 3d 7f
        E 0 90 41 7f
        E 960 80 35 00
        E 0 80 3d 00
        E 0 80 41 00
        E 480 90 35 7f
        E 0 90 3d 7f
        E 0 90 41 7f
        E 1920 80 35 00
        E 0 80 3d 00
        E 0 80 41 00
        E 480 90 3a 7f
        E 0 90 3f 7f
        E 0 90 43 7f
        E 960 80 3a 00
        E 0 80 3f 00
        E 0 80 43 00
        E 480 90 3a 7f
        E 0 90 3f 7f
        E 0 90 43 7f
        E 1440 80 3a 00
        E 0 80 3f 00
        E 0 80 43 00
        E 0 90 3c 7f
        E 0 90 44 7f
        E 480 80 3c 00
        E 0 80 44 00
        E 0 90 3a 7f
        E 0 90 43 7f
        E 480 80 3a 00
        E 0 80 43 00
        E 0 90 38 7f
        E 0 90 3c 7f
        E 0 90 3f 7f
        E 960 80 38 00
        E 0 80 3c 00
        E 0 80 3f 00
        E 480 90 38 7f
        E 0 90 3c 7f
        E 0 90 3f 7f
        E 1920 80 38 00
        E 0 80 3c 00
        E 0 80 3f 00
        E 480 90 3a 7f
        E 0 90 3c 7f
        E 0 90 41 7f
        E 960 80 3a 00
        E 0 80 3c 00
        E 0 80 41 00
        E 480 90 3a 7f
        E 0 90 3c 7f
        E 0 90 41 7f
        E 1440 80 3a 00
        E 0 80 3c 00
        E 0 80 41 00
        E 0 90 37 7f
        E 0 90 3d 7f
        E 960 80 37 00
        E 0 80 3d 00
        E 0 90 37 7f
        E 0 90 35 7f
        E 0 90 3c 7f
        E 960 80 37 00
        E 0 80 35 00
        E 0 80 3c 00
        E 480 90 37 7f
        E 0 90 35 7f
        E 0 90 3c 7f
        E 1920 80 37 00
        E 0 80 35 00
        E 0 80 3c 00
        E 480 90 3a 7f
        E 0 90 3f 7f
        E 0 90 43 7f
        E 960 80 3a 00
        E 0 80 3f 00
        E 0 80 43 00
        E 480 90 3a 7f
        E 0 90 3f 7f
        E 0 90 43 7f
        E 1440 80 3a 00
        E 0 80 3f 00
        E 0 80 43 00
        E 0 90 37 7f
        E 0 90 3c 7f
        E 960 80 37 00
        E 0 80 3c 00
        E 0 90 38 7f
        E 0 90 3c 7f
        E 0 90 3f 7f
        E 960 80 38 00
        E 0 80 3c 00
        E 0 80 3f 00
        E 480 90 38 7f
        E 0 90 3c 7f
        E 0 90 3f 7f
        E 1920 80 38 00
        E 0 80 3c 00
        E 0 80 3f 00
        E 480 90 38 7f
        E 0 90 3c 7f
        E 0 90 41 7f
        E 960 80 38 00
        E 0 80 3c 00
        E 0 80 41 00
        E 480 90 38 7f
        E 0 90 3c 7f
        E 0 90 41 7f
        E 1920 80 38 00
        E 0 80 3c 00
        E 0 80 41 00
        E 480 90 35 7f
        E 0 90 3d 7f
        E 0 90 41 7f
        E 960 80 35 00
        E 0 80 3d 00
        E 0 80 41 00
        E 480 90 35 7f
        E 0 90 3d 7f
        E 0 90 41 7f
        E 1920 80 35 00
        E 0 80 3d 00
        E 0 80 41 00
        E 480 90 3a 7f
        E 0 90 3f 7f
        E 0 90 43 7f
        E 960 80 3a 00
        E 0 80 3f 00
        E 0 80 43 00
        E 480 90 3a 7f
        E 0 90 3f 7f
        E 0 90 43 7f
        E 1440 80 3a 00
        E 0 80 3f 00
        E 0 80 43 00
        E 0 90 3c 7f
        E 0 90 44 7f
        E 480 80 3c 00
        E 0 80 44 00
        E 0 90 3a 7f
        E 0 90 43 7f
        E 480 80 3a 00
        E 0 80 43 00
        E 0 90 38 7f
        E 0 90 3c 7f
        E 0 90 3f 7f
        E 960 80 38 00
        E 0 80 3c 00
        E 0 80 3f 00
        E 480 90 38 7f
        E 0 90 3c 7f
        E 0 90 3f 7f
        E 1920 80 38 00
        E 0 80 3c 00
        E 0 80 3f 00
        E 480 90 3a 7f
        E 0 90 3c 7f
        E 0 90 41 7f
        E 960 80 3a 00
        E 0 80 3c 00
        E 0 80 41 00
        E 480 90 3a 7f
        E 0 90 3c 7f
        E 0 90 41 7f
        E 1440 80 3a 00
        E 0 80 3c 00
        E 0 80 41 00
        E 0 90 37 7f
        E 0 90 3d 7f
        E 960 80 37 00
        E 0 80 3d 00
        E 0 90 37 7f
        E 0 90 35 7f
        E 0 90 3c 7f
        E 960 80 37 00
        E 0 80 35 00
        E 0 80 3c 00
        E 480 90 37 7f
        E 0 90 35 7f
        E 0 90 3c 7f
        E 1920 80 37 00
        E 0 80 35 00
        E 0 80 3c 00
        E 480 90 3a 7f
        E 0 90 3f 7f
        E 0 90 43 7f
        E 960 80 3a 00
        E 0 80 3f 00
        E 0 80 43 00
        E 480 90 3a 7f
        E 0 90 3f 7f
        E 0 90 43 7f
        E 1440 80 3a 00
        E 0 80 3f 00
        E 0 80 43 00
        E 0 90 37 7f
        E 0 90 3c 7f
        E 4799 80 37 00
        E 0 80 3c 00
        E 1 b0 7b 00
        GUID {3E3620B1-DF1B-4BE3-A7B9-CD510C4999A1}
        IGNTEMPO 0 120 4 4
        SRCCOLOR 14060
        VELLANE -1 100 0
        CFGEDITVIEW 375940.555135 0.132947 44 12 0 -1 0 0 0 0.5
        KEYSNAP 1
        TRACKSEL -252
        EVTFILTER 0 -1 -1 -1 -1 0 0 0 0 -1 -1 -1 -1 0 -1 0 -1 -1
        CFGEDIT 1 1 0 1 0 0 1 1 1 1 1 0.25 423 61 1872 1023 0 0 0 0 0 0 1 0 0 0 0 0 1 64
      >
    >
  >
  <TRACK {65F88F27-48BF-4B30-BF04-9A058469376D}
    NAME Pad
    PEAKCOL 16576
    BEAT -1
    AUTOMODE 0
    VOLPAN 1 0 -1 -1 1
    MUTESOLO 0 0 0
    IPHASE 0
    ISBUS 0 0
    BUSCOMP 0 0
    SHOWINMIX 1 0.6667 0.5 1 0.5 0 0 0
    FREEMODE 0
    SEL 0
    REC 0 0 0 0 0 0 0
    VU 2
    TRACKHEIGHT 0 0
    INQ 0 0 0 0.5 100 0 0 100
    NCHAN 2
    FX 1
    TRACKID {65F88F27-48BF-4B30-BF04-9A058469376D}
    PERF 0
    MIDIOUT -1
    MAINSEND 1 0
    <ITEM
      POSITION 0
      SNAPOFFS 0
      LENGTH 125.217408
      LOOP 1
      ALLTAKES 0
      FADEIN 1 0 0 1 0 0
      FADEOUT 1 0 0 1 0 0
      MUTE 0
      SEL 0
      IGUID {3FED8D69-7443-4922-B9C9-77D6B86E42D4}
      IID 3
      NAME "Pad - Lucky Hardcore =).mid"
      VOLPAN 1 0 1 -1
      SOFFS 0 0
      PLAYRATE 1 1 0 -1 0 0.0025
      CHANMODE 0
      GUID {83EAAE6B-42E9-4AD0-A8A5-A259373E32A9}
      <SOURCE MIDI
        HASDATA 1 960 QN
        POOLEDEVTS {0F8E35FB-463B-4CA1-B0A9-B491318C5893}
        <X 0 0 0 0 3 Pad
          /wNQYWQ=
        >
        E 245760 90 38 7f
        E 0 90 3c 7f
        E 0 90 3f 7f
        E 960 80 38 00
        E 0 80 3c 00
        E 0 80 3f 00
        E 480 90 38 7f
        E 0 90 3c 7f
        E 0 90 3f 7f
        E 1920 80 38 00
        E 0 80 3c 00
        E 0 80 3f 00
        E 480 90 38 7f
        E 0 90 3c 7f
        E 0 90 41 7f
        E 960 80 38 00
        E 0 80 3c 00
        E 0 80 41 00
        E 480 90 38 7f
        E 0 90 3c 7f
        E 0 90 41 7f
        E 1920 80 38 00
        E 0 80 3c 00
        E 0 80 41 00
        E 480 90 35 7f
        E 0 90 3d 7f
        E 0 90 41 7f
        E 960 80 35 00
        E 0 80 3d 00
        E 0 80 41 00
        E 480 90 35 7f
        E 0 90 3d 7f
        E 0 90 41 7f
        E 1920 80 35 00
        E 0 80 3d 00
        E 0 80 41 00
        E 480 90 3a 7f
        E 0 90 3f 7f
        E 0 90 43 7f
        E 960 80 3a 00
        E 0 80 3f 00
        E 0 80 43 00
        E 480 90 3a 7f
        E 0 90 3f 7f
        E 0 90 43 7f
        E 1440 80 3a 00
        E 0 80 3f 00
        E 0 80 43 00
        E 0 90 3c 7f
        E 0 90 44 7f
        E 480 80 3c 00
        E 0 80 44 00
        E 0 90 3a 7f
        E 0 90 43 7f
        E 480 80 3a 00
        E 0 80 43 00
        E 0 90 38 7f
        E 0 90 3c 7f
        E 0 90 3f 7f
        E 960 80 38 00
        E 0 80 3c 00
        E 0 80 3f 00
        E 480 90 38 7f
        E 0 90 3c 7f
        E 0 90 3f 7f
        E 1920 80 38 00
        E 0 80 3c 00
        E 0 80 3f 00
        E 480 90 3a 7f
        E 0 90 3c 7f
        E 0 90 41 7f
        E 960 80 3a 00
        E 0 80 3c 00
        E 0 80 41 00
        E 480 90 3a 7f
        E 0 90 3c 7f
        E 0 90 41 7f
        E 1440 80 3a 00
        E 0 80 3c 00
        E 0 80 41 00
        E 0 90 37 7f
        E 0 90 3d 7f
        E 960 80 37 00
        E 0 80 3d 00
        E 0 90 37 7f
        E 0 90 35 7f
        E 0 90 3c 7f
        E 960 80 37 00
        E 0 80 35 00
        E 0 80 3c 00
        E 480 90 37 7f
        E 0 90 35 7f
        E 0 90 3c 7f
        E 1920 80 37 00
        E 0 80 35 00
        E 0 80 3c 00
        E 480 90 3a 7f
        E 0 90 3f 7f
        E 0 90 43 7f
        E 960 80 3a 00
        E 0 80 3f 00
        E 0 80 43 00
        E 480 90 3a 7f
        E 0 90 3f 7f
        E 0 90 43 7f
        E 1440 80 3a 00
        E 0 80 3f 00
        E 0 80 43 00
        E 0 90 37 7f
        E 0 90 3c 7f
        E 960 80 37 00
        E 0 80 3c 00
        E 0 90 38 7f
        E 0 90 3c 7f
        E 0 90 3f 7f
        E 3840 80 38 00
        E 0 80 3c 00
        E 0 80 3f 00
        E 0 90 38 7e
        E 0 90 3c 7e
        E 0 90 41 7e
        E 3840 80 38 00
        E 0 80 3c 00
        E 0 80 41 00
        E 0 90 35 7c
        E 0 90 3d 7c
        E 0 90 41 7c
        E 3840 80 35 00
        E 0 80 3d 00
        E 0 80 41 00
        E 0 90 3a 7a
        E 0 90 3f 7a
        E 0 90 43 7a
        E 3840 80 3a 00
        E 0 80 3f 00
        E 0 80 43 00
        E 0 90 38 72
        E 0 90 3c 72
        E 0 90 3f 72
        E 3840 80 38 00
        E 0 80 3c 00
        E 0 80 3f 00
        E 0 90 3a 6c
        E 0 90 3c 6c
        E 0 90 41 6c
        E 3840 80 3a 00
        E 0 80 3c 00
        E 0 80 41 00
        E 0 90 37 65
        E 0 90 35 65
        E 0 90 3c 65
        E 3840 80 37 00
        E 0 80 35 00
        E 0 80 3c 00
        E 0 90 3a 55
        E 0 90 3f 55
        E 0 90 43 55
        E 3840 80 3a 00
        E 0 80 3f 00
        E 0 80 43 00
        E 0 90 38 4b
        E 0 90 3c 4b
        E 0 90 3f 4b
        E 3840 80 38 00
        E 0 80 3c 00
        E 0 80 3f 00
        E 0 90 38 40
        E 0 90 3c 40
        E 0 90 41 40
        E 3840 80 38 00
        E 0 80 3c 00
        E 0 80 41 00
        E 0 90 35 27
        E 0 90 3d 27
        E 0 90 41 27
        E 3840 80 35 00
        E 0 80 3d 00
        E 0 80 41 00
        E 0 90 3a 19
        E 0 90 3f 19
        E 0 90 43 19
        E 3840 80 3a 00
        E 0 80 3f 00
        E 0 80 43 00
        E 15360 90 2c 7f
        E 0 90 30 7f
        E 0 90 33 7f
        E 3840 80 2c 00
        E 0 80 30 00
        E 0 80 33 00
        E 0 90 30 7f
        E 0 90 38 7f
        E 0 90 33 7f
        E 2400 80 30 00
        E 0 80 38 00
        E 0 80 33 00
        E 0 90 32 7f
        E 0 90 37 7f
        E 0 90 2e 7f
        E 1440 80 32 00
        E 0 80 37 00
        E 0 80 2e 00
        E 0 90 2e 7f
        E 0 90 2b 7f
        E 0 90 35 7f
        E 0 90 31 7f
        E 3840 80 2e 00
        E 0 80 2b 00
        E 0 80 35 00
        E 0 80 31 00
        E 0 90 38 7f
        E 0 90 3c 7f
        E 0 90 33 7f
        E 3840 80 38 00
        E 0 80 3c 00
        E 0 80 33 00
        E 0 90 2c 7f
        E 0 90 30 7f
        E 0 90 33 7f
        E 3840 80 2c 00
        E 0 80 30 00
        E 0 80 33 00
        E 0 90 30 7f
        E 0 90 38 7f
        E 0 90 33 7f
        E 2400 80 30 00
        E 0 80 38 00
        E 0 80 33 00
        E 0 90 32 7f
        E 0 90 37 7f
        E 0 90 2e 7f
        E 1440 80 32 00
        E 0 80 37 00
        E 0 80 2e 00
        E 0 90 2e 7f
        E 0 90 2b 7f
        E 0 90 35 7f
        E 0 90 31 7f
        E 3840 80 2b 00
        E 0 80 2e 00
        E 0 80 31 00
        E 0 80 35 00
        E 0 90 38 7f
        E 0 90 3c 7f
        E 0 90 33 7f
        E 1920 80 33 00
        E 0 80 38 00
        E 0 80 3c 00
        E 0 90 33 7f
        E 0 90 38 7f
        E 0 90 3c 7f
        E 480 80 33 00
        E 0 80 38 00
        E 0 80 3c 00
        E 0 90 33 7f
        E 0 90 38 7f
        E 0 90 3c 7f
        E 480 80 33 00
        E 0 80 38 00
        E 0 80 3c 00
        E 0 90 33 7f
        E 0 90 38 7f
        E 0 90 3c 7f
        E 480 80 33 00
        E 0 80 38 00
        E 0 80 3c 00
        E 0 90 33 7f
        E 0 90 38 7f
        E 0 90 3c 7f
        E 479 80 33 00
        E 0 80 38 00
        E 0 80 3c 00
        E 1 b0 7b 00
        GUID {CD9C8C5B-3891-4AF5-9986-A78AD80ED735}
        IGNTEMPO 0 120 4 4
        SRCCOLOR 14061
        VELLANE -1 100 0
        CFGEDITVIEW 211416.652811 0.007773 59 12 0 -1 0 0 0 0.5
        KEYSNAP 1
        TRACKSEL -252
        EVTFILTER 0 -1 -1 -1 -1 0 0 0 0 -1 -1 -1 -1 0 -1 0 -1 -1
        CFGEDIT 1 1 0 1 0 0 1 1 1 1 1 0.25 455 93 1872 1023 0 0 0 0 0 0 1 0 0 0 0 0 1 64
      >
    >
  >
  <TRACK {B7D7FF45-F25C-4EFD-9230-9A67D9D36C6A}
    NAME Lead
    PEAKCOL 16576
    BEAT -1
    AUTOMODE 0
    VOLPAN 1 0 -1 -1 1
    MUTESOLO 0 0 0
    IPHASE 0
    ISBUS 0 0
    BUSCOMP 0 0
    SHOWINMIX 1 0.6667 0.5 1 0.5 0 0 0
    FREEMODE 0
    SEL 0
    REC 0 0 0 0 0 0 0
    VU 2
    TRACKHEIGHT 0 0
    INQ 0 0 0 0.5 100 0 0 100
    NCHAN 2
    FX 1
    TRACKID {B7D7FF45-F25C-4EFD-9230-9A67D9D36C6A}
    PERF 0
    MIDIOUT -1
    MAINSEND 1 0
    <ITEM
      POSITION 0
      SNAPOFFS 0
      LENGTH 183.58698099997002
      LOOP 1
      ALLTAKES 0
      FADEIN 1 0 0 1 0 0
      FADEOUT 1 0 0 1 0 0
      MUTE 0
      SEL 0
      IGUID {429EC095-B662-4FAC-8B23-AABFB7F0684F}
      IID 4
      NAME "Lead - Lucky Hardcore =).mid"
      VOLPAN 1 0 1 -1
      SOFFS 0 0
      PLAYRATE 1 1 0 -1 0 0.0025
      CHANMODE 0
      GUID {E046E086-246F-4291-9FF4-734FE17FC47C}
      <SOURCE MIDI
        HASDATA 1 960 QN
        POOLEDEVTS {CC79D782-BEE7-4CD9-89A9-FFC3667C58B1}
        <X 0 0 0 0 3 Lead
          /wNMZWFk
        >
        E 92160 90 44 7f
        E 1920 80 44 00
        E 1920 90 44 7f
        E 1920 80 44 00
        E 480 90 43 7f
        E 960 80 43 00
        E 480 90 41 7f
        E 2400 80 41 00
        E 480 90 44 7f
        E 960 80 44 00
        E 0 90 46 7f
        E 960 80 46 00
        E 480 90 44 7f
        E 960 80 44 00
        E 0 90 43 7f
        E 960 80 43 00
        E 0 90 41 7f
        E 480 80 41 00
        E 0 90 44 7f
        E 1920 80 44 00
        E 960 90 43 7f
        E 960 80 43 00
        E 0 90 46 7f
        E 2880 80 46 00
        E 960 90 41 7f
        E 1440 80 41 00
        E 0 90 43 7f
        E 960 80 43 00
        E 0 90 41 7f
        E 960 80 41 00
        E 0 90 3d 7f
        E 480 80 3d 00
        E 0 90 46 7f
        E 1920 80 46 00
        E 0 90 43 7f
        E 1920 80 43 00
        E 0 90 44 7f
        E 1920 80 44 00
        E 1920 90 44 7f
        E 1920 80 44 00
        E 480 90 43 7f
        E 960 80 43 00
        E 480 90 41 7f
        E 2400 80 41 00
        E 480 90 44 7f
        E 960 80 44 00
        E 0 90 46 7f
        E 960 80 46 00
        E 480 90 44 7f
        E 960 80 44 00
        E 0 90 43 7f
        E 960 80 43 00
        E 0 90 41 7f
        E 480 80 41 00
        E 0 90 44 7f
        E 1920 80 44 00
        E 960 90 43 7f
        E 960 80 43 00
        E 0 90 46 7f
        E 2880 80 46 00
        E 960 90 41 7f
        E 1440 80 41 00
        E 0 90 43 7f
        E 960 80 43 00
        E 0 90 41 7f
        E 960 80 41 00
        E 0 90 3d 7f
        E 480 80 3d 00
        E 0 90 46 7f
        E 1920 80 46 00
        E 0 90 43 7f
        E 1920 80 43 00
        E 0 90 44 7f
        E 480 80 44 00
        E 0 90 4b 7e
        E 480 80 4b 00
        E 480 90 4b 7f
        E 240 80 4b 00
        E 240 90 4b 7f
        E 240 80 4b 00
        E 240 90 4b 7f
        E 240 80 4b 00
        E 240 90 44 7f
        E 240 80 44 00
        E 240 90 44 7f
        E 240 80 44 00
        E 240 90 44 7f
        E 240 80 44 00
        E 720 90 4b 7f
        E 480 80 4b 00
        E 0 90 44 7f
        E 480 80 44 00
        E 960 90 44 7f
        E 480 80 44 00
        E 480 90 44 7f
        E 480 80 44 00
        E 480 90 4b 7f
        E 480 80 4b 00
        E 0 90 44 7f
        E 480 80 44 00
        E 960 90 44 7f
        E 480 80 44 00
        E 480 90 44 7f
        E 480 80 44 00
        E 480 90 4b 7f
        E 240 80 4b 00
        E 240 90 4b 7f
        E 240 80 4b 00
        E 240 90 4b 7f
        E 240 80 4b 00
        E 240 90 4b 7f
        E 240 80 4b 00
        E 240 90 46 7f
        E 240 80 46 00
        E 240 90 48 7f
        E 240 80 48 00
        E 240 90 44 7f
        E 480 80 44 00
        E 0 90 4b 7e
        E 480 80 4b 00
        E 480 90 4b 7f
        E 240 80 4b 00
        E 240 90 4b 7f
        E 240 80 4b 00
        E 240 90 4b 7f
        E 240 80 4b 00
        E 240 90 44 7f
        E 240 80 44 00
        E 240 90 44 7f
        E 240 80 44 00
        E 240 90 44 7f
        E 480 80 44 00
        E 480 90 4b 7f
        E 480 80 4b 00
        E 0 90 44 7f
        E 240 80 44 00
        E 240 90 44 7f
        E 480 80 44 00
        E 480 90 4b 7f
        E 480 80 4b 00
        E 480 90 44 7f
        E 480 80 44 00
        E 480 90 4b 7f
        E 480 80 4b 00
        E 0 90 44 7f
        E 240 80 44 00
        E 240 90 44 7f
        E 480 80 44 00
        E 480 90 4b 7f
        E 480 80 4b 00
        E 480 90 44 7f
        E 480 80 44 00
        E 480 90 46 7f
        E 240 80 46 00
        E 240 90 48 7f
        E 240 80 48 00
        E 240 90 4b 7f
        E 240 80 4b 00
        E 240 90 48 7f
        E 240 80 48 00
        E 240 90 46 7f
        E 240 80 46 00
        E 240 90 4b 7f
        E 240 80 4b 00
        E 240 90 44 7f
        E 480 80 44 00
        E 0 90 4b 7e
        E 480 80 4b 00
        E 480 90 4b 7f
        E 240 80 4b 00
        E 240 90 4b 7f
        E 240 80 4b 00
        E 240 90 4b 7f
        E 240 80 4b 00
        E 240 90 44 7f
        E 240 80 44 00
        E 240 90 44 7f
        E 240 80 44 00
        E 240 90 44 7f
        E 240 80 44 00
        E 720 90 4b 7f
        E 480 80 4b 00
        E 0 90 44 7f
        E 480 80 44 00
        E 960 90 44 7f
        E 480 80 44 00
        E 480 90 44 7f
        E 480 80 44 00
        E 480 90 4b 7f
        E 480 80 4b 00
        E 0 90 44 7f
        E 480 80 44 00
        E 960 90 44 7f
        E 480 80 44 00
        E 480 90 44 7f
        E 480 80 44 00
        E 480 90 4b 7f
        E 240 80 4b 00
        E 240 90 4b 7f
        E 240 80 4b 00
        E 240 90 4b 7f
        E 240 80 4b 00
        E 240 90 4b 7f
        E 240 80 4b 00
        E 240 90 46 7f
        E 240 80 46 00
        E 240 90 48 7f
        E 240 80 48 00
        E 240 90 44 7f
        E 480 80 44 00
        E 0 90 4b 7e
        E 480 80 4b 00
        E 480 90 4b 7f
        E 240 80 4b 00
        E 240 90 4b 7f
        E 240 80 4b 00
        E 240 90 4b 7f
        E 240 80 4b 00
        E 240 90 44 7f
        E 240 80 44 00
        E 240 90 44 7f
        E 240 80 44 00
        E 240 90 44 7f
        E 480 80 44 00
        E 480 90 4b 7f
        E 480 80 4b 00
        E 0 90 44 7f
        E 240 80 44 00
        E 240 90 44 7f
        E 480 80 44 00
        E 480 90 4b 7f
        E 480 80 4b 00
        E 480 90 44 7f
        E 480 80 44 00
        E 480 90 4b 7f
        E 480 80 4b 00
        E 0 90 44 7f
        E 240 80 44 00
        E 240 90 44 7f
        E 480 80 44 00
        E 480 90 4b 7f
        E 480 80 4b 00
        E 480 90 44 7f
        E 480 80 44 00
        E 480 90 46 7f
        E 240 80 46 00
        E 240 90 48 7f
        E 240 80 48 00
        E 240 90 4b 7f
        E 240 80 4b 00
        E 240 90 48 7f
        E 240 80 48 00
        E 240 90 46 7f
        E 240 80 46 00
        E 240 90 4b 7f
        E 240 80 4b 00
        E 240 90 44 67
        E 480 80 44 00
        E 0 90 4b 66
        E 480 80 4b 00
        E 480 90 4b 67
        E 240 80 4b 00
        E 240 90 4b 67
        E 240 80 4b 00
        E 240 90 4b 67
        E 240 80 4b 00
        E 240 90 44 67
        E 240 80 44 00
        E 240 90 44 67
        E 240 80 44 00
        E 240 90 44 67
        E 240 80 44 00
        E 720 90 4b 67
        E 480 80 4b 00
        E 0 90 44 67
        E 480 80 44 00
        E 960 90 44 67
        E 480 80 44 00
        E 480 90 44 67
        E 480 80 44 00
        E 480 90 4b 67
        E 480 80 4b 00
        E 0 90 44 67
        E 480 80 44 00
        E 960 90 44 67
        E 480 80 44 00
        E 480 90 44 67
        E 480 80 44 00
        E 480 90 4b 67
        E 240 80 4b 00
        E 240 90 4b 67
        E 240 80 4b 00
        E 240 90 4b 67
        E 240 80 4b 00
        E 240 90 4b 67
        E 240 80 4b 00
        E 240 90 46 67
        E 240 80 46 00
        E 240 90 48 67
        E 240 80 48 00
        E 240 90 44 7f
        E 480 80 44 00
        E 0 90 4b 7e
        E 480 80 4b 00
        E 480 90 4b 7f
        E 240 80 4b 00
        E 240 90 4b 7f
        E 240 80 4b 00
        E 240 90 4b 7f
        E 240 80 4b 00
        E 240 90 44 7f
        E 240 80 44 00
        E 240 90 44 7f
        E 240 80 44 00
        E 240 90 44 7f
        E 480 80 44 00
        E 480 90 4b 7f
        E 480 80 4b 00
        E 0 90 44 7f
        E 240 80 44 00
        E 240 90 44 7f
        E 480 80 44 00
        E 480 90 4b 7f
        E 480 80 4b 00
        E 480 90 44 7f
        E 480 80 44 00
        E 480 90 4b 7f
        E 480 80 4b 00
        E 0 90 44 7f
        E 240 80 44 00
        E 240 90 44 7f
        E 480 80 44 00
        E 480 90 4b 7f
        E 480 80 4b 00
        E 480 90 44 7f
        E 480 80 44 00
        E 156960 90 44 7f
        E 480 80 44 00
        E 0 90 4b 7e
        E 480 80 4b 00
        E 480 90 4b 7f
        E 240 80 4b 00
        E 240 90 4b 7f
        E 240 80 4b 00
        E 240 90 4b 7f
        E 240 80 4b 00
        E 240 90 44 7f
        E 240 80 44 00
        E 240 90 44 7f
        E 240 80 44 00
        E 240 90 44 7f
        E 240 80 44 00
        E 720 90 4b 7f
        E 480 80 4b 00
        E 0 90 44 7f
        E 480 80 44 00
        E 960 90 44 7f
        E 480 80 44 00
        E 480 90 44 7f
        E 480 80 44 00
        E 480 90 4b 7f
        E 480 80 4b 00
        E 0 90 44 7f
        E 480 80 44 00
        E 960 90 44 7f
        E 480 80 44 00
        E 480 90 44 7f
        E 480 80 44 00
        E 480 90 4b 7f
        E 240 80 4b 00
        E 240 90 4b 7f
        E 240 80 4b 00
        E 240 90 4b 7f
        E 240 80 4b 00
        E 240 90 4b 7f
        E 240 80 4b 00
        E 240 90 46 7f
        E 240 80 46 00
        E 240 90 48 7f
        E 240 80 48 00
        E 240 90 44 7f
        E 480 80 44 00
        E 0 90 4b 7e
        E 480 80 4b 00
        E 480 90 4b 7f
        E 240 80 4b 00
        E 240 90 4b 7f
        E 240 80 4b 00
        E 240 90 4b 7f
        E 240 80 4b 00
        E 240 90 44 7f
        E 240 80 44 00
        E 240 90 44 7f
        E 240 80 44 00
        E 240 90 44 7f
        E 480 80 44 00
        E 480 90 4b 7f
        E 480 80 4b 00
        E 0 90 44 7f
        E 240 80 44 00
        E 240 90 44 7f
        E 480 80 44 00
        E 480 90 4b 7f
        E 480 80 4b 00
        E 480 90 44 7f
        E 480 80 44 00
        E 480 90 4b 7f
        E 480 80 4b 00
        E 0 90 44 7f
        E 240 80 44 00
        E 240 90 44 7f
        E 480 80 44 00
        E 480 90 4b 7f
        E 480 80 4b 00
        E 480 90 44 7f
        E 480 80 44 00
        E 480 90 46 7f
        E 240 80 46 00
        E 240 90 48 7f
        E 240 80 48 00
        E 240 90 4b 7f
        E 240 80 4b 00
        E 240 90 48 7f
        E 240 80 48 00
        E 240 90 46 7f
        E 240 80 46 00
        E 240 90 4b 7f
        E 240 80 4b 00
        E 240 90 44 7f
        E 480 80 44 00
        E 0 90 4b 7e
        E 480 80 4b 00
        E 480 90 4b 7f
        E 240 80 4b 00
        E 240 90 4b 7f
        E 240 80 4b 00
        E 240 90 4b 7f
        E 240 80 4b 00
        E 240 90 44 7f
        E 240 80 44 00
        E 240 90 44 7f
        E 240 80 44 00
        E 240 90 44 7f
        E 240 80 44 00
        E 720 90 4b 7f
        E 480 80 4b 00
        E 0 90 44 7f
        E 480 80 44 00
        E 960 90 44 7f
        E 480 80 44 00
        E 480 90 44 7f
        E 480 80 44 00
        E 480 90 4b 7f
        E 480 80 4b 00
        E 0 90 44 7f
        E 480 80 44 00
        E 960 90 44 7f
        E 480 80 44 00
        E 480 90 44 7f
        E 480 80 44 00
        E 480 90 4b 7f
        E 240 80 4b 00
        E 240 90 4b 7f
        E 240 80 4b 00
        E 240 90 4b 7f
        E 240 80 4b 00
        E 240 90 4b 7f
        E 240 80 4b 00
        E 240 90 46 7f
        E 240 80 46 00
        E 240 90 48 7f
        E 240 80 48 00
        E 240 90 44 7f
        E 480 80 44 00
        E 0 90 4b 7e
        E 480 80 4b 00
        E 480 90 4b 7f
        E 240 80 4b 00
        E 240 90 4b 7f
        E 240 80 4b 00
        E 240 90 4b 7f
        E 240 80 4b 00
        E 240 90 44 7f
        E 240 80 44 00
        E 240 90 44 7f
        E 240 80 44 00
        E 240 90 44 7f
        E 480 80 44 00
        E 480 90 4b 7f
        E 480 80 4b 00
        E 0 90 44 7f
        E 240 80 44 00
        E 240 90 44 7f
        E 480 80 44 00
        E 480 90 4b 7f
        E 480 80 4b 00
        E 480 90 44 7f
        E 480 80 44 00
        E 480 90 4b 7f
        E 480 80 4b 00
        E 0 90 44 7f
        E 240 80 44 00
        E 240 90 44 7f
        E 480 80 44 00
        E 480 90 4b 7f
        E 480 80 4b 00
        E 480 90 44 7f
        E 480 80 44 00
        E 480 90 46 7f
        E 240 80 46 00
        E 240 90 48 7f
        E 240 80 48 00
        E 240 90 4b 7f
        E 240 80 4b 00
        E 240 90 48 7f
        E 240 80 48 00
        E 240 90 46 7f
        E 960 80 46 00
        E 0 90 44 7f
        E 1920 80 44 00
        E 1920 90 44 7f
        E 1920 80 44 00
        E 480 90 43 7f
        E 960 80 43 00
        E 480 90 41 7f
        E 2400 80 41 00
        E 480 90 44 7f
        E 960 80 44 00
        E 0 90 46 7f
        E 960 80 46 00
        E 480 90 44 7f
        E 960 80 44 00
        E 0 90 43 7f
        E 960 80 43 00
        E 0 90 41 7f
        E 480 80 41 00
        E 0 90 44 7f
        E 1920 80 44 00
        E 960 90 43 7f
        E 960 80 43 00
        E 0 90 46 7f
        E 2880 80 46 00
        E 960 90 41 7f
        E 1440 80 41 00
        E 0 90 43 7f
        E 960 80 43 00
        E 0 90 41 7f
        E 960 80 41 00
        E 0 90 3d 7f
        E 480 80 3d 00
        E 0 90 46 7f
        E 1920 80 46 00
        E 0 90 43 7f
        E 1920 80 43 00
        E 0 90 44 7f
        E 1920 80 44 00
        E 1920 90 44 7f
        E 1920 80 44 00
        E 480 90 43 7f
        E 960 80 43 00
        E 480 90 41 7f
        E 2400 80 41 00
        E 480 90 44 7f
        E 960 80 44 00
        E 0 90 46 7f
        E 960 80 46 00
        E 480 90 44 7f
        E 960 80 44 00
        E 0 90 43 7f
        E 960 80 43 00
        E 0 90 41 7f
        E 480 80 41 00
        E 0 90 44 7f
        E 1920 80 44 00
        E 960 90 43 7f
        E 960 80 43 00
        E 0 90 46 7f
        E 2880 80 46 00
        E 8640 90 44 7f
        E 480 80 44 00
        E 0 90 4b 7e
        E 480 80 4b 00
        E 480 90 4b 7f
        E 240 80 4b 00
        E 240 90 4b 7f
        E 240 80 4b 00
        E 240 90 4b 7f
        E 240 80 4b 00
        E 240 90 44 7f
        E 240 80 44 00
        E 240 90 44 7f
        E 240 80 44 00
        E 240 90 44 7f
        E 240 80 44 00
        E 720 90 4b 7f
        E 480 80 4b 00
        E 0 90 44 7f
        E 480 80 44 00
        E 960 90 44 7f
        E 480 80 44 00
        E 480 90 44 7f
        E 480 80 44 00
        E 480 90 4b 7f
        E 480 80 4b 00
        E 0 90 44 7f
        E 480 80 44 00
        E 960 90 44 7f
        E 480 80 44 00
        E 480 90 44 7f
        E 480 80 44 00
        E 480 90 4b 7f
        E 240 80 4b 00
        E 240 90 4b 7f
        E 240 80 4b 00
        E 240 90 4b 7f
        E 240 80 4b 00
        E 240 90 4b 7f
        E 240 80 4b 00
        E 240 90 46 7f
        E 240 80 46 00
        E 240 90 48 7f
        E 240 80 48 00
        E 240 90 44 7f
        E 480 80 44 00
        E 0 90 4b 7e
        E 480 80 4b 00
        E 480 90 4b 7f
        E 240 80 4b 00
        E 240 90 4b 7f
        E 240 80 4b 00
        E 240 90 4b 7f
        E 240 80 4b 00
        E 240 b0 7b 00
        GUID {5BF60451-995B-44FB-83D3-FBCC9A29DB06}
        IGNTEMPO 0 120 4 4
        SRCCOLOR 14062
        VELLANE -1 100 0
        CFGEDITVIEW 534686.099847 0.109005 38 12 0 -1 0 0 0 0.5
        KEYSNAP 1
        TRACKSEL -252
        EVTFILTER 0 -1 -1 -1 -1 0 0 0 0 -1 -1 -1 -1 0 -1 0 -1 -1
        CFGEDIT 1 1 0 1 0 0 1 1 1 1 1 0.25 455 93 1872 1023 0 0 0 0 0 0 1 0 0 0 0 0 1 64
      >
    >
    <ITEM
      POSITION 183.58698099997002
      SNAPOFFS 0
      LENGTH 0.1630435
      LOOP 1
      ALLTAKES 0
      FADEIN 1 0 0 1 0 0
      FADEOUT 1 0 0 1 0 0
      MUTE 0
      SEL 0
      IGUID {233A40E7-F75C-4944-B9E6-A197482C0CDA}
      IID 302
      NAME "Lead - Lucky Hardcore =).mid"
      VOLPAN 1 0 1 -1
      SOFFS 183.58698099997002 563
      PLAYRATE 1 1 0 -1 0 0.0025
      CHANMODE 0
      GUID {447B8150-7726-417F-BF5F-F8B8520A6DCA}
      <SOURCE MIDI
        HASDATA 1 960 QN
        POOLEDEVTS {C184F66C-026A-43E2-8421-01BB4824277D}
        <X 0 0 0 0 3 Lead
          /wNMZWFk
        >
        E 92160 90 44 7f
        E 1920 80 44 00
        E 1920 90 44 7f
        E 1920 80 44 00
        E 480 90 43 7f
        E 960 80 43 00
        E 480 90 41 7f
        E 2400 80 41 00
        E 480 90 44 7f
        E 960 80 44 00
        E 0 90 46 7f
        E 960 80 46 00
        E 480 90 44 7f
        E 960 80 44 00
        E 0 90 43 7f
        E 960 80 43 00
        E 0 90 41 7f
        E 480 80 41 00
        E 0 90 44 7f
        E 1920 80 44 00
        E 960 90 43 7f
        E 960 80 43 00
        E 0 90 46 7f
        E 2880 80 46 00
        E 960 90 41 7f
        E 1440 80 41 00
        E 0 90 43 7f
        E 960 80 43 00
        E 0 90 41 7f
        E 960 80 41 00
        E 0 90 3d 7f
        E 480 80 3d 00
        E 0 90 46 7f
        E 1920 80 46 00
        E 0 90 43 7f
        E 1920 80 43 00
        E 0 90 44 7f
        E 1920 80 44 00
        E 1920 90 44 7f
        E 1920 80 44 00
        E 480 90 43 7f
        E 960 80 43 00
        E 480 90 41 7f
        E 2400 80 41 00
        E 480 90 44 7f
        E 960 80 44 00
        E 0 90 46 7f
        E 960 80 46 00
        E 480 90 44 7f
        E 960 80 44 00
        E 0 90 43 7f
        E 960 80 43 00
        E 0 90 41 7f
        E 480 80 41 00
        E 0 90 44 7f
        E 1920 80 44 00
        E 960 90 43 7f
        E 960 80 43 00
        E 0 90 46 7f
        E 2880 80 46 00
        E 960 90 41 7f
        E 1440 80 41 00
        E 0 90 43 7f
        E 960 80 43 00
        E 0 90 41 7f
        E 960 80 41 00
        E 0 90 3d 7f
        E 480 80 3d 00
        E 0 90 46 7f
        E 1920 80 46 00
        E 0 90 43 7f
        E 1920 80 43 00
        E 0 90 44 7f
        E 480 80 44 00
        E 0 90 4b 7e
        E 480 80 4b 00
        E 480 90 4b 7f
        E 240 80 4b 00
        E 240 90 4b 7f
        E 240 80 4b 00
        E 240 90 4b 7f
        E 240 80 4b 00
        E 240 90 44 7f
        E 240 80 44 00
        E 240 90 44 7f
        E 240 80 44 00
        E 240 90 44 7f
        E 240 80 44 00
        E 720 90 4b 7f
        E 480 80 4b 00
        E 0 90 44 7f
        E 480 80 44 00
        E 960 90 44 7f
        E 480 80 44 00
        E 480 90 44 7f
        E 480 80 44 00
        E 480 90 4b 7f
        E 480 80 4b 00
        E 0 90 44 7f
        E 480 80 44 00
        E 960 90 44 7f
        E 480 80 44 00
        E 480 90 44 7f
        E 480 80 44 00
        E 480 90 4b 7f
        E 240 80 4b 00
        E 240 90 4b 7f
        E 240 80 4b 00
        E 240 90 4b 7f
        E 240 80 4b 00
        E 240 90 4b 7f
        E 240 80 4b 00
        E 240 90 46 7f
        E 240 80 46 00
        E 240 90 48 7f
        E 240 80 48 00
        E 240 90 44 7f
        E 480 80 44 00
        E 0 90 4b 7e
        E 480 80 4b 00
        E 480 90 4b 7f
        E 240 80 4b 00
        E 240 90 4b 7f
        E 240 80 4b 00
        E 240 90 4b 7f
        E 240 80 4b 00
        E 240 90 44 7f
        E 240 80 44 00
        E 240 90 44 7f
        E 240 80 44 00
        E 240 90 44 7f
        E 480 80 44 00
        E 480 90 4b 7f
        E 480 80 4b 00
        E 0 90 44 7f
        E 240 80 44 00
        E 240 90 44 7f
        E 480 80 44 00
        E 480 90 4b 7f
        E 480 80 4b 00
        E 480 90 44 7f
        E 480 80 44 00
        E 480 90 4b 7f
        E 480 80 4b 00
        E 0 90 44 7f
        E 240 80 44 00
        E 240 90 44 7f
        E 480 80 44 00
        E 480 90 4b 7f
        E 480 80 4b 00
        E 480 90 44 7f
        E 480 80 44 00
        E 480 90 46 7f
        E 240 80 46 00
        E 240 90 48 7f
        E 240 80 48 00
        E 240 90 4b 7f
        E 240 80 4b 00
        E 240 90 48 7f
        E 240 80 48 00
        E 240 90 46 7f
        E 240 80 46 00
        E 240 90 4b 7f
        E 240 80 4b 00
        E 240 90 44 7f
        E 480 80 44 00
        E 0 90 4b 7e
        E 480 80 4b 00
        E 480 90 4b 7f
        E 240 80 4b 00
        E 240 90 4b 7f
        E 240 80 4b 00
        E 240 90 4b 7f
        E 240 80 4b 00
        E 240 90 44 7f
        E 240 80 44 00
        E 240 90 44 7f
        E 240 80 44 00
        E 240 90 44 7f
        E 240 80 44 00
        E 720 90 4b 7f
        E 480 80 4b 00
        E 0 90 44 7f
        E 480 80 44 00
        E 960 90 44 7f
        E 480 80 44 00
        E 480 90 44 7f
        E 480 80 44 00
        E 480 90 4b 7f
        E 480 80 4b 00
        E 0 90 44 7f
        E 480 80 44 00
        E 960 90 44 7f
        E 480 80 44 00
        E 480 90 44 7f
        E 480 80 44 00
        E 480 90 4b 7f
        E 240 80 4b 00
        E 240 90 4b 7f
        E 240 80 4b 00
        E 240 90 4b 7f
        E 240 80 4b 00
        E 240 90 4b 7f
        E 240 80 4b 00
        E 240 90 46 7f
        E 240 80 46 00
        E 240 90 48 7f
        E 240 80 48 00
        E 240 90 44 7f
        E 480 80 44 00
        E 0 90 4b 7e
        E 480 80 4b 00
        E 480 90 4b 7f
        E 240 80 4b 00
        E 240 90 4b 7f
        E 240 80 4b 00
        E 240 90 4b 7f
        E 240 80 4b 00
        E 240 90 44 7f
        E 240 80 44 00
        E 240 90 44 7f
        E 240 80 44 00
        E 240 90 44 7f
        E 480 80 44 00
        E 480 90 4b 7f
        E 480 80 4b 00
        E 0 90 44 7f
        E 240 80 44 00
        E 240 90 44 7f
        E 480 80 44 00
        E 480 90 4b 7f
        E 480 80 4b 00
        E 480 90 44 7f
        E 480 80 44 00
        E 480 90 4b 7f
        E 480 80 4b 00
        E 0 90 44 7f
        E 240 80 44 00
        E 240 90 44 7f
        E 480 80 44 00
        E 480 90 4b 7f
        E 480 80 4b 00
        E 480 90 44 7f
        E 480 80 44 00
        E 480 90 46 7f
        E 240 80 46 00
        E 240 90 48 7f
        E 240 80 48 00
        E 240 90 4b 7f
        E 240 80 4b 00
        E 240 90 48 7f
        E 240 80 48 00
        E 240 90 46 7f
        E 240 80 46 00
        E 240 90 4b 7f
        E 240 80 4b 00
        E 240 90 44 67
        E 480 80 44 00
        E 0 90 4b 66
        E 480 80 4b 00
        E 480 90 4b 67
        E 240 80 4b 00
        E 240 90 4b 67
        E 240 80 4b 00
        E 240 90 4b 67
        E 240 80 4b 00
        E 240 90 44 67
        E 240 80 44 00
        E 240 90 44 67
        E 240 80 44 00
        E 240 90 44 67
        E 240 80 44 00
        E 720 90 4b 67
        E 480 80 4b 00
        E 0 90 44 67
        E 480 80 44 00
        E 960 90 44 67
        E 480 80 44 00
        E 480 90 44 67
        E 480 80 44 00
        E 480 90 4b 67
        E 480 80 4b 00
        E 0 90 44 67
        E 480 80 44 00
        E 960 90 44 67
        E 480 80 44 00
        E 480 90 44 67
        E 480 80 44 00
        E 480 90 4b 67
        E 240 80 4b 00
        E 240 90 4b 67
        E 240 80 4b 00
        E 240 90 4b 67
        E 240 80 4b 00
        E 240 90 4b 67
        E 240 80 4b 00
        E 240 90 46 67
        E 240 80 46 00
        E 240 90 48 67
        E 240 80 48 00
        E 240 90 44 7f
        E 480 80 44 00
        E 0 90 4b 7e
        E 480 80 4b 00
        E 480 90 4b 7f
        E 240 80 4b 00
        E 240 90 4b 7f
        E 240 80 4b 00
        E 240 90 4b 7f
        E 240 80 4b 00
        E 240 90 44 7f
        E 240 80 44 00
        E 240 90 44 7f
        E 240 80 44 00
        E 240 90 44 7f
        E 480 80 44 00
        E 480 90 4b 7f
        E 480 80 4b 00
        E 0 90 44 7f
        E 240 80 44 00
        E 240 90 44 7f
        E 480 80 44 00
        E 480 90 4b 7f
        E 480 80 4b 00
        E 480 90 44 7f
        E 480 80 44 00
        E 480 90 4b 7f
        E 480 80 4b 00
        E 0 90 44 7f
        E 240 80 44 00
        E 240 90 44 7f
        E 480 80 44 00
        E 480 90 4b 7f
        E 480 80 4b 00
        E 480 90 44 7f
        E 480 80 44 00
        E 156960 90 44 7f
        E 480 80 44 00
        E 0 90 4b 7e
        E 480 80 4b 00
        E 480 90 4b 7f
        E 240 80 4b 00
        E 240 90 4b 7f
        E 240 80 4b 00
        E 240 90 4b 7f
        E 240 80 4b 00
        E 240 90 44 7f
        E 240 80 44 00
        E 240 90 44 7f
        E 240 80 44 00
        E 240 90 44 7f
        E 240 80 44 00
        E 720 90 4b 7f
        E 480 80 4b 00
        E 0 90 44 7f
        E 480 80 44 00
        E 960 90 44 7f
        E 480 80 44 00
        E 480 90 44 7f
        E 480 80 44 00
        E 480 90 4b 7f
        E 480 80 4b 00
        E 0 90 44 7f
        E 480 80 44 00
        E 960 90 44 7f
        E 480 80 44 00
        E 480 90 44 7f
        E 480 80 44 00
        E 480 90 4b 7f
        E 240 80 4b 00
        E 240 90 4b 7f
        E 240 80 4b 00
        E 240 90 4b 7f
        E 240 80 4b 00
        E 240 90 4b 7f
        E 240 80 4b 00
        E 240 90 46 7f
        E 240 80 46 00
        E 240 90 48 7f
        E 240 80 48 00
        E 240 90 44 7f
        E 480 80 44 00
        E 0 90 4b 7e
        E 480 80 4b 00
        E 480 90 4b 7f
        E 240 80 4b 00
        E 240 90 4b 7f
        E 240 80 4b 00
        E 240 90 4b 7f
        E 240 80 4b 00
        E 240 90 44 7f
        E 240 80 44 00
        E 240 90 44 7f
        E 240 80 44 00
        E 240 90 44 7f
        E 480 80 44 00
        E 480 90 4b 7f
        E 480 80 4b 00
        E 0 90 44 7f
        E 240 80 44 00
        E 240 90 44 7f
        E 480 80 44 00
        E 480 90 4b 7f
        E 480 80 4b 00
        E 480 90 44 7f
        E 480 80 44 00
        E 480 90 4b 7f
        E 480 80 4b 00
        E 0 90 44 7f
        E 240 80 44 00
        E 240 90 44 7f
        E 480 80 44 00
        E 480 90 4b 7f
        E 480 80 4b 00
        E 480 90 44 7f
        E 480 80 44 00
        E 480 90 46 7f
        E 240 80 46 00
        E 240 90 48 7f
        E 240 80 48 00
        E 240 90 4b 7f
        E 240 80 4b 00
        E 240 90 48 7f
        E 240 80 48 00
        E 240 90 46 7f
        E 240 80 46 00
        E 240 90 4b 7f
        E 240 80 4b 00
        E 240 90 44 7f
        E 480 80 44 00
        E 0 90 4b 7e
        E 480 80 4b 00
        E 480 90 4b 7f
        E 240 80 4b 00
        E 240 90 4b 7f
        E 240 80 4b 00
        E 240 90 4b 7f
        E 240 80 4b 00
        E 240 90 44 7f
        E 240 80 44 00
        E 240 90 44 7f
        E 240 80 44 00
        E 240 90 44 7f
        E 240 80 44 00
        E 720 90 4b 7f
        E 480 80 4b 00
        E 0 90 44 7f
        E 480 80 44 00
        E 960 90 44 7f
        E 480 80 44 00
        E 480 90 44 7f
        E 480 80 44 00
        E 480 90 4b 7f
        E 480 80 4b 00
        E 0 90 44 7f
        E 480 80 44 00
        E 960 90 44 7f
        E 480 80 44 00
        E 480 90 44 7f
        E 480 80 44 00
        E 480 90 4b 7f
        E 240 80 4b 00
        E 240 90 4b 7f
        E 240 80 4b 00
        E 240 90 4b 7f
        E 240 80 4b 00
        E 240 90 4b 7f
        E 240 80 4b 00
        E 240 90 46 7f
        E 240 80 46 00
        E 240 90 48 7f
        E 240 80 48 00
        E 240 90 44 7f
        E 480 80 44 00
        E 0 90 4b 7e
        E 480 80 4b 00
        E 480 90 4b 7f
        E 240 80 4b 00
        E 240 90 4b 7f
        E 240 80 4b 00
        E 240 90 4b 7f
        E 240 80 4b 00
        E 240 90 44 7f
        E 240 80 44 00
        E 240 90 44 7f
        E 240 80 44 00
        E 240 90 44 7f
        E 480 80 44 00
        E 480 90 4b 7f
        E 480 80 4b 00
        E 0 90 44 7f
        E 240 80 44 00
        E 240 90 44 7f
        E 480 80 44 00
        E 480 90 4b 7f
        E 480 80 4b 00
        E 480 90 44 7f
        E 480 80 44 00
        E 480 90 4b 7f
        E 480 80 4b 00
        E 0 90 44 7f
        E 240 80 44 00
        E 240 90 44 7f
        E 480 80 44 00
        E 480 90 4b 7f
        E 480 80 4b 00
        E 480 90 44 7f
        E 480 80 44 00
        E 480 90 46 7f
        E 240 80 46 00
        E 240 90 48 7f
        E 240 80 48 00
        E 240 90 4b 7f
        E 240 80 4b 00
        E 240 90 48 7f
        E 240 80 48 00
        E 240 90 46 7f
        E 960 80 46 00
        E 0 90 44 7f
        E 1920 80 44 00
        E 1920 90 44 7f
        E 1920 80 44 00
        E 480 90 43 7f
        E 960 80 43 00
        E 480 90 41 7f
        E 2400 80 41 00
        E 480 90 44 7f
        E 960 80 44 00
        E 0 90 46 7f
        E 960 80 46 00
        E 480 90 44 7f
        E 960 80 44 00
        E 0 90 43 7f
        E 960 80 43 00
        E 0 90 41 7f
        E 480 80 41 00
        E 0 90 44 7f
        E 1920 80 44 00
        E 960 90 43 7f
        E 960 80 43 00
        E 0 90 46 7f
        E 2880 80 46 00
        E 960 90 41 7f
        E 1440 80 41 00
        E 0 90 43 7f
        E 960 80 43 00
        E 0 90 41 7f
        E 960 80 41 00
        E 0 90 3d 7f
        E 480 80 3d 00
        E 0 90 46 7f
        E 1920 80 46 00
        E 0 90 43 7f
        E 1920 80 43 00
        E 0 90 44 7f
        E 1920 80 44 00
        E 1920 90 44 7f
        E 1920 80 44 00
        E 480 90 43 7f
        E 960 80 43 00
        E 480 90 41 7f
        E 2400 80 41 00
        E 480 90 44 7f
        E 960 80 44 00
        E 0 90 46 7f
        E 960 80 46 00
        E 480 90 44 7f
        E 960 80 44 00
        E 0 90 43 7f
        E 960 80 43 00
        E 0 90 41 7f
        E 480 80 41 00
        E 0 90 44 7f
        E 1920 80 44 00
        E 960 90 43 7f
        E 960 80 43 00
        E 0 90 46 7f
        E 2880 80 46 00
        E 8640 90 44 7f
        E 480 80 44 00
        E 0 90 4b 7e
        E 480 80 4b 00
        E 480 90 4b 7f
        E 240 80 4b 00
        E 240 90 4b 7f
        E 240 80 4b 00
        E 240 90 4b 7f
        E 240 80 4b 00
        E 240 90 44 7f
        E 240 80 44 00
        E 240 90 44 7f
        E 240 80 44 00
        E 240 90 44 7f
        E 240 80 44 00
        E 720 90 4b 7f
        E 480 80 4b 00
        E 0 90 44 7f
        E 480 80 44 00
        E 960 90 44 7f
        E 480 80 44 00
        E 480 90 44 7f
        E 480 80 44 00
        E 480 90 4b 7f
        E 480 80 4b 00
        E 0 90 44 7f
        E 480 80 44 00
        E 960 90 44 7f
        E 480 80 44 00
        E 480 90 44 7f
        E 480 80 44 00
        E 480 90 4b 7f
        E 240 80 4b 00
        E 240 90 4b 7f
        E 240 80 4b 00
        E 240 90 4b 7f
        E 240 80 4b 00
        E 240 90 4b 7f
        E 240 80 4b 00
        E 240 90 46 7f
        E 240 80 46 00
        E 240 90 48 7f
        E 240 80 48 00
        E 240 90 44 7f
        E 480 80 44 00
        E 0 90 4b 7e
        E 480 80 4b 00
        E 480 90 4b 7f
        E 240 80 4b 00
        E 240 90 4b 7f
        E 240 80 4b 00
        E 240 90 4b 7f
        E 240 80 4b 00
        E 240 90 44 34
        E 240 80 44 00
        E 240 b0 7b 00
        GUID {FBF96D51-D204-4293-8C97-5DBC7325A43C}
        IGNTEMPO 0 120 4 4
        SRCCOLOR 17299
        VELLANE -1 100 0
        CFGEDITVIEW 0 0 38 12 0 -1 0 0 0 0.5
        KEYSNAP 0
        TRACKSEL -252
        EVTFILTER 0 -1 -1 -1 -1 0 0 0 0 -1 -1 -1 -1 0 -1 0 -1 -1
        CFGEDIT 1 1 0 1 0 0 1 1 1 1 1 0.25 455 93 1872 1023 0 0 0 0 0 0 1 0 0 0 0 0 1 64
      >
    >
    <ITEM
      POSITION 183.75002449996998
      SNAPOFFS 0
      LENGTH 0.1630435
      LOOP 1
      ALLTAKES 0
      FADEIN 1 0 0 1 0 0
      FADEOUT 1 0 0 1 0 0
      MUTE 0
      SEL 0
      IGUID {05668344-0C17-4085-AA62-87CA802D951D}
      IID 304
      NAME "Lead - Lucky Hardcore =).mid"
      VOLPAN 0 0 1 -1
      SOFFS 183.75002449996998 563.5
      PLAYRATE 1 1 0 -1 0 0.0025
      CHANMODE 0
      GUID {13F5D031-19CE-4424-9A33-D13FA69DF745}
      <SOURCE MIDI
        HASDATA 1 960 QN
        POOLEDEVTS {C86082C0-2EFB-49A6-BCD0-D8FBC2468660}
        <X 0 0 0 0 3 Lead
          /wNMZWFk
        >
        E 92160 90 44 7f
        E 1920 80 44 00
        E 1920 90 44 7f
        E 1920 80 44 00
        E 480 90 43 7f
        E 960 80 43 00
        E 480 90 41 7f
        E 2400 80 41 00
        E 480 90 44 7f
        E 960 80 44 00
        E 0 90 46 7f
        E 960 80 46 00
        E 480 90 44 7f
        E 960 80 44 00
        E 0 90 43 7f
        E 960 80 43 00
        E 0 90 41 7f
        E 480 80 41 00
        E 0 90 44 7f
        E 1920 80 44 00
        E 960 90 43 7f
        E 960 80 43 00
        E 0 90 46 7f
        E 2880 80 46 00
        E 960 90 41 7f
        E 1440 80 41 00
        E 0 90 43 7f
        E 960 80 43 00
        E 0 90 41 7f
        E 960 80 41 00
        E 0 90 3d 7f
        E 480 80 3d 00
        E 0 90 46 7f
        E 1920 80 46 00
        E 0 90 43 7f
        E 1920 80 43 00
        E 0 90 44 7f
        E 1920 80 44 00
        E 1920 90 44 7f
        E 1920 80 44 00
        E 480 90 43 7f
        E 960 80 43 00
        E 480 90 41 7f
        E 2400 80 41 00
        E 480 90 44 7f
        E 960 80 44 00
        E 0 90 46 7f
        E 960 80 46 00
        E 480 90 44 7f
        E 960 80 44 00
        E 0 90 43 7f
        E 960 80 43 00
        E 0 90 41 7f
        E 480 80 41 00
        E 0 90 44 7f
        E 1920 80 44 00
        E 960 90 43 7f
        E 960 80 43 00
        E 0 90 46 7f
        E 2880 80 46 00
        E 960 90 41 7f
        E 1440 80 41 00
        E 0 90 43 7f
        E 960 80 43 00
        E 0 90 41 7f
        E 960 80 41 00
        E 0 90 3d 7f
        E 480 80 3d 00
        E 0 90 46 7f
        E 1920 80 46 00
        E 0 90 43 7f
        E 1920 80 43 00
        E 0 90 44 7f
        E 480 80 44 00
        E 0 90 4b 7e
        E 480 80 4b 00
        E 480 90 4b 7f
        E 240 80 4b 00
        E 240 90 4b 7f
        E 240 80 4b 00
        E 240 90 4b 7f
        E 240 80 4b 00
        E 240 90 44 7f
        E 240 80 44 00
        E 240 90 44 7f
        E 240 80 44 00
        E 240 90 44 7f
        E 240 80 44 00
        E 720 90 4b 7f
        E 480 80 4b 00
        E 0 90 44 7f
        E 480 80 44 00
        E 960 90 44 7f
        E 480 80 44 00
        E 480 90 44 7f
        E 480 80 44 00
        E 480 90 4b 7f
        E 480 80 4b 00
        E 0 90 44 7f
        E 480 80 44 00
        E 960 90 44 7f
        E 480 80 44 00
        E 480 90 44 7f
        E 480 80 44 00
        E 480 90 4b 7f
        E 240 80 4b 00
        E 240 90 4b 7f
        E 240 80 4b 00
        E 240 90 4b 7f
        E 240 80 4b 00
        E 240 90 4b 7f
        E 240 80 4b 00
        E 240 90 46 7f
        E 240 80 46 00
        E 240 90 48 7f
        E 240 80 48 00
        E 240 90 44 7f
        E 480 80 44 00
        E 0 90 4b 7e
        E 480 80 4b 00
        E 480 90 4b 7f
        E 240 80 4b 00
        E 240 90 4b 7f
        E 240 80 4b 00
        E 240 90 4b 7f
        E 240 80 4b 00
        E 240 90 44 7f
        E 240 80 44 00
        E 240 90 44 7f
        E 240 80 44 00
        E 240 90 44 7f
        E 480 80 44 00
        E 480 90 4b 7f
        E 480 80 4b 00
        E 0 90 44 7f
        E 240 80 44 00
        E 240 90 44 7f
        E 480 80 44 00
        E 480 90 4b 7f
        E 480 80 4b 00
        E 480 90 44 7f
        E 480 80 44 00
        E 480 90 4b 7f
        E 480 80 4b 00
        E 0 90 44 7f
        E 240 80 44 00
        E 240 90 44 7f
        E 480 80 44 00
        E 480 90 4b 7f
        E 480 80 4b 00
        E 480 90 44 7f
        E 480 80 44 00
        E 480 90 46 7f
        E 240 80 46 00
        E 240 90 48 7f
        E 240 80 48 00
        E 240 90 4b 7f
        E 240 80 4b 00
        E 240 90 48 7f
        E 240 80 48 00
        E 240 90 46 7f
        E 240 80 46 00
        E 240 90 4b 7f
        E 240 80 4b 00
        E 240 90 44 7f
        E 480 80 44 00
        E 0 90 4b 7e
        E 480 80 4b 00
        E 480 90 4b 7f
        E 240 80 4b 00
        E 240 90 4b 7f
        E 240 80 4b 00
        E 240 90 4b 7f
        E 240 80 4b 00
        E 240 90 44 7f
        E 240 80 44 00
        E 240 90 44 7f
        E 240 80 44 00
        E 240 90 44 7f
        E 240 80 44 00
        E 720 90 4b 7f
        E 480 80 4b 00
        E 0 90 44 7f
        E 480 80 44 00
        E 960 90 44 7f
        E 480 80 44 00
        E 480 90 44 7f
        E 480 80 44 00
        E 480 90 4b 7f
        E 480 80 4b 00
        E 0 90 44 7f
        E 480 80 44 00
        E 960 90 44 7f
        E 480 80 44 00
        E 480 90 44 7f
        E 480 80 44 00
        E 480 90 4b 7f
        E 240 80 4b 00
        E 240 90 4b 7f
        E 240 80 4b 00
        E 240 90 4b 7f
        E 240 80 4b 00
        E 240 90 4b 7f
        E 240 80 4b 00
        E 240 90 46 7f
        E 240 80 46 00
        E 240 90 48 7f
        E 240 80 48 00
        E 240 90 44 7f
        E 480 80 44 00
        E 0 90 4b 7e
        E 480 80 4b 00
        E 480 90 4b 7f
        E 240 80 4b 00
        E 240 90 4b 7f
        E 240 80 4b 00
        E 240 90 4b 7f
        E 240 80 4b 00
        E 240 90 44 7f
        E 240 80 44 00
        E 240 90 44 7f
        E 240 80 44 00
        E 240 90 44 7f
        E 480 80 44 00
        E 480 90 4b 7f
        E 480 80 4b 00
        E 0 90 44 7f
        E 240 80 44 00
        E 240 90 44 7f
        E 480 80 44 00
        E 480 90 4b 7f
        E 480 80 4b 00
        E 480 90 44 7f
        E 480 80 44 00
        E 480 90 4b 7f
        E 480 80 4b 00
        E 0 90 44 7f
        E 240 80 44 00
        E 240 90 44 7f
        E 480 80 44 00
        E 480 90 4b 7f
        E 480 80 4b 00
        E 480 90 44 7f
        E 480 80 44 00
        E 480 90 46 7f
        E 240 80 46 00
        E 240 90 48 7f
        E 240 80 48 00
        E 240 90 4b 7f
        E 240 80 4b 00
        E 240 90 48 7f
        E 240 80 48 00
        E 240 90 46 7f
        E 240 80 46 00
        E 240 90 4b 7f
        E 240 80 4b 00
        E 240 90 44 67
        E 480 80 44 00
        E 0 90 4b 66
        E 480 80 4b 00
        E 480 90 4b 67
        E 240 80 4b 00
        E 240 90 4b 67
        E 240 80 4b 00
        E 240 90 4b 67
        E 240 80 4b 00
        E 240 90 44 67
        E 240 80 44 00
        E 240 90 44 67
        E 240 80 44 00
        E 240 90 44 67
        E 240 80 44 00
        E 720 90 4b 67
        E 480 80 4b 00
        E 0 90 44 67
        E 480 80 44 00
        E 960 90 44 67
        E 480 80 44 00
        E 480 90 44 67
        E 480 80 44 00
        E 480 90 4b 67
        E 480 80 4b 00
        E 0 90 44 67
        E 480 80 44 00
        E 960 90 44 67
        E 480 80 44 00
        E 480 90 44 67
        E 480 80 44 00
        E 480 90 4b 67
        E 240 80 4b 00
        E 240 90 4b 67
        E 240 80 4b 00
        E 240 90 4b 67
        E 240 80 4b 00
        E 240 90 4b 67
        E 240 80 4b 00
        E 240 90 46 67
        E 240 80 46 00
        E 240 90 48 67
        E 240 80 48 00
        E 240 90 44 7f
        E 480 80 44 00
        E 0 90 4b 7e
        E 480 80 4b 00
        E 480 90 4b 7f
        E 240 80 4b 00
        E 240 90 4b 7f
        E 240 80 4b 00
        E 240 90 4b 7f
        E 240 80 4b 00
        E 240 90 44 7f
        E 240 80 44 00
        E 240 90 44 7f
        E 240 80 44 00
        E 240 90 44 7f
        E 480 80 44 00
        E 480 90 4b 7f
        E 480 80 4b 00
        E 0 90 44 7f
        E 240 80 44 00
        E 240 90 44 7f
        E 480 80 44 00
        E 480 90 4b 7f
        E 480 80 4b 00
        E 480 90 44 7f
        E 480 80 44 00
        E 480 90 4b 7f
        E 480 80 4b 00
        E 0 90 44 7f
        E 240 80 44 00
        E 240 90 44 7f
        E 480 80 44 00
        E 480 90 4b 7f
        E 480 80 4b 00
        E 480 90 44 7f
        E 480 80 44 00
        E 156960 90 44 7f
        E 480 80 44 00
        E 0 90 4b 7e
        E 480 80 4b 00
        E 480 90 4b 7f
        E 240 80 4b 00
        E 240 90 4b 7f
        E 240 80 4b 00
        E 240 90 4b 7f
        E 240 80 4b 00
        E 240 90 44 7f
        E 240 80 44 00
        E 240 90 44 7f
        E 240 80 44 00
        E 240 90 44 7f
        E 240 80 44 00
        E 720 90 4b 7f
        E 480 80 4b 00
        E 0 90 44 7f
        E 480 80 44 00
        E 960 90 44 7f
        E 480 80 44 00
        E 480 90 44 7f
        E 480 80 44 00
        E 480 90 4b 7f
        E 480 80 4b 00
        E 0 90 44 7f
        E 480 80 44 00
        E 960 90 44 7f
        E 480 80 44 00
        E 480 90 44 7f
        E 480 80 44 00
        E 480 90 4b 7f
        E 240 80 4b 00
        E 240 90 4b 7f
        E 240 80 4b 00
        E 240 90 4b 7f
        E 240 80 4b 00
        E 240 90 4b 7f
        E 240 80 4b 00
        E 240 90 46 7f
        E 240 80 46 00
        E 240 90 48 7f
        E 240 80 48 00
        E 240 90 44 7f
        E 480 80 44 00
        E 0 90 4b 7e
        E 480 80 4b 00
        E 480 90 4b 7f
        E 240 80 4b 00
        E 240 90 4b 7f
        E 240 80 4b 00
        E 240 90 4b 7f
        E 240 80 4b 00
        E 240 90 44 7f
        E 240 80 44 00
        E 240 90 44 7f
        E 240 80 44 00
        E 240 90 44 7f
        E 480 80 44 00
        E 480 90 4b 7f
        E 480 80 4b 00
        E 0 90 44 7f
        E 240 80 44 00
        E 240 90 44 7f
        E 480 80 44 00
        E 480 90 4b 7f
        E 480 80 4b 00
        E 480 90 44 7f
        E 480 80 44 00
        E 480 90 4b 7f
        E 480 80 4b 00
        E 0 90 44 7f
        E 240 80 44 00
        E 240 90 44 7f
        E 480 80 44 00
        E 480 90 4b 7f
        E 480 80 4b 00
        E 480 90 44 7f
        E 480 80 44 00
        E 480 90 46 7f
        E 240 80 46 00
        E 240 90 48 7f
        E 240 80 48 00
        E 240 90 4b 7f
        E 240 80 4b 00
        E 240 90 48 7f
        E 240 80 48 00
        E 240 90 46 7f
        E 240 80 46 00
        E 240 90 4b 7f
        E 240 80 4b 00
        E 240 90 44 7f
        E 480 80 44 00
        E 0 90 4b 7e
        E 480 80 4b 00
        E 480 90 4b 7f
        E 240 80 4b 00
        E 240 90 4b 7f
        E 240 80 4b 00
        E 240 90 4b 7f
        E 240 80 4b 00
        E 240 90 44 7f
        E 240 80 44 00
        E 240 90 44 7f
        E 240 80 44 00
        E 240 90 44 7f
        E 240 80 44 00
        E 720 90 4b 7f
        E 480 80 4b 00
        E 0 90 44 7f
        E 480 80 44 00
        E 960 90 44 7f
        E 480 80 44 00
        E 480 90 44 7f
        E 480 80 44 00
        E 480 90 4b 7f
        E 480 80 4b 00
        E 0 90 44 7f
        E 480 80 44 00
        E 960 90 44 7f
        E 480 80 44 00
        E 480 90 44 7f
        E 480 80 44 00
        E 480 90 4b 7f
        E 240 80 4b 00
        E 240 90 4b 7f
        E 240 80 4b 00
        E 240 90 4b 7f
        E 240 80 4b 00
        E 240 90 4b 7f
        E 240 80 4b 00
        E 240 90 46 7f
        E 240 80 46 00
        E 240 90 48 7f
        E 240 80 48 00
        E 240 90 44 7f
        E 480 80 44 00
        E 0 90 4b 7e
        E 480 80 4b 00
        E 480 90 4b 7f
        E 240 80 4b 00
        E 240 90 4b 7f
        E 240 80 4b 00
        E 240 90 4b 7f
        E 240 80 4b 00
        E 240 90 44 7f
        E 240 80 44 00
        E 240 90 44 7f
        E 240 80 44 00
        E 240 90 44 7f
        E 480 80 44 00
        E 480 90 4b 7f
        E 480 80 4b 00
        E 0 90 44 7f
        E 240 80 44 00
        E 240 90 44 7f
        E 480 80 44 00
        E 480 90 4b 7f
        E 480 80 4b 00
        E 480 90 44 7f
        E 480 80 44 00
        E 480 90 4b 7f
        E 480 80 4b 00
        E 0 90 44 7f
        E 240 80 44 00
        E 240 90 44 7f
        E 480 80 44 00
        E 480 90 4b 7f
        E 480 80 4b 00
        E 480 90 44 7f
        E 480 80 44 00
        E 480 90 46 7f
        E 240 80 46 00
        E 240 90 48 7f
        E 240 80 48 00
        E 240 90 4b 7f
        E 240 80 4b 00
        E 240 90 48 7f
        E 240 80 48 00
        E 240 90 46 7f
        E 960 80 46 00
        E 0 90 44 7f
        E 1920 80 44 00
        E 1920 90 44 7f
        E 1920 80 44 00
        E 480 90 43 7f
        E 960 80 43 00
        E 480 90 41 7f
        E 2400 80 41 00
        E 480 90 44 7f
        E 960 80 44 00
        E 0 90 46 7f
        E 960 80 46 00
        E 480 90 44 7f
        E 960 80 44 00
        E 0 90 43 7f
        E 960 80 43 00
        E 0 90 41 7f
        E 480 80 41 00
        E 0 90 44 7f
        E 1920 80 44 00
        E 960 90 43 7f
        E 960 80 43 00
        E 0 90 46 7f
        E 2880 80 46 00
        E 960 90 41 7f
        E 1440 80 41 00
        E 0 90 43 7f
        E 960 80 43 00
        E 0 90 41 7f
        E 960 80 41 00
        E 0 90 3d 7f
        E 480 80 3d 00
        E 0 90 46 7f
        E 1920 80 46 00
        E 0 90 43 7f
        E 1920 80 43 00
        E 0 90 44 7f
        E 1920 80 44 00
        E 1920 90 44 7f
        E 1920 80 44 00
        E 480 90 43 7f
        E 960 80 43 00
        E 480 90 41 7f
        E 2400 80 41 00
        E 480 90 44 7f
        E 960 80 44 00
        E 0 90 46 7f
        E 960 80 46 00
        E 480 90 44 7f
        E 960 80 44 00
        E 0 90 43 7f
        E 960 80 43 00
        E 0 90 41 7f
        E 480 80 41 00
        E 0 90 44 7f
        E 1920 80 44 00
        E 960 90 43 7f
        E 960 80 43 00
        E 0 90 46 7f
        E 2880 80 46 00
        E 8640 90 44 7f
        E 480 80 44 00
        E 0 90 4b 7e
        E 480 80 4b 00
        E 480 90 4b 7f
        E 240 80 4b 00
        E 240 90 4b 7f
        E 240 80 4b 00
        E 240 90 4b 7f
        E 240 80 4b 00
        E 240 90 44 7f
        E 240 80 44 00
        E 240 90 44 7f
        E 240 80 44 00
        E 240 90 44 7f
        E 240 80 44 00
        E 720 90 4b 7f
        E 480 80 4b 00
        E 0 90 44 7f
        E 480 80 44 00
        E 960 90 44 7f
        E 480 80 44 00
        E 480 90 44 7f
        E 480 80 44 00
        E 480 90 4b 7f
        E 480 80 4b 00
        E 0 90 44 7f
        E 480 80 44 00
        E 960 90 44 7f
        E 480 80 44 00
        E 480 90 44 7f
        E 480 80 44 00
        E 480 90 4b 7f
        E 240 80 4b 00
        E 240 90 4b 7f
        E 240 80 4b 00
        E 240 90 4b 7f
        E 240 80 4b 00
        E 240 90 4b 7f
        E 240 80 4b 00
        E 240 90 46 7f
        E 240 80 46 00
        E 240 90 48 7f
        E 240 80 48 00
        E 240 90 44 7f
        E 480 80 44 00
        E 0 90 4b 7e
        E 480 80 4b 00
        E 480 90 4b 7f
        E 240 80 4b 00
        E 240 90 4b 7f
        E 240 80 4b 00
        E 240 90 4b 7f
        E 240 80 4b 00
        E 240 90 44 34
        E 240 80 44 00
        E 240 90 44 34
        E 240 80 44 00
        E 240 b0 7b 00
        GUID {AB28E128-96BA-4A1D-96E5-37395855E989}
        IGNTEMPO 0 120 4 4
        SRCCOLOR 17301
        VELLANE -1 100 0
        CFGEDITVIEW 0 0 38 12 0 -1 0 0 0 0.5
        KEYSNAP 0
        TRACKSEL -252
        EVTFILTER 0 -1 -1 -1 -1 0 0 0 0 -1 -1 -1 -1 0 -1 0 -1 -1
        CFGEDIT 1 1 0 1 0 0 1 1 1 1 1 0.25 455 93 1872 1023 0 0 0 0 0 0 1 0 0 0 0 0 1 64
      >
    >
    <ITEM
      POSITION 183.91306799996997
      SNAPOFFS 0
      LENGTH 24.78261200003004
      LOOP 1
      ALLTAKES 0
      FADEIN 1 0 0 1 0 0
      FADEOUT 1 0 0 1 0 0
      MUTE 0
      SEL 0
      IGUID {0E863C08-6C97-41F5-8C21-6780E3E9417A}
      IID 303
      NAME "Lead - Lucky Hardcore =).mid"
      VOLPAN 1 0 1 -1
      SOFFS 183.91306799996997 564
      PLAYRATE 1 1 0 -1 0 0.0025
      CHANMODE 0
      GUID {1808F0D6-8F95-490D-89E8-B76FF37B97F5}
      <SOURCE MIDI
        HASDATA 1 960 QN
        POOLEDEVTS {6E5595D3-C56D-4269-880F-DF2F106BABD1}
        <X 0 0 0 0 3 Lead
          /wNMZWFk
        >
        E 92160 90 44 7f
        E 1920 80 44 00
        E 1920 90 44 7f
        E 1920 80 44 00
        E 480 90 43 7f
        E 960 80 43 00
        E 480 90 41 7f
        E 2400 80 41 00
        E 480 90 44 7f
        E 960 80 44 00
        E 0 90 46 7f
        E 960 80 46 00
        E 480 90 44 7f
        E 960 80 44 00
        E 0 90 43 7f
        E 960 80 43 00
        E 0 90 41 7f
        E 480 80 41 00
        E 0 90 44 7f
        E 1920 80 44 00
        E 960 90 43 7f
        E 960 80 43 00
        E 0 90 46 7f
        E 2880 80 46 00
        E 960 90 41 7f
        E 1440 80 41 00
        E 0 90 43 7f
        E 960 80 43 00
        E 0 90 41 7f
        E 960 80 41 00
        E 0 90 3d 7f
        E 480 80 3d 00
        E 0 90 46 7f
        E 1920 80 46 00
        E 0 90 43 7f
        E 1920 80 43 00
        E 0 90 44 7f
        E 1920 80 44 00
        E 1920 90 44 7f
        E 1920 80 44 00
        E 480 90 43 7f
        E 960 80 43 00
        E 480 90 41 7f
        E 2400 80 41 00
        E 480 90 44 7f
        E 960 80 44 00
        E 0 90 46 7f
        E 960 80 46 00
        E 480 90 44 7f
        E 960 80 44 00
        E 0 90 43 7f
        E 960 80 43 00
        E 0 90 41 7f
        E 480 80 41 00
        E 0 90 44 7f
        E 1920 80 44 00
        E 960 90 43 7f
        E 960 80 43 00
        E 0 90 46 7f
        E 2880 80 46 00
        E 960 90 41 7f
        E 1440 80 41 00
        E 0 90 43 7f
        E 960 80 43 00
        E 0 90 41 7f
        E 960 80 41 00
        E 0 90 3d 7f
        E 480 80 3d 00
        E 0 90 46 7f
        E 1920 80 46 00
        E 0 90 43 7f
        E 1920 80 43 00
        E 0 90 44 7f
        E 480 80 44 00
        E 0 90 4b 7e
        E 480 80 4b 00
        E 480 90 4b 7f
        E 240 80 4b 00
        E 240 90 4b 7f
        E 240 80 4b 00
        E 240 90 4b 7f
        E 240 80 4b 00
        E 240 90 44 7f
        E 240 80 44 00
        E 240 90 44 7f
        E 240 80 44 00
        E 240 90 44 7f
        E 240 80 44 00
        E 720 90 4b 7f
        E 480 80 4b 00
        E 0 90 44 7f
        E 480 80 44 00
        E 960 90 44 7f
        E 480 80 44 00
        E 480 90 44 7f
        E 480 80 44 00
        E 480 90 4b 7f
        E 480 80 4b 00
        E 0 90 44 7f
        E 480 80 44 00
        E 960 90 44 7f
        E 480 80 44 00
        E 480 90 44 7f
        E 480 80 44 00
        E 480 90 4b 7f
        E 240 80 4b 00
        E 240 90 4b 7f
        E 240 80 4b 00
        E 240 90 4b 7f
        E 240 80 4b 00
        E 240 90 4b 7f
        E 240 80 4b 00
        E 240 90 46 7f
        E 240 80 46 00
        E 240 90 48 7f
        E 240 80 48 00
        E 240 90 44 7f
        E 480 80 44 00
        E 0 90 4b 7e
        E 480 80 4b 00
        E 480 90 4b 7f
        E 240 80 4b 00
        E 240 90 4b 7f
        E 240 80 4b 00
        E 240 90 4b 7f
        E 240 80 4b 00
        E 240 90 44 7f
        E 240 80 44 00
        E 240 90 44 7f
        E 240 80 44 00
        E 240 90 44 7f
        E 480 80 44 00
        E 480 90 4b 7f
        E 480 80 4b 00
        E 0 90 44 7f
        E 240 80 44 00
        E 240 90 44 7f
        E 480 80 44 00
        E 480 90 4b 7f
        E 480 80 4b 00
        E 480 90 44 7f
        E 480 80 44 00
        E 480 90 4b 7f
        E 480 80 4b 00
        E 0 90 44 7f
        E 240 80 44 00
        E 240 90 44 7f
        E 480 80 44 00
        E 480 90 4b 7f
        E 480 80 4b 00
        E 480 90 44 7f
        E 480 80 44 00
        E 480 90 46 7f
        E 240 80 46 00
        E 240 90 48 7f
        E 240 80 48 00
        E 240 90 4b 7f
        E 240 80 4b 00
        E 240 90 48 7f
        E 240 80 48 00
        E 240 90 46 7f
        E 240 80 46 00
        E 240 90 4b 7f
        E 240 80 4b 00
        E 240 90 44 7f
        E 480 80 44 00
        E 0 90 4b 7e
        E 480 80 4b 00
        E 480 90 4b 7f
        E 240 80 4b 00
        E 240 90 4b 7f
        E 240 80 4b 00
        E 240 90 4b 7f
        E 240 80 4b 00
        E 240 90 44 7f
        E 240 80 44 00
        E 240 90 44 7f
        E 240 80 44 00
        E 240 90 44 7f
        E 240 80 44 00
        E 720 90 4b 7f
        E 480 80 4b 00
        E 0 90 44 7f
        E 480 80 44 00
        E 960 90 44 7f
        E 480 80 44 00
        E 480 90 44 7f
        E 480 80 44 00
        E 480 90 4b 7f
        E 480 80 4b 00
        E 0 90 44 7f
        E 480 80 44 00
        E 960 90 44 7f
        E 480 80 44 00
        E 480 90 44 7f
        E 480 80 44 00
        E 480 90 4b 7f
        E 240 80 4b 00
        E 240 90 4b 7f
        E 240 80 4b 00
        E 240 90 4b 7f
        E 240 80 4b 00
        E 240 90 4b 7f
        E 240 80 4b 00
        E 240 90 46 7f
        E 240 80 46 00
        E 240 90 48 7f
        E 240 80 48 00
        E 240 90 44 7f
        E 480 80 44 00
        E 0 90 4b 7e
        E 480 80 4b 00
        E 480 90 4b 7f
        E 240 80 4b 00
        E 240 90 4b 7f
        E 240 80 4b 00
        E 240 90 4b 7f
        E 240 80 4b 00
        E 240 90 44 7f
        E 240 80 44 00
        E 240 90 44 7f
        E 240 80 44 00
        E 240 90 44 7f
        E 480 80 44 00
        E 480 90 4b 7f
        E 480 80 4b 00
        E 0 90 44 7f
        E 240 80 44 00
        E 240 90 44 7f
        E 480 80 44 00
        E 480 90 4b 7f
        E 480 80 4b 00
        E 480 90 44 7f
        E 480 80 44 00
        E 480 90 4b 7f
        E 480 80 4b 00
        E 0 90 44 7f
        E 240 80 44 00
        E 240 90 44 7f
        E 480 80 44 00
        E 480 90 4b 7f
        E 480 80 4b 00
        E 480 90 44 7f
        E 480 80 44 00
        E 480 90 46 7f
        E 240 80 46 00
        E 240 90 48 7f
        E 240 80 48 00
        E 240 90 4b 7f
        E 240 80 4b 00
        E 240 90 48 7f
        E 240 80 48 00
        E 240 90 46 7f
        E 240 80 46 00
        E 240 90 4b 7f
        E 240 80 4b 00
        E 240 90 44 67
        E 480 80 44 00
        E 0 90 4b 66
        E 480 80 4b 00
        E 480 90 4b 67
        E 240 80 4b 00
        E 240 90 4b 67
        E 240 80 4b 00
        E 240 90 4b 67
        E 240 80 4b 00
        E 240 90 44 67
        E 240 80 44 00
        E 240 90 44 67
        E 240 80 44 00
        E 240 90 44 67
        E 240 80 44 00
        E 720 90 4b 67
        E 480 80 4b 00
        E 0 90 44 67
        E 480 80 44 00
        E 960 90 44 67
        E 480 80 44 00
        E 480 90 44 67
        E 480 80 44 00
        E 480 90 4b 67
        E 480 80 4b 00
        E 0 90 44 67
        E 480 80 44 00
        E 960 90 44 67
        E 480 80 44 00
        E 480 90 44 67
        E 480 80 44 00
        E 480 90 4b 67
        E 240 80 4b 00
        E 240 90 4b 67
        E 240 80 4b 00
        E 240 90 4b 67
        E 240 80 4b 00
        E 240 90 4b 67
        E 240 80 4b 00
        E 240 90 46 67
        E 240 80 46 00
        E 240 90 48 67
        E 240 80 48 00
        E 240 90 44 7f
        E 480 80 44 00
        E 0 90 4b 7e
        E 480 80 4b 00
        E 480 90 4b 7f
        E 240 80 4b 00
        E 240 90 4b 7f
        E 240 80 4b 00
        E 240 90 4b 7f
        E 240 80 4b 00
        E 240 90 44 7f
        E 240 80 44 00
        E 240 90 44 7f
        E 240 80 44 00
        E 240 90 44 7f
        E 480 80 44 00
        E 480 90 4b 7f
        E 480 80 4b 00
        E 0 90 44 7f
        E 240 80 44 00
        E 240 90 44 7f
        E 480 80 44 00
        E 480 90 4b 7f
        E 480 80 4b 00
        E 480 90 44 7f
        E 480 80 44 00
        E 480 90 4b 7f
        E 480 80 4b 00
        E 0 90 44 7f
        E 240 80 44 00
        E 240 90 44 7f
        E 480 80 44 00
        E 480 90 4b 7f
        E 480 80 4b 00
        E 480 90 44 7f
        E 480 80 44 00
        E 156960 90 44 7f
        E 480 80 44 00
        E 0 90 4b 7e
        E 480 80 4b 00
        E 480 90 4b 7f
        E 240 80 4b 00
        E 240 90 4b 7f
        E 240 80 4b 00
        E 240 90 4b 7f
        E 240 80 4b 00
        E 240 90 44 7f
        E 240 80 44 00
        E 240 90 44 7f
        E 240 80 44 00
        E 240 90 44 7f
        E 240 80 44 00
        E 720 90 4b 7f
        E 480 80 4b 00
        E 0 90 44 7f
        E 480 80 44 00
        E 960 90 44 7f
        E 480 80 44 00
        E 480 90 44 7f
        E 480 80 44 00
        E 480 90 4b 7f
        E 480 80 4b 00
        E 0 90 44 7f
        E 480 80 44 00
        E 960 90 44 7f
        E 480 80 44 00
        E 480 90 44 7f
        E 480 80 44 00
        E 480 90 4b 7f
        E 240 80 4b 00
        E 240 90 4b 7f
        E 240 80 4b 00
        E 240 90 4b 7f
        E 240 80 4b 00
        E 240 90 4b 7f
        E 240 80 4b 00
        E 240 90 46 7f
        E 240 80 46 00
        E 240 90 48 7f
        E 240 80 48 00
        E 240 90 44 7f
        E 480 80 44 00
        E 0 90 4b 7e
        E 480 80 4b 00
        E 480 90 4b 7f
        E 240 80 4b 00
        E 240 90 4b 7f
        E 240 80 4b 00
        E 240 90 4b 7f
        E 240 80 4b 00
        E 240 90 44 7f
        E 240 80 44 00
        E 240 90 44 7f
        E 240 80 44 00
        E 240 90 44 7f
        E 480 80 44 00
        E 480 90 4b 7f
        E 480 80 4b 00
        E 0 90 44 7f
        E 240 80 44 00
        E 240 90 44 7f
        E 480 80 44 00
        E 480 90 4b 7f
        E 480 80 4b 00
        E 480 90 44 7f
        E 480 80 44 00
        E 480 90 4b 7f
        E 480 80 4b 00
        E 0 90 44 7f
        E 240 80 44 00
        E 240 90 44 7f
        E 480 80 44 00
        E 480 90 4b 7f
        E 480 80 4b 00
        E 480 90 44 7f
        E 480 80 44 00
        E 480 90 46 7f
        E 240 80 46 00
        E 240 90 48 7f
        E 240 80 48 00
        E 240 90 4b 7f
        E 240 80 4b 00
        E 240 90 48 7f
        E 240 80 48 00
        E 240 90 46 7f
        E 240 80 46 00
        E 240 90 4b 7f
        E 240 80 4b 00
        E 240 90 44 7f
        E 480 80 44 00
        E 0 90 4b 7e
        E 480 80 4b 00
        E 480 90 4b 7f
        E 240 80 4b 00
        E 240 90 4b 7f
        E 240 80 4b 00
        E 240 90 4b 7f
        E 240 80 4b 00
        E 240 90 44 7f
        E 240 80 44 00
        E 240 90 44 7f
        E 240 80 44 00
        E 240 90 44 7f
        E 240 80 44 00
        E 720 90 4b 7f
        E 480 80 4b 00
        E 0 90 44 7f
        E 480 80 44 00
        E 960 90 44 7f
        E 480 80 44 00
        E 480 90 44 7f
        E 480 80 44 00
        E 480 90 4b 7f
        E 480 80 4b 00
        E 0 90 44 7f
        E 480 80 44 00
        E 960 90 44 7f
        E 480 80 44 00
        E 480 90 44 7f
        E 480 80 44 00
        E 480 90 4b 7f
        E 240 80 4b 00
        E 240 90 4b 7f
        E 240 80 4b 00
        E 240 90 4b 7f
        E 240 80 4b 00
        E 240 90 4b 7f
        E 240 80 4b 00
        E 240 90 46 7f
        E 240 80 46 00
        E 240 90 48 7f
        E 240 80 48 00
        E 240 90 44 7f
        E 480 80 44 00
        E 0 90 4b 7e
        E 480 80 4b 00
        E 480 90 4b 7f
        E 240 80 4b 00
        E 240 90 4b 7f
        E 240 80 4b 00
        E 240 90 4b 7f
        E 240 80 4b 00
        E 240 90 44 7f
        E 240 80 44 00
        E 240 90 44 7f
        E 240 80 44 00
        E 240 90 44 7f
        E 480 80 44 00
        E 480 90 4b 7f
        E 480 80 4b 00
        E 0 90 44 7f
        E 240 80 44 00
        E 240 90 44 7f
        E 480 80 44 00
        E 480 90 4b 7f
        E 480 80 4b 00
        E 480 90 44 7f
        E 480 80 44 00
        E 480 90 4b 7f
        E 480 80 4b 00
        E 0 90 44 7f
        E 240 80 44 00
        E 240 90 44 7f
        E 480 80 44 00
        E 480 90 4b 7f
        E 480 80 4b 00
        E 480 90 44 7f
        E 480 80 44 00
        E 480 90 46 7f
        E 240 80 46 00
        E 240 90 48 7f
        E 240 80 48 00
        E 240 90 4b 7f
        E 240 80 4b 00
        E 240 90 48 7f
        E 240 80 48 00
        E 240 90 46 7f
        E 960 80 46 00
        E 0 90 44 7f
        E 1920 80 44 00
        E 1920 90 44 7f
        E 1920 80 44 00
        E 480 90 43 7f
        E 960 80 43 00
        E 480 90 41 7f
        E 2400 80 41 00
        E 480 90 44 7f
        E 960 80 44 00
        E 0 90 46 7f
        E 960 80 46 00
        E 480 90 44 7f
        E 960 80 44 00
        E 0 90 43 7f
        E 960 80 43 00
        E 0 90 41 7f
        E 480 80 41 00
        E 0 90 44 7f
        E 1920 80 44 00
        E 960 90 43 7f
        E 960 80 43 00
        E 0 90 46 7f
        E 2880 80 46 00
        E 960 90 41 7f
        E 1440 80 41 00
        E 0 90 43 7f
        E 960 80 43 00
        E 0 90 41 7f
        E 960 80 41 00
        E 0 90 3d 7f
        E 480 80 3d 00
        E 0 90 46 7f
        E 1920 80 46 00
        E 0 90 43 7f
        E 1920 80 43 00
        E 0 90 44 7f
        E 1920 80 44 00
        E 1920 90 44 7f
        E 1920 80 44 00
        E 480 90 43 7f
        E 960 80 43 00
        E 480 90 41 7f
        E 2400 80 41 00
        E 480 90 44 7f
        E 960 80 44 00
        E 0 90 46 7f
        E 960 80 46 00
        E 480 90 44 7f
        E 960 80 44 00
        E 0 90 43 7f
        E 960 80 43 00
        E 0 90 41 7f
        E 480 80 41 00
        E 0 90 44 7f
        E 1920 80 44 00
        E 960 90 43 7f
        E 960 80 43 00
        E 0 90 46 7f
        E 2880 80 46 00
        E 8640 90 44 7f
        E 480 80 44 00
        E 0 90 4b 7e
        E 480 80 4b 00
        E 480 90 4b 7f
        E 240 80 4b 00
        E 240 90 4b 7f
        E 240 80 4b 00
        E 240 90 4b 7f
        E 240 80 4b 00
        E 240 90 44 7f
        E 240 80 44 00
        E 240 90 44 7f
        E 240 80 44 00
        E 240 90 44 7f
        E 240 80 44 00
        E 720 90 4b 7f
        E 480 80 4b 00
        E 0 90 44 7f
        E 480 80 44 00
        E 960 90 44 7f
        E 480 80 44 00
        E 480 90 44 7f
        E 480 80 44 00
        E 480 90 4b 7f
        E 480 80 4b 00
        E 0 90 44 7f
        E 480 80 44 00
        E 960 90 44 7f
        E 480 80 44 00
        E 480 90 44 7f
        E 480 80 44 00
        E 480 90 4b 7f
        E 240 80 4b 00
        E 240 90 4b 7f
        E 240 80 4b 00
        E 240 90 4b 7f
        E 240 80 4b 00
        E 240 90 4b 7f
        E 240 80 4b 00
        E 240 90 46 7f
        E 240 80 46 00
        E 240 90 48 7f
        E 240 80 48 00
        E 240 90 44 7f
        E 480 80 44 00
        E 0 90 4b 7e
        E 480 80 4b 00
        E 480 90 4b 7f
        E 240 80 4b 00
        E 240 90 4b 7f
        E 240 80 4b 00
        E 240 90 4b 7f
        E 240 80 4b 00
        E 240 90 44 34
        E 240 80 44 00
        E 240 90 44 34
        E 240 80 44 00
        E 240 90 44 7f
        E 480 80 44 00
        E 480 90 4b 7f
        E 480 80 4b 00
        E 0 90 44 7f
        E 240 80 44 00
        E 240 90 44 7f
        E 480 80 44 00
        E 480 90 4b 2f
        E 480 80 4b 00
        E 480 90 44 7f
        E 480 80 44 00
        E 480 90 4b 7f
        E 480 80 4b 00
        E 0 90 44 7f
        E 240 80 44 00
        E 240 90 44 7f
        E 480 80 44 00
        E 480 90 4b 7f
        E 480 80 4b 00
        E 4320 90 44 7f
        E 480 80 44 00
        E 0 90 4b 7e
        E 480 80 4b 00
        E 480 90 4b 7f
        E 240 80 4b 00
        E 240 90 4b 7f
        E 240 80 4b 00
        E 240 90 4b 7f
        E 240 80 4b 00
        E 240 90 44 7f
        E 240 80 44 00
        E 240 90 44 7f
        E 240 80 44 00
        E 240 90 44 7f
        E 240 80 44 00
        E 720 90 4b 7f
        E 480 80 4b 00
        E 0 90 44 7f
        E 480 80 44 00
        E 960 90 44 7f
        E 480 80 44 00
        E 480 90 44 7f
        E 480 80 44 00
        E 480 90 4b 7f
        E 480 80 4b 00
        E 0 90 44 7f
        E 480 80 44 00
        E 960 90 44 7f
        E 480 80 44 00
        E 480 90 44 7f
        E 480 80 44 00
        E 480 90 4b 7f
        E 240 80 4b 00
        E 240 90 4b 7f
        E 240 80 4b 00
        E 240 90 4b 7f
        E 240 80 4b 00
        E 240 90 4b 7f
        E 240 80 4b 00
        E 240 90 46 7f
        E 240 80 46 00
        E 240 90 48 7f
        E 240 80 48 00
        E 240 90 44 7f
        E 480 80 44 00
        E 0 90 4b 7e
        E 480 80 4b 00
        E 480 90 4b 7f
        E 240 80 4b 00
        E 240 90 4b 7f
        E 240 80 4b 00
        E 240 90 4b 7f
        E 240 80 4b 00
        E 240 90 44 7f
        E 240 80 44 00
        E 240 90 44 7f
        E 240 80 44 00
        E 240 90 44 7f
        E 480 80 44 00
        E 480 90 4b 7f
        E 480 80 4b 00
        E 0 90 44 7f
        E 240 80 44 00
        E 240 90 44 7f
        E 480 80 44 00
        E 480 90 4b 7f
        E 480 80 4b 00
        E 480 90 44 7f
        E 480 80 44 00
        E 480 90 4b 7f
        E 480 80 4b 00
        E 0 90 44 7f
        E 240 80 44 00
        E 240 90 44 7f
        E 480 80 44 00
        E 480 90 4b 7f
        E 480 80 4b 00
        E 480 90 44 7f
        E 480 80 44 00
        E 480 90 46 7f
        E 240 80 46 00
        E 240 90 48 7f
        E 240 80 48 00
        E 240 90 4b 7f
        E 240 80 4b 00
        E 240 90 48 7f
        E 240 80 48 00
        E 240 90 46 7f
        E 240 80 46 00
        E 240 90 4b 7f
        E 240 80 4b 00
        E 240 90 44 7f
        E 480 80 44 00
        E 0 90 4b 7e
        E 480 80 4b 00
        E 480 90 4b 7f
        E 240 80 4b 00
        E 240 90 4b 7f
        E 240 80 4b 00
        E 240 90 4b 7f
        E 240 80 4b 00
        E 240 90 44 7f
        E 240 80 44 00
        E 240 90 44 7f
        E 240 80 44 00
        E 240 90 44 7f
        E 240 80 44 00
        E 720 90 4b 7f
        E 480 80 4b 00
        E 0 90 44 7f
        E 480 80 44 00
        E 960 90 44 7f
        E 480 80 44 00
        E 480 90 44 7f
        E 480 80 44 00
        E 480 90 4b 7f
        E 480 80 4b 00
        E 0 90 44 7f
        E 480 80 44 00
        E 960 90 44 7f
        E 480 80 44 00
        E 480 90 44 7f
        E 480 80 44 00
        E 480 90 4b 7f
        E 240 80 4b 00
        E 240 90 4b 7f
        E 240 80 4b 00
        E 240 90 4b 7f
        E 240 80 4b 00
        E 240 90 4b 7f
        E 240 80 4b 00
        E 240 90 46 7f
        E 240 80 46 00
        E 240 90 48 7f
        E 240 80 48 00
        E 240 90 44 7f
        E 480 80 44 00
        E 0 90 4b 7e
        E 480 80 4b 00
        E 480 90 4b 7f
        E 240 80 4b 00
        E 240 90 4b 7f
        E 240 80 4b 00
        E 240 90 4b 7f
        E 240 80 4b 00
        E 240 90 44 7f
        E 240 80 44 00
        E 240 90 44 7f
        E 240 80 44 00
        E 240 90 44 7f
        E 480 80 44 00
        E 480 90 4b 7f
        E 480 80 4b 00
        E 0 90 44 7f
        E 240 80 44 00
        E 240 90 44 7f
        E 480 80 44 00
        E 480 90 4b 7f
        E 480 80 4b 00
        E 480 90 44 7f
        E 480 80 44 00
        E 480 90 4b 7f
        E 480 80 4b 00
        E 0 90 44 7f
        E 240 80 44 00
        E 240 90 44 7f
        E 480 80 44 00
        E 480 90 4b 7f
        E 480 80 4b 00
        E 480 90 44 7f
        E 480 80 44 00
        E 480 90 46 7f
        E 240 80 46 00
        E 240 90 48 7f
        E 240 80 48 00
        E 240 90 4b 7f
        E 240 80 4b 00
        E 240 90 48 7f
        E 240 80 48 00
        E 240 90 46 7f
        E 240 80 46 00
        E 240 90 4b 7f
        E 240 80 4b 00
        E 240 b0 7b 00
        GUID {85E50CBD-F4BF-42E5-BB49-6D3DF09C5778}
        IGNTEMPO 0 120 4 4
        SRCCOLOR 17300
        VELLANE -1 100 0
        CFGEDITVIEW 0 0 38 12 0 -1 0 0 0 0.5
        KEYSNAP 0
        TRACKSEL -252
        EVTFILTER 0 -1 -1 -1 -1 0 0 0 0 -1 -1 -1 -1 0 -1 0 -1 -1
        CFGEDIT 1 1 0 1 0 0 1 1 1 1 1 0.25 455 93 1872 1023 0 0 0 0 0 0 1 0 0 0 0 0 1 64
      >
    >
  >
  <TRACK {A6C0FFD0-7143-42F6-82B7-55E37F807202}
    NAME Kick
    PEAKCOL 16576
    BEAT -1
    AUTOMODE 0
    VOLPAN 1 0 -1 -1 1
    MUTESOLO 0 0 0
    IPHASE 0
    ISBUS 0 0
    BUSCOMP 0 0
    SHOWINMIX 1 0.6667 0.5 1 0.5 0 0 0
    FREEMODE 0
    SEL 1
    REC 0 0 0 0 0 0 0
    VU 2
    TRACKHEIGHT 0 0
    INQ 0 0 0 0.5 100 0 0 100
    NCHAN 2
    FX 1
    TRACKID {A6C0FFD0-7143-42F6-82B7-55E37F807202}
    PERF 0
    MIDIOUT -1
    MAINSEND 1 0
    <ITEM
      POSITION 0
      SNAPOFFS 0
      LENGTH 219.130464
      LOOP 1
      ALLTAKES 0
      FADEIN 1 0 0 1 0 0
      FADEOUT 1 0 0 1 0 0
      MUTE 0
      SEL 0
      IGUID {B0BA5CE3-7D4A-4122-9E8D-284BC8381665}
      IID 5
      NAME "Kick - Lucky Hardcore =).mid"
      VOLPAN 1 0 1 -1
      SOFFS 0 0
      PLAYRATE 1 1 0 -1 0 0.0025
      CHANMODE 0
      GUID {7EB6E238-E6FF-4230-AE64-DB3985FADF0A}
      <SOURCE MIDI
        HASDATA 1 960 QN
        POOLEDEVTS {060DCD28-6AA0-4AE7-A580-A70532EC25CA}
        <X 0 0 0 0 3 Kick
          /wNLaWNr
        >
        E 30720 90 20 5f
        E 480 80 20 00
        E 0 90 20 5f
        E 480 80 20 00
        E 480 90 20 5f
        E 480 80 20 00
        E 0 90 20 5f
        E 480 80 20 00
        E 480 90 20 5f
        E 480 80 20 00
        E 480 90 20 5f
        E 480 80 20 00
        E 0 90 20 5f
        E 480 80 20 00
        E 480 90 20 5f
        E 480 80 20 00
        E 0 90 20 5f
        E 480 80 20 00
        E 480 90 20 5f
        E 480 80 20 00
        E 480 90 20 5f
        E 480 80 20 00
        E 0 90 20 5f
        E 480 80 20 00
        E 480 90 20 5f
        E 480 80 20 00
        E 0 90 20 5f
        E 480 80 20 00
        E 480 90 20 5f
        E 480 80 20 00
        E 480 90 20 5f
        E 480 80 20 00
        E 0 90 20 5f
        E 480 80 20 00
        E 480 90 20 5f
        E 480 80 20 00
        E 0 90 20 5f
        E 480 80 20 00
        E 480 90 20 5f
        E 480 80 20 00
        E 480 90 20 32
        E 480 80 20 00
        E 0 90 20 32
        E 480 80 20 00
        E 480 90 20 32
        E 480 80 20 00
        E 0 90 20 32
        E 480 80 20 00
        E 480 90 20 32
        E 480 80 20 00
        E 480 90 20 32
        E 480 80 20 00
        E 0 90 20 32
        E 480 80 20 00
        E 480 90 20 32
        E 480 80 20 00
        E 0 90 20 32
        E 480 80 20 00
        E 480 90 20 32
        E 480 80 20 00
        E 480 90 20 32
        E 480 80 20 00
        E 0 90 20 32
        E 480 80 20 00
        E 480 90 20 32
        E 480 80 20 00
        E 0 90 20 32
        E 480 80 20 00
        E 480 90 20 32
        E 480 80 20 00
        E 480 90 20 32
        E 480 80 20 00
        E 0 90 20 32
        E 480 80 20 00
        E 480 90 20 32
        E 480 80 20 00
        E 0 90 20 32
        E 480 80 20 00
        E 480 90 20 32
        E 480 80 20 00
        E 480 90 20 5f
        E 480 80 20 00
        E 0 90 20 5f
        E 480 80 20 00
        E 480 90 20 5f
        E 480 80 20 00
        E 0 90 20 5f
        E 480 80 20 00
        E 480 90 20 5f
        E 480 80 20 00
        E 480 90 20 5f
        E 480 80 20 00
        E 0 90 20 5f
        E 480 80 20 00
        E 480 90 20 5f
        E 480 80 20 00
        E 0 90 20 5f
        E 480 80 20 00
        E 480 90 20 5f
        E 480 80 20 00
        E 480 90 20 5f
        E 480 80 20 00
        E 0 90 20 5f
        E 480 80 20 00
        E 480 90 20 5f
        E 480 80 20 00
        E 0 90 20 5f
        E 480 80 20 00
        E 480 90 20 5f
        E 480 80 20 00
        E 480 90 20 5f
        E 480 80 20 00
        E 0 90 20 5f
        E 480 80 20 00
        E 480 90 20 5f
        E 480 80 20 00
        E 0 90 20 5f
        E 480 80 20 00
        E 480 90 20 5f
        E 480 80 20 00
        E 480 90 20 5f
        E 480 80 20 00
        E 0 90 20 5f
        E 480 80 20 00
        E 480 90 20 5f
        E 480 80 20 00
        E 0 90 20 5f
        E 480 80 20 00
        E 480 90 20 5f
        E 480 80 20 00
        E 480 90 20 5f
        E 480 80 20 00
        E 0 90 20 5f
        E 480 80 20 00
        E 480 90 20 5f
        E 480 80 20 00
        E 0 90 20 5f
        E 480 80 20 00
        E 480 90 20 5f
        E 480 80 20 00
        E 480 90 20 5f
        E 480 80 20 00
        E 0 90 20 5f
        E 480 80 20 00
        E 480 90 20 5f
        E 480 80 20 00
        E 0 90 20 5f
        E 480 80 20 00
        E 480 90 20 5f
        E 480 80 20 00
        E 480 90 20 5f
        E 480 80 20 00
        E 0 90 20 5f
        E 480 80 20 00
        E 480 90 20 5f
        E 480 80 20 00
        E 0 90 20 5f
        E 480 80 20 00
        E 480 90 20 5f
        E 480 80 20 00
        E 480 90 20 5f
        E 480 80 20 00
        E 0 90 20 5f
        E 480 80 20 00
        E 480 90 20 5f
        E 480 80 20 00
        E 0 90 20 5f
        E 480 80 20 00
        E 480 90 20 5f
        E 480 80 20 00
        E 480 90 20 5f
        E 480 80 20 00
        E 0 90 20 5f
        E 480 80 20 00
        E 480 90 20 5f
        E 480 80 20 00
        E 0 90 20 5f
        E 480 80 20 00
        E 480 90 20 5f
        E 480 80 20 00
        E 480 90 20 5f
        E 480 80 20 00
        E 0 90 20 5f
        E 480 80 20 00
        E 480 90 20 5f
        E 480 80 20 00
        E 0 90 20 5f
        E 480 80 20 00
        E 480 90 20 5f
        E 480 80 20 00
        E 480 90 20 5f
        E 480 80 20 00
        E 0 90 20 5f
        E 480 80 20 00
        E 480 90 20 5f
        E 480 80 20 00
        E 0 90 20 5f
        E 480 80 20 00
        E 480 90 20 5f
        E 480 80 20 00
        E 480 90 20 5f
        E 480 80 20 00
        E 0 90 20 5f
        E 480 80 20 00
        E 480 90 20 5f
        E 480 80 20 00
        E 0 90 20 5f
        E 480 80 20 00
        E 480 90 20 5f
        E 480 80 20 00
        E 480 90 20 5f
        E 480 80 20 00
        E 0 90 20 5f
        E 480 80 20 00
        E 480 90 20 5f
        E 480 80 20 00
        E 0 90 20 5f
        E 480 80 20 00
        E 480 90 20 5f
        E 480 80 20 00
        E 480 90 20 5f
        E 480 80 20 00
        E 0 90 20 5f
        E 480 80 20 00
        E 480 90 20 5f
        E 480 80 20 00
        E 0 90 20 5f
        E 480 80 20 00
        E 480 90 20 5f
        E 480 80 20 00
        E 480 90 20 5f
        E 480 80 20 00
        E 0 90 20 5f
        E 480 80 20 00
        E 480 90 20 5f
        E 480 80 20 00
        E 0 90 20 5f
        E 480 80 20 00
        E 480 90 20 5f
        E 480 80 20 00
        E 28800 90 20 6f
        E 480 80 20 00
        E 0 90 20 6f
        E 480 80 20 00
        E 480 90 20 6f
        E 480 80 20 00
        E 480 90 20 6f
        E 480 80 20 00
        E 0 90 20 6f
        E 480 80 20 00
        E 480 90 20 6f
        E 480 80 20 00
        E 0 90 20 6f
        E 480 80 20 00
        E 480 90 20 6f
        E 480 80 20 00
        E 480 90 20 6f
        E 480 80 20 00
        E 0 90 20 6f
        E 480 80 20 00
        E 480 90 20 6f
        E 480 80 20 00
        E 0 90 20 6f
        E 480 80 20 00
        E 480 90 20 6f
        E 480 80 20 00
        E 480 90 20 6f
        E 480 80 20 00
        E 0 90 20 6f
        E 480 80 20 00
        E 480 90 20 6f
        E 480 80 20 00
        E 0 90 20 6f
        E 480 80 20 00
        E 480 90 20 6f
        E 480 80 20 00
        E 480 90 20 6f
        E 480 80 20 00
        E 0 90 20 6f
        E 480 80 20 00
        E 480 90 20 6f
        E 480 80 20 00
        E 0 90 20 6f
        E 480 80 20 00
        E 480 90 20 6f
        E 480 80 20 00
        E 480 90 20 6f
        E 480 80 20 00
        E 0 90 20 6f
        E 480 80 20 00
        E 480 90 20 6f
        E 480 80 20 00
        E 0 90 20 6f
        E 480 80 20 00
        E 480 90 20 6f
        E 480 80 20 00
        E 480 90 20 6f
        E 480 80 20 00
        E 0 90 20 6f
        E 480 80 20 00
        E 480 90 20 6f
        E 480 80 20 00
        E 0 90 20 6f
        E 480 80 20 00
        E 480 90 20 6f
        E 480 80 20 00
        E 480 90 20 6f
        E 480 80 20 00
        E 0 90 20 6f
        E 480 80 20 00
        E 480 90 20 6f
        E 480 80 20 00
        E 0 90 20 6f
        E 480 80 20 00
        E 480 90 20 6f
        E 480 80 20 00
        E 480 90 20 6f
        E 480 80 20 00
        E 0 90 20 6f
        E 480 80 20 00
        E 480 90 20 6f
        E 480 80 20 00
        E 0 90 20 6f
        E 480 80 20 00
        E 480 90 20 6f
        E 480 80 20 00
        E 480 90 20 7f
        E 480 80 20 00
        E 0 90 20 7f
        E 480 80 20 00
        E 480 90 20 7f
        E 480 80 20 00
        E 0 90 20 7f
        E 480 80 20 00
        E 480 90 20 7f
        E 480 80 20 00
        E 480 90 20 7f
        E 480 80 20 00
        E 0 90 20 7f
        E 480 80 20 00
        E 480 90 20 7f
        E 480 80 20 00
        E 0 90 20 7f
        E 480 80 20 00
        E 480 90 20 7f
        E 480 80 20 00
        E 480 90 20 7f
        E 480 80 20 00
        E 0 90 20 7f
        E 480 80 20 00
        E 480 90 20 7f
        E 480 80 20 00
        E 0 90 20 7f
        E 480 80 20 00
        E 480 90 20 7f
        E 480 80 20 00
        E 480 90 20 7f
        E 480 80 20 00
        E 0 90 20 7f
        E 480 80 20 00
        E 480 90 20 7f
        E 480 80 20 00
        E 0 90 20 7f
        E 480 80 20 00
        E 480 90 20 7f
        E 480 80 20 00
        E 480 90 20 7f
        E 480 80 20 00
        E 0 90 20 7f
        E 480 80 20 00
        E 480 90 20 7f
        E 480 80 20 00
        E 0 90 20 7f
        E 480 80 20 00
        E 480 90 20 7f
        E 480 80 20 00
        E 480 90 20 7f
        E 480 80 20 00
        E 0 90 20 7f
        E 480 80 20 00
        E 480 90 20 7f
        E 480 80 20 00
        E 0 90 20 7f
        E 480 80 20 00
        E 480 90 20 7f
        E 480 80 20 00
        E 480 90 20 7f
        E 480 80 20 00
        E 0 90 20 7f
        E 480 80 20 00
        E 480 90 20 7f
        E 480 80 20 00
        E 0 90 20 7f
        E 480 80 20 00
        E 480 90 20 7f
        E 480 80 20 00
        E 480 90 20 7f
        E 480 80 20 00
        E 0 90 20 7f
        E 480 80 20 00
        E 480 90 20 7f
        E 480 80 20 00
        E 0 90 20 7f
        E 480 80 20 00
        E 480 90 20 7f
        E 480 80 20 00
        E 31200 90 20 7f
        E 480 80 20 00
        E 0 90 20 7f
        E 480 80 20 00
        E 480 90 20 7f
        E 480 80 20 00
        E 0 90 20 7f
        E 480 80 20 00
        E 480 90 20 7f
        E 480 80 20 00
        E 480 90 20 7f
        E 480 80 20 00
        E 0 90 20 7f
        E 480 80 20 00
        E 480 90 20 7f
        E 480 80 20 00
        E 0 90 20 7f
        E 480 80 20 00
        E 480 90 20 7f
        E 480 80 20 00
        E 480 90 20 7f
        E 480 80 20 00
        E 0 90 20 7f
        E 480 80 20 00
        E 480 90 20 7f
        E 480 80 20 00
        E 0 90 20 7f
        E 480 80 20 00
        E 480 90 20 7f
        E 480 80 20 00
        E 480 90 20 7f
        E 480 80 20 00
        E 0 90 20 7f
        E 480 80 20 00
        E 480 90 20 7f
        E 480 80 20 00
        E 0 90 20 7f
        E 480 80 20 00
        E 480 90 20 7f
        E 480 80 20 00
        E 480 90 20 7f
        E 480 80 20 00
        E 0 90 20 7f
        E 480 80 20 00
        E 480 90 20 7f
        E 480 80 20 00
        E 0 90 20 7f
        E 480 80 20 00
        E 480 90 20 7f
        E 480 80 20 00
        E 480 90 20 7f
        E 480 80 20 00
        E 0 90 20 7f
        E 480 80 20 00
        E 480 90 20 7f
        E 480 80 20 00
        E 0 90 20 7f
        E 480 80 20 00
        E 480 90 20 7f
        E 480 80 20 00
        E 480 90 20 7f
        E 480 80 20 00
        E 0 90 20 7f
        E 480 80 20 00
        E 480 90 20 7f
        E 480 80 20 00
        E 0 90 20 7f
        E 480 80 20 00
        E 480 90 20 7f
        E 480 80 20 00
        E 480 90 20 7f
        E 480 80 20 00
        E 0 90 20 7f
        E 480 80 20 00
        E 480 90 20 7f
        E 480 80 20 00
        E 0 90 20 7f
        E 480 80 20 00
        E 480 90 20 7f
        E 480 80 20 00
        E 480 90 20 7f
        E 480 80 20 00
        E 0 90 20 7f
        E 480 80 20 00
        E 480 90 20 7f
        E 480 80 20 00
        E 0 90 20 7f
        E 480 80 20 00
        E 480 90 20 7f
        E 480 80 20 00
        E 480 90 20 7f
        E 480 80 20 00
        E 0 90 20 7f
        E 480 80 20 00
        E 480 90 20 7f
        E 480 80 20 00
        E 0 90 20 7f
        E 480 80 20 00
        E 480 90 20 7f
        E 480 80 20 00
        E 480 90 20 7f
        E 480 80 20 00
        E 0 90 20 7f
        E 480 80 20 00
        E 480 90 20 7f
        E 480 80 20 00
        E 0 90 20 7f
        E 480 80 20 00
        E 480 90 20 7f
        E 480 80 20 00
        E 480 90 20 7f
        E 480 80 20 00
        E 0 90 20 7f
        E 480 80 20 00
        E 480 90 20 7f
        E 480 80 20 00
        E 0 90 20 7f
        E 480 80 20 00
        E 480 90 20 7f
        E 480 80 20 00
        E 480 90 20 7f
        E 480 80 20 00
        E 0 90 20 7f
        E 480 80 20 00
        E 480 90 20 7f
        E 480 80 20 00
        E 0 90 20 7f
        E 480 80 20 00
        E 480 90 20 7f
        E 480 80 20 00
        E 480 90 20 7f
        E 480 80 20 00
        E 0 90 20 7f
        E 480 80 20 00
        E 480 90 20 7f
        E 480 80 20 00
        E 0 90 20 7f
        E 480 80 20 00
        E 480 90 20 7f
        E 480 80 20 00
        E 480 90 20 7f
        E 480 80 20 00
        E 0 90 20 7f
        E 480 80 20 00
        E 480 90 20 7f
        E 480 80 20 00
        E 0 90 20 7f
        E 480 80 20 00
        E 480 90 20 7f
        E 480 80 20 00
        E 480 90 20 7f
        E 480 80 20 00
        E 0 90 20 7f
        E 480 80 20 00
        E 480 90 20 7f
        E 480 80 20 00
        E 0 90 20 7f
        E 480 80 20 00
        E 480 90 20 7f
        E 480 80 20 00
        E 480 90 20 7f
        E 480 80 20 00
        E 0 90 20 7f
        E 480 80 20 00
        E 480 90 20 7f
        E 480 80 20 00
        E 0 90 20 7f
        E 480 80 20 00
        E 480 90 20 7f
        E 480 80 20 00
        E 480 90 20 7f
        E 480 80 20 00
        E 0 90 20 7f
        E 480 80 20 00
        E 480 90 20 7f
        E 480 80 20 00
        E 0 90 20 7f
        E 480 80 20 00
        E 480 90 20 7f
        E 480 80 20 00
        E 480 90 20 7f
        E 480 80 20 00
        E 0 90 20 7f
        E 480 80 20 00
        E 480 90 20 7f
        E 480 80 20 00
        E 0 90 20 7f
        E 480 80 20 00
        E 480 90 20 7f
        E 480 80 20 00
        E 480 90 20 7f
        E 480 80 20 00
        E 0 90 20 7f
        E 480 80 20 00
        E 480 90 20 7f
        E 480 80 20 00
        E 0 90 20 7f
        E 480 80 20 00
        E 480 90 20 7f
        E 480 80 20 00
        E 480 90 20 7f
        E 480 80 20 00
        E 0 90 20 7f
        E 480 80 20 00
        E 480 90 20 7f
        E 480 80 20 00
        E 0 90 20 7f
        E 480 80 20 00
        E 480 90 20 7f
        E 480 80 20 00
        E 480 90 20 7f
        E 480 80 20 00
        E 0 90 20 7f
        E 480 80 20 00
        E 480 90 20 7f
        E 480 80 20 00
        E 0 90 20 7f
        E 480 80 20 00
        E 480 90 20 7f
        E 480 80 20 00
        E 480 90 20 7f
        E 480 80 20 00
        E 0 90 20 7f
        E 480 80 20 00
        E 480 90 20 7f
        E 480 80 20 00
        E 0 90 20 7f
        E 480 80 20 00
        E 480 90 20 7f
        E 480 80 20 00
        E 480 90 20 7f
        E 480 80 20 00
        E 0 90 20 7f
        E 480 80 20 00
        E 480 90 20 7f
        E 480 80 20 00
        E 0 90 20 7f
        E 480 80 20 00
        E 480 90 20 7f
        E 480 80 20 00
        E 31200 90 20 7f
        E 240 80 20 00
        E 720 90 20 7f
        E 240 80 20 00
        E 1200 90 20 7f
        E 240 80 20 00
        E 240 90 20 7f
        E 240 80 20 00
        E 720 90 20 7f
        E 240 80 20 00
        E 720 90 20 7f
        E 240 80 20 00
        E 1200 90 20 7f
        E 240 80 20 00
        E 240 90 20 7f
        E 240 80 20 00
        E 240 90 20 7f
        E 240 80 20 00
        E 240 90 20 7f
        E 240 80 20 00
        E 720 90 20 7f
        E 240 80 20 00
        E 1200 90 20 7f
        E 240 80 20 00
        E 240 90 20 7f
        E 240 80 20 00
        E 720 90 20 7f
        E 240 80 20 00
        E 720 90 20 7f
        E 240 80 20 00
        E 240 90 20 7f
        E 240 80 20 00
        E 720 90 20 7f
        E 240 80 20 00
        E 240 90 20 7f
        E 240 80 20 00
        E 240 90 20 7f
        E 240 80 20 00
        E 240 90 20 7f
        E 240 80 20 00
        E 720 90 20 7f
        E 240 80 20 00
        E 1200 90 20 7f
        E 240 80 20 00
        E 240 90 20 7f
        E 240 80 20 00
        E 720 90 20 7f
        E 240 80 20 00
        E 720 90 20 7f
        E 240 80 20 00
        E 1200 90 20 7f
        E 240 80 20 00
        E 240 90 20 7f
        E 240 80 20 00
        E 240 90 20 7f
        E 240 80 20 00
        E 240 90 20 7f
        E 240 80 20 00
        E 720 90 20 7f
        E 240 80 20 00
        E 1200 90 20 7f
        E 240 80 20 00
        E 240 90 20 7f
        E 240 80 20 00
        E 720 90 20 7f
        E 240 80 20 00
        E 720 90 20 7f
        E 240 80 20 00
        E 240 90 20 7f
        E 240 80 20 00
        E 720 90 20 7f
        E 240 80 20 00
        E 240 90 20 7f
        E 240 80 20 00
        E 240 90 20 7f
        E 240 80 20 00
        E 240 90 20 7f
        E 240 80 20 00
        E 720 90 20 7f
        E 240 80 20 00
        E 1200 90 20 7f
        E 240 80 20 00
        E 240 90 20 7f
        E 240 80 20 00
        E 720 90 20 7f
        E 240 80 20 00
        E 720 90 20 7f
        E 240 80 20 00
        E 1200 90 20 7f
        E 240 80 20 00
        E 240 90 20 7f
        E 240 80 20 00
        E 240 90 20 7f
        E 240 80 20 00
        E 240 90 20 7f
        E 240 80 20 00
        E 720 90 20 7f
        E 240 80 20 00
        E 1200 90 20 7f
        E 240 80 20 00
        E 240 90 20 7f
        E 240 80 20 00
        E 720 90 20 7f
        E 240 80 20 00
        E 720 90 20 7f
        E 240 80 20 00
        E 240 90 20 7f
        E 240 80 20 00
        E 720 90 20 7f
        E 240 80 20 00
        E 240 90 20 7f
        E 240 80 20 00
        E 240 90 20 7f
        E 240 80 20 00
        E 240 90 20 7f
        E 240 80 20 00
        E 720 90 20 7f
        E 240 80 20 00
        E 1200 90 20 7f
        E 240 80 20 00
        E 240 90 20 7f
        E 240 80 20 00
        E 720 90 20 7f
        E 240 80 20 00
        E 720 90 20 7f
        E 240 80 20 00
        E 1200 90 20 7f
        E 240 80 20 00
        E 240 90 20 7f
        E 240 80 20 00
        E 240 90 20 7f
        E 240 80 20 00
        E 240 90 20 7f
        E 240 80 20 00
        E 720 90 20 7f
        E 240 80 20 00
        E 1200 90 20 7f
        E 240 80 20 00
        E 240 90 20 7f
        E 240 80 20 00
        E 720 90 20 7f
        E 240 80 20 00
        E 720 90 20 7f
        E 240 80 20 00
        E 240 90 20 7f
        E 240 80 20 00
        E 720 90 20 7f
        E 240 80 20 00
        E 240 90 20 7f
        E 240 80 20 00
        E 240 90 20 7f
        E 240 80 20 00
        E 240 90 20 7f
        E 240 80 20 00
        E 720 90 20 7f
        E 240 80 20 00
        E 1200 90 20 7f
        E 240 80 20 00
        E 240 90 20 7f
        E 240 80 20 00
        E 720 90 20 7f
        E 240 80 20 00
        E 720 90 20 7f
        E 240 80 20 00
        E 1200 90 20 7f
        E 240 80 20 00
        E 240 90 20 7f
        E 240 80 20 00
        E 240 90 20 7f
        E 240 80 20 00
        E 240 90 20 7f
        E 240 80 20 00
        E 720 90 20 7f
        E 240 80 20 00
        E 1200 90 20 7f
        E 240 80 20 00
        E 240 90 20 7f
        E 240 80 20 00
        E 720 90 20 7f
        E 240 80 20 00
        E 720 90 20 7f
        E 240 80 20 00
        E 240 90 20 7f
        E 240 80 20 00
        E 720 90 20 7f
        E 240 80 20 00
        E 240 90 20 7f
        E 240 80 20 00
        E 240 90 20 7f
        E 240 80 20 00
        E 240 90 20 7f
        E 240 80 20 00
        E 720 90 20 7f
        E 240 80 20 00
        E 1200 90 20 7f
        E 240 80 20 00
        E 240 90 20 7f
        E 240 80 20 00
        E 720 90 20 7f
        E 240 80 20 00
        E 720 90 20 7f
        E 240 80 20 00
        E 1200 90 20 7f
        E 240 80 20 00
        E 240 90 20 7f
        E 240 80 20 00
        E 240 90 20 7f
        E 240 80 20 00
        E 240 90 20 7f
        E 240 80 20 00
        E 720 90 20 7f
        E 240 80 20 00
        E 1200 90 20 7f
        E 240 80 20 00
        E 240 90 20 7f
        E 240 80 20 00
        E 720 90 20 7f
        E 240 80 20 00
        E 720 90 20 7f
        E 240 80 20 00
        E 240 90 20 7f
        E 240 80 20 00
        E 720 90 20 7f
        E 240 80 20 00
        E 240 90 20 7f
        E 240 80 20 00
        E 240 90 20 7f
        E 240 80 20 00
        E 30960 90 20 7f
        E 480 80 20 00
        E 0 90 20 7f
        E 480 80 20 00
        E 480 90 20 7f
        E 480 80 20 00
        E 0 90 20 7f
        E 480 80 20 00
        E 480 90 20 7f
        E 480 80 20 00
        E 480 90 20 7f
        E 480 80 20 00
        E 0 90 20 7f
        E 480 80 20 00
        E 480 90 20 7f
        E 480 80 20 00
        E 0 90 20 7f
        E 480 80 20 00
        E 480 90 20 7f
        E 480 80 20 00
        E 480 90 20 7f
        E 480 80 20 00
        E 0 90 20 7f
        E 480 80 20 00
        E 480 90 20 7f
        E 480 80 20 00
        E 0 90 20 7f
        E 480 80 20 00
        E 480 90 20 7f
        E 480 80 20 00
        E 480 90 20 7f
        E 480 80 20 00
        E 0 90 20 7f
        E 480 80 20 00
        E 480 90 20 7f
        E 480 80 20 00
        E 0 90 20 7f
        E 480 80 20 00
        E 480 90 20 7f
        E 480 80 20 00
        E 480 90 20 7f
        E 480 80 20 00
        E 0 90 20 7f
        E 480 80 20 00
        E 480 90 20 7f
        E 480 80 20 00
        E 0 90 20 7f
        E 480 80 20 00
        E 480 90 20 7f
        E 480 80 20 00
        E 480 90 20 7f
        E 480 80 20 00
        E 0 90 20 7f
        E 480 80 20 00
        E 480 90 20 7f
        E 480 80 20 00
        E 0 90 20 7f
        E 480 80 20 00
        E 480 90 20 7f
        E 480 80 20 00
        E 6240 90 20 01
        E 240 80 20 00
        E 0 90 20 05
        E 240 90 20 07
        E 240 80 20 00
        E 0 90 20 09
        E 240 90 20 0a
        E 240 80 20 00
        E 0 90 20 0c
        E 240 90 20 0e
        E 240 80 20 00
        E 0 90 20 10
        E 240 90 20 11
        E 240 80 20 00
        E 0 90 20 13
        E 240 90 20 15
        E 240 80 20 00
        E 0 90 20 16
        E 240 90 20 18
        E 240 80 20 00
        E 0 90 20 1a
        E 240 90 20 1c
        E 240 80 20 00
        E 0 90 20 1d
        E 240 90 20 1f
        E 240 80 20 00
        E 0 90 20 21
        E 240 90 20 22
        E 240 80 20 00
        E 0 90 20 24
        E 240 90 20 26
        E 240 80 20 00
        E 0 90 20 28
        E 240 90 20 29
        E 240 80 20 00
        E 0 90 20 2b
        E 240 90 20 2d
        E 240 80 20 00
        E 0 90 20 2e
        E 240 90 20 30
        E 240 80 20 00
        E 0 90 20 32
        E 240 90 20 34
        E 240 80 20 00
        E 0 90 20 35
        E 240 90 20 37
        E 240 80 20 00
        E 0 90 20 39
        E 240 90 20 3a
        E 240 80 20 00
        E 0 90 20 3c
        E 240 90 20 3e
        E 240 80 20 00
        E 0 90 20 40
        E 240 90 20 41
        E 240 80 20 00
        E 0 90 20 43
        E 240 90 20 45
        E 240 80 20 00
        E 0 90 20 46
        E 240 90 20 48
        E 240 80 20 00
        E 0 90 20 4a
        E 240 90 20 4c
        E 240 80 20 00
        E 0 90 20 4d
        E 240 90 20 4f
        E 240 80 20 00
        E 0 90 20 51
        E 240 90 20 52
        E 240 80 20 00
        E 0 90 20 54
        E 240 90 20 56
        E 240 80 20 00
        E 0 90 20 58
        E 240 90 20 59
        E 240 80 20 00
        E 0 90 20 5b
        E 240 90 20 5d
        E 240 80 20 00
        E 0 90 20 5f
        E 240 90 20 60
        E 240 80 20 00
        E 0 90 20 62
        E 240 90 20 64
        E 240 80 20 00
        E 0 90 20 64
        E 240 90 20 64
        E 240 80 20 00
        E 0 90 20 64
        E 240 90 20 64
        E 240 80 20 00
        E 0 90 20 64
        E 240 90 20 64
        E 240 80 20 00
        E 0 90 20 64
        E 240 90 20 64
        E 240 80 20 00
        E 0 90 20 64
        E 240 90 20 64
        E 240 80 20 00
        E 0 90 20 64
        E 240 80 20 00
        E 960 90 20 52
        E 240 80 20 00
        E 0 90 20 52
        E 240 90 20 52
        E 240 80 20 00
        E 0 90 20 52
        E 240 90 20 52
        E 240 80 20 00
        E 0 90 20 52
        E 240 90 20 52
        E 240 80 20 00
        E 0 90 20 52
        E 240 90 20 52
        E 240 80 20 00
        E 0 90 20 52
        E 240 90 20 52
        E 240 80 20 00
        E 0 90 20 52
        E 240 80 20 00
        E 0 90 20 52
        E 960 90 20 55
        E 240 80 20 00
        E 0 90 20 55
        E 240 80 20 00
        E 0 90 20 55
        E 240 80 20 00
        E 0 90 20 55
        E 240 80 20 00
        E 0 90 20 55
        E 240 80 20 00
        E 0 90 20 55
        E 240 80 20 00
        E 0 90 20 55
        E 240 80 20 00
        E 0 90 20 55
        E 240 80 20 00
        E 0 90 20 55
        E 240 80 20 00
        E 0 90 20 55
        E 240 80 20 00
        E 0 90 20 55
        E 240 80 20 00
        E 0 90 20 55
        E 240 80 20 00
        E 0 90 20 55
        E 960 90 20 57
        E 240 80 20 00
        E 0 90 20 57
        E 240 90 20 57
        E 240 80 20 00
        E 0 90 20 57
        E 240 90 20 57
        E 240 80 20 00
        E 0 90 20 57
        E 240 90 20 57
        E 240 80 20 00
        E 0 90 20 57
        E 240 90 20 57
        E 240 80 20 00
        E 0 90 20 57
        E 240 90 20 57
        E 240 80 20 00
        E 0 90 20 57
        E 240 90 20 57
        E 240 80 20 00
        E 0 90 20 57
        E 240 90 20 57
        E 240 80 20 00
        E 0 90 20 57
        E 240 80 20 00
        E 3840 90 20 7f
        E 480 80 20 00
        E 0 90 20 7f
        E 480 80 20 00
        E 480 90 20 7f
        E 480 80 20 00
        E 0 90 20 7f
        E 480 80 20 00
        E 480 90 20 7f
        E 480 80 20 00
        E 480 90 20 7f
        E 480 80 20 00
        E 0 90 20 7f
        E 480 80 20 00
        E 480 90 20 7f
        E 480 80 20 00
        E 0 90 20 7f
        E 480 80 20 00
        E 480 90 20 7f
        E 480 80 20 00
        E 480 90 20 7f
        E 480 80 20 00
        E 0 90 20 7f
        E 480 80 20 00
        E 480 90 20 7f
        E 480 80 20 00
        E 0 90 20 7f
        E 480 80 20 00
        E 480 90 20 7f
        E 480 80 20 00
        E 480 90 20 7f
        E 480 80 20 00
        E 0 90 20 7f
        E 480 80 20 00
        E 480 90 20 7f
        E 480 80 20 00
        E 0 90 20 7f
        E 480 80 20 00
        E 16800 90 20 7f
        E 480 80 20 00
        E 0 90 20 7f
        E 480 80 20 00
        E 480 90 20 7f
        E 480 80 20 00
        E 0 90 20 7f
        E 480 80 20 00
        E 480 90 20 7f
        E 480 80 20 00
        E 480 90 20 7f
        E 480 80 20 00
        E 0 90 20 7f
        E 480 80 20 00
        E 480 90 20 7f
        E 480 80 20 00
        E 0 90 20 7f
        E 480 80 20 00
        E 480 90 20 7f
        E 480 80 20 00
        E 480 90 20 7f
        E 480 80 20 00
        E 0 90 20 7f
        E 480 80 20 00
        E 480 90 20 7f
        E 480 80 20 00
        E 0 90 20 7f
        E 480 80 20 00
        E 480 90 20 7f
        E 480 80 20 00
        E 480 90 20 7f
        E 480 80 20 00
        E 0 90 20 7f
        E 480 80 20 00
        E 480 90 20 7f
        E 480 80 20 00
        E 0 90 20 7f
        E 480 80 20 00
        E 480 90 20 7f
        E 480 80 20 00
        E 480 90 20 7f
        E 480 80 20 00
        E 0 90 20 7f
        E 480 80 20 00
        E 480 90 20 7f
        E 480 80 20 00
        E 0 90 20 7f
        E 480 80 20 00
        E 480 90 20 7f
        E 480 80 20 00
        E 480 90 20 7f
        E 480 80 20 00
        E 0 90 20 7f
        E 480 80 20 00
        E 480 90 20 7f
        E 480 80 20 00
        E 0 90 20 7f
        E 480 80 20 00
        E 480 90 20 7f
        E 480 80 20 00
        E 480 90 20 7f
        E 480 80 20 00
        E 0 90 20 7f
        E 480 80 20 00
        E 480 90 20 7f
        E 480 80 20 00
        E 0 90 20 7f
        E 480 80 20 00
        E 480 90 20 7f
        E 480 80 20 00
        E 480 90 20 7f
        E 480 80 20 00
        E 0 90 20 7f
        E 480 80 20 00
        E 480 90 20 7f
        E 480 80 20 00
        E 0 90 20 7f
        E 480 80 20 00
        E 480 90 20 7f
        E 480 80 20 00
        E 480 90 20 7f
        E 480 80 20 00
        E 0 90 20 7f
        E 480 80 20 00
        E 480 90 20 7f
        E 480 80 20 00
        E 0 90 20 7f
        E 480 80 20 00
        E 480 90 20 7f
        E 480 80 20 00
        E 480 90 20 7f
        E 480 80 20 00
        E 0 90 20 7f
        E 480 80 20 00
        E 480 90 20 7f
        E 480 80 20 00
        E 0 90 20 7f
        E 480 80 20 00
        E 480 90 20 7f
        E 480 80 20 00
        E 480 90 20 7f
        E 480 80 20 00
        E 0 90 20 7f
        E 480 80 20 00
        E 480 90 20 7f
        E 480 80 20 00
        E 0 90 20 7f
        E 480 80 20 00
        E 480 90 20 7f
        E 480 80 20 00
        E 480 90 20 7f
        E 480 80 20 00
        E 0 90 20 7f
        E 480 80 20 00
        E 480 90 20 7f
        E 480 80 20 00
        E 0 90 20 7f
        E 480 80 20 00
        E 480 90 20 7f
        E 480 80 20 00
        E 480 90 20 7f
        E 480 80 20 00
        E 0 90 20 7f
        E 480 80 20 00
        E 480 90 20 7f
        E 480 80 20 00
        E 0 90 20 7f
        E 480 80 20 00
        E 480 90 20 7f
        E 480 80 20 00
        E 480 90 20 7f
        E 480 80 20 00
        E 0 90 20 7f
        E 480 80 20 00
        E 480 90 20 7f
        E 480 80 20 00
        E 0 90 20 7f
        E 480 80 20 00
        E 480 90 20 7f
        E 480 80 20 00
        E 480 90 20 7f
        E 480 80 20 00
        E 0 90 20 7f
        E 480 80 20 00
        E 480 90 20 7f
        E 480 80 20 00
        E 0 90 20 7f
        E 480 80 20 00
        E 480 90 20 7f
        E 480 80 20 00
        E 480 90 20 7f
        E 480 80 20 00
        E 0 90 20 7f
        E 480 80 20 00
        E 480 90 20 7f
        E 480 80 20 00
        E 0 90 20 7f
        E 480 80 20 00
        E 480 90 20 7f
        E 480 80 20 00
        E 480 b0 7b 00
        GUID {67A67635-5346-446F-AD89-9C9B10F4F986}
        IGNTEMPO 0 120 4 4
        SRCCOLOR 14063
        VELLANE -1 100 0
        CFGEDITVIEW 496372.564493 0.024781 74 12 0 -1 0 0 0 0.5
        KEYSNAP 1
        TRACKSEL -252
        EVTFILTER 0 -1 -1 -1 -1 0 0 0 0 -1 -1 -1 -1 0 -1 0 -1 -1
        CFGEDIT 1 1 0 1 0 0 1 1 1 1 1 0.25 423 61 1872 1023 0 0 0 0 0 0 1 0 0 0 0 0 1 64
      >
    >
  >
  <TRACK {BE5B98DD-7718-4158-97E8-228B6004468F}
    NAME Snare
    PEAKCOL 16576
    BEAT -1
    AUTOMODE 0
    VOLPAN 1 0 -1 -1 1
    MUTESOLO 0 0 0
    IPHASE 0
    ISBUS 0 0
    BUSCOMP 0 0
    SHOWINMIX 1 0.6667 0.5 1 0.5 0 0 0
    FREEMODE 0
    SEL 0
    REC 0 0 0 0 0 0 0
    VU 2
    TRACKHEIGHT 0 0
    INQ 0 0 0 0.5 100 0 0 100
    NCHAN 2
    FX 1
    TRACKID {BE5B98DD-7718-4158-97E8-228B6004468F}
    PERF 0
    MIDIOUT -1
    MAINSEND 1 0
    <ITEM
      POSITION 0
      SNAPOFFS 0
      LENGTH 219.13046399996421
      LOOP 1
      ALLTAKES 0
      FADEIN 1 0 0 1 0 0
      FADEOUT 1 0 0 1 0 0
      MUTE 0
      SEL 0
      IGUID {CA7773D6-1893-494D-98B4-1CBAD1C093F7}
      IID 6
      NAME "Snare - Lucky Hardcore =).mid"
      VOLPAN 1 0 1 -1
      SOFFS 0 0
      PLAYRATE 1 1 0 -1 0 0.0025
      CHANMODE 0
      GUID {F754099B-C501-4371-8A73-ADE1ACC54D1F}
      <SOURCE MIDI
        HASDATA 1 960 QN
        POOLEDEVTS {3F5317B8-3A36-4B9D-8A43-9D20A748D176}
        <X 0 0 0 0 3 Snare
          /wNTbmFyZQ==
        >
        E 62400 90 38 52
        E 480 80 38 00
        E 960 90 38 52
        E 480 80 38 00
        E 1920 90 38 52
        E 480 80 38 00
        E 960 90 38 52
        E 480 80 38 00
        E 1920 90 38 52
        E 480 80 38 00
        E 960 90 38 52
        E 480 80 38 00
        E 1920 90 38 52
        E 480 80 38 00
        E 960 90 38 52
        E 480 80 38 00
        E 480 90 38 52
        E 480 80 38 00
        E 960 90 38 52
        E 480 80 38 00
        E 960 90 38 52
        E 480 80 38 00
        E 1920 90 38 52
        E 480 80 38 00
        E 960 90 38 52
        E 480 80 38 00
        E 1920 90 38 52
        E 480 80 38 00
        E 960 90 38 52
        E 480 80 38 00
        E 1920 90 38 52
        E 480 80 38 00
        E 960 90 38 52
        E 480 80 38 00
        E 480 90 38 52
        E 480 80 38 00
        E 960 90 38 52
        E 480 80 38 00
        E 960 90 38 52
        E 480 80 38 00
        E 1920 90 38 52
        E 480 80 38 00
        E 960 90 38 52
        E 480 80 38 00
        E 1920 90 38 52
        E 480 80 38 00
        E 960 90 38 52
        E 480 80 38 00
        E 1920 90 38 52
        E 480 80 38 00
        E 960 90 38 52
        E 480 80 38 00
        E 480 90 38 52
        E 480 80 38 00
        E 960 90 38 52
        E 480 80 38 00
        E 960 90 38 52
        E 480 80 38 00
        E 1920 90 38 52
        E 480 80 38 00
        E 960 90 38 52
        E 480 80 38 00
        E 1920 90 38 52
        E 480 80 38 00
        E 960 90 38 52
        E 480 80 38 00
        E 1920 90 38 52
        E 480 80 38 00
        E 960 90 38 52
        E 480 80 38 00
        E 480 90 38 52
        E 480 80 38 00
        E 27840 90 38 6f
        E 480 80 38 00
        E 960 90 38 6f
        E 480 80 38 00
        E 480 90 38 6f
        E 480 80 38 00
        E 960 90 38 6f
        E 480 80 38 00
        E 960 90 38 6f
        E 480 80 38 00
        E 1920 90 38 6f
        E 480 80 38 00
        E 960 90 38 6f
        E 480 80 38 00
        E 1920 90 38 6f
        E 480 80 38 00
        E 960 90 38 6f
        E 480 80 38 00
        E 1920 90 38 6f
        E 480 80 38 00
        E 960 90 38 6f
        E 480 80 38 00
        E 480 90 38 6f
        E 480 80 38 00
        E 960 90 38 6f
        E 480 80 38 00
        E 960 90 38 6f
        E 480 80 38 00
        E 1920 90 38 6f
        E 480 80 38 00
        E 960 90 38 6f
        E 480 80 38 00
        E 1920 90 38 6f
        E 480 80 38 00
        E 960 90 38 6f
        E 480 80 38 00
        E 1920 90 38 6f
        E 480 80 38 00
        E 960 90 38 6f
        E 480 80 38 00
        E 480 90 38 6f
        E 480 80 38 00
        E 960 90 38 7f
        E 480 80 38 00
        E 960 90 38 7f
        E 480 80 38 00
        E 1920 90 38 7f
        E 480 80 38 00
        E 960 90 38 7f
        E 480 80 38 00
        E 1920 90 38 7f
        E 480 80 38 00
        E 960 90 38 7f
        E 480 80 38 00
        E 1920 90 38 7f
        E 480 80 38 00
        E 960 90 38 7f
        E 480 80 38 00
        E 480 90 38 7f
        E 480 80 38 00
        E 960 90 38 7f
        E 480 80 38 00
        E 960 90 38 7f
        E 480 80 38 00
        E 1920 90 38 7f
        E 480 80 38 00
        E 960 90 38 7f
        E 480 80 38 00
        E 1920 90 38 7f
        E 480 80 38 00
        E 960 90 38 7f
        E 480 80 38 00
        E 1920 90 38 7f
        E 480 80 38 00
        E 960 90 38 7f
        E 480 80 38 00
        E 480 90 38 7f
        E 480 80 38 00
        E 0 90 38 6f
        E 480 80 38 00
        E 1440 90 38 6f
        E 480 80 38 00
        E 1440 90 38 6f
        E 480 80 38 00
        E 1440 90 38 6f
        E 480 80 38 00
        E 1440 90 38 6f
        E 480 80 38 00
        E 1440 90 38 6f
        E 480 80 38 00
        E 1440 90 38 6f
        E 480 80 38 00
        E 480 90 38 6f
        E 480 80 38 00
        E 480 90 38 6f
        E 480 80 38 00
        E 0 90 38 6f
        E 480 80 38 00
        E 0 90 38 6f
        E 480 80 38 00
        E 0 90 38 6f
        E 480 80 38 00
        E 0 90 38 6f
        E 480 80 38 00
        E 480 90 38 6f
        E 480 80 38 00
        E 480 90 38 6f
        E 480 80 38 00
        E 480 90 38 6f
        E 480 80 38 00
        E 0 90 38 6f
        E 480 80 38 00
        E 0 90 38 6f
        E 480 80 38 00
        E 480 90 38 6f
        E 480 80 38 00
        E 480 90 38 6f
        E 480 80 38 00
        E 480 90 38 6f
        E 480 80 38 00
        E 0 90 38 6f
        E 480 80 38 00
        E 0 90 38 6f
        E 480 80 38 00
        E 0 90 38 6f
        E 480 80 38 00
        E 0 90 38 6f
        E 480 80 38 00
        E 0 90 38 6f
        E 480 80 38 00
        E 0 90 38 6f
        E 480 80 38 00
        E 0 90 38 6f
        E 480 80 38 00
        E 0 90 38 6f
        E 480 80 38 00
        E 0 90 38 6f
        E 480 80 38 00
        E 4800 90 38 7f
        E 480 80 38 00
        E 960 90 38 7f
        E 480 80 38 00
        E 1920 90 38 7f
        E 480 80 38 00
        E 960 90 38 7f
        E 480 80 38 00
        E 1920 90 38 7f
        E 480 80 38 00
        E 960 90 38 7f
        E 480 80 38 00
        E 1920 90 38 7f
        E 480 80 38 00
        E 960 90 38 7f
        E 480 80 38 00
        E 480 90 38 7f
        E 480 80 38 00
        E 960 90 38 7f
        E 480 80 38 00
        E 960 90 38 7f
        E 480 80 38 00
        E 1920 90 38 7f
        E 480 80 38 00
        E 960 90 38 7f
        E 480 80 38 00
        E 1920 90 38 7f
        E 480 80 38 00
        E 960 90 38 7f
        E 480 80 38 00
        E 1920 90 38 7f
        E 480 80 38 00
        E 960 90 38 7f
        E 480 80 38 00
        E 480 90 38 7f
        E 480 80 38 00
        E 960 90 38 7f
        E 480 80 38 00
        E 960 90 38 7f
        E 480 80 38 00
        E 1920 90 38 7f
        E 480 80 38 00
        E 960 90 38 7f
        E 480 80 38 00
        E 1920 90 38 7f
        E 480 80 38 00
        E 960 90 38 7f
        E 480 80 38 00
        E 1920 90 38 7f
        E 480 80 38 00
        E 960 90 38 7f
        E 480 80 38 00
        E 480 90 38 7f
        E 480 80 38 00
        E 960 90 38 7f
        E 480 80 38 00
        E 960 90 38 7f
        E 480 80 38 00
        E 1920 90 38 7f
        E 480 80 38 00
        E 960 90 38 7f
        E 480 80 38 00
        E 1920 90 38 7f
        E 480 80 38 00
        E 960 90 38 7f
        E 480 80 38 00
        E 1920 90 38 7f
        E 480 80 38 00
        E 960 90 38 7f
        E 480 80 38 00
        E 480 90 38 7f
        E 480 80 38 00
        E 960 90 38 7f
        E 480 80 38 00
        E 960 90 38 7f
        E 480 80 38 00
        E 1920 90 38 7f
        E 480 80 38 00
        E 960 90 38 7f
        E 480 80 38 00
        E 1920 90 38 7f
        E 480 80 38 00
        E 960 90 38 7f
        E 480 80 38 00
        E 1920 90 38 7f
        E 480 80 38 00
        E 960 90 38 7f
        E 480 80 38 00
        E 480 90 38 7f
        E 480 80 38 00
        E 960 90 38 7f
        E 480 80 38 00
        E 960 90 38 7f
        E 480 80 38 00
        E 1920 90 38 7f
        E 480 80 38 00
        E 960 90 38 7f
        E 480 80 38 00
        E 1920 90 38 7f
        E 480 80 38 00
        E 960 90 38 7f
        E 480 80 38 00
        E 1920 90 38 7f
        E 480 80 38 00
        E 960 90 38 7f
        E 480 80 38 00
        E 480 90 38 7f
        E 480 80 38 00
        E 31680 90 38 6c
        E 480 80 38 00
        E 960 90 38 6c
        E 480 80 38 00
        E 1920 90 38 6c
        E 480 80 38 00
        E 960 90 38 6c
        E 480 80 38 00
        E 1920 90 38 6c
        E 480 80 38 00
        E 960 90 38 6c
        E 480 80 38 00
        E 1920 90 38 6c
        E 480 80 38 00
        E 960 90 38 6c
        E 480 80 38 00
        E 480 90 38 6c
        E 480 80 38 00
        E 960 90 38 6c
        E 480 80 38 00
        E 960 90 38 6c
        E 480 80 38 00
        E 1920 90 38 6c
        E 480 80 38 00
        E 960 90 38 6c
        E 480 80 38 00
        E 1920 90 38 6c
        E 480 80 38 00
        E 960 90 38 6c
        E 480 80 38 00
        E 1920 90 38 6c
        E 480 80 38 00
        E 960 90 38 6c
        E 480 80 38 00
        E 480 90 38 6c
        E 480 80 38 00
        E 960 90 38 6c
        E 480 80 38 00
        E 960 90 38 6c
        E 480 80 38 00
        E 1920 90 38 6c
        E 480 80 38 00
        E 960 90 38 6c
        E 480 80 38 00
        E 1920 90 38 6c
        E 480 80 38 00
        E 960 90 38 6c
        E 480 80 38 00
        E 1920 90 38 6c
        E 480 80 38 00
        E 960 90 38 6c
        E 480 80 38 00
        E 480 90 38 6c
        E 480 80 38 00
        E 960 90 38 6c
        E 480 80 38 00
        E 960 90 38 6c
        E 480 80 38 00
        E 1920 90 38 6c
        E 480 80 38 00
        E 960 90 38 6c
        E 480 80 38 00
        E 1920 90 38 6c
        E 480 80 38 00
        E 960 90 38 6c
        E 480 80 38 00
        E 1920 90 38 6c
        E 480 80 38 00
        E 960 90 38 6c
        E 480 80 38 00
        E 480 90 38 6c
        E 480 80 38 00
        E 960 90 38 6c
        E 480 80 38 00
        E 960 90 38 6c
        E 480 80 38 00
        E 1920 90 38 6c
        E 480 80 38 00
        E 960 90 38 6c
        E 480 80 38 00
        E 1920 90 38 6c
        E 480 80 38 00
        E 960 90 38 6c
        E 480 80 38 00
        E 1920 90 38 6c
        E 480 80 38 00
        E 960 90 38 6c
        E 480 80 38 00
        E 480 90 38 6c
        E 480 80 38 00
        E 960 90 38 6c
        E 480 80 38 00
        E 960 90 38 6c
        E 480 80 38 00
        E 1920 90 38 6c
        E 480 80 38 00
        E 960 90 38 6c
        E 480 80 38 00
        E 1920 90 38 6c
        E 480 80 38 00
        E 960 90 38 6c
        E 480 80 38 00
        E 1920 90 38 6c
        E 480 80 38 00
        E 960 90 38 6c
        E 480 80 38 00
        E 480 90 38 6c
        E 480 80 38 00
        E 30720 90 38 61
        E 480 80 38 00
        E 1440 90 38 61
        E 480 80 38 00
        E 1440 90 38 61
        E 480 80 38 00
        E 1440 90 38 61
        E 480 80 38 00
        E 1440 90 38 61
        E 480 80 38 00
        E 1440 90 38 61
        E 480 80 38 00
        E 1440 90 38 61
        E 480 80 38 00
        E 1440 90 38 61
        E 480 80 38 00
        E 1440 90 38 61
        E 480 80 38 00
        E 480 90 38 61
        E 480 80 38 00
        E 480 90 38 61
        E 480 80 38 00
        E 480 90 38 61
        E 480 80 38 00
        E 480 90 38 61
        E 480 80 38 00
        E 480 90 38 61
        E 480 80 38 00
        E 480 90 38 61
        E 480 80 38 00
        E 480 90 38 61
        E 480 80 38 00
        E 480 90 38 6c
        E 480 80 38 00
        E 1440 90 38 6c
        E 480 80 38 00
        E 1440 90 38 6c
        E 480 80 38 00
        E 1440 90 38 6c
        E 480 80 38 00
        E 1440 90 38 71
        E 480 80 38 00
        E 1440 90 38 7f
        E 480 80 38 00
        E 1440 90 38 7f
        E 480 80 38 00
        E 1440 90 38 7f
        E 480 80 38 00
        E 1440 90 38 7f
        E 480 80 38 00
        E 1440 90 38 7f
        E 480 80 38 00
        E 1440 90 38 7f
        E 480 80 38 00
        E 480 90 38 7f
        E 480 80 38 00
        E 480 90 38 7f
        E 480 80 38 00
        E 0 90 38 7f
        E 480 80 38 00
        E 960 90 38 7f
        E 480 80 38 00
        E 480 90 38 7f
        E 480 80 38 00
        E 480 90 38 7f
        E 480 80 38 00
        E 1441 90 38 7f
        E 479 80 38 00
        E 480 90 38 7f
        E 480 80 38 00
        E 480 90 38 7f
        E 480 80 38 00
        E 480 90 38 7f
        E 480 80 38 00
        E 0 90 38 7f
        E 480 80 38 00
        E 0 90 38 7f
        E 480 80 38 00
        E 0 90 38 7f
        E 480 80 38 00
        E 0 90 38 7f
        E 480 80 38 00
        E 0 90 38 7f
        E 480 80 38 00
        E 0 90 38 7f
        E 480 80 38 00
        E 0 90 38 7f
        E 480 80 38 00
        E 0 90 38 7f
        E 480 80 38 00
        E 0 90 38 7f
        E 480 80 38 00
        E 4800 90 38 7f
        E 480 80 38 00
        E 960 90 38 7f
        E 480 80 38 00
        E 1920 90 38 7f
        E 480 80 38 00
        E 960 90 38 7f
        E 480 80 38 00
        E 1920 90 38 7f
        E 480 80 38 00
        E 960 90 38 7f
        E 480 80 38 00
        E 1920 90 38 7f
        E 480 80 38 00
        E 960 90 38 7f
        E 480 80 38 00
        E 480 90 38 7f
        E 480 80 38 00
        E 960 90 38 7f
        E 480 80 38 00
        E 960 90 38 7f
        E 480 80 38 00
        E 1920 90 38 7f
        E 480 80 38 00
        E 960 90 38 7f
        E 480 80 38 00
        E 1920 90 38 7f
        E 480 80 38 00
        E 960 90 38 7f
        E 480 80 38 00
        E 1920 90 38 7f
        E 480 80 38 00
        E 960 90 38 7f
        E 480 80 38 00
        E 480 90 38 7f
        E 480 80 38 00
        E 960 90 38 7f
        E 480 80 38 00
        E 960 90 38 7f
        E 480 80 38 00
        E 1920 90 38 7f
        E 480 80 38 00
        E 960 90 38 7f
        E 480 80 38 00
        E 1920 90 38 7f
        E 480 80 38 00
        E 960 90 38 7f
        E 480 80 38 00
        E 1920 90 38 7f
        E 480 80 38 00
        E 960 90 38 7f
        E 480 80 38 00
        E 480 90 38 7f
        E 480 80 38 00
        E 960 90 38 7f
        E 480 80 38 00
        E 960 90 38 7f
        E 480 80 38 00
        E 1920 90 38 7f
        E 480 80 38 00
        E 960 90 38 7f
        E 480 80 38 00
        E 1920 90 38 7f
        E 480 80 38 00
        E 960 90 38 7f
        E 480 80 38 00
        E 1920 90 38 7f
        E 480 80 38 00
        E 960 90 38 7f
        E 480 80 38 00
        E 480 90 38 7f
        E 480 80 38 00
        E 960 90 38 6f
        E 480 80 38 00
        E 960 90 38 6f
        E 480 80 38 00
        E 1920 90 38 6f
        E 480 80 38 00
        E 960 90 38 6f
        E 480 80 38 00
        E 1920 90 38 6f
        E 480 80 38 00
        E 960 90 38 6f
        E 480 80 38 00
        E 1920 90 38 6f
        E 480 80 38 00
        E 960 90 38 6f
        E 480 80 38 00
        E 480 90 38 6f
        E 480 80 38 00
        E 960 90 38 6f
        E 480 80 38 00
        E 960 90 38 6f
        E 480 80 38 00
        E 1920 90 38 6f
        E 480 80 38 00
        E 960 90 38 6f
        E 480 80 38 00
        E 1920 90 38 6f
        E 480 80 38 00
        E 960 90 38 6f
        E 480 80 38 00
        E 1920 90 38 6f
        E 480 80 38 00
        E 960 90 38 6f
        E 480 80 38 00
        E 480 90 38 6f
        E 480 80 38 00
        E 0 b0 7b 00
        GUID {8A684731-9E19-463F-9926-8527567AC8FB}
        IGNTEMPO 0 120 4 4
        SRCCOLOR 14064
        VELLANE -1 100 0
        CFGEDITVIEW 630253.514069 0.023756 60 12 0 -1 0 0 0 0.5
        KEYSNAP 1
        TRACKSEL -252
        EVTFILTER 0 -1 -1 -1 -1 0 0 0 0 -1 -1 -1 -1 0 -1 0 -1 -1
        CFGEDIT 1 1 0 1 0 0 1 1 1 1 1 0.25 455 93 1872 1023 0 0 0 0 0 0 1 0 0 0 0 0 1 64
      >
    >
    <ITEM
      POSITION 219.13046399992891
      SNAPOFFS 0
      LENGTH 3.913044
      LOOP 1
      ALLTAKES 0
      FADEIN 1 0 0 1 0 0
      FADEOUT 1 0 0 1 0 0
      MUTE 0
      SEL 0
      IGUID {83D4EAED-FCAE-4B5E-8C5A-08B443975829}
      IID 293
      NAME "Drum Breaks B untitled MIDI item"
      VOLPAN 0 0 1 -1
      SOFFS 0 0
      PLAYRATE 1 1 0 -1 0 0.0025
      CHANMODE 0
      GUID {3B83C9C2-0510-418E-B44C-855D87286EB9}
      <SOURCE MIDI
        HASDATA 1 960 QN
        POOLEDEVTS {664D1897-43FC-4591-9F19-95C34B8F53C6}
        e 0 90 38 59
        e 480 80 38 00
        e 0 90 38 57
        e 480 80 38 00
        e 0 90 38 56
        e 480 80 38 00
        e 0 90 38 55
        e 480 80 38 00
        e 0 90 38 53
        e 480 80 38 00
        e 0 90 38 52
        e 480 80 38 00
        e 0 90 38 51
        e 480 80 38 00
        e 0 90 38 4f
        e 480 80 38 00
        e 0 90 38 4e
        e 480 80 38 00
        e 0 90 38 4d
        e 480 80 38 00
        e 0 90 38 4b
        e 480 80 38 00
        e 0 90 38 4a
        e 480 80 38 00
        e 0 90 38 49
        e 480 80 38 00
        e 0 90 38 47
        e 480 80 38 00
        e 0 90 38 46
        e 480 80 38 00
        e 0 90 38 45
        e 480 80 38 00
        e 0 90 38 43
        e 480 80 38 00
        e 0 90 38 42
        e 480 80 38 00
        e 0 90 38 41
        e 480 80 38 00
        e 0 90 38 3f
        e 480 80 38 00
        e 0 90 38 3e
        e 480 80 38 00
        e 0 90 38 3d
        e 480 80 38 00
        e 0 90 38 3b
        e 480 80 38 00
        e 0 90 38 3a
        e 480 80 38 00
        E 0 b0 7b 00
        GUID {87DDA7BA-14D2-43ED-BF3C-996A99A26369}
        IGNTEMPO 0 120 4 4
        SRCCOLOR 17291
        VELLANE -1 100 0
        CFGEDITVIEW -894.609349 0.044584 5 12 0 -1 0 0 0 0.5
        KEYSNAP 1
        TRACKSEL -252
        EVTFILTER 0 -1 -1 -1 -1 0 0 0 0 -1 -1 -1 -1 0 -1 0 -1 -1
        CFGEDIT 1 1 0 1 0 0 1 1 1 1 1 0.25 455 93 1872 1023 0 0 0 0 0 0 1 0 0 0 0 0 1 64
      >
    >
    <ITEM
      POSITION 223.04350799996357
      SNAPOFFS 0
      LENGTH 5.54347900003643
      LOOP 1
      ALLTAKES 0
      FADEIN 1 0 0 1 0 0
      FADEOUT 1 0 0 1 0 0
      MUTE 0
      SEL 0
      IGUID {E5CB1EB0-0698-46F3-9FF6-A4F7AE3A36E5}
      IID 306
      NAME "Snare - Lucky Hardcore =).mid"
      VOLPAN 1 0 1 -1
      SOFFS 223.04350799996357 684
      PLAYRATE 1 1 0 -1 0 0.0025
      CHANMODE 0
      GUID {8767A613-D8AB-401D-9D9A-91D57098B744}
      <SOURCE MIDI
        HASDATA 1 960 QN
        POOLEDEVTS {62269C9D-7412-4962-B744-82ED8C93E097}
        <X 0 0 0 0 3 Snare
          /wNTbmFyZQ==
        >
        E 62400 90 38 52
        E 480 80 38 00
        E 960 90 38 52
        E 480 80 38 00
        E 1920 90 38 52
        E 480 80 38 00
        E 960 90 38 52
        E 480 80 38 00
        E 1920 90 38 52
        E 480 80 38 00
        E 960 90 38 52
        E 480 80 38 00
        E 1920 90 38 52
        E 480 80 38 00
        E 960 90 38 52
        E 480 80 38 00
        E 480 90 38 52
        E 480 80 38 00
        E 960 90 38 52
        E 480 80 38 00
        E 960 90 38 52
        E 480 80 38 00
        E 1920 90 38 52
        E 480 80 38 00
        E 960 90 38 52
        E 480 80 38 00
        E 1920 90 38 52
        E 480 80 38 00
        E 960 90 38 52
        E 480 80 38 00
        E 1920 90 38 52
        E 480 80 38 00
        E 960 90 38 52
        E 480 80 38 00
        E 480 90 38 52
        E 480 80 38 00
        E 960 90 38 52
        E 480 80 38 00
        E 960 90 38 52
        E 480 80 38 00
        E 1920 90 38 52
        E 480 80 38 00
        E 960 90 38 52
        E 480 80 38 00
        E 1920 90 38 52
        E 480 80 38 00
        E 960 90 38 52
        E 480 80 38 00
        E 1920 90 38 52
        E 480 80 38 00
        E 960 90 38 52
        E 480 80 38 00
        E 480 90 38 52
        E 480 80 38 00
        E 960 90 38 52
        E 480 80 38 00
        E 960 90 38 52
        E 480 80 38 00
        E 1920 90 38 52
        E 480 80 38 00
        E 960 90 38 52
        E 480 80 38 00
        E 1920 90 38 52
        E 480 80 38 00
        E 960 90 38 52
        E 480 80 38 00
        E 1920 90 38 52
        E 480 80 38 00
        E 960 90 38 52
        E 480 80 38 00
        E 480 90 38 52
        E 480 80 38 00
        E 27840 90 38 6f
        E 480 80 38 00
        E 960 90 38 6f
        E 480 80 38 00
        E 480 90 38 6f
        E 480 80 38 00
        E 960 90 38 6f
        E 480 80 38 00
        E 960 90 38 6f
        E 480 80 38 00
        E 1920 90 38 6f
        E 480 80 38 00
        E 960 90 38 6f
        E 480 80 38 00
        E 1920 90 38 6f
        E 480 80 38 00
        E 960 90 38 6f
        E 480 80 38 00
        E 1920 90 38 6f
        E 480 80 38 00
        E 960 90 38 6f
        E 480 80 38 00
        E 480 90 38 6f
        E 480 80 38 00
        E 960 90 38 6f
        E 480 80 38 00
        E 960 90 38 6f
        E 480 80 38 00
        E 1920 90 38 6f
        E 480 80 38 00
        E 960 90 38 6f
        E 480 80 38 00
        E 1920 90 38 6f
        E 480 80 38 00
        E 960 90 38 6f
        E 480 80 38 00
        E 1920 90 38 6f
        E 480 80 38 00
        E 960 90 38 6f
        E 480 80 38 00
        E 480 90 38 6f
        E 480 80 38 00
        E 960 90 38 7f
        E 480 80 38 00
        E 960 90 38 7f
        E 480 80 38 00
        E 1920 90 38 7f
        E 480 80 38 00
        E 960 90 38 7f
        E 480 80 38 00
        E 1920 90 38 7f
        E 480 80 38 00
        E 960 90 38 7f
        E 480 80 38 00
        E 1920 90 38 7f
        E 480 80 38 00
        E 960 90 38 7f
        E 480 80 38 00
        E 480 90 38 7f
        E 480 80 38 00
        E 960 90 38 7f
        E 480 80 38 00
        E 960 90 38 7f
        E 480 80 38 00
        E 1920 90 38 7f
        E 480 80 38 00
        E 960 90 38 7f
        E 480 80 38 00
        E 1920 90 38 7f
        E 480 80 38 00
        E 960 90 38 7f
        E 480 80 38 00
        E 1920 90 38 7f
        E 480 80 38 00
        E 960 90 38 7f
        E 480 80 38 00
        E 480 90 38 7f
        E 480 80 38 00
        E 0 90 38 6f
        E 480 80 38 00
        E 1440 90 38 6f
        E 480 80 38 00
        E 1440 90 38 6f
        E 480 80 38 00
        E 1440 90 38 6f
        E 480 80 38 00
        E 1440 90 38 6f
        E 480 80 38 00
        E 1440 90 38 6f
        E 480 80 38 00
        E 1440 90 38 6f
        E 480 80 38 00
        E 480 90 38 6f
        E 480 80 38 00
        E 480 90 38 6f
        E 480 80 38 00
        E 0 90 38 6f
        E 480 80 38 00
        E 0 90 38 6f
        E 480 80 38 00
        E 0 90 38 6f
        E 480 80 38 00
        E 0 90 38 6f
        E 480 80 38 00
        E 480 90 38 6f
        E 480 80 38 00
        E 480 90 38 6f
        E 480 80 38 00
        E 480 90 38 6f
        E 480 80 38 00
        E 0 90 38 6f
        E 480 80 38 00
        E 0 90 38 6f
        E 480 80 38 00
        E 480 90 38 6f
        E 480 80 38 00
        E 480 90 38 6f
        E 480 80 38 00
        E 480 90 38 6f
        E 480 80 38 00
        E 0 90 38 6f
        E 480 80 38 00
        E 0 90 38 6f
        E 480 80 38 00
        E 0 90 38 6f
        E 480 80 38 00
        E 0 90 38 6f
        E 480 80 38 00
        E 0 90 38 6f
        E 480 80 38 00
        E 0 90 38 6f
        E 480 80 38 00
        E 0 90 38 6f
        E 480 80 38 00
        E 0 90 38 6f
        E 480 80 38 00
        E 0 90 38 6f
        E 480 80 38 00
        E 4800 90 38 7f
        E 480 80 38 00
        E 960 90 38 7f
        E 480 80 38 00
        E 1920 90 38 7f
        E 480 80 38 00
        E 960 90 38 7f
        E 480 80 38 00
        E 1920 90 38 7f
        E 480 80 38 00
        E 960 90 38 7f
        E 480 80 38 00
        E 1920 90 38 7f
        E 480 80 38 00
        E 960 90 38 7f
        E 480 80 38 00
        E 480 90 38 7f
        E 480 80 38 00
        E 960 90 38 7f
        E 480 80 38 00
        E 960 90 38 7f
        E 480 80 38 00
        E 1920 90 38 7f
        E 480 80 38 00
        E 960 90 38 7f
        E 480 80 38 00
        E 1920 90 38 7f
        E 480 80 38 00
        E 960 90 38 7f
        E 480 80 38 00
        E 1920 90 38 7f
        E 480 80 38 00
        E 960 90 38 7f
        E 480 80 38 00
        E 480 90 38 7f
        E 480 80 38 00
        E 960 90 38 7f
        E 480 80 38 00
        E 960 90 38 7f
        E 480 80 38 00
        E 1920 90 38 7f
        E 480 80 38 00
        E 960 90 38 7f
        E 480 80 38 00
        E 1920 90 38 7f
        E 480 80 38 00
        E 960 90 38 7f
        E 480 80 38 00
        E 1920 90 38 7f
        E 480 80 38 00
        E 960 90 38 7f
        E 480 80 38 00
        E 480 90 38 7f
        E 480 80 38 00
        E 960 90 38 7f
        E 480 80 38 00
        E 960 90 38 7f
        E 480 80 38 00
        E 1920 90 38 7f
        E 480 80 38 00
        E 960 90 38 7f
        E 480 80 38 00
        E 1920 90 38 7f
        E 480 80 38 00
        E 960 90 38 7f
        E 480 80 38 00
        E 1920 90 38 7f
        E 480 80 38 00
        E 960 90 38 7f
        E 480 80 38 00
        E 480 90 38 7f
        E 480 80 38 00
        E 960 90 38 7f
        E 480 80 38 00
        E 960 90 38 7f
        E 480 80 38 00
        E 1920 90 38 7f
        E 480 80 38 00
        E 960 90 38 7f
        E 480 80 38 00
        E 1920 90 38 7f
        E 480 80 38 00
        E 960 90 38 7f
        E 480 80 38 00
        E 1920 90 38 7f
        E 480 80 38 00
        E 960 90 38 7f
        E 480 80 38 00
        E 480 90 38 7f
        E 480 80 38 00
        E 960 90 38 7f
        E 480 80 38 00
        E 960 90 38 7f
        E 480 80 38 00
        E 1920 90 38 7f
        E 480 80 38 00
        E 960 90 38 7f
        E 480 80 38 00
        E 1920 90 38 7f
        E 480 80 38 00
        E 960 90 38 7f
        E 480 80 38 00
        E 1920 90 38 7f
        E 480 80 38 00
        E 960 90 38 7f
        E 480 80 38 00
        E 480 90 38 7f
        E 480 80 38 00
        E 31680 90 38 6c
        E 480 80 38 00
        E 960 90 38 6c
        E 480 80 38 00
        E 1920 90 38 6c
        E 480 80 38 00
        E 960 90 38 6c
        E 480 80 38 00
        E 1920 90 38 6c
        E 480 80 38 00
        E 960 90 38 6c
        E 480 80 38 00
        E 1920 90 38 6c
        E 480 80 38 00
        E 960 90 38 6c
        E 480 80 38 00
        E 480 90 38 6c
        E 480 80 38 00
        E 960 90 38 6c
        E 480 80 38 00
        E 960 90 38 6c
        E 480 80 38 00
        E 1920 90 38 6c
        E 480 80 38 00
        E 960 90 38 6c
        E 480 80 38 00
        E 1920 90 38 6c
        E 480 80 38 00
        E 960 90 38 6c
        E 480 80 38 00
        E 1920 90 38 6c
        E 480 80 38 00
        E 960 90 38 6c
        E 480 80 38 00
        E 480 90 38 6c
        E 480 80 38 00
        E 960 90 38 6c
        E 480 80 38 00
        E 960 90 38 6c
        E 480 80 38 00
        E 1920 90 38 6c
        E 480 80 38 00
        E 960 90 38 6c
        E 480 80 38 00
        E 1920 90 38 6c
        E 480 80 38 00
        E 960 90 38 6c
        E 480 80 38 00
        E 1920 90 38 6c
        E 480 80 38 00
        E 960 90 38 6c
        E 480 80 38 00
        E 480 90 38 6c
        E 480 80 38 00
        E 960 90 38 6c
        E 480 80 38 00
        E 960 90 38 6c
        E 480 80 38 00
        E 1920 90 38 6c
        E 480 80 38 00
        E 960 90 38 6c
        E 480 80 38 00
        E 1920 90 38 6c
        E 480 80 38 00
        E 960 90 38 6c
        E 480 80 38 00
        E 1920 90 38 6c
        E 480 80 38 00
        E 960 90 38 6c
        E 480 80 38 00
        E 480 90 38 6c
        E 480 80 38 00
        E 960 90 38 6c
        E 480 80 38 00
        E 960 90 38 6c
        E 480 80 38 00
        E 1920 90 38 6c
        E 480 80 38 00
        E 960 90 38 6c
        E 480 80 38 00
        E 1920 90 38 6c
        E 480 80 38 00
        E 960 90 38 6c
        E 480 80 38 00
        E 1920 90 38 6c
        E 480 80 38 00
        E 960 90 38 6c
        E 480 80 38 00
        E 480 90 38 6c
        E 480 80 38 00
        E 960 90 38 6c
        E 480 80 38 00
        E 960 90 38 6c
        E 480 80 38 00
        E 1920 90 38 6c
        E 480 80 38 00
        E 960 90 38 6c
        E 480 80 38 00
        E 1920 90 38 6c
        E 480 80 38 00
        E 960 90 38 6c
        E 480 80 38 00
        E 1920 90 38 6c
        E 480 80 38 00
        E 960 90 38 6c
        E 480 80 38 00
        E 480 90 38 6c
        E 480 80 38 00
        E 30720 90 38 61
        E 480 80 38 00
        E 1440 90 38 61
        E 480 80 38 00
        E 1440 90 38 61
        E 480 80 38 00
        E 1440 90 38 61
        E 480 80 38 00
        E 1440 90 38 61
        E 480 80 38 00
        E 1440 90 38 61
        E 480 80 38 00
        E 1440 90 38 61
        E 480 80 38 00
        E 1440 90 38 61
        E 480 80 38 00
        E 1440 90 38 61
        E 480 80 38 00
        E 480 90 38 61
        E 480 80 38 00
        E 480 90 38 61
        E 480 80 38 00
        E 480 90 38 61
        E 480 80 38 00
        E 480 90 38 61
        E 480 80 38 00
        E 480 90 38 61
        E 480 80 38 00
        E 480 90 38 61
        E 480 80 38 00
        E 480 90 38 61
        E 480 80 38 00
        E 480 90 38 6c
        E 480 80 38 00
        E 1440 90 38 6c
        E 480 80 38 00
        E 1440 90 38 6c
        E 480 80 38 00
        E 1440 90 38 6c
        E 480 80 38 00
        E 1440 90 38 71
        E 480 80 38 00
        E 1440 90 38 7f
        E 480 80 38 00
        E 1440 90 38 7f
        E 480 80 38 00
        E 1440 90 38 7f
        E 480 80 38 00
        E 1440 90 38 7f
        E 480 80 38 00
        E 1440 90 38 7f
        E 480 80 38 00
        E 1440 90 38 7f
        E 480 80 38 00
        E 480 90 38 7f
        E 480 80 38 00
        E 480 90 38 7f
        E 480 80 38 00
        E 0 90 38 7f
        E 480 80 38 00
        E 960 90 38 7f
        E 480 80 38 00
        E 480 90 38 7f
        E 480 80 38 00
        E 480 90 38 7f
        E 480 80 38 00
        E 1441 90 38 7f
        E 479 80 38 00
        E 480 90 38 7f
        E 480 80 38 00
        E 480 90 38 7f
        E 480 80 38 00
        E 480 90 38 7f
        E 480 80 38 00
        E 0 90 38 7f
        E 480 80 38 00
        E 0 90 38 7f
        E 480 80 38 00
        E 0 90 38 7f
        E 480 80 38 00
        E 0 90 38 7f
        E 480 80 38 00
        E 0 90 38 7f
        E 480 80 38 00
        E 0 90 38 7f
        E 480 80 38 00
        E 0 90 38 7f
        E 480 80 38 00
        E 0 90 38 7f
        E 480 80 38 00
        E 0 90 38 7f
        E 480 80 38 00
        E 4800 90 38 7f
        E 480 80 38 00
        E 960 90 38 7f
        E 480 80 38 00
        E 1920 90 38 7f
        E 480 80 38 00
        E 960 90 38 7f
        E 480 80 38 00
        E 1920 90 38 7f
        E 480 80 38 00
        E 960 90 38 7f
        E 480 80 38 00
        E 1920 90 38 7f
        E 480 80 38 00
        E 960 90 38 7f
        E 480 80 38 00
        E 480 90 38 7f
        E 480 80 38 00
        E 960 90 38 7f
        E 480 80 38 00
        E 960 90 38 7f
        E 480 80 38 00
        E 1920 90 38 7f
        E 480 80 38 00
        E 960 90 38 7f
        E 480 80 38 00
        E 1920 90 38 7f
        E 480 80 38 00
        E 960 90 38 7f
        E 480 80 38 00
        E 1920 90 38 7f
        E 480 80 38 00
        E 960 90 38 7f
        E 480 80 38 00
        E 480 90 38 7f
        E 480 80 38 00
        E 960 90 38 7f
        E 480 80 38 00
        E 960 90 38 7f
        E 480 80 38 00
        E 1920 90 38 7f
        E 480 80 38 00
        E 960 90 38 7f
        E 480 80 38 00
        E 1920 90 38 7f
        E 480 80 38 00
        E 960 90 38 7f
        E 480 80 38 00
        E 1920 90 38 7f
        E 480 80 38 00
        E 960 90 38 7f
        E 480 80 38 00
        E 480 90 38 7f
        E 480 80 38 00
        E 960 90 38 7f
        E 480 80 38 00
        E 960 90 38 7f
        E 480 80 38 00
        E 1920 90 38 7f
        E 480 80 38 00
        E 960 90 38 7f
        E 480 80 38 00
        E 1920 90 38 7f
        E 480 80 38 00
        E 960 90 38 7f
        E 480 80 38 00
        E 1920 90 38 7f
        E 480 80 38 00
        E 960 90 38 7f
        E 480 80 38 00
        E 480 90 38 7f
        E 480 80 38 00
        E 960 90 38 6f
        E 480 80 38 00
        E 960 90 38 6f
        E 480 80 38 00
        E 1920 90 38 6f
        E 480 80 38 00
        E 960 90 38 6f
        E 480 80 38 00
        E 1920 90 38 6f
        E 480 80 38 00
        E 960 90 38 6f
        E 480 80 38 00
        E 1920 90 38 6f
        E 480 80 38 00
        E 960 90 38 6f
        E 480 80 38 00
        E 480 90 38 6f
        E 480 80 38 00
        E 960 90 38 6f
        E 480 80 38 00
        E 960 90 38 6f
        E 480 80 38 00
        E 1920 90 38 6f
        E 480 80 38 00
        E 960 90 38 6f
        E 480 80 38 00
        E 1920 90 38 6f
        E 480 80 38 00
        E 960 90 38 6f
        E 480 80 38 00
        E 1920 90 38 6f
        E 480 80 38 00
        E 960 90 38 6f
        E 480 80 38 00
        E 480 90 38 6f
        E 480 80 38 00
        e 11520 90 38 39
        e 480 80 38 00
        e 480 90 38 36
        e 480 80 38 00
        e 480 90 38 33
        e 480 80 38 00
        e 480 90 38 31
        e 480 80 38 00
        e 480 90 38 2e
        e 480 80 38 00
        e 1440 90 38 29
        e 480 80 38 00
        e 1440 90 38 24
        e 480 80 38 00
        e 1440 90 38 1e
        e 480 80 38 00
        e 480 90 38 1c
        e 480 80 38 00
        e 0 90 38 1a
        e 480 80 38 00
        e 0 90 38 19
        e 480 80 38 00
        e 1440 90 38 14
        e 480 80 38 00
        e 1440 90 38 0e
        e 480 80 38 00
        E 480 b0 7b 00
        GUID {4AAA6FDB-8E5A-4C4F-9D33-748F71D295C9}
        IGNTEMPO 0 120 4 4
        SRCCOLOR 17303
        VELLANE -1 100 0
        CFGEDITVIEW 0 0 60 12 0 -1 0 0 0 0.5
        KEYSNAP 0
        TRACKSEL -252
        EVTFILTER 0 -1 -1 -1 -1 0 0 0 0 -1 -1 -1 -1 0 -1 0 -1 -1
        CFGEDIT 1 1 0 1 0 0 1 1 1 1 1 0.25 455 93 1872 1023 0 0 0 0 0 0 1 0 0 0 0 0 1 64
      >
    >
  >
  <TRACK {FFCC4562-AFFB-446D-BDCC-7B064A47BEAC}
    NAME "Long Clap"
    PEAKCOL 16576
    BEAT -1
    AUTOMODE 0
    VOLPAN 1 0 -1 -1 1
    MUTESOLO 0 0 0
    IPHASE 0
    ISBUS 0 0
    BUSCOMP 0 0
    SHOWINMIX 1 0.6667 0.5 1 0.5 0 0 0
    FREEMODE 0
    SEL 0
    REC 0 0 0 0 0 0 0
    VU 2
    TRACKHEIGHT 0 0
    INQ 0 0 0 0.5 100 0 0 100
    NCHAN 2
    FX 1
    TRACKID {FFCC4562-AFFB-446D-BDCC-7B064A47BEAC}
    PERF 0
    MIDIOUT -1
    MAINSEND 1 0
    <ITEM
      POSITION 0
      SNAPOFFS 0
      LENGTH 228.586987
      LOOP 1
      ALLTAKES 0
      FADEIN 1 0 0 1 0 0
      FADEOUT 1 0 0 1 0 0
      MUTE 0
      SEL 0
      IGUID {2E4AA8C8-BDEF-4EB5-B0FD-55788C9CF046}
      IID 7
      NAME "Long Clap - Lucky Hardcore =).mid"
      VOLPAN 1 0 1 -1
      SOFFS 0 0
      PLAYRATE 1 1 0 -1 0 0.0025
      CHANMODE 0
      GUID {68EC28F5-5FCE-4693-A77A-822E102D7C9D}
      <SOURCE MIDI
        HASDATA 1 960 QN
        POOLEDEVTS {61E62095-BAA2-4674-B35B-B080DB681194}
        <X 0 0 0 0 3 "Long Clap"
          /wNMb25nIENsYXA=
        >
        E 62400 90 44 52
        E 480 80 44 00
        E 960 90 44 52
        E 480 80 44 00
        E 1920 90 44 52
        E 480 80 44 00
        E 960 90 44 52
        E 480 80 44 00
        E 1920 90 44 52
        E 480 80 44 00
        E 960 90 44 52
        E 480 80 44 00
        E 1920 90 44 52
        E 480 80 44 00
        E 960 90 44 52
        E 480 80 44 00
        E 480 90 44 52
        E 480 80 44 00
        E 960 90 44 52
        E 480 80 44 00
        E 960 90 44 52
        E 480 80 44 00
        E 1920 90 44 52
        E 480 80 44 00
        E 960 90 44 52
        E 480 80 44 00
        E 1920 90 44 52
        E 480 80 44 00
        E 960 90 44 52
        E 480 80 44 00
        E 1920 90 44 52
        E 480 80 44 00
        E 960 90 44 52
        E 480 80 44 00
        E 480 90 44 52
        E 480 80 44 00
        E 960 90 44 52
        E 480 80 44 00
        E 960 90 44 52
        E 480 80 44 00
        E 1920 90 44 52
        E 480 80 44 00
        E 960 90 44 52
        E 480 80 44 00
        E 1920 90 44 52
        E 480 80 44 00
        E 960 90 44 52
        E 480 80 44 00
        E 1920 90 44 52
        E 480 80 44 00
        E 960 90 44 52
        E 480 80 44 00
        E 480 90 44 52
        E 480 80 44 00
        E 960 90 44 52
        E 480 80 44 00
        E 960 90 44 52
        E 480 80 44 00
        E 1920 90 44 52
        E 480 80 44 00
        E 960 90 44 52
        E 480 80 44 00
        E 1920 90 44 52
        E 480 80 44 00
        E 960 90 44 52
        E 480 80 44 00
        E 1920 90 44 52
        E 480 80 44 00
        E 960 90 44 52
        E 480 80 44 00
        E 480 90 44 52
        E 480 80 44 00
        E 27840 90 44 6f
        E 480 80 44 00
        E 960 90 44 6f
        E 480 80 44 00
        E 480 90 44 6f
        E 480 80 44 00
        E 960 90 44 6f
        E 480 80 44 00
        E 960 90 44 6f
        E 480 80 44 00
        E 1920 90 44 6f
        E 480 80 44 00
        E 960 90 44 6f
        E 480 80 44 00
        E 1920 90 44 6f
        E 480 80 44 00
        E 960 90 44 6f
        E 480 80 44 00
        E 1920 90 44 6f
        E 480 80 44 00
        E 960 90 44 6f
        E 480 80 44 00
        E 480 90 44 6f
        E 480 80 44 00
        E 960 90 44 6f
        E 480 80 44 00
        E 960 90 44 6f
        E 480 80 44 00
        E 1920 90 44 6f
        E 480 80 44 00
        E 960 90 44 6f
        E 480 80 44 00
        E 1920 90 44 6f
        E 480 80 44 00
        E 960 90 44 6f
        E 480 80 44 00
        E 1920 90 44 6f
        E 480 80 44 00
        E 960 90 44 6f
        E 480 80 44 00
        E 480 90 44 6f
        E 480 80 44 00
        E 960 90 44 7f
        E 480 80 44 00
        E 960 90 44 7f
        E 480 80 44 00
        E 1920 90 44 7f
        E 480 80 44 00
        E 960 90 44 7f
        E 480 80 44 00
        E 1920 90 44 7f
        E 480 80 44 00
        E 960 90 44 7f
        E 480 80 44 00
        E 1920 90 44 7f
        E 480 80 44 00
        E 960 90 44 7f
        E 480 80 44 00
        E 480 90 44 7f
        E 480 80 44 00
        E 960 90 44 7f
        E 480 80 44 00
        E 960 90 44 7f
        E 480 80 44 00
        E 1920 90 44 7f
        E 480 80 44 00
        E 960 90 44 7f
        E 480 80 44 00
        E 1920 90 44 7f
        E 480 80 44 00
        E 960 90 44 7f
        E 480 80 44 00
        E 1920 90 44 7f
        E 480 80 44 00
        E 960 90 44 7f
        E 480 80 44 00
        E 480 90 44 7f
        E 480 80 44 00
        E 0 90 44 6f
        E 480 80 44 00
        E 1440 90 44 6f
        E 480 80 44 00
        E 1440 90 44 6f
        E 480 80 44 00
        E 1440 90 44 6f
        E 480 80 44 00
        E 1440 90 44 6f
        E 480 80 44 00
        E 1440 90 44 6f
        E 480 80 44 00
        E 1440 90 44 6f
        E 480 80 44 00
        E 480 90 44 6f
        E 480 80 44 00
        E 480 90 44 6f
        E 480 80 44 00
        E 0 90 44 6f
        E 480 80 44 00
        E 0 90 44 6f
        E 480 80 44 00
        E 0 90 44 6f
        E 480 80 44 00
        E 0 90 44 6f
        E 480 80 44 00
        E 480 90 44 6f
        E 480 80 44 00
        E 480 90 44 6f
        E 480 80 44 00
        E 480 90 44 6f
        E 480 80 44 00
        E 0 90 44 6f
        E 480 80 44 00
        E 0 90 44 6f
        E 480 80 44 00
        E 480 90 44 6f
        E 480 80 44 00
        E 480 90 44 6f
        E 480 80 44 00
        E 480 90 44 6f
        E 480 80 44 00
        E 0 90 44 6f
        E 480 80 44 00
        E 0 90 44 6f
        E 480 80 44 00
        E 0 90 44 6f
        E 480 80 44 00
        E 0 90 44 6f
        E 480 80 44 00
        E 0 90 44 6f
        E 480 80 44 00
        E 0 90 44 6f
        E 480 80 44 00
        E 0 90 44 6f
        E 480 80 44 00
        E 0 90 44 6f
        E 480 80 44 00
        E 0 90 44 6f
        E 480 80 44 00
        E 4800 90 44 7f
        E 480 80 44 00
        E 960 90 44 7f
        E 480 80 44 00
        E 1920 90 44 7f
        E 480 80 44 00
        E 960 90 44 7f
        E 480 80 44 00
        E 1920 90 44 7f
        E 480 80 44 00
        E 960 90 44 7f
        E 480 80 44 00
        E 1920 90 44 7f
        E 480 80 44 00
        E 960 90 44 7f
        E 480 80 44 00
        E 480 90 44 7f
        E 480 80 44 00
        E 960 90 44 7f
        E 480 80 44 00
        E 960 90 44 7f
        E 480 80 44 00
        E 1920 90 44 7f
        E 480 80 44 00
        E 960 90 44 7f
        E 480 80 44 00
        E 1920 90 44 7f
        E 480 80 44 00
        E 960 90 44 7f
        E 480 80 44 00
        E 1920 90 44 7f
        E 480 80 44 00
        E 960 90 44 7f
        E 480 80 44 00
        E 480 90 44 7f
        E 480 80 44 00
        E 960 90 44 7f
        E 480 80 44 00
        E 960 90 44 7f
        E 480 80 44 00
        E 1920 90 44 7f
        E 480 80 44 00
        E 960 90 44 7f
        E 480 80 44 00
        E 1920 90 44 7f
        E 480 80 44 00
        E 960 90 44 7f
        E 480 80 44 00
        E 1920 90 44 7f
        E 480 80 44 00
        E 960 90 44 7f
        E 480 80 44 00
        E 480 90 44 7f
        E 480 80 44 00
        E 960 90 44 7f
        E 480 80 44 00
        E 960 90 44 7f
        E 480 80 44 00
        E 1920 90 44 7f
        E 480 80 44 00
        E 960 90 44 7f
        E 480 80 44 00
        E 1920 90 44 7f
        E 480 80 44 00
        E 960 90 44 7f
        E 480 80 44 00
        E 1920 90 44 7f
        E 480 80 44 00
        E 960 90 44 7f
        E 480 80 44 00
        E 480 90 44 7f
        E 480 80 44 00
        E 960 90 44 7f
        E 480 80 44 00
        E 960 90 44 7f
        E 480 80 44 00
        E 1920 90 44 7f
        E 480 80 44 00
        E 960 90 44 7f
        E 480 80 44 00
        E 1920 90 44 7f
        E 480 80 44 00
        E 960 90 44 7f
        E 480 80 44 00
        E 1920 90 44 7f
        E 480 80 44 00
        E 960 90 44 7f
        E 480 80 44 00
        E 480 90 44 7f
        E 480 80 44 00
        E 960 90 44 7f
        E 480 80 44 00
        E 960 90 44 7f
        E 480 80 44 00
        E 1920 90 44 7f
        E 480 80 44 00
        E 960 90 44 7f
        E 480 80 44 00
        E 1920 90 44 7f
        E 480 80 44 00
        E 960 90 44 7f
        E 480 80 44 00
        E 1920 90 44 7f
        E 480 80 44 00
        E 960 90 44 7f
        E 480 80 44 00
        E 480 90 44 7f
        E 480 80 44 00
        E 31680 90 44 6c
        E 480 80 44 00
        E 960 90 44 6c
        E 480 80 44 00
        E 1920 90 44 6c
        E 480 80 44 00
        E 960 90 44 6c
        E 480 80 44 00
        E 1920 90 44 6c
        E 480 80 44 00
        E 960 90 44 6c
        E 480 80 44 00
        E 1920 90 44 6c
        E 480 80 44 00
        E 960 90 44 6c
        E 480 80 44 00
        E 480 90 44 6c
        E 480 80 44 00
        E 960 90 44 6c
        E 480 80 44 00
        E 960 90 44 6c
        E 480 80 44 00
        E 1920 90 44 6c
        E 480 80 44 00
        E 960 90 44 6c
        E 480 80 44 00
        E 1920 90 44 6c
        E 480 80 44 00
        E 960 90 44 6c
        E 480 80 44 00
        E 1920 90 44 6c
        E 480 80 44 00
        E 960 90 44 6c
        E 480 80 44 00
        E 480 90 44 6c
        E 480 80 44 00
        E 960 90 44 6c
        E 480 80 44 00
        E 960 90 44 6c
        E 480 80 44 00
        E 1920 90 44 6c
        E 480 80 44 00
        E 960 90 44 6c
        E 480 80 44 00
        E 1920 90 44 6c
        E 480 80 44 00
        E 960 90 44 6c
        E 480 80 44 00
        E 1920 90 44 6c
        E 480 80 44 00
        E 960 90 44 6c
        E 480 80 44 00
        E 480 90 44 6c
        E 480 80 44 00
        E 960 90 44 6c
        E 480 80 44 00
        E 960 90 44 6c
        E 480 80 44 00
        E 1920 90 44 6c
        E 480 80 44 00
        E 960 90 44 6c
        E 480 80 44 00
        E 1920 90 44 6c
        E 480 80 44 00
        E 960 90 44 6c
        E 480 80 44 00
        E 1920 90 44 6c
        E 480 80 44 00
        E 960 90 44 6c
        E 480 80 44 00
        E 480 90 44 6c
        E 480 80 44 00
        E 960 90 44 6c
        E 480 80 44 00
        E 960 90 44 6c
        E 480 80 44 00
        E 1920 90 44 6c
        E 480 80 44 00
        E 960 90 44 6c
        E 480 80 44 00
        E 1920 90 44 6c
        E 480 80 44 00
        E 960 90 44 6c
        E 480 80 44 00
        E 1920 90 44 6c
        E 480 80 44 00
        E 960 90 44 6c
        E 480 80 44 00
        E 480 90 44 6c
        E 480 80 44 00
        E 960 90 44 6c
        E 480 80 44 00
        E 960 90 44 6c
        E 480 80 44 00
        E 1920 90 44 6c
        E 480 80 44 00
        E 960 90 44 6c
        E 480 80 44 00
        E 1920 90 44 6c
        E 480 80 44 00
        E 960 90 44 6c
        E 480 80 44 00
        E 1920 90 44 6c
        E 480 80 44 00
        E 960 90 44 6c
        E 480 80 44 00
        E 480 90 44 6c
        E 480 80 44 00
        E 30720 90 44 61
        E 480 80 44 00
        E 1440 90 44 61
        E 480 80 44 00
        E 1440 90 44 61
        E 480 80 44 00
        E 1440 90 44 61
        E 480 80 44 00
        E 1440 90 44 61
        E 480 80 44 00
        E 1440 90 44 61
        E 480 80 44 00
        E 1440 90 44 61
        E 480 80 44 00
        E 1440 90 44 61
        E 480 80 44 00
        E 1440 90 44 61
        E 480 80 44 00
        E 480 90 44 61
        E 480 80 44 00
        E 480 90 44 61
        E 480 80 44 00
        E 480 90 44 61
        E 480 80 44 00
        E 480 90 44 61
        E 480 80 44 00
        E 480 90 44 61
        E 480 80 44 00
        E 480 90 44 61
        E 480 80 44 00
        E 480 90 44 61
        E 480 80 44 00
        E 480 90 44 6c
        E 480 80 44 00
        E 1440 90 44 6c
        E 480 80 44 00
        E 1440 90 44 6c
        E 480 80 44 00
        E 1440 90 44 6c
        E 480 80 44 00
        E 1440 90 44 71
        E 480 80 44 00
        E 1440 90 44 7f
        E 480 80 44 00
        E 1440 90 44 7f
        E 480 80 44 00
        E 1440 90 44 7f
        E 480 80 44 00
        E 1440 90 44 7f
        E 480 80 44 00
        E 1440 90 44 7f
        E 480 80 44 00
        E 1440 90 44 7f
        E 480 80 44 00
        E 480 90 44 7f
        E 480 80 44 00
        E 480 90 44 7f
        E 480 80 44 00
        E 0 90 44 7f
        E 480 80 44 00
        E 960 90 44 7f
        E 480 80 44 00
        E 480 90 44 7f
        E 480 80 44 00
        E 480 90 44 7f
        E 480 80 44 00
        E 1441 90 44 7f
        E 479 80 44 00
        E 480 90 44 7f
        E 480 80 44 00
        E 480 90 44 7f
        E 480 80 44 00
        E 480 90 44 7f
        E 480 80 44 00
        E 0 90 44 7f
        E 480 80 44 00
        E 0 90 44 7f
        E 480 80 44 00
        E 0 90 44 7f
        E 480 80 44 00
        E 0 90 44 7f
        E 480 80 44 00
        E 0 90 44 7f
        E 480 80 44 00
        E 0 90 44 7f
        E 480 80 44 00
        E 0 90 44 7f
        E 480 80 44 00
        E 0 90 44 7f
        E 480 80 44 00
        E 0 90 44 7f
        E 480 80 44 00
        E 4800 90 44 7f
        E 480 80 44 00
        E 960 90 44 7f
        E 480 80 44 00
        E 1920 90 44 7f
        E 480 80 44 00
        E 960 90 44 7f
        E 480 80 44 00
        E 1920 90 44 7f
        E 480 80 44 00
        E 960 90 44 7f
        E 480 80 44 00
        E 1920 90 44 7f
        E 480 80 44 00
        E 960 90 44 7f
        E 480 80 44 00
        E 480 90 44 7f
        E 480 80 44 00
        E 960 90 44 7f
        E 480 80 44 00
        E 960 90 44 7f
        E 480 80 44 00
        E 1920 90 44 7f
        E 480 80 44 00
        E 960 90 44 7f
        E 480 80 44 00
        E 1920 90 44 7f
        E 480 80 44 00
        E 960 90 44 7f
        E 480 80 44 00
        E 1920 90 44 7f
        E 480 80 44 00
        E 960 90 44 7f
        E 480 80 44 00
        E 480 90 44 7f
        E 480 80 44 00
        E 960 90 44 7f
        E 480 80 44 00
        E 960 90 44 7f
        E 480 80 44 00
        E 1920 90 44 7f
        E 480 80 44 00
        E 960 90 44 7f
        E 480 80 44 00
        E 1920 90 44 7f
        E 480 80 44 00
        E 960 90 44 7f
        E 480 80 44 00
        E 1920 90 44 7f
        E 480 80 44 00
        E 960 90 44 7f
        E 480 80 44 00
        E 480 90 44 7f
        E 480 80 44 00
        E 960 90 44 7f
        E 480 80 44 00
        E 960 90 44 7f
        E 480 80 44 00
        E 1920 90 44 7f
        E 480 80 44 00
        E 960 90 44 7f
        E 480 80 44 00
        E 1920 90 44 7f
        E 480 80 44 00
        E 960 90 44 7f
        E 480 80 44 00
        E 1920 90 44 7f
        E 480 80 44 00
        E 960 90 44 7f
        E 480 80 44 00
        E 480 90 44 7f
        E 480 80 44 00
        E 960 90 44 6f
        E 480 80 44 00
        E 960 90 44 6f
        E 480 80 44 00
        E 1920 90 44 6f
        E 480 80 44 00
        E 960 90 44 6f
        E 480 80 44 00
        E 1920 90 44 6f
        E 480 80 44 00
        E 960 90 44 6f
        E 480 80 44 00
        E 1920 90 44 6f
        E 480 80 44 00
        E 960 90 44 6f
        E 480 80 44 00
        E 480 90 44 6f
        E 480 80 44 00
        E 960 90 44 6f
        E 480 80 44 00
        E 960 90 44 6f
        E 480 80 44 00
        E 1920 90 44 6f
        E 480 80 44 00
        E 960 90 44 6f
        E 480 80 44 00
        E 1920 90 44 6f
        E 480 80 44 00
        E 960 90 44 6f
        E 480 80 44 00
        E 1920 90 44 6f
        E 480 80 44 00
        E 960 90 44 6f
        E 480 80 44 00
        E 480 90 44 6f
        E 480 80 44 00
        E 0 90 44 59
        E 480 80 44 00
        E 0 90 44 59
        E 480 80 44 00
        E 0 90 44 59
        E 480 80 44 00
        E 0 90 44 59
        E 480 80 44 00
        E 0 90 44 59
        E 480 80 44 00
        E 0 90 44 59
        E 480 80 44 00
        E 0 90 44 59
        E 480 80 44 00
        E 0 90 44 56
        E 480 80 44 00
        E 0 90 44 56
        E 480 80 44 00
        E 0 90 44 56
        E 480 80 44 00
        E 0 90 44 56
        E 480 80 44 00
        E 0 90 44 56
        E 480 80 44 00
        E 0 90 44 56
        E 480 80 44 00
        E 0 90 44 4d
        E 480 80 44 00
        E 0 90 44 4d
        E 480 80 44 00
        E 0 90 44 4d
        E 480 80 44 00
        E 0 90 44 4d
        E 480 80 44 00
        E 0 90 44 4d
        E 480 80 44 00
        E 0 90 44 4d
        E 480 80 44 00
        E 0 90 44 43
        E 480 80 44 00
        E 0 90 44 43
        E 480 80 44 00
        E 0 90 44 43
        E 480 80 44 00
        E 0 90 44 43
        E 480 80 44 00
        E 0 90 44 43
        E 480 80 44 00
        E 0 90 44 43
        E 480 80 44 00
        E 480 90 44 3a
        E 480 80 44 00
        E 480 90 44 3a
        E 480 80 44 00
        E 480 90 44 3a
        E 480 80 44 00
        E 480 90 44 31
        E 480 80 44 00
        E 1440 90 44 31
        E 480 80 44 00
        E 1440 90 44 28
        E 480 80 44 00
        E 1440 90 44 1f
        E 480 80 44 00
        E 480 90 44 1f
        E 480 80 44 00
        E 0 90 44 1f
        E 480 80 44 00
        E 0 90 44 1f
        E 480 80 44 00
        E 1440 90 44 16
        E 480 80 44 00
        E 1440 90 44 0d
        E 480 80 44 00
        E 480 b0 7b 00
        GUID {DC0A5E14-C3D6-4C04-BE03-3860029286DD}
        IGNTEMPO 0 120 4 4
        SRCCOLOR 14065
        VELLANE -1 100 0
      >
    >
  >
  <TRACK {42F97B92-E6FB-4687-89FF-369BBBEF92C8}
    NAME Ride
    PEAKCOL 16576
    BEAT -1
    AUTOMODE 0
    VOLPAN 1 0 -1 -1 1
    MUTESOLO 0 0 0
    IPHASE 0
    ISBUS 0 0
    BUSCOMP 0 0
    SHOWINMIX 1 0.6667 0.5 1 0.5 0 0 0
    FREEMODE 0
    SEL 0
    REC 0 0 0 0 0 0 0
    VU 2
    TRACKHEIGHT 0 0
    INQ 0 0 0 0.5 100 0 0 100
    NCHAN 2
    FX 1
    TRACKID {42F97B92-E6FB-4687-89FF-369BBBEF92C8}
    PERF 0
    MIDIOUT -1
    MAINSEND 1 0
    <ITEM
      POSITION 0
      SNAPOFFS 0
      LENGTH 231.847857
      LOOP 1
      ALLTAKES 0
      FADEIN 1 0 0 1 0 0
      FADEOUT 1 0 0 1 0 0
      MUTE 0
      SEL 0
      IGUID {D4544B7C-946A-425B-BAE3-1D0AE7EB4D55}
      IID 8
      NAME "Ride - Lucky Hardcore =).mid"
      VOLPAN 1 0 1 -1
      SOFFS 0 0
      PLAYRATE 1 1 0 -1 0 0.0025
      CHANMODE 0
      GUID {E8F371B9-9807-4C2C-BC8A-87581D21A318}
      <SOURCE MIDI
        HASDATA 1 960 QN
        POOLEDEVTS {E6355ADD-CD74-47CB-B217-300EBB3B0540}
        <X 0 0 0 0 3 Ride
          /wNSaWRl
        >
        E 30720 90 38 7f
        E 6240 80 38 00
        E 147360 90 38 7f
        E 480 80 38 00
        E 0 90 38 7f
        E 480 80 38 00
        E 0 90 38 7f
        E 480 80 38 00
        E 0 90 38 7f
        E 480 80 38 00
        E 0 90 38 7f
        E 480 80 38 00
        E 0 90 38 7f
        E 480 80 38 00
        E 0 90 38 7f
        E 480 80 38 00
        E 0 90 38 7f
        E 480 80 38 00
        E 0 90 38 7f
        E 480 80 38 00
        E 0 90 38 7f
        E 480 80 38 00
        E 0 90 38 7f
        E 480 80 38 00
        E 0 90 38 7f
        E 480 80 38 00
        E 0 90 38 7f
        E 480 80 38 00
        E 0 90 38 7f
        E 480 80 38 00
        E 0 90 38 7f
        E 480 80 38 00
        E 0 90 38 7f
        E 480 80 38 00
        E 0 90 38 7f
        E 480 80 38 00
        E 0 90 38 7f
        E 480 80 38 00
        E 0 90 38 7f
        E 480 80 38 00
        E 0 90 38 7f
        E 480 80 38 00
        E 0 90 38 7f
        E 480 80 38 00
        E 0 90 38 7f
        E 480 80 38 00
        E 0 90 38 7f
        E 480 80 38 00
        E 0 90 38 7f
        E 480 80 38 00
        E 0 90 38 7f
        E 480 80 38 00
        E 0 90 38 7f
        E 480 80 38 00
        E 0 90 38 7f
        E 480 80 38 00
        E 0 90 38 7f
        E 480 80 38 00
        E 0 90 38 7f
        E 480 80 38 00
        E 0 90 38 7f
        E 480 80 38 00
        E 0 90 38 7f
        E 480 80 38 00
        E 0 90 38 7f
        E 480 90 38 7f
        E 480 80 38 00
        E 0 90 38 7f
        E 480 80 38 00
        E 0 90 38 7f
        E 480 80 38 00
        E 0 90 38 7f
        E 480 80 38 00
        E 0 90 38 7f
        E 480 80 38 00
        E 0 90 38 7f
        E 480 80 38 00
        E 0 90 38 7f
        E 480 80 38 00
        E 0 90 38 7f
        E 480 80 38 00
        E 0 90 38 7f
        E 480 80 38 00
        E 0 90 38 7f
        E 480 80 38 00
        E 0 90 38 7f
        E 480 80 38 00
        E 0 90 38 7f
        E 480 80 38 00
        E 0 90 38 7f
        E 480 80 38 00
        E 0 90 38 7f
        E 480 80 38 00
        E 0 90 38 7f
        E 480 80 38 00
        E 0 90 38 7f
        E 480 80 38 00
        E 0 90 38 7f
        E 480 80 38 00
        E 0 90 38 7f
        E 480 80 38 00
        E 0 90 38 7f
        E 480 80 38 00
        E 0 90 38 7f
        E 480 80 38 00
        E 0 90 38 7f
        E 480 80 38 00
        E 0 90 38 7f
        E 480 80 38 00
        E 0 90 38 7f
        E 480 80 38 00
        E 0 90 38 7f
        E 480 80 38 00
        E 0 90 38 7f
        E 480 80 38 00
        E 0 90 38 7f
        E 480 80 38 00
        E 0 90 38 7f
        E 480 80 38 00
        E 0 90 38 7f
        E 480 80 38 00
        E 0 90 38 7f
        E 480 80 38 00
        E 0 90 38 7f
        E 480 80 38 00
        E 0 90 38 7f
        E 480 80 38 00
        E 0 90 38 7f
        E 480 80 38 00
        E 30720 90 38 7f
        E 480 80 38 00
        E 0 90 38 7f
        E 480 80 38 00
        E 0 90 38 7f
        E 480 80 38 00
        E 0 90 38 7f
        E 480 80 38 00
        E 0 90 38 7f
        E 480 80 38 00
        E 0 90 38 7f
        E 480 80 38 00
        E 0 90 38 7f
        E 480 80 38 00
        E 0 90 38 7f
        E 480 80 38 00
        E 0 90 38 7f
        E 480 80 38 00
        E 0 90 38 7f
        E 480 80 38 00
        E 0 90 38 7f
        E 480 80 38 00
        E 0 90 38 7f
        E 480 80 38 00
        E 0 90 38 7f
        E 480 80 38 00
        E 0 90 38 7f
        E 480 80 38 00
        E 0 90 38 7f
        E 480 80 38 00
        E 0 90 38 7f
        E 480 80 38 00
        E 0 90 38 7f
        E 480 80 38 00
        E 0 90 38 7f
        E 480 80 38 00
        E 0 90 38 7f
        E 480 80 38 00
        E 0 90 38 7f
        E 480 80 38 00
        E 0 90 38 7f
        E 480 80 38 00
        E 0 90 38 7f
        E 480 80 38 00
        E 0 90 38 7f
        E 480 80 38 00
        E 0 90 38 7f
        E 480 80 38 00
        E 0 90 38 7f
        E 480 80 38 00
        E 0 90 38 7f
        E 480 80 38 00
        E 0 90 38 7f
        E 480 80 38 00
        E 0 90 38 7f
        E 480 80 38 00
        E 0 90 38 7f
        E 480 80 38 00
        E 0 90 38 7f
        E 480 80 38 00
        E 0 90 38 7f
        E 480 80 38 00
        E 0 90 38 7f
        E 480 90 38 7f
        E 480 80 38 00
        E 0 90 38 7f
        E 480 80 38 00
        E 0 90 38 7f
        E 480 80 38 00
        E 0 90 38 7f
        E 480 80 38 00
        E 0 90 38 7f
        E 480 80 38 00
        E 0 90 38 7f
        E 480 80 38 00
        E 0 90 38 7f
        E 480 80 38 00
        E 0 90 38 7f
        E 480 80 38 00
        E 0 90 38 7f
        E 480 80 38 00
        E 0 90 38 7f
        E 480 80 38 00
        E 0 90 38 7f
        E 480 80 38 00
        E 0 90 38 7f
        E 480 80 38 00
        E 0 90 38 7f
        E 480 80 38 00
        E 0 90 38 7f
        E 480 80 38 00
        E 0 90 38 7f
        E 480 80 38 00
        E 0 90 38 7f
        E 480 80 38 00
        E 0 90 38 7f
        E 480 80 38 00
        E 0 90 38 7f
        E 480 80 38 00
        E 0 90 38 7f
        E 480 80 38 00
        E 0 90 38 7f
        E 480 80 38 00
        E 0 90 38 7f
        E 480 80 38 00
        E 0 90 38 7f
        E 480 80 38 00
        E 0 90 38 7f
        E 480 80 38 00
        E 0 90 38 7f
        E 480 80 38 00
        E 0 90 38 7f
        E 480 80 38 00
        E 0 90 38 7f
        E 480 80 38 00
        E 0 90 38 7f
        E 480 80 38 00
        E 0 90 38 7f
        E 480 80 38 00
        E 0 90 38 7f
        E 480 80 38 00
        E 0 90 38 7f
        E 480 80 38 00
        E 0 90 38 7f
        E 480 80 38 00
        E 0 90 38 7f
        E 480 90 38 7f
        E 480 80 38 00
        E 0 90 38 7f
        E 480 80 38 00
        E 0 90 38 7f
        E 480 80 38 00
        E 0 90 38 7f
        E 480 80 38 00
        E 0 90 38 7f
        E 480 80 38 00
        E 0 90 38 7f
        E 480 80 38 00
        E 0 90 38 7f
        E 480 80 38 00
        E 0 90 38 7f
        E 480 80 38 00
        E 0 90 38 7f
        E 480 80 38 00
        E 0 90 38 7f
        E 480 80 38 00
        E 0 90 38 7f
        E 480 80 38 00
        E 0 90 38 7f
        E 480 80 38 00
        E 0 90 38 7f
        E 480 80 38 00
        E 0 90 38 7f
        E 480 80 38 00
        E 0 90 38 7f
        E 480 80 38 00
        E 0 90 38 7f
        E 480 80 38 00
        E 0 90 38 7f
        E 480 80 38 00
        E 0 90 38 7f
        E 480 80 38 00
        E 0 90 38 7f
        E 480 80 38 00
        E 0 90 38 7f
        E 480 80 38 00
        E 0 90 38 7f
        E 480 80 38 00
        E 0 90 38 7f
        E 480 80 38 00
        E 0 90 38 7f
        E 480 80 38 00
        E 0 90 38 7f
        E 480 80 38 00
        E 0 90 38 7f
        E 480 80 38 00
        E 0 90 38 7f
        E 480 80 38 00
        E 0 90 38 7f
        E 480 80 38 00
        E 0 90 38 7f
        E 480 80 38 00
        E 0 90 38 7f
        E 480 80 38 00
        E 0 90 38 7f
        E 480 80 38 00
        E 0 90 38 7f
        E 480 80 38 00
        E 0 90 38 7f
        E 480 90 38 7f
        E 480 80 38 00
        E 0 90 38 7f
        E 480 80 38 00
        E 0 90 38 7f
        E 480 80 38 00
        E 0 90 38 7f
        E 480 80 38 00
        E 0 90 38 7f
        E 480 80 38 00
        E 0 90 38 7f
        E 480 80 38 00
        E 0 90 38 7f
        E 480 80 38 00
        E 0 90 38 7f
        E 480 80 38 00
        E 0 90 38 7f
        E 480 80 38 00
        E 0 90 38 7f
        E 480 80 38 00
        E 0 90 38 7f
        E 480 80 38 00
        E 0 90 38 7f
        E 480 80 38 00
        E 0 90 38 7f
        E 480 80 38 00
        E 0 90 38 7f
        E 480 80 38 00
        E 0 90 38 7f
        E 480 80 38 00
        E 0 90 38 7f
        E 480 80 38 00
        E 0 90 38 7f
        E 480 80 38 00
        E 0 90 38 7f
        E 480 80 38 00
        E 0 90 38 7f
        E 480 80 38 00
        E 0 90 38 7f
        E 480 80 38 00
        E 0 90 38 7f
        E 480 80 38 00
        E 0 90 38 7f
        E 480 80 38 00
        E 0 90 38 7f
        E 480 80 38 00
        E 0 90 38 7f
        E 480 80 38 00
        E 0 90 38 7f
        E 480 80 38 00
        E 0 90 38 7f
        E 480 80 38 00
        E 0 90 38 7f
        E 480 80 38 00
        E 0 90 38 7f
        E 480 80 38 00
        E 0 90 38 7f
        E 480 80 38 00
        E 0 90 38 7f
        E 480 80 38 00
        E 0 90 38 7f
        E 480 80 38 00
        E 0 90 38 7f
        E 480 90 38 7f
        E 480 80 38 00
        E 0 90 38 7f
        E 480 80 38 00
        E 0 90 38 7f
        E 480 80 38 00
        E 0 90 38 7f
        E 480 80 38 00
        E 0 90 38 7f
        E 480 80 38 00
        E 0 90 38 7f
        E 480 80 38 00
        E 0 90 38 7f
        E 480 80 38 00
        E 0 90 38 7f
        E 480 80 38 00
        E 0 90 38 7f
        E 480 80 38 00
        E 0 90 38 7f
        E 480 80 38 00
        E 0 90 38 7f
        E 480 80 38 00
        E 0 90 38 7f
        E 480 80 38 00
        E 0 90 38 7f
        E 480 80 38 00
        E 0 90 38 7f
        E 480 80 38 00
        E 0 90 38 7f
        E 480 80 38 00
        E 0 90 38 7f
        E 480 80 38 00
        E 0 90 38 7f
        E 480 80 38 00
        E 0 90 38 7f
        E 480 80 38 00
        E 0 90 38 7f
        E 480 80 38 00
        E 0 90 38 7f
        E 480 80 38 00
        E 0 90 38 7f
        E 480 80 38 00
        E 0 90 38 7f
        E 480 80 38 00
        E 0 90 38 7f
        E 480 80 38 00
        E 0 90 38 7f
        E 480 80 38 00
        E 0 90 38 7f
        E 480 80 38 00
        E 0 90 38 7f
        E 480 80 38 00
        E 0 90 38 7f
        E 480 80 38 00
        E 0 90 38 7f
        E 480 80 38 00
        E 0 90 38 7f
        E 480 80 38 00
        E 0 90 38 7f
        E 480 80 38 00
        E 0 90 38 7f
        E 480 80 38 00
        E 0 90 38 7f
        E 480 90 38 7f
        E 480 80 38 00
        E 0 90 38 7f
        E 480 80 38 00
        E 0 90 38 7f
        E 480 80 38 00
        E 0 90 38 7f
        E 480 80 38 00
        E 0 90 38 7f
        E 480 80 38 00
        E 0 90 38 7f
        E 480 80 38 00
        E 0 90 38 7f
        E 480 80 38 00
        E 0 90 38 7f
        E 480 80 38 00
        E 0 90 38 7f
        E 480 80 38 00
        E 0 90 38 7f
        E 480 80 38 00
        E 0 90 38 7f
        E 480 80 38 00
        E 0 90 38 7f
        E 480 80 38 00
        E 0 90 38 7f
        E 480 80 38 00
        E 0 90 38 7f
        E 480 80 38 00
        E 0 90 38 7f
        E 480 80 38 00
        E 0 90 38 7f
        E 480 80 38 00
        E 0 90 38 7f
        E 480 80 38 00
        E 0 90 38 7f
        E 480 80 38 00
        E 0 90 38 7f
        E 480 80 38 00
        E 0 90 38 7f
        E 480 80 38 00
        E 0 90 38 7f
        E 480 80 38 00
        E 0 90 38 7f
        E 480 80 38 00
        E 0 90 38 7f
        E 480 80 38 00
        E 0 90 38 7f
        E 480 80 38 00
        E 0 90 38 7f
        E 480 80 38 00
        E 0 90 38 7f
        E 480 80 38 00
        E 0 90 38 7f
        E 480 80 38 00
        E 0 90 38 7f
        E 480 80 38 00
        E 0 90 38 7f
        E 480 80 38 00
        E 0 90 38 7f
        E 480 80 38 00
        E 0 90 38 7f
        E 480 80 38 00
        E 0 90 38 7f
        E 480 80 38 00
        E 57600 90 38 69
        E 480 80 38 00
        E 0 90 38 69
        E 480 80 38 00
        E 0 90 38 69
        E 480 80 38 00
        E 0 90 38 69
        E 480 80 38 00
        E 0 90 38 69
        E 480 80 38 00
        E 0 90 38 69
        E 480 80 38 00
        E 0 90 38 69
        E 480 80 38 00
        E 0 90 38 69
        E 480 90 38 69
        E 480 80 38 00
        E 0 90 38 69
        E 480 80 38 00
        E 0 90 38 69
        E 480 80 38 00
        E 0 90 38 69
        E 480 80 38 00
        E 0 90 38 69
        E 480 80 38 00
        E 0 90 38 69
        E 480 80 38 00
        E 0 90 38 69
        E 480 80 38 00
        E 0 90 38 69
        E 480 80 38 00
        E 0 90 38 69
        E 480 80 38 00
        E 0 90 38 69
        E 480 80 38 00
        E 0 90 38 69
        E 480 80 38 00
        E 0 90 38 69
        E 480 80 38 00
        E 0 90 38 69
        E 480 80 38 00
        E 0 90 38 69
        E 480 80 38 00
        E 0 90 38 69
        E 480 80 38 00
        E 0 90 38 69
        E 480 80 38 00
        E 0 90 38 69
        E 480 80 38 00
        E 0 90 38 69
        E 480 80 38 00
        E 0 90 38 69
        E 480 80 38 00
        E 0 90 38 69
        E 480 80 38 00
        E 0 90 38 69
        E 480 80 38 00
        E 0 90 38 69
        E 480 80 38 00
        E 0 90 38 69
        E 480 80 38 00
        E 0 90 38 69
        E 480 80 38 00
        E 0 90 38 69
        E 480 80 38 00
        E 0 90 38 69
        E 480 80 38 00
        E 0 90 38 69
        E 480 80 38 00
        E 0 90 38 69
        E 480 80 38 00
        E 0 90 38 69
        E 480 80 38 00
        E 0 90 38 69
        E 480 80 38 00
        E 0 90 38 69
        E 480 80 38 00
        E 0 90 38 69
        E 480 90 38 69
        E 480 80 38 00
        E 0 90 38 69
        E 480 80 38 00
        E 0 90 38 69
        E 480 80 38 00
        E 0 90 38 69
        E 480 80 38 00
        E 0 90 38 69
        E 480 80 38 00
        E 0 90 38 69
        E 480 80 38 00
        E 0 90 38 69
        E 480 80 38 00
        E 0 90 38 69
        E 480 80 38 00
        E 0 90 38 69
        E 480 80 38 00
        E 0 90 38 69
        E 480 80 38 00
        E 0 90 38 69
        E 480 80 38 00
        E 0 90 38 69
        E 480 80 38 00
        E 0 90 38 69
        E 480 80 38 00
        E 0 90 38 69
        E 480 80 38 00
        E 0 90 38 69
        E 480 80 38 00
        E 0 90 38 69
        E 480 80 38 00
        E 0 90 38 69
        E 480 80 38 00
        E 0 90 38 69
        E 480 80 38 00
        E 0 90 38 69
        E 480 80 38 00
        E 0 90 38 69
        E 480 80 38 00
        E 0 90 38 69
        E 480 80 38 00
        E 0 90 38 69
        E 480 80 38 00
        E 0 90 38 69
        E 480 80 38 00
        E 0 90 38 69
        E 480 80 38 00
        E 0 90 38 69
        E 480 80 38 00
        E 0 90 38 69
        E 480 80 38 00
        E 0 90 38 69
        E 480 80 38 00
        E 0 90 38 69
        E 480 80 38 00
        E 0 90 38 69
        E 480 80 38 00
        E 0 90 38 69
        E 480 80 38 00
        E 0 90 38 69
        E 480 80 38 00
        E 0 90 38 69
        E 480 90 38 69
        E 480 80 38 00
        E 0 90 38 69
        E 480 80 38 00
        E 0 90 38 69
        E 480 80 38 00
        E 0 90 38 69
        E 480 80 38 00
        E 0 90 38 69
        E 480 80 38 00
        E 0 90 38 69
        E 480 80 38 00
        E 0 90 38 69
        E 480 80 38 00
        E 0 90 38 69
        E 480 80 38 00
        E 0 90 38 69
        E 480 80 38 00
        E 0 90 38 69
        E 480 80 38 00
        E 0 90 38 69
        E 480 80 38 00
        E 0 90 38 69
        E 480 80 38 00
        E 0 90 38 69
        E 480 80 38 00
        E 0 90 38 69
        E 480 80 38 00
        E 0 90 38 69
        E 480 80 38 00
        E 0 90 38 69
        E 480 80 38 00
        E 0 90 38 69
        E 480 80 38 00
        E 0 90 38 69
        E 480 80 38 00
        E 0 90 38 69
        E 480 80 38 00
        E 0 90 38 69
        E 480 80 38 00
        E 0 90 38 69
        E 480 80 38 00
        E 0 90 38 69
        E 480 80 38 00
        E 0 90 38 69
        E 480 80 38 00
        E 0 90 38 69
        E 480 80 38 00
        E 0 90 38 69
        E 480 80 38 00
        E 0 90 38 69
        E 480 80 38 00
        E 0 90 38 69
        E 480 80 38 00
        E 0 90 38 69
        E 480 80 38 00
        E 0 90 38 69
        E 480 80 38 00
        E 0 90 38 69
        E 480 80 38 00
        E 0 90 38 69
        E 480 80 38 00
        E 0 90 38 69
        E 480 90 38 69
        E 480 80 38 00
        E 0 90 38 69
        E 480 80 38 00
        E 0 90 38 69
        E 480 80 38 00
        E 0 90 38 69
        E 480 80 38 00
        E 0 90 38 69
        E 480 80 38 00
        E 0 90 38 69
        E 480 80 38 00
        E 0 90 38 69
        E 480 80 38 00
        E 0 90 38 69
        E 480 80 38 00
        E 0 90 38 69
        E 480 80 38 00
        E 0 90 38 69
        E 480 80 38 00
        E 0 90 38 69
        E 480 80 38 00
        E 0 90 38 69
        E 480 80 38 00
        E 0 90 38 69
        E 480 80 38 00
        E 0 90 38 69
        E 480 80 38 00
        E 0 90 38 69
        E 480 80 38 00
        E 0 90 38 69
        E 480 80 38 00
        E 0 90 38 69
        E 480 80 38 00
        E 0 90 38 69
        E 480 80 38 00
        E 0 90 38 69
        E 480 80 38 00
        E 0 90 38 69
        E 480 80 38 00
        E 0 90 38 69
        E 480 80 38 00
        E 0 90 38 69
        E 480 80 38 00
        E 0 90 38 69
        E 480 80 38 00
        E 0 90 38 69
        E 480 80 38 00
        E 0 90 38 69
        E 480 80 38 00
        E 0 90 38 69
        E 480 80 38 00
        E 0 90 38 69
        E 480 80 38 00
        E 0 90 38 69
        E 480 80 38 00
        E 0 90 38 69
        E 480 80 38 00
        E 0 90 38 69
        E 480 80 38 00
        E 0 90 38 69
        E 480 80 38 00
        E 0 90 38 69
        E 480 80 38 00
        E 92160 90 38 7f
        E 480 80 38 00
        E 0 90 38 7f
        E 480 80 38 00
        E 0 90 38 7f
        E 480 80 38 00
        E 0 90 38 7f
        E 480 80 38 00
        E 0 90 38 7f
        E 480 80 38 00
        E 0 90 38 7f
        E 480 80 38 00
        E 0 90 38 7f
        E 480 80 38 00
        E 0 90 38 7f
        E 480 80 38 00
        E 0 90 38 7f
        E 480 80 38 00
        E 0 90 38 7f
        E 480 80 38 00
        E 0 90 38 7f
        E 480 80 38 00
        E 0 90 38 7f
        E 480 80 38 00
        E 0 90 38 7f
        E 480 80 38 00
        E 0 90 38 7f
        E 480 80 38 00
        E 0 90 38 7f
        E 480 80 38 00
        E 0 90 38 7f
        E 480 80 38 00
        E 0 90 38 7f
        E 480 80 38 00
        E 0 90 38 7f
        E 480 80 38 00
        E 0 90 38 7f
        E 480 80 38 00
        E 0 90 38 7f
        E 480 80 38 00
        E 0 90 38 7f
        E 480 80 38 00
        E 0 90 38 7f
        E 480 80 38 00
        E 0 90 38 7f
        E 480 80 38 00
        E 0 90 38 7f
        E 480 80 38 00
        E 0 90 38 7f
        E 480 80 38 00
        E 0 90 38 7f
        E 480 80 38 00
        E 0 90 38 7f
        E 480 80 38 00
        E 0 90 38 7f
        E 480 80 38 00
        E 0 90 38 7f
        E 480 80 38 00
        E 0 90 38 7f
        E 480 80 38 00
        E 0 90 38 7f
        E 480 80 38 00
        E 0 90 38 7f
        E 480 90 38 7f
        E 480 80 38 00
        E 0 90 38 7f
        E 480 80 38 00
        E 0 90 38 7f
        E 480 80 38 00
        E 0 90 38 7f
        E 480 80 38 00
        E 0 90 38 7f
        E 480 80 38 00
        E 0 90 38 7f
        E 480 80 38 00
        E 0 90 38 7f
        E 480 80 38 00
        E 0 90 38 7f
        E 480 80 38 00
        E 0 90 38 7f
        E 480 80 38 00
        E 0 90 38 7f
        E 480 80 38 00
        E 0 90 38 7f
        E 480 80 38 00
        E 0 90 38 7f
        E 480 80 38 00
        E 0 90 38 7f
        E 480 80 38 00
        E 0 90 38 7f
        E 480 80 38 00
        E 0 90 38 7f
        E 480 80 38 00
        E 0 90 38 7f
        E 480 80 38 00
        E 0 90 38 7f
        E 480 80 38 00
        E 0 90 38 7f
        E 480 80 38 00
        E 0 90 38 7f
        E 480 80 38 00
        E 0 90 38 7f
        E 480 80 38 00
        E 0 90 38 7f
        E 480 80 38 00
        E 0 90 38 7f
        E 480 80 38 00
        E 0 90 38 7f
        E 480 80 38 00
        E 0 90 38 7f
        E 480 80 38 00
        E 0 90 38 7f
        E 480 80 38 00
        E 0 90 38 7f
        E 480 80 38 00
        E 0 90 38 7f
        E 480 80 38 00
        E 0 90 38 7f
        E 480 80 38 00
        E 0 90 38 7f
        E 480 80 38 00
        E 0 90 38 7f
        E 480 80 38 00
        E 0 90 38 7f
        E 480 80 38 00
        E 0 90 38 7f
        E 480 90 38 7f
        E 480 80 38 00
        E 0 90 38 7f
        E 480 80 38 00
        E 0 90 38 7f
        E 480 80 38 00
        E 0 90 38 7f
        E 480 80 38 00
        E 0 90 38 7f
        E 480 80 38 00
        E 0 90 38 7f
        E 480 80 38 00
        E 0 90 38 7f
        E 480 80 38 00
        E 0 90 38 7f
        E 480 80 38 00
        E 0 90 38 7f
        E 480 80 38 00
        E 0 90 38 7f
        E 480 80 38 00
        E 0 90 38 7f
        E 480 80 38 00
        E 0 90 38 7f
        E 480 80 38 00
        E 0 90 38 7f
        E 480 80 38 00
        E 0 90 38 7f
        E 480 80 38 00
        E 0 90 38 7f
        E 480 80 38 00
        E 0 90 38 7f
        E 480 80 38 00
        E 0 90 38 7f
        E 480 80 38 00
        E 0 90 38 7f
        E 480 80 38 00
        E 0 90 38 7f
        E 480 80 38 00
        E 0 90 38 7f
        E 480 80 38 00
        E 0 90 38 7f
        E 480 80 38 00
        E 0 90 38 7f
        E 480 80 38 00
        E 0 90 38 7f
        E 480 80 38 00
        E 0 90 38 7f
        E 480 80 38 00
        E 0 90 38 7f
        E 480 80 38 00
        E 0 90 38 7f
        E 480 80 38 00
        E 0 90 38 7f
        E 480 80 38 00
        E 0 90 38 7f
        E 480 80 38 00
        E 0 90 38 7f
        E 480 80 38 00
        E 0 90 38 7f
        E 480 80 38 00
        E 0 90 38 7f
        E 480 80 38 00
        E 0 90 38 7f
        E 480 90 38 7f
        E 480 80 38 00
        E 0 90 38 7f
        E 480 80 38 00
        E 0 90 38 7f
        E 480 80 38 00
        E 0 90 38 7f
        E 480 80 38 00
        E 0 90 38 7f
        E 480 80 38 00
        E 0 90 38 7f
        E 480 80 38 00
        E 0 90 38 7f
        E 480 80 38 00
        E 0 90 38 7f
        E 480 80 38 00
        E 0 90 38 7f
        E 480 80 38 00
        E 0 90 38 7f
        E 480 80 38 00
        E 0 90 38 7f
        E 480 80 38 00
        E 0 90 38 7f
        E 480 80 38 00
        E 0 90 38 7f
        E 480 80 38 00
        E 0 90 38 7f
        E 480 80 38 00
        E 0 90 38 7f
        E 480 80 38 00
        E 0 90 38 7f
        E 480 80 38 00
        E 0 90 38 7f
        E 480 80 38 00
        E 0 90 38 7f
        E 480 80 38 00
        E 0 90 38 7f
        E 480 80 38 00
        E 0 90 38 7f
        E 480 80 38 00
        E 0 90 38 7f
        E 480 80 38 00
        E 0 90 38 7f
        E 480 80 38 00
        E 0 90 38 7f
        E 480 80 38 00
        E 0 90 38 7f
        E 480 80 38 00
        E 0 90 38 7f
        E 480 80 38 00
        E 0 90 38 7f
        E 480 80 38 00
        E 0 90 38 7f
        E 480 80 38 00
        E 0 90 38 7f
        E 480 80 38 00
        E 0 90 38 7f
        E 480 80 38 00
        E 0 90 38 7f
        E 480 80 38 00
        E 0 90 38 7f
        E 480 80 38 00
        E 0 90 38 7f
        E 480 90 38 7f
        E 480 80 38 00
        E 0 90 38 7f
        E 480 80 38 00
        E 0 90 38 7f
        E 480 80 38 00
        E 0 90 38 7f
        E 480 80 38 00
        E 0 90 38 7f
        E 480 80 38 00
        E 0 90 38 7f
        E 480 80 38 00
        E 0 90 38 7f
        E 480 80 38 00
        E 0 90 38 7f
        E 480 80 38 00
        E 0 90 38 7f
        E 480 80 38 00
        E 0 90 38 7f
        E 480 80 38 00
        E 0 90 38 7f
        E 480 80 38 00
        E 0 90 38 7f
        E 480 80 38 00
        E 0 90 38 7f
        E 480 80 38 00
        E 0 90 38 7f
        E 480 80 38 00
        E 0 90 38 7f
        E 480 80 38 00
        E 0 90 38 7f
        E 480 80 38 00
        E 0 90 38 7f
        E 480 80 38 00
        E 0 90 38 7f
        E 480 80 38 00
        E 0 90 38 7f
        E 480 80 38 00
        E 0 90 38 7f
        E 480 80 38 00
        E 0 90 38 7f
        E 480 80 38 00
        E 0 90 38 7f
        E 480 80 38 00
        E 0 90 38 7f
        E 480 80 38 00
        E 0 90 38 7f
        E 480 80 38 00
        E 0 90 38 7f
        E 480 80 38 00
        E 0 90 38 7f
        E 480 80 38 00
        E 0 90 38 7f
        E 480 80 38 00
        E 0 90 38 7f
        E 480 80 38 00
        E 0 90 38 7f
        E 480 80 38 00
        E 0 90 38 7f
        E 480 80 38 00
        E 0 90 38 7f
        E 480 80 38 00
        E 0 90 38 7f
        E 480 90 38 7f
        E 480 80 38 00
        E 0 90 38 7f
        E 480 80 38 00
        E 0 90 38 7f
        E 480 80 38 00
        E 0 90 38 7f
        E 480 80 38 00
        E 0 90 38 7f
        E 480 80 38 00
        E 0 90 38 7f
        E 480 80 38 00
        E 0 90 38 7f
        E 480 80 38 00
        E 0 90 38 7f
        E 480 80 38 00
        E 0 90 38 7f
        E 480 80 38 00
        E 0 90 38 7f
        E 480 80 38 00
        E 0 90 38 7f
        E 480 80 38 00
        E 0 90 38 7f
        E 480 80 38 00
        E 0 90 38 7f
        E 480 80 38 00
        E 0 90 38 7f
        E 480 80 38 00
        E 0 90 38 7f
        E 480 80 38 00
        E 0 90 38 7f
        E 480 80 38 00
        E 0 90 38 7f
        E 480 80 38 00
        E 0 90 38 7f
        E 480 80 38 00
        E 0 90 38 7f
        E 480 80 38 00
        E 0 90 38 7f
        E 480 80 38 00
        E 0 90 38 7f
        E 480 80 38 00
        E 0 90 38 7f
        E 480 80 38 00
        E 0 90 38 7f
        E 480 80 38 00
        E 0 90 38 7f
        E 480 80 38 00
        E 0 90 38 7f
        E 480 80 38 00
        E 0 90 38 7f
        E 480 80 38 00
        E 0 90 38 7f
        E 480 80 38 00
        E 0 90 38 7f
        E 480 80 38 00
        E 0 90 38 7f
        E 480 80 38 00
        E 0 90 38 7f
        E 480 80 38 00
        E 0 90 38 7f
        E 480 80 38 00
        E 0 90 38 7f
        E 480 80 38 00
        E 15360 90 38 5f
        E 6240 80 38 00
        E 9120 90 38 22
        E 6240 80 38 00
        E 480 b0 7b 00
        GUID {70CCAB10-93B9-4520-908F-065D9B4645BE}
        IGNTEMPO 0 120 4 4
        SRCCOLOR 14066
        VELLANE -1 100 0
      >
    >
  >
  <TRACK {4F4C12E2-179F-4475-8601-64947F6DFAC3}
    NAME "Closed Hat"
    PEAKCOL 16576
    BEAT -1
    AUTOMODE 0
    VOLPAN 1 0 -1 -1 1
    MUTESOLO 0 0 0
    IPHASE 0
    ISBUS 0 0
    BUSCOMP 0 0
    SHOWINMIX 1 0.6667 0.5 1 0.5 0 0 0
    FREEMODE 0
    SEL 0
    REC 0 0 0 0 0 0 0
    VU 2
    TRACKHEIGHT 0 0
    INQ 0 0 0 0.5 100 0 0 100
    NCHAN 2
    FX 1
    TRACKID {4F4C12E2-179F-4475-8601-64947F6DFAC3}
    PERF 0
    MIDIOUT -1
    MAINSEND 1 0
    <ITEM
      POSITION 0
      SNAPOFFS 0
      LENGTH 224.347856
      LOOP 1
      ALLTAKES 0
      FADEIN 1 0 0 1 0 0
      FADEOUT 1 0 0 1 0 0
      MUTE 0
      SEL 0
      IGUID {AA1A3CBF-D5CE-4520-886A-AC083F4C3B17}
      IID 9
      NAME "Closed Hat - Lucky Hardcore =).mid"
      VOLPAN 1 0 1 -1
      SOFFS 0 0
      PLAYRATE 1 1 0 -1 0 0.0025
      CHANMODE 0
      GUID {531A97B8-1979-471D-857E-E57CB8865B4B}
      <SOURCE MIDI
        HASDATA 1 960 QN
        POOLEDEVTS {5549E598-B902-498A-9485-826905B9F02F}
        <X 0 0 0 0 3 "Closed Hat"
          /wNDbG9zZWQgSGF0
        >
        E 138240 90 44 7f
        E 240 80 44 00
        E 720 90 44 7f
        E 240 80 44 00
        E 720 90 44 7f
        E 240 80 44 00
        E 720 90 44 7f
        E 240 80 44 00
        E 720 90 44 7f
        E 240 80 44 00
        E 720 90 44 7f
        E 240 80 44 00
        E 720 90 44 7f
        E 240 80 44 00
        E 720 90 44 7f
        E 240 80 44 00
        E 720 90 44 7f
        E 240 80 44 00
        E 720 90 44 7f
        E 240 80 44 00
        E 720 90 44 7f
        E 240 80 44 00
        E 720 90 44 7f
        E 240 80 44 00
        E 720 90 44 7f
        E 240 80 44 00
        E 3600 90 44 7f
        E 240 80 44 00
        E 0 90 44 7f
        E 240 80 44 00
        E 0 90 44 7f
        E 240 80 44 00
        E 0 90 44 7f
        E 240 80 44 00
        E 0 90 44 7f
        E 240 80 44 00
        E 0 90 44 7f
        E 240 80 44 00
        E 0 90 44 7f
        E 240 80 44 00
        E 0 90 44 7f
        E 240 80 44 00
        E 0 90 44 7f
        E 240 80 44 00
        E 0 90 44 7f
        E 240 80 44 00
        E 0 90 44 7f
        E 240 80 44 00
        E 0 90 44 7f
        E 240 80 44 00
        E 0 90 44 7f
        E 240 80 44 00
        E 0 90 44 7f
        E 240 80 44 00
        E 0 90 44 7f
        E 240 80 44 00
        E 0 90 44 7f
        E 240 80 44 00
        E 0 90 44 7f
        E 240 80 44 00
        E 0 90 44 7f
        E 240 80 44 00
        E 0 90 44 7f
        E 240 80 44 00
        E 0 90 44 7f
        E 240 80 44 00
        E 0 90 44 7f
        E 240 80 44 00
        E 0 90 44 7f
        E 240 80 44 00
        E 0 90 44 7f
        E 240 80 44 00
        E 0 90 44 7f
        E 240 80 44 00
        E 0 90 44 7f
        E 240 80 44 00
        E 0 90 44 7f
        E 240 80 44 00
        E 0 90 44 7f
        E 240 80 44 00
        E 0 90 44 7f
        E 240 80 44 00
        E 0 90 44 7f
        E 240 80 44 00
        E 0 90 44 7f
        E 240 80 44 00
        E 0 90 44 7f
        E 240 80 44 00
        E 0 90 44 7f
        E 240 80 44 00
        E 0 90 44 7f
        E 240 80 44 00
        E 0 90 44 7f
        E 240 80 44 00
        E 0 90 44 7f
        E 240 80 44 00
        E 0 90 44 7f
        E 240 80 44 00
        E 0 90 44 7f
        E 240 80 44 00
        E 0 90 44 7f
        E 240 80 44 00
        E 0 90 44 7f
        E 240 80 44 00
        E 0 90 44 7f
        E 240 80 44 00
        E 0 90 44 7f
        E 240 80 44 00
        E 0 90 44 7f
        E 240 80 44 00
        E 0 90 44 7f
        E 240 80 44 00
        E 0 90 44 7f
        E 240 80 44 00
        E 0 90 44 7f
        E 240 80 44 00
        E 0 90 44 7f
        E 240 80 44 00
        E 0 90 44 7f
        E 240 80 44 00
        E 0 90 44 7f
        E 240 80 44 00
        E 0 90 44 7f
        E 240 80 44 00
        E 0 90 44 7f
        E 240 80 44 00
        E 0 90 44 7f
        E 240 80 44 00
        E 0 90 44 7f
        E 240 80 44 00
        E 0 90 44 7f
        E 240 80 44 00
        E 0 90 44 7f
        E 240 80 44 00
        E 0 90 44 7f
        E 240 80 44 00
        E 0 90 44 7f
        E 240 80 44 00
        E 0 90 44 7f
        E 240 80 44 00
        E 0 90 44 7f
        E 240 80 44 00
        E 0 90 44 7f
        E 240 80 44 00
        E 0 90 44 7f
        E 240 80 44 00
        E 0 90 44 7f
        E 240 80 44 00
        E 0 90 44 7f
        E 240 80 44 00
        E 0 90 44 7f
        E 240 80 44 00
        E 0 90 44 7f
        E 240 80 44 00
        E 0 90 44 7f
        E 240 80 44 00
        E 0 90 44 7f
        E 240 80 44 00
        E 0 90 44 7f
        E 240 80 44 00
        E 0 90 44 7f
        E 240 80 44 00
        E 0 90 44 7f
        E 240 80 44 00
        E 0 90 44 7f
        E 240 80 44 00
        E 0 90 44 7f
        E 240 80 44 00
        E 0 90 44 7f
        E 240 80 44 00
        E 0 90 44 7f
        E 240 80 44 00
        E 0 90 44 7f
        E 240 80 44 00
        E 0 90 44 7f
        E 240 80 44 00
        E 0 90 44 7f
        E 240 80 44 00
        E 0 90 44 7f
        E 240 80 44 00
        E 0 90 44 7f
        E 240 80 44 00
        E 0 90 44 7f
        E 240 80 44 00
        E 0 90 44 7f
        E 240 80 44 00
        E 0 90 44 7f
        E 240 80 44 00
        E 0 90 44 7f
        E 240 80 44 00
        E 0 90 44 7f
        E 240 80 44 00
        E 0 90 44 7f
        E 240 80 44 00
        E 0 90 44 7f
        E 240 80 44 00
        E 0 90 44 7f
        E 240 80 44 00
        E 0 90 44 7f
        E 240 80 44 00
        E 0 90 44 7f
        E 240 80 44 00
        E 0 90 44 7f
        E 240 80 44 00
        E 0 90 44 7f
        E 240 80 44 00
        E 0 90 44 7f
        E 240 80 44 00
        E 0 90 44 7f
        E 240 80 44 00
        E 0 90 44 7f
        E 240 80 44 00
        E 0 90 44 7f
        E 240 80 44 00
        E 0 90 44 7f
        E 240 80 44 00
        E 0 90 44 7f
        E 240 80 44 00
        E 0 90 44 7f
        E 240 80 44 00
        E 0 90 44 7f
        E 240 80 44 00
        E 0 90 44 7f
        E 240 80 44 00
        E 0 90 44 7f
        E 240 80 44 00
        E 0 90 44 7f
        E 240 80 44 00
        E 0 90 44 7f
        E 240 80 44 00
        E 0 90 44 7f
        E 240 80 44 00
        E 0 90 44 7f
        E 240 80 44 00
        E 0 90 44 7f
        E 240 80 44 00
        E 0 90 44 7f
        E 240 80 44 00
        E 0 90 44 7f
        E 240 80 44 00
        E 0 90 44 7f
        E 240 80 44 00
        E 0 90 44 7f
        E 240 80 44 00
        E 0 90 44 7f
        E 240 80 44 00
        E 0 90 44 7f
        E 240 80 44 00
        E 0 90 44 7f
        E 240 80 44 00
        E 0 90 44 7f
        E 240 80 44 00
        E 0 90 44 7f
        E 240 80 44 00
        E 0 90 44 7f
        E 240 80 44 00
        E 0 90 44 7f
        E 240 80 44 00
        E 0 90 44 7f
        E 240 80 44 00
        E 0 90 44 7f
        E 240 80 44 00
        E 0 90 44 7f
        E 240 80 44 00
        E 0 90 44 7f
        E 240 80 44 00
        E 0 90 44 7f
        E 240 80 44 00
        E 0 90 44 7f
        E 240 80 44 00
        E 0 90 44 7f
        E 240 80 44 00
        E 0 90 44 7f
        E 240 80 44 00
        E 0 90 44 7f
        E 240 80 44 00
        E 0 90 44 7f
        E 240 80 44 00
        E 0 90 44 7f
        E 240 80 44 00
        E 0 90 44 7f
        E 240 80 44 00
        E 0 90 44 7f
        E 240 80 44 00
        E 0 90 44 7f
        E 240 80 44 00
        E 0 90 44 7f
        E 240 80 44 00
        E 0 90 44 7f
        E 240 80 44 00
        E 0 90 44 7f
        E 240 80 44 00
        E 0 90 44 7f
        E 240 80 44 00
        E 0 90 44 7f
        E 240 80 44 00
        E 0 90 44 7f
        E 240 80 44 00
        E 0 90 44 7f
        E 240 80 44 00
        E 0 90 44 7f
        E 240 80 44 00
        E 0 90 44 7f
        E 240 80 44 00
        E 0 90 44 7f
        E 240 80 44 00
        E 0 90 44 7f
        E 240 80 44 00
        E 0 90 44 7f
        E 240 80 44 00
        E 0 90 44 7f
        E 240 80 44 00
        E 0 90 44 7f
        E 240 80 44 00
        E 0 90 44 7f
        E 240 80 44 00
        E 0 90 44 7f
        E 240 80 44 00
        E 0 90 44 7f
        E 240 80 44 00
        E 0 90 44 7f
        E 240 80 44 00
        E 0 90 44 7f
        E 240 80 44 00
        E 0 90 44 7f
        E 240 80 44 00
        E 0 90 44 7f
        E 240 80 44 00
        E 0 90 44 7f
        E 240 80 44 00
        E 0 90 44 7f
        E 240 80 44 00
        E 0 90 44 7f
        E 240 80 44 00
        E 0 90 44 7f
        E 240 80 44 00
        E 0 90 44 7f
        E 240 80 44 00
        E 0 90 44 7f
        E 240 80 44 00
        E 0 90 44 7f
        E 240 80 44 00
        E 0 90 44 7f
        E 240 80 44 00
        E 0 90 44 7f
        E 240 80 44 00
        E 0 90 44 7f
        E 240 80 44 00
        E 0 90 44 7f
        E 240 80 44 00
        E 0 90 44 7f
        E 240 80 44 00
        E 0 90 44 7f
        E 240 80 44 00
        E 0 90 44 7f
        E 240 80 44 00
        E 0 90 44 7f
        E 240 80 44 00
        E 0 90 44 7f
        E 240 80 44 00
        E 0 90 44 7f
        E 240 80 44 00
        E 0 90 44 7f
        E 240 80 44 00
        E 0 90 44 7f
        E 240 80 44 00
        E 0 90 44 7f
        E 240 80 44 00
        E 0 90 44 7f
        E 240 80 44 00
        E 0 90 44 7f
        E 240 80 44 00
        E 0 90 44 7f
        E 240 80 44 00
        E 0 90 44 7f
        E 240 80 44 00
        E 0 90 44 7f
        E 240 80 44 00
        E 0 90 44 7f
        E 240 80 44 00
        E 0 90 44 7f
        E 240 80 44 00
        E 0 90 44 7f
        E 240 80 44 00
        E 0 90 44 7f
        E 240 80 44 00
        E 0 90 44 7f
        E 240 80 44 00
        E 0 90 44 7f
        E 240 80 44 00
        E 0 90 44 7f
        E 240 80 44 00
        E 0 90 44 7f
        E 240 80 44 00
        E 0 90 44 7f
        E 240 80 44 00
        E 0 90 44 7f
        E 240 80 44 00
        E 0 90 44 7f
        E 240 80 44 00
        E 0 90 44 7f
        E 240 80 44 00
        E 0 90 44 7f
        E 240 80 44 00
        E 0 90 44 7f
        E 240 80 44 00
        E 0 90 44 7f
        E 240 80 44 00
        E 0 90 44 7f
        E 240 80 44 00
        E 0 90 44 7f
        E 240 80 44 00
        E 0 90 44 7f
        E 240 80 44 00
        E 0 90 44 7f
        E 240 80 44 00
        E 0 90 44 7f
        E 240 80 44 00
        E 0 90 44 7f
        E 240 80 44 00
        E 0 90 44 7f
        E 240 80 44 00
        E 0 90 44 7f
        E 240 80 44 00
        E 0 90 44 7f
        E 240 80 44 00
        E 0 90 44 7f
        E 240 80 44 00
        E 0 90 44 7f
        E 240 80 44 00
        E 0 90 44 7f
        E 240 80 44 00
        E 0 90 44 7f
        E 240 80 44 00
        E 0 90 44 7f
        E 240 80 44 00
        E 0 90 44 7f
        E 240 80 44 00
        E 0 90 44 7f
        E 240 80 44 00
        E 0 90 44 7f
        E 240 80 44 00
        E 0 90 44 7f
        E 240 80 44 00
        E 0 90 44 7f
        E 240 80 44 00
        E 0 90 44 7f
        E 240 80 44 00
        E 0 90 44 7f
        E 240 80 44 00
        E 0 90 44 7f
        E 240 80 44 00
        E 0 90 44 7f
        E 240 80 44 00
        E 0 90 44 7f
        E 240 80 44 00
        E 0 90 44 7f
        E 240 80 44 00
        E 0 90 44 7f
        E 240 80 44 00
        E 0 90 44 7f
        E 240 80 44 00
        E 0 90 44 7f
        E 240 80 44 00
        E 0 90 44 7f
        E 240 80 44 00
        E 0 90 44 7f
        E 240 80 44 00
        E 0 90 44 7f
        E 240 80 44 00
        E 0 90 44 7f
        E 240 80 44 00
        E 0 90 44 7f
        E 240 80 44 00
        E 0 90 44 7f
        E 240 80 44 00
        E 0 90 44 7f
        E 240 80 44 00
        E 0 90 44 7f
        E 240 80 44 00
        E 0 90 44 7f
        E 240 80 44 00
        E 0 90 44 7f
        E 240 80 44 00
        E 0 90 44 7f
        E 240 80 44 00
        E 0 90 44 7f
        E 240 80 44 00
        E 0 90 44 7f
        E 240 80 44 00
        E 0 90 44 7f
        E 240 80 44 00
        E 0 90 44 7f
        E 240 80 44 00
        E 0 90 44 7f
        E 240 80 44 00
        E 0 90 44 7f
        E 240 80 44 00
        E 0 90 44 7f
        E 240 80 44 00
        E 0 90 44 7f
        E 240 80 44 00
        E 0 90 44 7f
        E 240 80 44 00
        E 0 90 44 7f
        E 240 80 44 00
        E 0 90 44 7f
        E 240 80 44 00
        E 0 90 44 7f
        E 240 80 44 00
        E 0 90 44 7f
        E 240 80 44 00
        E 0 90 44 7f
        E 240 80 44 00
        E 0 90 44 7f
        E 240 80 44 00
        E 0 90 44 7f
        E 240 80 44 00
        E 0 90 44 7f
        E 240 80 44 00
        E 0 90 44 7f
        E 240 80 44 00
        E 0 90 44 7f
        E 240 80 44 00
        E 0 90 44 7f
        E 240 80 44 00
        E 0 90 44 7f
        E 240 80 44 00
        E 0 90 44 7f
        E 240 80 44 00
        E 0 90 44 7f
        E 240 80 44 00
        E 0 90 44 7f
        E 240 80 44 00
        E 0 90 44 7f
        E 240 80 44 00
        E 0 90 44 7f
        E 240 80 44 00
        E 88320 90 44 7f
        E 240 80 44 00
        E 0 90 44 7f
        E 240 80 44 00
        E 0 90 44 7f
        E 240 80 44 00
        E 0 90 44 7f
        E 240 80 44 00
        E 0 90 44 7f
        E 240 80 44 00
        E 0 90 44 7f
        E 240 80 44 00
        E 0 90 44 7f
        E 240 80 44 00
        E 0 90 44 7f
        E 240 80 44 00
        E 0 90 44 7f
        E 240 80 44 00
        E 0 90 44 7f
        E 240 80 44 00
        E 0 90 44 7f
        E 240 80 44 00
        E 0 90 44 7f
        E 240 80 44 00
        E 0 90 44 7f
        E 240 80 44 00
        E 0 90 44 7f
        E 240 80 44 00
        E 0 90 44 7f
        E 240 80 44 00
        E 0 90 44 7f
        E 240 80 44 00
        E 0 90 44 7f
        E 240 80 44 00
        E 0 90 44 7f
        E 240 80 44 00
        E 0 90 44 7f
        E 240 80 44 00
        E 0 90 44 7f
        E 240 80 44 00
        E 0 90 44 7f
        E 240 80 44 00
        E 0 90 44 7f
        E 240 80 44 00
        E 0 90 44 7f
        E 240 80 44 00
        E 0 90 44 7f
        E 240 80 44 00
        E 0 90 44 7f
        E 240 80 44 00
        E 0 90 44 7f
        E 240 80 44 00
        E 0 90 44 7f
        E 240 80 44 00
        E 0 90 44 7f
        E 240 80 44 00
        E 0 90 44 7f
        E 240 80 44 00
        E 0 90 44 7f
        E 240 80 44 00
        E 0 90 44 7f
        E 240 80 44 00
        E 0 90 44 7f
        E 240 80 44 00
        E 0 90 44 7f
        E 240 80 44 00
        E 0 90 44 7f
        E 240 80 44 00
        E 0 90 44 7f
        E 240 80 44 00
        E 0 90 44 7f
        E 240 80 44 00
        E 0 90 44 7f
        E 240 80 44 00
        E 0 90 44 7f
        E 240 80 44 00
        E 0 90 44 7f
        E 240 80 44 00
        E 0 90 44 7f
        E 240 80 44 00
        E 0 90 44 7f
        E 240 80 44 00
        E 0 90 44 7f
        E 240 80 44 00
        E 0 90 44 7f
        E 240 80 44 00
        E 0 90 44 7f
        E 240 80 44 00
        E 0 90 44 7f
        E 240 80 44 00
        E 0 90 44 7f
        E 240 80 44 00
        E 0 90 44 7f
        E 240 80 44 00
        E 0 90 44 7f
        E 240 80 44 00
        E 0 90 44 7f
        E 240 80 44 00
        E 0 90 44 7f
        E 240 80 44 00
        E 0 90 44 7f
        E 240 80 44 00
        E 0 90 44 7f
        E 240 80 44 00
        E 0 90 44 7f
        E 240 80 44 00
        E 0 90 44 7f
        E 240 80 44 00
        E 0 90 44 7f
        E 240 80 44 00
        E 0 90 44 7f
        E 240 80 44 00
        E 0 90 44 7f
        E 240 80 44 00
        E 0 90 44 7f
        E 240 80 44 00
        E 0 90 44 7f
        E 240 80 44 00
        E 0 90 44 7f
        E 240 80 44 00
        E 0 90 44 7f
        E 240 80 44 00
        E 0 90 44 7f
        E 240 80 44 00
        E 0 90 44 7f
        E 240 80 44 00
        E 0 90 44 7f
        E 240 80 44 00
        E 0 90 44 7f
        E 240 80 44 00
        E 0 90 44 7f
        E 240 80 44 00
        E 0 90 44 7f
        E 240 80 44 00
        E 0 90 44 7f
        E 240 80 44 00
        E 0 90 44 7f
        E 240 80 44 00
        E 0 90 44 7f
        E 240 80 44 00
        E 0 90 44 7f
        E 240 80 44 00
        E 0 90 44 7f
        E 240 80 44 00
        E 0 90 44 7f
        E 240 80 44 00
        E 0 90 44 7f
        E 240 80 44 00
        E 0 90 44 7f
        E 240 80 44 00
        E 0 90 44 7f
        E 240 80 44 00
        E 0 90 44 7f
        E 240 80 44 00
        E 0 90 44 7f
        E 240 80 44 00
        E 0 90 44 7f
        E 240 80 44 00
        E 0 90 44 7f
        E 240 80 44 00
        E 0 90 44 7f
        E 240 80 44 00
        E 0 90 44 7f
        E 240 80 44 00
        E 0 90 44 7f
        E 240 80 44 00
        E 0 90 44 7f
        E 240 80 44 00
        E 0 90 44 7f
        E 240 80 44 00
        E 0 90 44 7f
        E 240 80 44 00
        E 0 90 44 7f
        E 240 80 44 00
        E 0 90 44 7f
        E 240 80 44 00
        E 0 90 44 7f
        E 240 80 44 00
        E 0 90 44 7f
        E 240 80 44 00
        E 0 90 44 7f
        E 240 80 44 00
        E 0 90 44 7f
        E 240 80 44 00
        E 0 90 44 7f
        E 240 80 44 00
        E 0 90 44 7f
        E 240 80 44 00
        E 0 90 44 7f
        E 240 80 44 00
        E 0 90 44 7f
        E 240 80 44 00
        E 0 90 44 7f
        E 240 80 44 00
        E 0 90 44 7f
        E 240 80 44 00
        E 0 90 44 7f
        E 240 80 44 00
        E 0 90 44 7f
        E 240 80 44 00
        E 0 90 44 7f
        E 240 80 44 00
        E 0 90 44 7f
        E 240 80 44 00
        E 0 90 44 7f
        E 240 80 44 00
        E 0 90 44 7f
        E 240 80 44 00
        E 0 90 44 7f
        E 240 80 44 00
        E 0 90 44 7f
        E 240 80 44 00
        E 0 90 44 7f
        E 240 80 44 00
        E 0 90 44 7f
        E 240 80 44 00
        E 0 90 44 7f
        E 240 80 44 00
        E 0 90 44 7f
        E 240 80 44 00
        E 0 90 44 7f
        E 240 80 44 00
        E 0 90 44 7f
        E 240 80 44 00
        E 0 90 44 7f
        E 240 80 44 00
        E 0 90 44 7f
        E 240 80 44 00
        E 0 90 44 7f
        E 240 80 44 00
        E 0 90 44 7f
        E 240 80 44 00
        E 0 90 44 7f
        E 240 80 44 00
        E 0 90 44 7f
        E 240 80 44 00
        E 0 90 44 7f
        E 240 80 44 00
        E 0 90 44 7f
        E 240 80 44 00
        E 0 90 44 7f
        E 240 80 44 00
        E 0 90 44 7f
        E 240 80 44 00
        E 0 90 44 7f
        E 240 80 44 00
        E 0 90 44 7f
        E 240 80 44 00
        E 0 90 44 7f
        E 240 80 44 00
        E 0 90 44 7f
        E 240 80 44 00
        E 0 90 44 7f
        E 240 80 44 00
        E 0 90 44 7f
        E 240 80 44 00
        E 0 90 44 7f
        E 240 80 44 00
        E 0 90 44 7f
        E 240 80 44 00
        E 0 90 44 7f
        E 240 80 44 00
        E 0 90 44 7f
        E 240 80 44 00
        E 0 90 44 7f
        E 240 80 44 00
        E 0 90 44 7f
        E 240 80 44 00
        E 0 90 44 7f
        E 240 80 44 00
        E 0 90 44 7f
        E 240 80 44 00
        E 0 90 44 7f
        E 240 80 44 00
        E 0 90 44 7f
        E 240 80 44 00
        E 0 90 44 7f
        E 240 80 44 00
        E 0 90 44 7f
        E 240 80 44 00
        E 0 90 44 7f
        E 240 80 44 00
        E 0 90 44 7f
        E 240 80 44 00
        E 0 90 44 7f
        E 240 80 44 00
        E 0 90 44 7f
        E 240 80 44 00
        E 88320 90 44 7f
        E 240 80 44 00
        E 0 90 44 7f
        E 240 80 44 00
        E 0 90 44 7f
        E 240 80 44 00
        E 0 90 44 7f
        E 240 80 44 00
        E 0 90 44 7f
        E 240 80 44 00
        E 0 90 44 7f
        E 240 80 44 00
        E 0 90 44 7f
        E 240 80 44 00
        E 0 90 44 7f
        E 240 80 44 00
        E 0 90 44 7f
        E 240 80 44 00
        E 0 90 44 7f
        E 240 80 44 00
        E 0 90 44 7f
        E 240 80 44 00
        E 0 90 44 7f
        E 240 80 44 00
        E 0 90 44 7f
        E 240 80 44 00
        E 0 90 44 7f
        E 240 80 44 00
        E 0 90 44 7f
        E 240 80 44 00
        E 0 90 44 7f
        E 240 80 44 00
        E 0 90 44 7f
        E 240 80 44 00
        E 0 90 44 7f
        E 240 80 44 00
        E 0 90 44 7f
        E 240 80 44 00
        E 0 90 44 7f
        E 240 80 44 00
        E 0 90 44 7f
        E 240 80 44 00
        E 0 90 44 7f
        E 240 80 44 00
        E 0 90 44 7f
        E 240 80 44 00
        E 0 90 44 7f
        E 240 80 44 00
        E 0 90 44 7f
        E 240 80 44 00
        E 0 90 44 7f
        E 240 80 44 00
        E 0 90 44 7f
        E 240 80 44 00
        E 0 90 44 7f
        E 240 80 44 00
        E 0 90 44 7f
        E 240 80 44 00
        E 0 90 44 7f
        E 240 80 44 00
        E 0 90 44 7f
        E 240 80 44 00
        E 0 90 44 7f
        E 240 80 44 00
        E 0 90 44 7f
        E 240 80 44 00
        E 0 90 44 7f
        E 240 80 44 00
        E 0 90 44 7f
        E 240 80 44 00
        E 0 90 44 7f
        E 240 80 44 00
        E 0 90 44 7f
        E 240 80 44 00
        E 0 90 44 7f
        E 240 80 44 00
        E 0 90 44 7f
        E 240 80 44 00
        E 0 90 44 7f
        E 240 80 44 00
        E 0 90 44 7f
        E 240 80 44 00
        E 0 90 44 7f
        E 240 80 44 00
        E 0 90 44 7f
        E 240 80 44 00
        E 0 90 44 7f
        E 240 80 44 00
        E 0 90 44 7f
        E 240 80 44 00
        E 0 90 44 7f
        E 240 80 44 00
        E 0 90 44 7f
        E 240 80 44 00
        E 0 90 44 7f
        E 240 80 44 00
        E 0 90 44 7f
        E 240 80 44 00
        E 0 90 44 7f
        E 240 80 44 00
        E 0 90 44 7f
        E 240 80 44 00
        E 0 90 44 7f
        E 240 80 44 00
        E 0 90 44 7f
        E 240 80 44 00
        E 0 90 44 7f
        E 240 80 44 00
        E 0 90 44 7f
        E 240 80 44 00
        E 0 90 44 7f
        E 240 80 44 00
        E 0 90 44 7f
        E 240 80 44 00
        E 0 90 44 7f
        E 240 80 44 00
        E 0 90 44 7f
        E 240 80 44 00
        E 0 90 44 7f
        E 240 80 44 00
        E 0 90 44 7f
        E 240 80 44 00
        E 0 90 44 7f
        E 240 80 44 00
        E 0 90 44 7f
        E 240 80 44 00
        E 0 90 44 7f
        E 240 80 44 00
        E 0 90 44 7f
        E 240 80 44 00
        E 0 90 44 7f
        E 240 80 44 00
        E 0 90 44 7f
        E 240 80 44 00
        E 0 90 44 7f
        E 240 80 44 00
        E 0 90 44 7f
        E 240 80 44 00
        E 0 90 44 7f
        E 240 80 44 00
        E 0 90 44 7f
        E 240 80 44 00
        E 0 90 44 7f
        E 240 80 44 00
        E 0 90 44 7f
        E 240 80 44 00
        E 0 90 44 7f
        E 240 80 44 00
        E 0 90 44 7f
        E 240 80 44 00
        E 0 90 44 7f
        E 240 80 44 00
        E 0 90 44 7f
        E 240 80 44 00
        E 0 90 44 7f
        E 240 80 44 00
        E 0 90 44 7f
        E 240 80 44 00
        E 0 90 44 7f
        E 240 80 44 00
        E 0 90 44 7f
        E 240 80 44 00
        E 0 90 44 7f
        E 240 80 44 00
        E 0 90 44 7f
        E 240 80 44 00
        E 0 90 44 7f
        E 240 80 44 00
        E 0 90 44 7f
        E 240 80 44 00
        E 0 90 44 7f
        E 240 80 44 00
        E 0 90 44 7f
        E 240 80 44 00
        E 0 90 44 7f
        E 240 80 44 00
        E 0 90 44 7f
        E 240 80 44 00
        E 0 90 44 7f
        E 240 80 44 00
        E 0 90 44 7f
        E 240 80 44 00
        E 0 90 44 7f
        E 240 80 44 00
        E 0 90 44 7f
        E 240 80 44 00
        E 0 90 44 7f
        E 240 80 44 00
        E 0 90 44 7f
        E 240 80 44 00
        E 0 90 44 7f
        E 240 80 44 00
        E 0 90 44 7f
        E 240 80 44 00
        E 0 90 44 7f
        E 240 80 44 00
        E 0 90 44 7f
        E 240 80 44 00
        E 0 90 44 7f
        E 240 80 44 00
        E 0 90 44 7f
        E 240 80 44 00
        E 0 90 44 7f
        E 240 80 44 00
        E 0 90 44 7f
        E 240 80 44 00
        E 0 90 44 7f
        E 240 80 44 00
        E 0 90 44 7f
        E 240 80 44 00
        E 0 90 44 7f
        E 240 80 44 00
        E 0 90 44 7f
        E 240 80 44 00
        E 0 90 44 7f
        E 240 80 44 00
        E 0 90 44 7f
        E 240 80 44 00
        E 0 90 44 7f
        E 240 80 44 00
        E 0 90 44 7f
        E 240 80 44 00
        E 0 90 44 7f
        E 240 80 44 00
        E 0 90 44 7f
        E 240 80 44 00
        E 0 90 44 7f
        E 240 80 44 00
        E 0 90 44 7f
        E 240 80 44 00
        E 0 90 44 7f
        E 240 80 44 00
        E 0 90 44 7f
        E 240 80 44 00
        E 0 90 44 7f
        E 240 80 44 00
        E 0 90 44 7f
        E 240 80 44 00
        E 0 90 44 7f
        E 240 80 44 00
        E 0 90 44 7f
        E 240 80 44 00
        E 0 90 44 7f
        E 240 80 44 00
        E 0 90 44 7f
        E 240 80 44 00
        E 0 90 44 7f
        E 240 80 44 00
        E 0 90 44 7f
        E 240 80 44 00
        E 0 90 44 7f
        E 240 80 44 00
        E 0 90 44 7f
        E 240 80 44 00
        E 0 90 44 7f
        E 240 80 44 00
        E 0 90 44 7f
        E 240 80 44 00
        E 0 90 44 7f
        E 240 80 44 00
        E 0 90 44 7f
        E 240 80 44 00
        E 0 90 44 7f
        E 240 80 44 00
        E 0 90 44 7f
        E 240 80 44 00
        E 0 90 44 7f
        E 240 80 44 00
        E 0 90 44 7f
        E 240 80 44 00
        E 0 90 44 7f
        E 240 80 44 00
        E 0 90 44 7f
        E 240 80 44 00
        E 0 90 44 7f
        E 240 80 44 00
        E 0 90 44 7f
        E 240 80 44 00
        E 0 90 44 7f
        E 240 80 44 00
        E 0 90 44 7f
        E 240 80 44 00
        E 0 90 44 7f
        E 240 80 44 00
        E 0 90 44 7f
        E 240 80 44 00
        E 0 90 44 7f
        E 240 80 44 00
        E 92160 90 44 7f
        E 240 80 44 00
        E 0 90 44 7f
        E 240 80 44 00
        E 0 90 44 7f
        E 240 80 44 00
        E 0 90 44 7f
        E 240 80 44 00
        E 0 90 44 7f
        E 240 80 44 00
        E 0 90 44 7f
        E 240 80 44 00
        E 0 90 44 7f
        E 240 80 44 00
        E 0 90 44 7f
        E 240 80 44 00
        E 0 90 44 7f
        E 240 80 44 00
        E 0 90 44 7f
        E 240 80 44 00
        E 0 90 44 7f
        E 240 80 44 00
        E 0 90 44 7f
        E 240 80 44 00
        E 0 90 44 7f
        E 240 80 44 00
        E 0 90 44 7f
        E 240 80 44 00
        E 0 90 44 7f
        E 240 80 44 00
        E 0 90 44 7f
        E 240 80 44 00
        E 0 90 44 7f
        E 240 80 44 00
        E 0 90 44 7f
        E 240 80 44 00
        E 0 90 44 7f
        E 240 80 44 00
        E 0 90 44 7f
        E 240 80 44 00
        E 0 90 44 7f
        E 240 80 44 00
        E 0 90 44 7f
        E 240 80 44 00
        E 0 90 44 7f
        E 240 80 44 00
        E 0 90 44 7f
        E 240 80 44 00
        E 0 90 44 7f
        E 240 80 44 00
        E 0 90 44 7f
        E 240 80 44 00
        E 0 90 44 7f
        E 240 80 44 00
        E 0 90 44 7f
        E 240 80 44 00
        E 0 90 44 7f
        E 240 80 44 00
        E 0 90 44 7f
        E 240 80 44 00
        E 0 90 44 7f
        E 240 80 44 00
        E 0 90 44 7f
        E 240 80 44 00
        E 0 90 44 7f
        E 240 80 44 00
        E 0 90 44 7f
        E 240 80 44 00
        E 0 90 44 7f
        E 240 80 44 00
        E 0 90 44 7f
        E 240 80 44 00
        E 0 90 44 7f
        E 240 80 44 00
        E 0 90 44 7f
        E 240 80 44 00
        E 0 90 44 7f
        E 240 80 44 00
        E 0 90 44 7f
        E 240 80 44 00
        E 0 90 44 7f
        E 240 80 44 00
        E 0 90 44 7f
        E 240 80 44 00
        E 0 90 44 7f
        E 240 80 44 00
        E 0 90 44 7f
        E 240 80 44 00
        E 0 90 44 7f
        E 240 80 44 00
        E 0 90 44 7f
        E 240 80 44 00
        E 0 90 44 7f
        E 240 80 44 00
        E 0 90 44 7f
        E 240 80 44 00
        E 0 90 44 7f
        E 240 80 44 00
        E 0 90 44 7f
        E 240 80 44 00
        E 0 90 44 7f
        E 240 80 44 00
        E 0 90 44 7f
        E 240 80 44 00
        E 0 90 44 7f
        E 240 80 44 00
        E 0 90 44 7f
        E 240 80 44 00
        E 0 90 44 7f
        E 240 80 44 00
        E 0 90 44 7f
        E 240 80 44 00
        E 0 90 44 7f
        E 240 80 44 00
        E 0 90 44 7f
        E 240 80 44 00
        E 0 90 44 7f
        E 240 80 44 00
        E 0 90 44 7f
        E 240 80 44 00
        E 0 90 44 7f
        E 240 80 44 00
        E 0 90 44 7f
        E 240 80 44 00
        E 0 90 44 7f
        E 240 80 44 00
        E 0 90 44 7f
        E 240 80 44 00
        E 0 90 44 7f
        E 240 80 44 00
        E 0 90 44 7f
        E 240 80 44 00
        E 0 90 44 7f
        E 240 80 44 00
        E 0 90 44 7f
        E 240 80 44 00
        E 0 90 44 7f
        E 240 80 44 00
        E 0 90 44 7f
        E 240 80 44 00
        E 0 90 44 7f
        E 240 80 44 00
        E 0 90 44 7f
        E 240 80 44 00
        E 0 90 44 7f
        E 240 80 44 00
        E 0 90 44 7f
        E 240 80 44 00
        E 0 90 44 7f
        E 240 80 44 00
        E 0 90 44 7f
        E 240 80 44 00
        E 0 90 44 7f
        E 240 80 44 00
        E 0 90 44 7f
        E 240 80 44 00
        E 0 90 44 7f
        E 240 80 44 00
        E 0 90 44 7f
        E 240 80 44 00
        E 0 90 44 7f
        E 240 80 44 00
        E 0 90 44 7f
        E 240 80 44 00
        E 0 90 44 7f
        E 240 80 44 00
        E 0 90 44 7f
        E 240 80 44 00
        E 0 90 44 7f
        E 240 80 44 00
        E 0 90 44 7f
        E 240 80 44 00
        E 0 90 44 7f
        E 240 80 44 00
        E 0 90 44 7f
        E 240 80 44 00
        E 0 90 44 7f
        E 240 80 44 00
        E 0 90 44 7f
        E 240 80 44 00
        E 0 90 44 7f
        E 240 80 44 00
        E 0 90 44 7f
        E 240 80 44 00
        E 0 90 44 7f
        E 240 80 44 00
        E 0 90 44 7f
        E 240 80 44 00
        E 0 90 44 7f
        E 240 80 44 00
        E 0 90 44 7f
        E 240 80 44 00
        E 0 90 44 7f
        E 240 80 44 00
        E 0 90 44 7f
        E 240 80 44 00
        E 0 90 44 7f
        E 240 80 44 00
        E 0 90 44 7f
        E 240 80 44 00
        E 0 90 44 7f
        E 240 80 44 00
        E 0 90 44 7f
        E 240 80 44 00
        E 0 90 44 7f
        E 240 80 44 00
        E 0 90 44 7f
        E 240 80 44 00
        E 0 90 44 7f
        E 240 80 44 00
        E 0 90 44 7f
        E 240 80 44 00
        E 0 90 44 7f
        E 240 80 44 00
        E 0 90 44 7f
        E 240 80 44 00
        E 0 90 44 7f
        E 240 80 44 00
        E 0 90 44 7f
        E 240 80 44 00
        E 0 90 44 7f
        E 240 80 44 00
        E 0 90 44 7f
        E 240 80 44 00
        E 0 90 44 7f
        E 240 80 44 00
        E 0 90 44 7f
        E 240 80 44 00
        E 0 90 44 7f
        E 240 80 44 00
        E 0 90 44 7f
        E 240 80 44 00
        E 0 90 44 7f
        E 240 80 44 00
        E 0 90 44 7f
        E 240 80 44 00
        E 0 90 44 7f
        E 240 80 44 00
        E 0 90 44 7f
        E 240 80 44 00
        E 0 90 44 7f
        E 240 80 44 00
        E 0 90 44 7f
        E 240 80 44 00
        E 0 90 44 7f
        E 240 80 44 00
        E 0 90 44 7f
        E 240 80 44 00
        E 0 90 44 7f
        E 240 80 44 00
        E 0 90 44 7f
        E 240 80 44 00
        E 0 90 44 7f
        E 240 80 44 00
        E 0 90 44 7f
        E 240 80 44 00
        E 0 90 44 7f
        E 240 80 44 00
        E 0 90 44 7f
        E 240 80 44 00
        E 0 90 44 7f
        E 240 80 44 00
        E 0 90 44 7f
        E 240 80 44 00
        E 0 90 44 7f
        E 240 80 44 00
        E 0 90 44 7f
        E 240 80 44 00
        E 0 90 44 7f
        E 240 80 44 00
        E 0 90 44 7f
        E 240 80 44 00
        E 0 90 44 7f
        E 240 80 44 00
        E 0 90 44 7f
        E 240 80 44 00
        E 0 90 44 7f
        E 240 80 44 00
        E 0 90 44 7f
        E 240 80 44 00
        E 0 90 44 7f
        E 240 80 44 00
        E 0 90 44 7f
        E 240 80 44 00
        E 0 90 44 7f
        E 240 80 44 00
        E 0 90 44 7f
        E 240 80 44 00
        E 0 90 44 7f
        E 240 80 44 00
        E 0 90 44 7f
        E 240 80 44 00
        E 0 90 44 7f
        E 240 80 44 00
        E 0 90 44 7f
        E 240 80 44 00
        E 0 90 44 7f
        E 240 80 44 00
        E 0 90 44 7f
        E 240 80 44 00
        E 0 90 44 7f
        E 240 80 44 00
        E 0 90 44 7f
        E 240 80 44 00
        E 0 90 44 7f
        E 240 80 44 00
        E 0 90 44 7f
        E 240 80 44 00
        E 0 90 44 7f
        E 240 80 44 00
        E 0 90 44 7f
        E 240 80 44 00
        E 0 90 44 7f
        E 240 80 44 00
        E 0 90 44 7f
        E 240 80 44 00
        E 0 90 44 7f
        E 240 80 44 00
        E 0 90 44 7f
        E 240 80 44 00
        E 0 90 44 7f
        E 240 80 44 00
        E 0 90 44 7f
        E 240 80 44 00
        E 0 90 44 7f
        E 240 80 44 00
        E 0 90 44 7f
        E 240 80 44 00
        E 0 90 44 7f
        E 240 80 44 00
        E 0 90 44 7f
        E 240 80 44 00
        E 0 90 44 7f
        E 240 80 44 00
        E 0 90 44 7f
        E 240 80 44 00
        E 0 90 44 7f
        E 240 80 44 00
        E 0 90 44 7f
        E 240 80 44 00
        E 0 90 44 7f
        E 240 80 44 00
        E 0 90 44 7f
        E 240 80 44 00
        E 0 90 44 7f
        E 240 80 44 00
        E 0 90 44 7f
        E 240 80 44 00
        E 0 90 44 7f
        E 240 80 44 00
        E 0 90 44 7f
        E 240 80 44 00
        E 0 90 44 7f
        E 240 80 44 00
        E 0 90 44 7f
        E 240 80 44 00
        E 0 90 44 7f
        E 240 80 44 00
        E 0 90 44 7f
        E 240 80 44 00
        E 0 90 44 7f
        E 240 80 44 00
        E 0 90 44 7f
        E 240 80 44 00
        E 0 90 44 7f
        E 240 80 44 00
        E 0 90 44 7f
        E 240 80 44 00
        E 0 90 44 7f
        E 240 80 44 00
        E 0 90 44 7f
        E 240 80 44 00
        E 0 90 44 7f
        E 240 80 44 00
        E 0 90 44 7f
        E 240 80 44 00
        E 0 90 44 7f
        E 240 80 44 00
        E 0 90 44 7f
        E 240 80 44 00
        E 0 90 44 7f
        E 240 80 44 00
        E 0 90 44 7f
        E 240 80 44 00
        E 0 90 44 7f
        E 240 80 44 00
        E 0 90 44 7f
        E 240 80 44 00
        E 0 90 44 7f
        E 240 80 44 00
        E 0 90 44 7f
        E 240 80 44 00
        E 0 90 44 7f
        E 240 80 44 00
        E 0 90 44 7f
        E 240 80 44 00
        E 0 90 44 7f
        E 240 80 44 00
        E 0 90 44 7f
        E 240 80 44 00
        E 0 90 44 7f
        E 240 80 44 00
        E 0 90 44 7f
        E 240 80 44 00
        E 0 90 44 7f
        E 240 80 44 00
        E 0 90 44 7f
        E 240 80 44 00
        E 0 90 44 7f
        E 240 80 44 00
        E 0 90 44 7f
        E 240 80 44 00
        E 0 90 44 7f
        E 240 80 44 00
        E 0 90 44 7f
        E 240 80 44 00
        E 0 90 44 7f
        E 240 80 44 00
        E 0 90 44 7f
        E 240 80 44 00
        E 0 90 44 7f
        E 240 80 44 00
        E 0 90 44 7f
        E 240 80 44 00
        E 0 90 44 7f
        E 240 80 44 00
        E 0 90 44 7f
        E 240 80 44 00
        E 0 90 44 7f
        E 240 80 44 00
        E 0 90 44 7f
        E 240 80 44 00
        E 0 90 44 7f
        E 240 80 44 00
        E 0 90 44 7f
        E 240 80 44 00
        E 0 90 44 7f
        E 240 80 44 00
        E 0 90 44 7f
        E 240 80 44 00
        E 0 90 44 7f
        E 240 80 44 00
        E 0 90 44 7f
        E 240 80 44 00
        E 0 90 44 7f
        E 240 80 44 00
        E 0 90 44 7f
        E 240 80 44 00
        E 0 90 44 7f
        E 240 80 44 00
        E 0 90 44 7f
        E 240 80 44 00
        E 0 90 44 7f
        E 240 80 44 00
        E 0 90 44 7f
        E 240 80 44 00
        E 0 90 44 7f
        E 240 80 44 00
        E 0 90 44 7f
        E 240 80 44 00
        E 0 90 44 7f
        E 240 80 44 00
        E 0 90 44 7f
        E 240 80 44 00
        E 0 90 44 7f
        E 240 80 44 00
        E 0 90 44 7f
        E 240 80 44 00
        E 0 90 44 7f
        E 240 80 44 00
        E 0 90 44 7f
        E 240 80 44 00
        E 0 90 44 7f
        E 240 80 44 00
        E 0 90 44 7f
        E 240 80 44 00
        E 0 90 44 7f
        E 240 80 44 00
        E 0 90 44 7f
        E 240 80 44 00
        E 0 90 44 7f
        E 240 80 44 00
        E 0 90 44 7f
        E 240 80 44 00
        E 0 90 44 7f
        E 240 80 44 00
        E 0 90 44 7f
        E 240 80 44 00
        E 0 90 44 7f
        E 240 80 44 00
        E 0 90 44 7f
        E 240 80 44 00
        E 0 90 44 7f
        E 240 80 44 00
        E 0 90 44 7f
        E 240 80 44 00
        E 0 90 44 7f
        E 240 80 44 00
        E 0 90 44 7f
        E 240 80 44 00
        E 0 90 44 7f
        E 240 80 44 00
        E 0 90 44 7f
        E 240 80 44 00
        E 0 90 44 7f
        E 240 80 44 00
        E 0 90 44 7f
        E 240 80 44 00
        E 0 90 44 7f
        E 240 80 44 00
        E 0 90 44 7f
        E 240 80 44 00
        E 0 90 44 7f
        E 240 80 44 00
        E 0 90 44 7f
        E 240 80 44 00
        E 0 90 44 7f
        E 240 80 44 00
        E 0 90 44 7f
        E 240 80 44 00
        E 0 90 44 7f
        E 240 80 44 00
        E 0 90 44 7f
        E 240 80 44 00
        E 0 90 44 7f
        E 240 80 44 00
        E 0 90 44 7f
        E 240 80 44 00
        E 0 90 44 7f
        E 240 80 44 00
        E 0 90 44 7f
        E 240 80 44 00
        E 0 90 44 7f
        E 240 80 44 00
        E 0 90 44 7f
        E 240 80 44 00
        E 0 90 44 7f
        E 240 80 44 00
        E 0 90 44 7f
        E 240 80 44 00
        E 0 90 44 7f
        E 240 80 44 00
        E 0 90 44 7f
        E 240 80 44 00
        E 0 90 44 7f
        E 240 80 44 00
        E 0 90 44 7f
        E 240 80 44 00
        E 0 90 44 7f
        E 240 80 44 00
        E 0 90 44 7f
        E 240 80 44 00
        E 0 90 44 7f
        E 240 80 44 00
        E 0 90 44 7f
        E 240 80 44 00
        E 0 90 44 7f
        E 240 80 44 00
        E 0 90 44 7f
        E 240 80 44 00
        E 0 90 44 7f
        E 240 80 44 00
        E 0 90 44 7f
        E 240 80 44 00
        E 0 90 44 7f
        E 240 80 44 00
        E 0 90 44 7f
        E 240 80 44 00
        E 0 90 44 7f
        E 240 80 44 00
        E 0 90 44 7f
        E 240 80 44 00
        E 0 90 44 7f
        E 240 80 44 00
        E 0 90 44 7f
        E 240 80 44 00
        E 0 90 44 7f
        E 240 80 44 00
        E 0 90 44 7f
        E 240 80 44 00
        E 0 90 44 7f
        E 240 80 44 00
        E 0 90 44 7f
        E 240 80 44 00
        E 0 90 44 7f
        E 240 80 44 00
        E 0 90 44 7f
        E 240 80 44 00
        E 0 90 44 7f
        E 240 80 44 00
        E 0 90 44 7f
        E 240 80 44 00
        E 0 90 44 7f
        E 240 80 44 00
        E 0 90 44 7f
        E 240 80 44 00
        E 0 90 44 7f
        E 240 80 44 00
        E 0 90 44 7f
        E 240 80 44 00
        E 0 90 44 7f
        E 240 80 44 00
        E 0 90 44 7f
        E 240 80 44 00
        E 0 90 44 7f
        E 240 80 44 00
        E 0 90 44 7f
        E 240 80 44 00
        E 0 90 44 7f
        E 240 80 44 00
        E 0 90 44 7f
        E 240 80 44 00
        E 0 90 44 7f
        E 240 80 44 00
        E 0 90 44 7f
        E 240 80 44 00
        E 0 90 44 7f
        E 240 80 44 00
        E 0 90 44 7f
        E 240 80 44 00
        E 0 90 44 7f
        E 240 80 44 00
        E 0 90 44 7f
        E 240 80 44 00
        E 0 90 44 7f
        E 240 80 44 00
        E 0 90 44 7f
        E 240 80 44 00
        E 0 90 44 7f
        E 240 80 44 00
        E 0 90 44 7f
        E 240 80 44 00
        E 0 90 44 7f
        E 240 80 44 00
        E 0 90 44 7f
        E 240 80 44 00
        E 0 90 44 7f
        E 240 80 44 00
        E 0 90 44 7f
        E 240 80 44 00
        E 0 90 44 7f
        E 240 80 44 00
        E 0 90 44 7f
        E 240 80 44 00
        E 0 90 44 7f
        E 240 80 44 00
        E 0 90 44 7f
        E 240 80 44 00
        E 0 90 44 7f
        E 240 80 44 00
        E 0 90 44 7f
        E 240 80 44 00
        E 0 90 44 7f
        E 240 80 44 00
        E 0 90 44 7f
        E 240 80 44 00
        E 0 90 44 7f
        E 240 80 44 00
        E 0 90 44 7f
        E 240 80 44 00
        E 0 90 44 7f
        E 240 80 44 00
        E 0 90 44 7f
        E 240 80 44 00
        E 0 90 44 7f
        E 240 80 44 00
        E 0 90 44 7f
        E 240 80 44 00
        E 0 90 44 7f
        E 240 80 44 00
        E 0 90 44 7f
        E 240 80 44 00
        E 0 90 44 7f
        E 240 80 44 00
        E 0 90 44 7f
        E 240 80 44 00
        E 0 90 44 7f
        E 240 80 44 00
        E 0 90 44 7f
        E 240 80 44 00
        E 0 90 44 7f
        E 240 80 44 00
        E 0 90 44 7f
        E 240 80 44 00
        E 0 90 44 7f
        E 240 80 44 00
        E 0 90 44 7f
        E 240 80 44 00
        E 0 90 44 7f
        E 240 80 44 00
        E 0 90 44 7f
        E 240 80 44 00
        E 0 90 44 7f
        E 240 80 44 00
        E 0 90 44 7f
        E 240 80 44 00
        E 0 90 44 7f
        E 240 80 44 00
        E 0 90 44 7f
        E 240 80 44 00
        E 0 90 44 7f
        E 240 80 44 00
        E 0 90 44 7f
        E 240 80 44 00
        E 0 90 44 7f
        E 240 80 44 00
        E 0 90 44 7f
        E 240 80 44 00
        E 0 90 44 7f
        E 240 80 44 00
        E 0 90 44 7f
        E 240 80 44 00
        E 0 90 44 7f
        E 240 80 44 00
        E 0 90 44 7f
        E 240 80 44 00
        E 0 90 44 7f
        E 240 80 44 00
        E 0 90 44 7f
        E 240 80 44 00
        E 0 90 44 7f
        E 240 80 44 00
        E 0 90 44 7f
        E 240 80 44 00
        E 0 90 44 7f
        E 240 80 44 00
        E 0 90 44 7f
        E 240 80 44 00
        E 0 90 44 7f
        E 240 80 44 00
        E 0 90 44 7f
        E 240 80 44 00
        E 0 90 44 7f
        E 240 80 44 00
        E 0 90 44 7f
        E 240 80 44 00
        E 0 90 44 7f
        E 240 80 44 00
        E 0 90 44 7f
        E 240 80 44 00
        E 0 90 44 7f
        E 240 80 44 00
        E 0 90 44 7f
        E 240 80 44 00
        E 0 90 44 7f
        E 240 80 44 00
        E 0 90 44 7f
        E 240 80 44 00
        E 0 90 44 7f
        E 240 80 44 00
        E 0 90 44 7f
        E 240 80 44 00
        E 0 90 44 7f
        E 240 80 44 00
        E 0 90 44 7f
        E 240 80 44 00
        E 0 90 44 7f
        E 240 80 44 00
        E 0 90 44 7f
        E 240 80 44 00
        E 0 90 44 7f
        E 240 80 44 00
        E 0 90 44 7f
        E 240 80 44 00
        E 0 90 44 7f
        E 240 80 44 00
        E 0 90 44 7f
        E 240 80 44 00
        E 0 90 44 7f
        E 240 80 44 00
        E 0 90 44 7f
        E 240 80 44 00
        E 0 90 44 7f
        E 240 80 44 00
        E 0 90 44 7f
        E 240 80 44 00
        E 0 90 44 7f
        E 240 80 44 00
        E 0 90 44 7f
        E 240 80 44 00
        E 0 90 44 7f
        E 240 80 44 00
        E 0 90 44 7f
        E 240 80 44 00
        E 0 90 44 7f
        E 240 80 44 00
        E 0 90 44 7f
        E 240 80 44 00
        E 0 90 44 7f
        E 240 80 44 00
        E 0 90 44 7f
        E 240 80 44 00
        E 0 90 44 7f
        E 240 80 44 00
        E 0 90 44 7f
        E 240 80 44 00
        E 0 90 44 7f
        E 240 80 44 00
        E 0 90 44 7f
        E 240 80 44 00
        E 0 90 44 7f
        E 240 80 44 00
        E 0 90 44 7f
        E 240 80 44 00
        E 0 90 44 7f
        E 240 80 44 00
        E 0 90 44 7f
        E 240 80 44 00
        E 0 90 44 7f
        E 240 80 44 00
        E 0 90 44 7f
        E 240 80 44 00
        E 0 90 44 7f
        E 240 80 44 00
        E 0 90 44 7f
        E 240 80 44 00
        E 0 90 44 7f
        E 240 80 44 00
        E 0 90 44 7f
        E 240 80 44 00
        E 0 90 44 7f
        E 240 80 44 00
        E 0 90 44 7f
        E 240 80 44 00
        E 0 90 44 7f
        E 240 80 44 00
        E 0 90 44 7f
        E 240 80 44 00
        E 0 90 44 7f
        E 240 80 44 00
        E 0 90 44 7f
        E 240 80 44 00
        E 0 90 44 7f
        E 240 80 44 00
        E 0 90 44 7f
        E 240 80 44 00
        E 0 90 44 7f
        E 240 80 44 00
        E 0 90 44 7f
        E 240 80 44 00
        E 0 90 44 7f
        E 240 80 44 00
        E 0 90 44 7f
        E 240 80 44 00
        E 0 90 44 7f
        E 240 80 44 00
        E 0 90 44 7f
        E 240 80 44 00
        E 0 90 44 7f
        E 240 80 44 00
        E 0 90 44 7f
        E 240 80 44 00
        E 0 90 44 7f
        E 240 80 44 00
        E 0 90 44 7f
        E 240 80 44 00
        E 0 90 44 7f
        E 240 80 44 00
        E 0 90 44 7f
        E 240 80 44 00
        E 0 90 44 7f
        E 240 80 44 00
        E 0 90 44 7f
        E 240 80 44 00
        E 0 90 44 7f
        E 240 80 44 00
        E 0 90 44 7f
        E 240 80 44 00
        E 0 90 44 7f
        E 240 80 44 00
        E 0 90 44 7f
        E 240 80 44 00
        E 0 90 44 7f
        E 240 80 44 00
        E 0 90 44 7f
        E 240 80 44 00
        E 0 90 44 7f
        E 240 80 44 00
        E 0 90 44 7f
        E 240 80 44 00
        E 0 90 44 7f
        E 240 80 44 00
        E 0 90 44 7f
        E 240 80 44 00
        E 0 90 44 7f
        E 240 80 44 00
        E 0 90 44 7f
        E 240 80 44 00
        E 0 90 44 7f
        E 240 80 44 00
        E 0 90 44 7f
        E 240 80 44 00
        E 0 90 44 7f
        E 240 80 44 00
        E 0 90 44 7f
        E 239 80 44 00
        E 1 b0 7b 00
        GUID {0033CE14-9CA4-412F-A64C-CE3D9C9E628F}
        IGNTEMPO 0 120 4 4
        SRCCOLOR 14067
        VELLANE -1 100 0
        CFGEDITVIEW 148146.638095 0.057172 47 12 0 -1 0 0 0 0.5
        KEYSNAP 1
        TRACKSEL -252
        EVTFILTER 0 -1 -1 -1 -1 0 0 0 0 -1 -1 -1 -1 0 -1 0 -1 -1
        CFGEDIT 1 1 0 1 0 0 1 1 1 1 1 0.25 423 61 1872 1023 0 0 0 0 0 0 1 0 0 0 0 0 1 64
      >
    >
  >
  <TRACK {C31BC41C-0B45-4262-B386-594C2FCDFDC9}
    NAME "Open Hat"
    PEAKCOL 16576
    BEAT -1
    AUTOMODE 0
    VOLPAN 1 0 -1 -1 1
    MUTESOLO 0 0 0
    IPHASE 0
    ISBUS 0 0
    BUSCOMP 0 0
    SHOWINMIX 1 0.6667 0.5 1 0.5 0 0 0
    FREEMODE 0
    SEL 0
    REC 0 0 0 0 0 0 0
    VU 2
    TRACKHEIGHT 0 0
    INQ 0 0 0 0.5 100 0 0 100
    NCHAN 2
    FX 1
    TRACKID {C31BC41C-0B45-4262-B386-594C2FCDFDC9}
    PERF 0
    MIDIOUT -1
    MAINSEND 1 0
    <ITEM
      POSITION 0
      SNAPOFFS 0
      LENGTH 156.52176
      LOOP 1
      ALLTAKES 0
      FADEIN 1 0 0 1 0 0
      FADEOUT 1 0 0 1 0 0
      MUTE 0
      SEL 0
      IGUID {BF2F0737-2A47-4BF1-885C-3B99839DE5BF}
      IID 10
      NAME "Open Hat - Lucky Hardcore =).mid"
      VOLPAN 1 0 1 -1
      SOFFS 0 0
      PLAYRATE 1 1 0 -1 0 0.0025
      CHANMODE 0
      GUID {4CFBFB24-5EFD-49BD-828C-F4666CF5A114}
      <SOURCE MIDI
        HASDATA 1 960 QN
        POOLEDEVTS {B3AB775E-A3B2-4B7E-8348-4D0D2C639D64}
        <X 0 0 0 0 3 "Open Hat"
          /wNPcGVuIEhhdA==
        >
        E 138240 90 44 40
        E 960 80 44 00
        E 2880 90 44 7f
        E 960 80 44 00
        E 2880 90 44 7f
        E 960 80 44 00
        E 2880 90 44 7f
        E 960 80 44 00
        E 153120 90 44 7f
        E 480 80 44 00
        E 480 90 44 7f
        E 480 80 44 00
        E 480 90 44 7f
        E 480 80 44 00
        E 480 90 44 7f
        E 480 80 44 00
        E 480 90 44 7f
        E 480 80 44 00
        E 480 90 44 7f
        E 480 80 44 00
        E 480 90 44 7f
        E 480 80 44 00
        E 480 90 44 7f
        E 480 80 44 00
        E 480 90 44 7f
        E 480 80 44 00
        E 480 90 44 7f
        E 480 80 44 00
        E 480 90 44 7f
        E 480 80 44 00
        E 480 90 44 7f
        E 480 80 44 00
        E 480 90 44 7f
        E 480 80 44 00
        E 480 90 44 7f
        E 480 80 44 00
        E 480 90 44 7f
        E 480 80 44 00
        E 480 90 44 7f
        E 480 80 44 00
        E 480 90 44 7f
        E 480 80 44 00
        E 480 90 44 7f
        E 480 80 44 00
        E 480 90 44 7f
        E 480 80 44 00
        E 480 90 44 7f
        E 480 80 44 00
        E 480 90 44 7f
        E 480 80 44 00
        E 480 90 44 7f
        E 480 80 44 00
        E 480 90 44 7f
        E 480 80 44 00
        E 480 90 44 7f
        E 480 80 44 00
        E 480 90 44 7f
        E 480 80 44 00
        E 480 90 44 7f
        E 480 80 44 00
        E 480 90 44 7f
        E 480 80 44 00
        E 480 90 44 7f
        E 480 80 44 00
        E 480 90 44 7f
        E 480 80 44 00
        E 480 90 44 7f
        E 480 80 44 00
        E 480 90 44 7f
        E 480 80 44 00
        E 480 90 44 7f
        E 480 80 44 00
        E 480 90 44 7f
        E 480 80 44 00
        E 480 90 44 7f
        E 480 80 44 00
        E 480 90 44 7f
        E 480 80 44 00
        E 480 90 44 7f
        E 480 80 44 00
        E 88800 90 44 7f
        E 480 80 44 00
        E 480 90 44 7f
        E 480 80 44 00
        E 480 90 44 7f
        E 480 80 44 00
        E 480 90 44 7f
        E 480 80 44 00
        E 480 90 44 7f
        E 480 80 44 00
        E 480 90 44 7f
        E 480 80 44 00
        E 480 90 44 7f
        E 480 80 44 00
        E 480 90 44 7f
        E 480 80 44 00
        E 480 90 44 7f
        E 480 80 44 00
        E 480 90 44 7f
        E 480 80 44 00
        E 480 90 44 7f
        E 480 80 44 00
        E 480 90 44 7f
        E 480 80 44 00
        E 480 90 44 7f
        E 480 80 44 00
        E 480 90 44 7f
        E 480 80 44 00
        E 480 90 44 7f
        E 480 80 44 00
        E 480 90 44 7f
        E 480 80 44 00
        E 480 90 44 7f
        E 480 80 44 00
        E 480 90 44 7f
        E 480 80 44 00
        E 480 90 44 7f
        E 480 80 44 00
        E 480 90 44 7f
        E 480 80 44 00
        E 480 90 44 7f
        E 480 80 44 00
        E 480 90 44 7f
        E 480 80 44 00
        E 480 90 44 7f
        E 480 80 44 00
        E 480 90 44 7f
        E 480 80 44 00
        E 480 90 44 7f
        E 480 80 44 00
        E 480 90 44 7f
        E 480 80 44 00
        E 480 90 44 7f
        E 480 80 44 00
        E 480 90 44 7f
        E 480 80 44 00
        E 480 90 44 7f
        E 480 80 44 00
        E 480 90 44 7f
        E 480 80 44 00
        E 480 90 44 7f
        E 480 80 44 00
        E 480 90 44 7f
        E 480 80 44 00
        E 480 90 44 7f
        E 480 80 44 00
        E 480 90 44 7f
        E 480 80 44 00
        E 480 90 44 7f
        E 480 80 44 00
        E 480 90 44 7f
        E 479 80 44 00
        E 1 b0 7b 00
        GUID {45FEE557-936A-4079-8C7F-7898C0DDEE0F}
        IGNTEMPO 0 120 4 4
        SRCCOLOR 14068
        VELLANE -1 100 0
      >
    >
  >
  <TRACK {3EEFCDF7-CFE7-4C90-946B-E5525A51297E}
    NAME Shaker
    PEAKCOL 16576
    BEAT -1
    AUTOMODE 0
    VOLPAN 1 0 -1 -1 1
    MUTESOLO 0 0 0
    IPHASE 0
    ISBUS 0 0
    BUSCOMP 0 0
    SHOWINMIX 1 0.6667 0.5 1 0.5 0 0 0
    FREEMODE 0
    SEL 0
    REC 0 0 0 0 0 0 0
    VU 2
    TRACKHEIGHT 0 0
    INQ 0 0 0 0.5 100 0 0 100
    NCHAN 2
    FX 1
    TRACKID {3EEFCDF7-CFE7-4C90-946B-E5525A51297E}
    PERF 0
    MIDIOUT -1
    MAINSEND 1 0
    <ITEM
      POSITION 0
      SNAPOFFS 0
      LENGTH 219.130464
      LOOP 1
      ALLTAKES 0
      FADEIN 1 0 0 1 0 0
      FADEOUT 1 0 0 1 0 0
      MUTE 0
      SEL 0
      IGUID {2FB8DE1E-F737-4A24-937A-282FC9B22325}
      IID 11
      NAME "Shaker - Lucky Hardcore =).mid"
      VOLPAN 1 0 1 -1
      SOFFS 0 0
      PLAYRATE 1 1 0 -1 0 0.0025
      CHANMODE 0
      GUID {0034780F-2831-4C6F-9509-ECF5B5F4E104}
      <SOURCE MIDI
        HASDATA 1 960 QN
        POOLEDEVTS {295B9072-6EB4-4E52-97EE-64F92FD61855}
        <X 0 0 0 0 3 Shaker
          /wNTaGFrZXI=
        >
        E 153600 90 38 7f
        E 480 80 38 00
        E 0 90 38 7f
        E 480 80 38 00
        E 0 90 38 7f
        E 480 80 38 00
        E 0 90 38 7f
        E 480 80 38 00
        E 0 90 38 7f
        E 480 80 38 00
        E 0 90 38 7f
        E 480 80 38 00
        E 0 90 38 7f
        E 480 80 38 00
        E 0 90 38 7f
        E 480 80 38 00
        E 0 90 38 7f
        E 480 80 38 00
        E 0 90 38 7f
        E 480 80 38 00
        E 0 90 38 7f
        E 480 80 38 00
        E 0 90 38 7f
        E 480 80 38 00
        E 0 90 38 7f
        E 480 80 38 00
        E 0 90 38 7f
        E 480 80 38 00
        E 0 90 38 7f
        E 480 80 38 00
        E 0 90 38 7f
        E 480 80 38 00
        E 0 90 38 7f
        E 480 80 38 00
        E 0 90 38 7f
        E 480 80 38 00
        E 0 90 38 7f
        E 480 80 38 00
        E 0 90 38 7f
        E 480 80 38 00
        E 0 90 38 7f
        E 480 80 38 00
        E 0 90 38 7f
        E 480 80 38 00
        E 0 90 38 7f
        E 480 80 38 00
        E 0 90 38 7f
        E 480 80 38 00
        E 0 90 38 7f
        E 480 80 38 00
        E 0 90 38 7f
        E 480 80 38 00
        E 0 90 38 7f
        E 480 80 38 00
        E 0 90 38 7f
        E 480 80 38 00
        E 0 90 38 7f
        E 480 80 38 00
        E 0 90 38 7f
        E 480 80 38 00
        E 0 90 38 7f
        E 480 80 38 00
        E 0 90 38 7f
        E 480 90 38 7f
        E 480 80 38 00
        E 0 90 38 7f
        E 480 80 38 00
        E 0 90 38 7f
        E 480 80 38 00
        E 0 90 38 7f
        E 480 80 38 00
        E 0 90 38 7f
        E 480 80 38 00
        E 0 90 38 7f
        E 480 80 38 00
        E 0 90 38 7f
        E 480 80 38 00
        E 0 90 38 7f
        E 480 80 38 00
        E 0 90 38 7f
        E 480 80 38 00
        E 0 90 38 7f
        E 480 80 38 00
        E 0 90 38 7f
        E 480 80 38 00
        E 0 90 38 7f
        E 480 80 38 00
        E 0 90 38 7f
        E 480 80 38 00
        E 0 90 38 7f
        E 480 80 38 00
        E 0 90 38 7f
        E 480 80 38 00
        E 0 90 38 7f
        E 480 80 38 00
        E 0 90 38 7f
        E 480 80 38 00
        E 0 90 38 7f
        E 480 80 38 00
        E 0 90 38 7f
        E 480 80 38 00
        E 0 90 38 7f
        E 480 80 38 00
        E 0 90 38 7f
        E 480 80 38 00
        E 0 90 38 7f
        E 480 80 38 00
        E 0 90 38 7f
        E 480 80 38 00
        E 0 90 38 7f
        E 480 80 38 00
        E 0 90 38 7f
        E 480 80 38 00
        E 0 90 38 7f
        E 480 80 38 00
        E 0 90 38 7f
        E 480 80 38 00
        E 0 90 38 7f
        E 480 80 38 00
        E 0 90 38 7f
        E 480 80 38 00
        E 0 90 38 7f
        E 480 80 38 00
        E 0 90 38 7f
        E 480 80 38 00
        E 0 90 38 7f
        E 480 90 38 7f
        E 480 80 38 00
        E 0 90 38 7f
        E 480 80 38 00
        E 0 90 38 7f
        E 480 80 38 00
        E 0 90 38 7f
        E 480 80 38 00
        E 0 90 38 7f
        E 480 80 38 00
        E 0 90 38 7f
        E 480 80 38 00
        E 0 90 38 7f
        E 480 80 38 00
        E 0 90 38 7f
        E 480 80 38 00
        E 0 90 38 7f
        E 480 80 38 00
        E 0 90 38 7f
        E 480 80 38 00
        E 0 90 38 7f
        E 480 80 38 00
        E 0 90 38 7f
        E 480 80 38 00
        E 0 90 38 7f
        E 480 80 38 00
        E 0 90 38 7f
        E 480 80 38 00
        E 0 90 38 7f
        E 480 80 38 00
        E 0 90 38 7f
        E 480 80 38 00
        E 0 90 38 7f
        E 480 80 38 00
        E 0 90 38 7f
        E 480 80 38 00
        E 0 90 38 7f
        E 480 80 38 00
        E 0 90 38 7f
        E 480 80 38 00
        E 0 90 38 7f
        E 480 80 38 00
        E 0 90 38 7f
        E 480 80 38 00
        E 0 90 38 7f
        E 480 80 38 00
        E 0 90 38 7f
        E 480 80 38 00
        E 0 90 38 7f
        E 480 80 38 00
        E 0 90 38 7f
        E 480 80 38 00
        E 0 90 38 7f
        E 480 80 38 00
        E 0 90 38 7f
        E 480 80 38 00
        E 0 90 38 7f
        E 480 80 38 00
        E 0 90 38 7f
        E 480 80 38 00
        E 0 90 38 7f
        E 480 80 38 00
        E 0 90 38 7f
        E 480 90 38 7f
        E 480 80 38 00
        E 0 90 38 7f
        E 480 80 38 00
        E 0 90 38 7f
        E 480 80 38 00
        E 0 90 38 7f
        E 480 80 38 00
        E 0 90 38 7f
        E 480 80 38 00
        E 0 90 38 7f
        E 480 80 38 00
        E 0 90 38 7f
        E 480 80 38 00
        E 0 90 38 7f
        E 480 80 38 00
        E 0 90 38 7f
        E 480 80 38 00
        E 0 90 38 7f
        E 480 80 38 00
        E 0 90 38 7f
        E 480 80 38 00
        E 0 90 38 7f
        E 480 80 38 00
        E 0 90 38 7f
        E 480 80 38 00
        E 0 90 38 7f
        E 480 80 38 00
        E 0 90 38 7f
        E 480 80 38 00
        E 0 90 38 7f
        E 480 80 38 00
        E 0 90 38 7f
        E 480 80 38 00
        E 0 90 38 7f
        E 480 80 38 00
        E 0 90 38 7f
        E 480 80 38 00
        E 0 90 38 7f
        E 480 80 38 00
        E 0 90 38 7f
        E 480 80 38 00
        E 0 90 38 7f
        E 480 80 38 00
        E 0 90 38 7f
        E 480 80 38 00
        E 0 90 38 7f
        E 480 80 38 00
        E 0 90 38 7f
        E 480 80 38 00
        E 0 90 38 7f
        E 480 80 38 00
        E 0 90 38 7f
        E 480 80 38 00
        E 0 90 38 7f
        E 480 80 38 00
        E 0 90 38 7f
        E 480 80 38 00
        E 0 90 38 7f
        E 480 80 38 00
        E 0 90 38 7f
        E 480 80 38 00
        E 0 90 38 7f
        E 480 80 38 00
        E 30720 90 38 7f
        E 480 80 38 00
        E 0 90 38 7f
        E 480 80 38 00
        E 0 90 38 7f
        E 480 80 38 00
        E 0 90 38 7f
        E 480 80 38 00
        E 0 90 38 7f
        E 480 80 38 00
        E 0 90 38 7f
        E 480 80 38 00
        E 0 90 38 7f
        E 480 80 38 00
        E 0 90 38 7f
        E 480 80 38 00
        E 0 90 38 7f
        E 480 80 38 00
        E 0 90 38 7f
        E 480 80 38 00
        E 0 90 38 7f
        E 480 80 38 00
        E 0 90 38 7f
        E 480 80 38 00
        E 0 90 38 7f
        E 480 80 38 00
        E 0 90 38 7f
        E 480 80 38 00
        E 0 90 38 7f
        E 480 80 38 00
        E 0 90 38 7f
        E 480 80 38 00
        E 0 90 38 7f
        E 480 80 38 00
        E 0 90 38 7f
        E 480 80 38 00
        E 0 90 38 7f
        E 480 80 38 00
        E 0 90 38 7f
        E 480 80 38 00
        E 0 90 38 7f
        E 480 80 38 00
        E 0 90 38 7f
        E 480 80 38 00
        E 0 90 38 7f
        E 480 80 38 00
        E 0 90 38 7f
        E 480 80 38 00
        E 0 90 38 7f
        E 480 80 38 00
        E 0 90 38 7f
        E 480 80 38 00
        E 0 90 38 7f
        E 480 80 38 00
        E 0 90 38 7f
        E 480 80 38 00
        E 0 90 38 7f
        E 480 80 38 00
        E 0 90 38 7f
        E 480 80 38 00
        E 0 90 38 7f
        E 480 80 38 00
        E 0 90 38 7f
        E 480 90 38 7f
        E 480 80 38 00
        E 0 90 38 7f
        E 480 80 38 00
        E 0 90 38 7f
        E 480 80 38 00
        E 0 90 38 7f
        E 480 80 38 00
        E 0 90 38 7f
        E 480 80 38 00
        E 0 90 38 7f
        E 480 80 38 00
        E 0 90 38 7f
        E 480 80 38 00
        E 0 90 38 7f
        E 480 80 38 00
        E 0 90 38 7f
        E 480 80 38 00
        E 0 90 38 7f
        E 480 80 38 00
        E 0 90 38 7f
        E 480 80 38 00
        E 0 90 38 7f
        E 480 80 38 00
        E 0 90 38 7f
        E 480 80 38 00
        E 0 90 38 7f
        E 480 80 38 00
        E 0 90 38 7f
        E 480 80 38 00
        E 0 90 38 7f
        E 480 80 38 00
        E 0 90 38 7f
        E 480 80 38 00
        E 0 90 38 7f
        E 480 80 38 00
        E 0 90 38 7f
        E 480 80 38 00
        E 0 90 38 7f
        E 480 80 38 00
        E 0 90 38 7f
        E 480 80 38 00
        E 0 90 38 7f
        E 480 80 38 00
        E 0 90 38 7f
        E 480 80 38 00
        E 0 90 38 7f
        E 480 80 38 00
        E 0 90 38 7f
        E 480 80 38 00
        E 0 90 38 7f
        E 480 80 38 00
        E 0 90 38 7f
        E 480 80 38 00
        E 0 90 38 7f
        E 480 80 38 00
        E 0 90 38 7f
        E 480 80 38 00
        E 0 90 38 7f
        E 480 80 38 00
        E 0 90 38 7f
        E 480 80 38 00
        E 0 90 38 7f
        E 480 90 38 7f
        E 480 80 38 00
        E 0 90 38 7f
        E 480 80 38 00
        E 0 90 38 7f
        E 480 80 38 00
        E 0 90 38 7f
        E 480 80 38 00
        E 0 90 38 7f
        E 480 80 38 00
        E 0 90 38 7f
        E 480 80 38 00
        E 0 90 38 7f
        E 480 80 38 00
        E 0 90 38 7f
        E 480 80 38 00
        E 0 90 38 7f
        E 480 80 38 00
        E 0 90 38 7f
        E 480 80 38 00
        E 0 90 38 7f
        E 480 80 38 00
        E 0 90 38 7f
        E 480 80 38 00
        E 0 90 38 7f
        E 480 80 38 00
        E 0 90 38 7f
        E 480 80 38 00
        E 0 90 38 7f
        E 480 80 38 00
        E 0 90 38 7f
        E 480 80 38 00
        E 0 90 38 7f
        E 480 80 38 00
        E 0 90 38 7f
        E 480 80 38 00
        E 0 90 38 7f
        E 480 80 38 00
        E 0 90 38 7f
        E 480 80 38 00
        E 0 90 38 7f
        E 480 80 38 00
        E 0 90 38 7f
        E 480 80 38 00
        E 0 90 38 7f
        E 480 80 38 00
        E 0 90 38 7f
        E 480 80 38 00
        E 0 90 38 7f
        E 480 80 38 00
        E 0 90 38 7f
        E 480 80 38 00
        E 0 90 38 7f
        E 480 80 38 00
        E 0 90 38 7f
        E 480 80 38 00
        E 0 90 38 7f
        E 480 80 38 00
        E 0 90 38 7f
        E 480 80 38 00
        E 0 90 38 7f
        E 480 80 38 00
        E 0 90 38 7f
        E 480 90 38 7f
        E 480 80 38 00
        E 0 90 38 7f
        E 480 80 38 00
        E 0 90 38 7f
        E 480 80 38 00
        E 0 90 38 7f
        E 480 80 38 00
        E 0 90 38 7f
        E 480 80 38 00
        E 0 90 38 7f
        E 480 80 38 00
        E 0 90 38 7f
        E 480 80 38 00
        E 0 90 38 7f
        E 480 80 38 00
        E 0 90 38 7f
        E 480 80 38 00
        E 0 90 38 7f
        E 480 80 38 00
        E 0 90 38 7f
        E 480 80 38 00
        E 0 90 38 7f
        E 480 80 38 00
        E 0 90 38 7f
        E 480 80 38 00
        E 0 90 38 7f
        E 480 80 38 00
        E 0 90 38 7f
        E 480 80 38 00
        E 0 90 38 7f
        E 480 80 38 00
        E 0 90 38 7f
        E 480 80 38 00
        E 0 90 38 7f
        E 480 80 38 00
        E 0 90 38 7f
        E 480 80 38 00
        E 0 90 38 7f
        E 480 80 38 00
        E 0 90 38 7f
        E 480 80 38 00
        E 0 90 38 7f
        E 480 80 38 00
        E 0 90 38 7f
        E 480 80 38 00
        E 0 90 38 7f
        E 480 80 38 00
        E 0 90 38 7f
        E 480 80 38 00
        E 0 90 38 7f
        E 480 80 38 00
        E 0 90 38 7f
        E 480 80 38 00
        E 0 90 38 7f
        E 480 80 38 00
        E 0 90 38 7f
        E 480 80 38 00
        E 0 90 38 7f
        E 480 80 38 00
        E 0 90 38 7f
        E 480 80 38 00
        E 0 90 38 7f
        E 480 90 38 7f
        E 480 80 38 00
        E 0 90 38 7f
        E 480 80 38 00
        E 0 90 38 7f
        E 480 80 38 00
        E 0 90 38 7f
        E 480 80 38 00
        E 0 90 38 7f
        E 480 80 38 00
        E 0 90 38 7f
        E 480 80 38 00
        E 0 90 38 7f
        E 480 80 38 00
        E 0 90 38 7f
        E 480 80 38 00
        E 0 90 38 7f
        E 480 80 38 00
        E 0 90 38 7f
        E 480 80 38 00
        E 0 90 38 7f
        E 480 80 38 00
        E 0 90 38 7f
        E 480 80 38 00
        E 0 90 38 7f
        E 480 80 38 00
        E 0 90 38 7f
        E 480 80 38 00
        E 0 90 38 7f
        E 480 80 38 00
        E 0 90 38 7f
        E 480 80 38 00
        E 0 90 38 7f
        E 480 80 38 00
        E 0 90 38 7f
        E 480 80 38 00
        E 0 90 38 7f
        E 480 80 38 00
        E 0 90 38 7f
        E 480 80 38 00
        E 0 90 38 7f
        E 480 80 38 00
        E 0 90 38 7f
        E 480 80 38 00
        E 0 90 38 7f
        E 480 80 38 00
        E 0 90 38 7f
        E 480 80 38 00
        E 0 90 38 7f
        E 480 80 38 00
        E 0 90 38 7f
        E 480 80 38 00
        E 0 90 38 7f
        E 480 80 38 00
        E 0 90 38 7f
        E 480 80 38 00
        E 0 90 38 7f
        E 480 80 38 00
        E 0 90 38 7f
        E 480 80 38 00
        E 0 90 38 7f
        E 480 80 38 00
        E 0 90 38 7f
        E 480 90 38 7f
        E 480 80 38 00
        E 0 90 38 7f
        E 480 80 38 00
        E 0 90 38 7f
        E 480 80 38 00
        E 0 90 38 7f
        E 480 80 38 00
        E 0 90 38 7f
        E 480 80 38 00
        E 0 90 38 7f
        E 480 80 38 00
        E 0 90 38 7f
        E 480 80 38 00
        E 0 90 38 7f
        E 480 80 38 00
        E 0 90 38 7f
        E 480 80 38 00
        E 0 90 38 7f
        E 480 80 38 00
        E 0 90 38 7f
        E 480 80 38 00
        E 0 90 38 7f
        E 480 80 38 00
        E 0 90 38 7f
        E 480 80 38 00
        E 0 90 38 7f
        E 480 80 38 00
        E 0 90 38 7f
        E 480 80 38 00
        E 0 90 38 7f
        E 480 80 38 00
        E 0 90 38 7f
        E 480 80 38 00
        E 0 90 38 7f
        E 480 80 38 00
        E 0 90 38 7f
        E 480 80 38 00
        E 0 90 38 7f
        E 480 80 38 00
        E 0 90 38 7f
        E 480 80 38 00
        E 0 90 38 7f
        E 480 80 38 00
        E 0 90 38 7f
        E 480 80 38 00
        E 0 90 38 7f
        E 480 80 38 00
        E 0 90 38 7f
        E 480 80 38 00
        E 0 90 38 7f
        E 480 80 38 00
        E 0 90 38 7f
        E 480 80 38 00
        E 0 90 38 7f
        E 480 80 38 00
        E 0 90 38 7f
        E 480 80 38 00
        E 0 90 38 7f
        E 480 80 38 00
        E 0 90 38 7f
        E 480 80 38 00
        E 0 90 38 7f
        E 480 80 38 00
        E 215040 90 38 7f
        E 480 80 38 00
        E 0 90 38 7f
        E 480 80 38 00
        E 0 90 38 7f
        E 480 80 38 00
        E 0 90 38 7f
        E 480 80 38 00
        E 0 90 38 7f
        E 480 80 38 00
        E 0 90 38 7f
        E 480 80 38 00
        E 0 90 38 7f
        E 480 80 38 00
        E 0 90 38 7f
        E 480 80 38 00
        E 0 90 38 7f
        E 480 80 38 00
        E 0 90 38 7f
        E 480 80 38 00
        E 0 90 38 7f
        E 480 80 38 00
        E 0 90 38 7f
        E 480 80 38 00
        E 0 90 38 7f
        E 480 80 38 00
        E 0 90 38 7f
        E 480 80 38 00
        E 0 90 38 7f
        E 480 80 38 00
        E 0 90 38 7f
        E 480 80 38 00
        E 0 90 38 7f
        E 480 80 38 00
        E 0 90 38 7f
        E 480 80 38 00
        E 0 90 38 7f
        E 480 80 38 00
        E 0 90 38 7f
        E 480 80 38 00
        E 0 90 38 7f
        E 480 80 38 00
        E 0 90 38 7f
        E 480 80 38 00
        E 0 90 38 7f
        E 480 80 38 00
        E 0 90 38 7f
        E 480 80 38 00
        E 0 90 38 7f
        E 480 80 38 00
        E 0 90 38 7f
        E 480 80 38 00
        E 0 90 38 7f
        E 480 80 38 00
        E 0 90 38 7f
        E 480 80 38 00
        E 0 90 38 7f
        E 480 80 38 00
        E 0 90 38 7f
        E 480 80 38 00
        E 0 90 38 7f
        E 480 80 38 00
        E 0 90 38 7f
        E 480 90 38 7f
        E 480 80 38 00
        E 0 90 38 7f
        E 480 80 38 00
        E 0 90 38 7f
        E 480 80 38 00
        E 0 90 38 7f
        E 480 80 38 00
        E 0 90 38 7f
        E 480 80 38 00
        E 0 90 38 7f
        E 480 80 38 00
        E 0 90 38 7f
        E 480 80 38 00
        E 0 90 38 7f
        E 480 80 38 00
        E 0 90 38 7f
        E 480 80 38 00
        E 0 90 38 7f
        E 480 80 38 00
        E 0 90 38 7f
        E 480 80 38 00
        E 0 90 38 7f
        E 480 80 38 00
        E 0 90 38 7f
        E 480 80 38 00
        E 0 90 38 7f
        E 480 80 38 00
        E 0 90 38 7f
        E 480 80 38 00
        E 0 90 38 7f
        E 480 80 38 00
        E 0 90 38 7f
        E 480 80 38 00
        E 0 90 38 7f
        E 480 80 38 00
        E 0 90 38 7f
        E 480 80 38 00
        E 0 90 38 7f
        E 480 80 38 00
        E 0 90 38 7f
        E 480 80 38 00
        E 0 90 38 7f
        E 480 80 38 00
        E 0 90 38 7f
        E 480 80 38 00
        E 0 90 38 7f
        E 480 80 38 00
        E 0 90 38 7f
        E 480 80 38 00
        E 0 90 38 7f
        E 480 80 38 00
        E 0 90 38 7f
        E 480 80 38 00
        E 0 90 38 7f
        E 480 80 38 00
        E 0 90 38 7f
        E 480 80 38 00
        E 0 90 38 7f
        E 480 80 38 00
        E 0 90 38 7f
        E 480 80 38 00
        E 0 90 38 7f
        E 480 90 38 7f
        E 480 80 38 00
        E 0 90 38 7f
        E 480 80 38 00
        E 0 90 38 7f
        E 480 80 38 00
        E 0 90 38 7f
        E 480 80 38 00
        E 0 90 38 7f
        E 480 80 38 00
        E 0 90 38 7f
        E 480 80 38 00
        E 0 90 38 7f
        E 480 80 38 00
        E 0 90 38 7f
        E 480 80 38 00
        E 0 90 38 7f
        E 480 80 38 00
        E 0 90 38 7f
        E 480 80 38 00
        E 0 90 38 7f
        E 480 80 38 00
        E 0 90 38 7f
        E 480 80 38 00
        E 0 90 38 7f
        E 480 80 38 00
        E 0 90 38 7f
        E 480 80 38 00
        E 0 90 38 7f
        E 480 80 38 00
        E 0 90 38 7f
        E 480 80 38 00
        E 0 90 38 7f
        E 480 80 38 00
        E 0 90 38 7f
        E 480 80 38 00
        E 0 90 38 7f
        E 480 80 38 00
        E 0 90 38 7f
        E 480 80 38 00
        E 0 90 38 7f
        E 480 80 38 00
        E 0 90 38 7f
        E 480 80 38 00
        E 0 90 38 7f
        E 480 80 38 00
        E 0 90 38 7f
        E 480 80 38 00
        E 0 90 38 7f
        E 480 80 38 00
        E 0 90 38 7f
        E 480 80 38 00
        E 0 90 38 7f
        E 480 80 38 00
        E 0 90 38 7f
        E 480 80 38 00
        E 0 90 38 7f
        E 480 80 38 00
        E 0 90 38 7f
        E 480 80 38 00
        E 0 90 38 7f
        E 480 80 38 00
        E 0 90 38 7f
        E 480 90 38 7f
        E 480 80 38 00
        E 0 90 38 7f
        E 480 80 38 00
        E 0 90 38 7f
        E 480 80 38 00
        E 0 90 38 7f
        E 480 80 38 00
        E 0 90 38 7f
        E 480 80 38 00
        E 0 90 38 7f
        E 480 80 38 00
        E 0 90 38 7f
        E 480 80 38 00
        E 0 90 38 7f
        E 480 80 38 00
        E 0 90 38 7f
        E 480 80 38 00
        E 0 90 38 7f
        E 480 80 38 00
        E 0 90 38 7f
        E 480 80 38 00
        E 0 90 38 7f
        E 480 80 38 00
        E 0 90 38 7f
        E 480 80 38 00
        E 0 90 38 7f
        E 480 80 38 00
        E 0 90 38 7f
        E 480 80 38 00
        E 0 90 38 7f
        E 480 80 38 00
        E 0 90 38 7f
        E 480 80 38 00
        E 0 90 38 7f
        E 480 80 38 00
        E 0 90 38 7f
        E 480 80 38 00
        E 0 90 38 7f
        E 480 80 38 00
        E 0 90 38 7f
        E 480 80 38 00
        E 0 90 38 7f
        E 480 80 38 00
        E 0 90 38 7f
        E 480 80 38 00
        E 0 90 38 7f
        E 480 80 38 00
        E 0 90 38 7f
        E 480 80 38 00
        E 0 90 38 7f
        E 480 80 38 00
        E 0 90 38 7f
        E 480 80 38 00
        E 0 90 38 7f
        E 480 80 38 00
        E 0 90 38 7f
        E 480 80 38 00
        E 0 90 38 7f
        E 480 80 38 00
        E 0 90 38 7f
        E 480 80 38 00
        E 0 90 38 7f
        E 480 90 38 7f
        E 480 80 38 00
        E 0 90 38 7f
        E 480 80 38 00
        E 0 90 38 7f
        E 480 80 38 00
        E 0 90 38 7f
        E 480 80 38 00
        E 0 90 38 7f
        E 480 80 38 00
        E 0 90 38 7f
        E 480 80 38 00
        E 0 90 38 7f
        E 480 80 38 00
        E 0 90 38 7f
        E 480 80 38 00
        E 0 90 38 7f
        E 480 80 38 00
        E 0 90 38 7f
        E 480 80 38 00
        E 0 90 38 7f
        E 480 80 38 00
        E 0 90 38 7f
        E 480 80 38 00
        E 0 90 38 7f
        E 480 80 38 00
        E 0 90 38 7f
        E 480 80 38 00
        E 0 90 38 7f
        E 480 80 38 00
        E 0 90 38 7f
        E 480 80 38 00
        E 0 90 38 7f
        E 480 80 38 00
        E 0 90 38 7f
        E 480 80 38 00
        E 0 90 38 7f
        E 480 80 38 00
        E 0 90 38 7f
        E 480 80 38 00
        E 0 90 38 7f
        E 480 80 38 00
        E 0 90 38 7f
        E 480 80 38 00
        E 0 90 38 7f
        E 480 80 38 00
        E 0 90 38 7f
        E 480 80 38 00
        E 0 90 38 7f
        E 480 80 38 00
        E 0 90 38 7f
        E 480 80 38 00
        E 0 90 38 7f
        E 480 80 38 00
        E 0 90 38 7f
        E 480 80 38 00
        E 0 90 38 7f
        E 480 80 38 00
        E 0 90 38 7f
        E 480 80 38 00
        E 0 90 38 7f
        E 480 80 38 00
        E 0 90 38 7f
        E 480 90 38 7f
        E 480 80 38 00
        E 0 90 38 7f
        E 480 80 38 00
        E 0 90 38 7f
        E 480 80 38 00
        E 0 90 38 7f
        E 480 80 38 00
        E 0 90 38 7f
        E 480 80 38 00
        E 0 90 38 7f
        E 480 80 38 00
        E 0 90 38 7f
        E 480 80 38 00
        E 0 90 38 7f
        E 480 80 38 00
        E 0 90 38 7f
        E 480 80 38 00
        E 0 90 38 7f
        E 480 80 38 00
        E 0 90 38 7f
        E 480 80 38 00
        E 0 90 38 7f
        E 480 80 38 00
        E 0 90 38 7f
        E 480 80 38 00
        E 0 90 38 7f
        E 480 80 38 00
        E 0 90 38 7f
        E 480 80 38 00
        E 0 90 38 7f
        E 480 80 38 00
        E 0 90 38 7f
        E 480 80 38 00
        E 0 90 38 7f
        E 480 80 38 00
        E 0 90 38 7f
        E 480 80 38 00
        E 0 90 38 7f
        E 480 80 38 00
        E 0 90 38 7f
        E 480 80 38 00
        E 0 90 38 7f
        E 480 80 38 00
        E 0 90 38 7f
        E 480 80 38 00
        E 0 90 38 7f
        E 480 80 38 00
        E 0 90 38 7f
        E 480 80 38 00
        E 0 90 38 7f
        E 480 80 38 00
        E 0 90 38 7f
        E 480 80 38 00
        E 0 90 38 7f
        E 480 80 38 00
        E 0 90 38 7f
        E 480 80 38 00
        E 0 90 38 7f
        E 480 80 38 00
        E 0 90 38 7f
        E 480 80 38 00
        E 0 90 38 7f
        E 479 80 38 00
        E 1 b0 7b 00
        GUID {FFA79B81-1B92-4A94-AB41-F2F085DACE5E}
        IGNTEMPO 0 120 4 4
        SRCCOLOR 14069
        VELLANE -1 100 0
      >
    >
  >
  <TRACK {84E1745E-731B-4495-9B57-BC89FFD6E2A7}
    NAME "Camera Speed"
    PEAKCOL 16576
    BEAT -1
    AUTOMODE 0
    VOLPAN 1 0 -1 -1 1
    MUTESOLO 0 0 0
    IPHASE 0
    ISBUS 0 0
    BUSCOMP 0 0
    SHOWINMIX 1 0.6667 0.5 1 0.5 0 0 0
    FREEMODE 0
    SEL 0
    REC 0 0 0 0 0 0 0
    VU 2
    TRACKHEIGHT 0 0
    INQ 0 0 0 0.5 100 0 0 100
    NCHAN 2
    FX 1
    TRACKID {84E1745E-731B-4495-9B57-BC89FFD6E2A7}
    PERF 0
    MIDIOUT -1
    MAINSEND 1 0
    <FXCHAIN
      WNDRECT 24 52 926 623
      SHOW 0
      LASTSEL 0
      DOCKED 0
    >
    <ITEM
      POSITION 0
      SNAPOFFS 0
      LENGTH 3.913044
      LOOP 1
      ALLTAKES 0
      FADEIN 1 0 0 1 0 0
      FADEOUT 1 0 0 1 0 0
      MUTE 0
      SEL 0
      IGUID {FD0C83EF-6598-4288-A160-90D2C0D4A1AF}
      IID 15
      NAME 16
      VOLPAN 1 0 1 -1
      SOFFS 0 0
      PLAYRATE 1 1 0 -1 0 0.0025
      CHANMODE 0
      POOLCOLOR 25042082 R
      GUID {FA031503-48F5-43FA-8F16-58F300F42008}
      <SOURCE MIDIPOOL
        HASDATA 1 960 QN
        POOLEDEVTS {AD7E28FF-D52B-4703-8AF4-71731A781C4A}
        e 0 90 38 10
        e 3840 80 38 00
        E 0 b0 7b 00
        GUID {A6048492-82DE-4568-8AD2-53FE165E78F8}
        IGNTEMPO 0 120 4 4
        SRCCOLOR 14952
        VELLANE -1 100 0
        CFGEDITVIEW -226.42087 0.178125 61 12 0 -1 0 0 0 0.5
        KEYSNAP 1
        TRACKSEL -252
        EVTFILTER 0 -1 -1 -1 -1 0 0 0 0 -1 -1 -1 -1 0 -1 0 -1 -1
        CFGEDIT 1 1 0 1 0 0 1 1 1 1 1 0.25 407 45 1872 1023 0 0 0 0 0 0 0 0 0 0 0 0 1 64
      >
    >
    <ITEM
      POSITION 3.913044
      SNAPOFFS 0
      LENGTH 6.52174
      LOOP 1
      ALLTAKES 0
      FADEIN 1 0 0 1 0 0
      FADEOUT 1 0 0 1 0 0
      MUTE 0
      SEL 0
      IGUID {9312397F-572B-47C1-9078-F8580F55EAD4}
      IID 17
      NAME "16-32 16th steps"
      VOLPAN 1 0 1 -1
      SOFFS 6.52174 20.00000000000327
      PLAYRATE 1 1 0 -1 0 0.0025
      CHANMODE 0
      POOLCOLOR 29857297 R
      GUID {DA546377-0D2F-459F-BF24-542AECDBB487}
      <SOURCE MIDIPOOL
        HASDATA 1 960 QN
        POOLEDEVTS {2258DEBD-4053-436C-B060-132CC67E151A}
        E 0 90 38 0f
        E 240 80 38 00
        E 0 90 38 0f
        E 240 80 38 00
        E 0 90 38 0f
        E 240 80 38 00
        E 0 90 38 10
        E 240 80 38 00
        E 0 90 38 10
        E 240 80 38 00
        E 0 90 38 10
        E 240 80 38 00
        E 0 90 38 10
        E 240 80 38 00
        E 0 90 38 10
        E 240 80 38 00
        E 0 90 38 11
        E 240 80 38 00
        E 0 90 38 11
        E 240 80 38 00
        E 0 90 38 11
        E 240 80 38 00
        E 0 90 38 11
        E 240 80 38 00
        E 0 90 38 11
        E 240 80 38 00
        E 0 90 38 12
        E 240 80 38 00
        E 0 90 38 12
        E 240 80 38 00
        E 0 90 38 12
        E 240 80 38 00
        E 0 90 38 12
        E 240 80 38 00
        E 0 90 38 12
        E 240 80 38 00
        E 0 90 38 12
        E 240 80 38 00
        E 0 90 38 13
        E 240 80 38 00
        E 0 90 38 13
        E 240 80 38 00
        E 0 90 38 13
        E 240 80 38 00
        E 0 90 38 13
        E 240 80 38 00
        E 0 90 38 13
        E 240 80 38 00
        E 0 90 38 14
        E 240 80 38 00
        E 0 90 38 14
        E 240 80 38 00
        E 0 90 38 14
        E 240 80 38 00
        E 0 90 38 14
        E 240 80 38 00
        E 0 90 38 14
        E 240 80 38 00
        E 0 90 38 15
        E 240 80 38 00
        E 0 90 38 15
        E 240 80 38 00
        E 0 90 38 15
        E 240 80 38 00
        E 0 90 38 15
        E 240 80 38 00
        E 0 90 38 15
        E 240 80 38 00
        E 0 90 38 16
        E 240 80 38 00
        E 0 90 38 16
        E 240 80 38 00
        E 0 90 38 16
        E 240 80 38 00
        E 0 90 38 16
        E 240 80 38 00
        E 0 90 38 16
        E 240 80 38 00
        E 0 90 38 17
        E 240 80 38 00
        E 0 90 38 17
        E 240 80 38 00
        E 0 90 38 17
        E 240 80 38 00
        E 0 90 38 17
        E 240 80 38 00
        E 0 90 38 17
        E 240 80 38 00
        E 0 90 38 18
        E 240 80 38 00
        E 0 90 38 18
        E 240 80 38 00
        E 0 90 38 18
        E 240 80 38 00
        E 0 90 38 18
        E 240 80 38 00
        E 0 90 38 18
        E 240 80 38 00
        E 0 90 38 18
        E 240 80 38 00
        E 0 90 38 19
        E 240 80 38 00
        E 0 90 38 19
        E 240 80 38 00
        E 0 90 38 19
        E 240 80 38 00
        E 0 90 38 19
        E 240 80 38 00
        E 0 90 38 19
        E 240 80 38 00
        E 0 90 38 1a
        E 240 80 38 00
        E 0 90 38 1a
        E 240 80 38 00
        E 0 90 38 1a
        E 240 80 38 00
        E 0 90 38 1a
        E 240 80 38 00
        E 0 90 38 1a
        E 240 80 38 00
        E 0 90 38 1b
        E 240 80 38 00
        E 0 90 38 1b
        E 240 80 38 00
        E 0 90 38 1b
        E 240 80 38 00
        E 0 90 38 1b
        E 240 80 38 00
        E 0 90 38 1b
        E 240 80 38 00
        E 0 90 38 1c
        E 240 80 38 00
        E 0 90 38 1c
        E 240 80 38 00
        E 0 90 38 1c
        E 240 80 38 00
        E 0 90 38 1c
        E 240 80 38 00
        E 0 90 38 1c
        E 240 80 38 00
        E 0 90 38 1d
        E 240 80 38 00
        E 0 90 38 1d
        E 240 80 38 00
        E 0 90 38 1d
        E 240 80 38 00
        E 0 90 38 1d
        E 240 80 38 00
        E 0 90 38 1d
        E 240 80 38 00
        E 0 90 38 1e
        E 240 80 38 00
        E 0 90 38 1e
        E 240 80 38 00
        E 0 90 38 1e
        E 240 80 38 00
        E 0 90 38 1f
        E 240 80 38 00
        E 0 90 38 20
        E 240 80 38 00
        E 0 b0 7b 00
        GUID {6DD4AF03-D5B0-425E-A330-8069E47F6813}
        IGNTEMPO 0 120 4 4
        SRCCOLOR 14954
        VELLANE -1 100 0
        CFGEDITVIEW 26318.901831 0.100431 61 12 0 -1 0 0 0 0.5
        KEYSNAP 1
        TRACKSEL -252
        EVTFILTER 0 -1 -1 -1 -1 0 0 0 0 -1 -1 -1 -1 0 -1 0 -1 -1
        CFGEDIT 1 1 0 1 0 0 1 1 1 1 1 0.25 423 61 1872 1023 0 0 0 0 0 0 1 0 0 0 0 0 1 64
      >
    >
    <ITEM
      POSITION 10.434784
      SNAPOFFS 0
      LENGTH 5.217392
      LOOP 1
      ALLTAKES 0
      FADEIN 1 0 0 1 0 0
      FADEOUT 1 0 0 1 0 0
      MUTE 0
      SEL 0
      IGUID {75881862-6625-4864-BFF7-7C64C62B8027}
      IID 16
      NAME "16-32 steps"
      VOLPAN 1 0 1 -1
      SOFFS 0 0
      PLAYRATE 1 1 0 -1 0 0.0025
      CHANMODE 0
      GUID {352BD981-217B-4324-A8D0-37A03F0DFB75}
      <SOURCE MIDI
        HASDATA 1 960 QN
        POOLEDEVTS {2C1C4D30-924B-40CD-A587-C4D3DD19C686}
        E 0 90 38 10
        E 3840 80 38 00
        E 0 90 38 14
        E 3840 80 38 00
        E 0 90 38 1a
        E 3840 80 38 00
        E 0 90 38 20
        E 3840 80 38 00
        E 0 b0 7b 00
        GUID {E80F165C-C3A2-4475-BA6F-4C97EDA101F0}
        IGNTEMPO 0 120 4 4
        SRCCOLOR 14953
        VELLANE -1 100 0
        CFGEDITVIEW -933.414865 0.042519 48 12 0 -1 0 0 0 0.5
        KEYSNAP 1
        TRACKSEL -252
        EVTFILTER 0 -1 -1 -1 -1 0 0 0 0 -1 -1 -1 -1 0 -1 0 -1 -1
        CFGEDIT 1 1 0 1 0 0 1 1 1 1 1 0.25 423 61 1872 1023 0 0 0 0 0 0 1 0 0 0 0 0 1 64
      >
    >
    <ITEM
      POSITION 15.652176
      SNAPOFFS 0
      LENGTH 26.08696
      LOOP 1
      ALLTAKES 0
      FADEIN 1 0 0 1 0 0
      FADEOUT 1 0 0 1 0 0
      MUTE 0
      SEL 0
      IGUID {298FC376-B88E-41B4-8D13-8ACA0B2FD4AD}
      IID 23
      NAME 32
      VOLPAN 1 0 1 -1
      SOFFS 0 0
      PLAYRATE 1 1 0 -1 0 0.0025
      CHANMODE 0
      POOLCOLOR 30311944 R
      GUID {85DFB95D-2A2B-489E-8261-556D5D803231}
      <SOURCE MIDIPOOL
        HASDATA 1 960 QN
        POOLEDEVTS {E6241A21-76DF-4F6F-9CE5-DCC4B2E0D4DE}
        e 0 90 38 20
        e 3840 80 38 00
        E 0 b0 7b 00
        GUID {0EB4185C-FC23-4258-BD66-2C86A24FF340}
        IGNTEMPO 0 120 4 4
        SRCCOLOR 14961
        VELLANE -1 100 0
        CFGEDITVIEW -1688.830641 0.023973 71 12 0 -1 0 0 0 0.5
        KEYSNAP 1
        TRACKSEL -252
        EVTFILTER 0 -1 -1 -1 -1 0 0 0 0 -1 -1 -1 -1 0 -1 0 -1 -1
        CFGEDIT 1 1 0 1 0 0 1 1 1 1 1 0.25 423 61 1872 1023 0 0 0 0 0 0 0 0 0 0 0 0 1 64
      >
    >
    <ITEM
      POSITION 41.73913600004744
      SNAPOFFS 0
      LENGTH 10.43478399995256
      LOOP 1
      ALLTAKES 0
      FADEIN 1 0 0 1 0 0
      FADEOUT 1 0 0 1 0 0
      MUTE 0
      SEL 0
      IGUID {75CAF5D3-E4B0-4CA1-9A8A-56E061123996}
      IID 15
      NAME 16
      VOLPAN 1 0 1 -1
      SOFFS 0 0
      PLAYRATE 1 1 0 -1 0 0.0025
      CHANMODE 0
      POOLCOLOR 25042082 R
      GUID {7DCB3F6F-C50F-4A7B-A18D-8288CC87C690}
      <SOURCE MIDIPOOL
        HASDATA 1 960 QN
        POOLEDEVTS {AD7E28FF-D52B-4703-8AF4-71731A781C4A}
        GUID {A6048492-82DE-4568-8AD2-53FE165E78F8}
        IGNTEMPO 0 120 4 4
        SRCCOLOR 14952
        VELLANE -1 100 0
        CFGEDITVIEW -226.42087 0.178125 61 12 0 -1 0 0 0 0.5
        KEYSNAP 1
        TRACKSEL -252
        EVTFILTER 0 -1 -1 -1 -1 0 0 0 0 -1 -1 -1 -1 0 -1 0 -1 -1
        CFGEDIT 1 1 0 1 0 0 1 1 1 1 1 0.25 407 45 1872 1023 0 0 0 0 0 0 0 0 0 0 0 0 1 64
      >
    >
    <ITEM
      POSITION 52.17391999997199
      SNAPOFFS 0
      LENGTH 20.869568
      LOOP 1
      ALLTAKES 0
      FADEIN 1 0 0 1 0 0
      FADEOUT 1 0 0 1 0 0
      MUTE 0
      COLOR 16826624 R
      SEL 0
      IGUID {09C217F5-9D82-46BF-8539-CAFD9758AB1C}
      IID 33
      NAME 64
      VOLPAN 1 0 1 -1
      SOFFS 0 0
      PLAYRATE 1 1 0 -1 0 0.0025
      CHANMODE 0
      POOLCOLOR 24477259 R
      GUID {33C315FE-172A-4729-A8A1-009F6EA026C9}
      <SOURCE MIDIPOOL
        HASDATA 1 960 QN
        POOLEDEVTS {E025C6C0-356A-4568-B79D-7A7F8EDDB445}
        E 0 90 38 40
        E 3840 80 38 00
        E 0 b0 7b 00
        GUID {779B9D09-1A59-44C9-9BAB-90DA0F7B68F6}
        IGNTEMPO 0 120 4 4
        SRCCOLOR 15033
        VELLANE -1 100 0
        CFGEDITVIEW -299.5281 0.133751 56 12 0 -1 0 0 0 0.5
        KEYSNAP 1
        TRACKSEL -252
        EVTFILTER 0 -1 -1 -1 -1 0 0 0 0 -1 -1 -1 -1 0 -1 0 -1 -1
        CFGEDIT 1 1 0 1 0 0 1 1 1 1 1 0.25 423 61 1872 1023 0 0 0 0 0 0 0 0 0 0 0 0 1 64
      >
    >
    <ITEM
      POSITION 73.04348800005391
      SNAPOFFS 0
      LENGTH 3.913044
      LOOP 1
      ALLTAKES 0
      FADEIN 1 0 0 1 0 0
      FADEOUT 1 0 0 1 0 0
      MUTE 0
      SEL 0
      IGUID {D49F56B9-9A89-493F-92C3-DCBA38F28F99}
      IID 15
      NAME 16
      VOLPAN 1 0 1 -1
      SOFFS 0 0
      PLAYRATE 1 1 0 -1 0 0.0025
      CHANMODE 0
      POOLCOLOR 25042082 R
      GUID {983273D8-F375-4B05-8E35-174E9303C984}
      <SOURCE MIDIPOOL
        HASDATA 1 960 QN
        POOLEDEVTS {AD7E28FF-D52B-4703-8AF4-71731A781C4A}
        GUID {A6048492-82DE-4568-8AD2-53FE165E78F8}
        IGNTEMPO 0 120 4 4
        SRCCOLOR 14952
        VELLANE -1 100 0
        CFGEDITVIEW -226.42087 0.178125 61 12 0 -1 0 0 0 0.5
        KEYSNAP 1
        TRACKSEL -252
        EVTFILTER 0 -1 -1 -1 -1 0 0 0 0 -1 -1 -1 -1 0 -1 0 -1 -1
        CFGEDIT 1 1 0 1 0 0 1 1 1 1 1 0.25 407 45 1872 1023 0 0 0 0 0 0 0 0 0 0 0 0 1 64
      >
    >
    <ITEM
      POSITION 76.956532
      SNAPOFFS 0
      LENGTH 1.30434800002644
      LOOP 1
      ALLTAKES 0
      FADEIN 1 0 0 1 0 0
      FADEOUT 1 0 0 1 0 0
      MUTE 0
      SEL 0
      IGUID {737C54E9-9661-4CC5-8941-62A203C8E21C}
      IID 15
      NAME 24
      VOLPAN 1 0 1 -1
      SOFFS 1.30434799994607 3.9999999998353
      PLAYRATE 1 1 0 -1 0 0.0025
      CHANMODE 0
      GUID {70FD0124-ADB3-450E-982A-E7D82ACD3721}
      <SOURCE MIDI
        HASDATA 1 960 QN
        POOLEDEVTS {DF8E93F2-9075-4926-B7D2-E93B5D851766}
        e 0 90 38 18
        e 3840 80 38 00
        E 0 b0 7b 00
        GUID {A6048492-82DE-4568-8AD2-53FE165E78F8}
        IGNTEMPO 0 120 4 4
        SRCCOLOR 14952
        VELLANE -1 100 0
        CFGEDITVIEW 6852.270877 0.237221 61 12 0 -1 0 0 0 0.5
        KEYSNAP 1
        TRACKSEL -252
        EVTFILTER 0 -1 -1 -1 -1 0 0 0 0 -1 -1 -1 -1 0 -1 0 -1 -1
        CFGEDIT 1 1 0 1 0 0 1 1 1 1 1 0.25 407 45 1872 1023 0 0 0 0 0 0 0 0 0 0 0 0 1 64
      >
    >
    <ITEM
      POSITION 78.26088000002643
      SNAPOFFS 0
      LENGTH 2.60869599997356
      LOOP 1
      ALLTAKES 0
      FADEIN 1 0 0 1 0 0
      FADEOUT 1 0 0 1 0 0
      MUTE 0
      SEL 0
      IGUID {F73BD7F9-224C-44FC-BFB5-0D0D5787D3F2}
      IID 23
      NAME 32
      VOLPAN 1 0 1 -1
      SOFFS 0 0
      PLAYRATE 1 1 0 -1 0 0.0025
      CHANMODE 0
      POOLCOLOR 30311944 R
      GUID {064F7AEF-DD45-4484-B6F9-F9147D161CF9}
      <SOURCE MIDIPOOL
        HASDATA 1 960 QN
        POOLEDEVTS {E6241A21-76DF-4F6F-9CE5-DCC4B2E0D4DE}
        GUID {0EB4185C-FC23-4258-BD66-2C86A24FF340}
        IGNTEMPO 0 120 4 4
        SRCCOLOR 14961
        VELLANE -1 100 0
        CFGEDITVIEW -2946.996109 0.013517 65 12 0 -1 0 0 0 0.5
        KEYSNAP 1
        TRACKSEL -252
        EVTFILTER 0 -1 -1 -1 -1 0 0 0 0 -1 -1 -1 -1 0 -1 0 -1 -1
        CFGEDIT 1 1 0 1 0 0 1 1 1 1 1 0.25 423 61 1872 1023 0 0 0 0 0 0 0 0 0 0 0 0 1 64
      >
    >
    <ITEM
      POSITION 80.86957600002643
      SNAPOFFS 0
      LENGTH 1.30434799997357
      LOOP 1
      ALLTAKES 0
      FADEIN 1 0 0 1 0 0
      FADEOUT 1 0 0 1 0 0
      MUTE 0
      SEL 0
      IGUID {AB817E8D-3BF8-4860-AFFF-AADA475137FB}
      IID 33
      NAME 48
      VOLPAN 1 0 1 -1
      SOFFS 0 0
      PLAYRATE 1 1 0 -1 0 0.0025
      CHANMODE 0
      POOLCOLOR 31897489 R
      GUID {0CC094AC-33DD-4403-A57B-347CB10B9DCB}
      <SOURCE MIDIPOOL
        HASDATA 1 960 QN
        POOLEDEVTS {4C61F0D9-AA2B-432A-807F-1009520671D7}
        E 0 90 38 30
        E 3840 80 38 00
        E 0 b0 7b 00
        GUID {779B9D09-1A59-44C9-9BAB-90DA0F7B68F6}
        IGNTEMPO 0 120 4 4
        SRCCOLOR 15033
        VELLANE -1 100 0
        CFGEDITVIEW -299.5281 0.133751 56 12 0 -1 0 0 0 0.5
        KEYSNAP 1
        TRACKSEL -252
        EVTFILTER 0 -1 -1 -1 -1 0 0 0 0 -1 -1 -1 -1 0 -1 0 -1 -1
        CFGEDIT 1 1 0 1 0 0 1 1 1 1 1 0.25 423 61 1872 1023 0 0 0 0 0 0 0 0 0 0 0 0 1 64
      >
    >
    <ITEM
      POSITION 82.17392400002643
      SNAPOFFS 0
      LENGTH 1.304348
      LOOP 1
      ALLTAKES 0
      FADEIN 1 0 0 1 0 0
      FADEOUT 1 0 0 1 0 0
      MUTE 0
      SEL 0
      IGUID {EF831BC4-6302-4EF4-B6B6-659B5BB61D23}
      IID 38
      NAME 1
      VOLPAN 1 0 1 -1
      SOFFS 0 0
      PLAYRATE 1 1 0 -1 0 0.0025
      CHANMODE 0
      POOLCOLOR 22981429 R
      GUID {6583E2BC-A3FF-43E4-9DDC-7AA4D505F4CA}
      <SOURCE MIDIPOOL
        HASDATA 1 960 QN
        POOLEDEVTS {F8B129CA-CEAA-4C39-AEA6-E72DE558BC5E}
        E 0 90 38 08
        E 3840 80 38 00
        E 0 b0 7b 00
        GUID {2C582BF7-55F3-4840-91C8-8D0E10889837}
        IGNTEMPO 0 120 4 4
        SRCCOLOR 15039
        VELLANE -1 100 0
        CFGEDITVIEW 0 0.178125 59 12 0 -1 0 0 0 0.5
        KEYSNAP 1
        TRACKSEL -252
        EVTFILTER 0 -1 -1 -1 -1 0 0 0 0 -1 -1 -1 -1 0 -1 0 -1 -1
        CFGEDIT 1 1 0 1 0 0 1 1 1 1 1 0.25 423 61 1872 1023 0 0 0 0 0 0 0 0 0 0 0 0 1 64
      >
    >
    <ITEM
      POSITION 83.47827199997846
      SNAPOFFS 0
      LENGTH 31.30435200002154
      LOOP 1
      ALLTAKES 0
      FADEIN 1 0 0 1 0 0
      FADEOUT 1 0 0 1 0 0
      MUTE 0
      SEL 0
      IGUID {85A71A18-3375-4C09-AA9D-6CB2EDB2B63A}
      IID 33
      NAME 48
      VOLPAN 1 0 1 -1
      SOFFS 0 0
      PLAYRATE 1 1 0 -1 0 0.0025
      CHANMODE 0
      POOLCOLOR 31897489 R
      GUID {3B03832B-94D6-4B37-B1C7-CD51F0355066}
      <SOURCE MIDIPOOL
        HASDATA 1 960 QN
        POOLEDEVTS {4C61F0D9-AA2B-432A-807F-1009520671D7}
        GUID {779B9D09-1A59-44C9-9BAB-90DA0F7B68F6}
        IGNTEMPO 0 120 4 4
        SRCCOLOR 15033
        VELLANE -1 100 0
        CFGEDITVIEW -299.5281 0.133751 56 12 0 -1 0 0 0 0.5
        KEYSNAP 1
        TRACKSEL -252
        EVTFILTER 0 -1 -1 -1 -1 0 0 0 0 -1 -1 -1 -1 0 -1 0 -1 -1
        CFGEDIT 1 1 0 1 0 0 1 1 1 1 1 0.25 423 61 1872 1023 0 0 0 0 0 0 0 0 0 0 0 0 1 64
      >
    >
    <ITEM
      POSITION 114.78262399998492
      SNAPOFFS 0
      LENGTH 9.78261000001507
      LOOP 1
      ALLTAKES 0
      FADEIN 1 0 0 1 0 0
      FADEOUT 1 0 0 1 0 0
      MUTE 0
      SEL 0
      IGUID {1DE1422A-B95A-4B9A-95D4-A86FB65434A8}
      IID 15
      NAME 8
      VOLPAN 1 0 1 -1
      SOFFS 0 0
      PLAYRATE 1 1 0 -1 0 0.0025
      CHANMODE 0
      POOLCOLOR 25114249 R
      GUID {A080383E-35EE-460D-83D6-730880A95310}
      <SOURCE MIDIPOOL
        HASDATA 1 960 QN
        POOLEDEVTS {6A9550A6-F0DC-4334-9D2D-0B9B7BC5D41C}
        e 0 90 38 08
        e 3840 80 38 00
        E 0 b0 7b 00
        GUID {A6048492-82DE-4568-8AD2-53FE165E78F8}
        IGNTEMPO 0 120 4 4
        SRCCOLOR 14952
        VELLANE -1 100 0
        CFGEDITVIEW -226.42087 0.178125 61 12 0 -1 0 0 0 0.5
        KEYSNAP 1
        TRACKSEL -252
        EVTFILTER 0 -1 -1 -1 -1 0 0 0 0 -1 -1 -1 -1 0 -1 0 -1 -1
        CFGEDIT 1 1 0 1 0 0 1 1 1 1 1 0.25 407 45 1872 1023 0 0 0 0 0 0 0 0 0 0 0 0 1 64
      >
    >
    <ITEM
      POSITION 124.565234
      SNAPOFFS 0
      LENGTH 0.652174
      LOOP 1
      ALLTAKES 0
      FADEIN 1 0 0 1 0 0
      FADEOUT 1 0 0 1 0 0
      MUTE 0
      SEL 0
      IGUID {11B7F293-0E2F-48EE-BD97-146095FC1ABF}
      IID 43
      NAME "127, 1"
      VOLPAN 1 0 1 -1
      SOFFS 0 0
      PLAYRATE 1 1 0 -1 0 0.0025
      CHANMODE 0
      GUID {2ED366FC-FCC2-41CF-8697-2D634C6E4D66}
      <SOURCE MIDI
        HASDATA 1 960 QN
        POOLEDEVTS {6997EED3-000E-4F01-BAF1-9061358D809A}
        E 0 90 38 7f
        E 240 80 38 00
        E 0 90 38 01
        E 240 80 38 00
        E 0 b0 7b 00
        GUID {DA14A739-50F4-4C20-90CC-135F352A82FC}
        IGNTEMPO 0 120 4 4
        SRCCOLOR 15177
        VELLANE -1 100 0
        CFGEDITVIEW -87.850696 0.453006 61 12 0 -1 0 0 0 0.5
        KEYSNAP 1
        TRACKSEL -252
        EVTFILTER 0 -1 -1 -1 -1 0 0 0 0 -1 -1 -1 -1 0 -1 0 -1 -1
        CFGEDIT 1 1 0 1 0 0 1 1 1 1 1 0.25 423 61 1872 1023 0 0 0 0 0 0 0 0 0 0 0 0 1 64
      >
    >
    <ITEM
      POSITION 125.2174080000259
      SNAPOFFS 0
      LENGTH 3.91304399997409
      LOOP 1
      ALLTAKES 0
      FADEIN 1 0 0 1 0 0
      FADEOUT 1 0 0 1 0 0
      MUTE 0
      SEL 0
      IGUID {697819A6-CFA2-4094-9062-46B413A5EA91}
      IID 33
      NAME 48
      VOLPAN 1 0 1 -1
      SOFFS 0 0
      PLAYRATE 1 1 0 -1 0 0.0025
      CHANMODE 0
      POOLCOLOR 31897489 R
      GUID {3039FC8B-13FD-46C2-BA4A-D5E897099E5F}
      <SOURCE MIDIPOOL
        HASDATA 1 960 QN
        POOLEDEVTS {4C61F0D9-AA2B-432A-807F-1009520671D7}
        GUID {779B9D09-1A59-44C9-9BAB-90DA0F7B68F6}
        IGNTEMPO 0 120 4 4
        SRCCOLOR 15033
        VELLANE -1 100 0
        CFGEDITVIEW -299.5281 0.133751 56 12 0 -1 0 0 0 0.5
        KEYSNAP 1
        TRACKSEL -252
        EVTFILTER 0 -1 -1 -1 -1 0 0 0 0 -1 -1 -1 -1 0 -1 0 -1 -1
        CFGEDIT 1 1 0 1 0 0 1 1 1 1 1 0.25 423 61 1872 1023 0 0 0 0 0 0 0 0 0 0 0 0 1 64
      >
    >
    <ITEM
      POSITION 129.130452
      SNAPOFFS 0
      LENGTH 1.304348
      LOOP 1
      ALLTAKES 0
      FADEIN 1 0 0 1 0 0
      FADEOUT 1 0 0 1 0 0
      MUTE 0
      SEL 0
      IGUID {FE773E3B-5C67-4D9A-8FF3-95928F8AF667}
      IID 45
      NAME "64, 1 (chords pattern)"
      VOLPAN 1 0 1 -1
      SOFFS 0 0
      PLAYRATE 1 1 0 -1 0 0.0025
      CHANMODE 0
      POOLCOLOR 27122052 R
      GUID {809234B9-5F97-4C49-AADC-CAB59D03D257}
      <SOURCE MIDIPOOL
        HASDATA 1 960 QN
        POOLEDEVTS {478B6708-4DFC-490F-80C5-188792EF9517}
        E 0 90 38 40
        E 960 80 38 00
        E 0 90 38 01
        E 480 80 38 00
        E 0 90 38 40
        E 960 80 38 00
        E 0 90 38 01
        E 480 80 38 00
        E 0 90 38 40
        E 480 80 38 00
        E 0 90 38 01
        E 480 80 38 00
        E 0 b0 7b 00
        GUID {AF8D96E1-2523-492A-AEBD-F6A1BB570AC5}
        IGNTEMPO 0 120 4 4
        SRCCOLOR 15375
        VELLANE -1 100 0
        CFGEDITVIEW -166.715536 0.237221 43 12 0 -1 0 0 0 0.5
        KEYSNAP 1
        TRACKSEL -252
        EVTFILTER 0 -1 -1 -1 -1 0 0 0 0 -1 -1 -1 -1 0 -1 0 -1 -1
        CFGEDIT 1 1 0 1 0 0 1 1 1 1 1 0.25 423 61 1872 1023 0 0 0 0 0 0 1 0 0 0 0 0 1 64
      >
    >
    <ITEM
      POSITION 130.43480000004638
      SNAPOFFS 0
      LENGTH 3.91304399997409
      LOOP 1
      ALLTAKES 0
      FADEIN 1 0 0 1 0 0
      FADEOUT 1 0 0 1 0 0
      MUTE 0
      SEL 0
      IGUID {122E8431-2A0D-490A-B931-CC4F60C11AB6}
      IID 33
      NAME 48
      VOLPAN 1 0 1 -1
      SOFFS 0 0
      PLAYRATE 1 1 0 -1 0 0.0025
      CHANMODE 0
      POOLCOLOR 31897489 R
      GUID {3AFB5E5E-352F-4713-9C6E-704967C4E15C}
      <SOURCE MIDIPOOL
        HASDATA 1 960 QN
        POOLEDEVTS {4C61F0D9-AA2B-432A-807F-1009520671D7}
        GUID {779B9D09-1A59-44C9-9BAB-90DA0F7B68F6}
        IGNTEMPO 0 120 4 4
        SRCCOLOR 15033
        VELLANE -1 100 0
        CFGEDITVIEW -299.5281 0.133751 56 12 0 -1 0 0 0 0.5
        KEYSNAP 1
        TRACKSEL -252
        EVTFILTER 0 -1 -1 -1 -1 0 0 0 0 -1 -1 -1 -1 0 -1 0 -1 -1
        CFGEDIT 1 1 0 1 0 0 1 1 1 1 1 0.25 423 61 1872 1023 0 0 0 0 0 0 0 0 0 0 0 0 1 64
      >
    >
    <ITEM
      POSITION 134.34784399997443
      SNAPOFFS 0
      LENGTH 1.304348
      LOOP 1
      ALLTAKES 0
      FADEIN 1 0 0 1 0 0
      FADEOUT 1 0 0 1 0 0
      MUTE 0
      SEL 0
      IGUID {4650B1F6-71B7-4781-86F0-B43922BA5DFF}
      IID 45
      NAME "64, 1 (chords pattern)"
      VOLPAN 1 0 1 -1
      SOFFS 0 0
      PLAYRATE 1 1 0 -1 0 0.0025
      CHANMODE 0
      POOLCOLOR 27122052 R
      GUID {15B0E1A6-1D41-4424-8FCB-98C98A741094}
      <SOURCE MIDIPOOL
        HASDATA 1 960 QN
        POOLEDEVTS {478B6708-4DFC-490F-80C5-188792EF9517}
        GUID {AF8D96E1-2523-492A-AEBD-F6A1BB570AC5}
        IGNTEMPO 0 120 4 4
        SRCCOLOR 15375
        VELLANE -1 100 0
        CFGEDITVIEW -166.715536 0.237221 43 12 0 -1 0 0 0 0.5
        KEYSNAP 1
        TRACKSEL -252
        EVTFILTER 0 -1 -1 -1 -1 0 0 0 0 -1 -1 -1 -1 0 -1 0 -1 -1
        CFGEDIT 1 1 0 1 0 0 1 1 1 1 1 0.25 423 61 1872 1023 0 0 0 0 0 0 1 0 0 0 0 0 1 64
      >
    >
    <ITEM
      POSITION 135.65219199995045
      SNAPOFFS 0
      LENGTH 20.869568
      LOOP 1
      ALLTAKES 0
      FADEIN 1 0 0 1 0 0
      FADEOUT 1 0 0 1 0 0
      MUTE 0
      COLOR 16826624 R
      SEL 0
      IGUID {B1F2029D-B0F0-4E94-A547-5C7C1AD62359}
      IID 33
      NAME 64
      VOLPAN 1 0 1 -1
      SOFFS 0 0
      PLAYRATE 1 1 0 -1 0 0.0025
      CHANMODE 0
      POOLCOLOR 24477259 R
      GUID {9014E891-B414-4846-91DE-B057D3BDB3A1}
      <SOURCE MIDIPOOL
        HASDATA 1 960 QN
        POOLEDEVTS {E025C6C0-356A-4568-B79D-7A7F8EDDB445}
        GUID {779B9D09-1A59-44C9-9BAB-90DA0F7B68F6}
        IGNTEMPO 0 120 4 4
        SRCCOLOR 15033
        VELLANE -1 100 0
        CFGEDITVIEW -299.5281 0.133751 56 12 0 -1 0 0 0 0.5
        KEYSNAP 1
        TRACKSEL -252
        EVTFILTER 0 -1 -1 -1 -1 0 0 0 0 -1 -1 -1 -1 0 -1 0 -1 -1
        CFGEDIT 1 1 0 1 0 0 1 1 1 1 1 0.25 423 61 1872 1023 0 0 0 0 0 0 0 0 0 0 0 0 1 64
      >
    >
    <ITEM
      POSITION 156.52176000003237
      SNAPOFFS 0
      LENGTH 10.43478399995254
      LOOP 1
      ALLTAKES 0
      FADEIN 1 0 0 1 0 0
      FADEOUT 1 0 0 1 0 0
      MUTE 0
      SEL 0
      IGUID {0CAAF5B0-BAB3-46A3-98C4-8BBCA6CA89EB}
      IID 15
      NAME 16
      VOLPAN 1 0 1 -1
      SOFFS 0 0
      PLAYRATE 1 1 0 -1 0 0.0025
      CHANMODE 0
      POOLCOLOR 25042082 R
      GUID {B86584EB-F7D1-4C01-B0DD-C9D729D40C45}
      <SOURCE MIDIPOOL
        HASDATA 1 960 QN
        POOLEDEVTS {AD7E28FF-D52B-4703-8AF4-71731A781C4A}
        GUID {A6048492-82DE-4568-8AD2-53FE165E78F8}
        IGNTEMPO 0 120 4 4
        SRCCOLOR 14952
        VELLANE -1 100 0
        CFGEDITVIEW -299.5281 0.133751 56 12 0 -1 0 0 0 0.5
        KEYSNAP 1
        TRACKSEL -252
        EVTFILTER 0 -1 -1 -1 -1 0 0 0 0 -1 -1 -1 -1 0 -1 0 -1 -1
        CFGEDIT 1 1 0 1 0 0 1 1 1 1 1 0.25 423 61 1872 1023 0 0 0 0 0 0 0 0 0 0 0 0 1 64
      >
    >
    <ITEM
      POSITION 166.95654399995692
      SNAPOFFS 0
      LENGTH 5.21739200004311
      LOOP 1
      ALLTAKES 0
      FADEIN 1 0 0 1 0 0
      FADEOUT 1 0 0 1 0 0
      MUTE 0
      SEL 0
      IGUID {10EC2316-0FB0-49DC-90FA-9B9FAB657B28}
      IID 17
      NAME "16-32 16th steps"
      VOLPAN 1 0 1 -1
      SOFFS 6.52174 20.00000000000324
      PLAYRATE 1 1 0 -1 0 0.0025
      CHANMODE 0
      POOLCOLOR 29857297 R
      GUID {286AD7EC-C106-481A-A485-199A344ABFE4}
      <SOURCE MIDIPOOL
        HASDATA 1 960 QN
        POOLEDEVTS {2258DEBD-4053-436C-B060-132CC67E151A}
        GUID {6DD4AF03-D5B0-425E-A330-8069E47F6813}
        IGNTEMPO 0 120 4 4
        SRCCOLOR 14954
        VELLANE -1 100 0
        CFGEDITVIEW -299.5281 0.133751 56 12 0 -1 0 0 0 0.5
        KEYSNAP 1
        TRACKSEL -252
        EVTFILTER 0 -1 -1 -1 -1 0 0 0 0 -1 -1 -1 -1 0 -1 0 -1 -1
        CFGEDIT 1 1 0 1 0 0 1 1 1 1 1 0.25 423 61 1872 1023 0 0 0 0 0 0 0 0 0 0 0 0 1 64
      >
    >
    <ITEM
      POSITION 172.173936
      SNAPOFFS 0
      LENGTH 2.608696
      LOOP 1
      ALLTAKES 0
      FADEIN 1 0 0 1 0 0
      FADEOUT 1 0 0 1 0 0
      MUTE 0
      SEL 0
      IGUID {B2B0BB54-BCAB-406E-8D78-AADCA21B4DF9}
      IID 23
      NAME 32
      VOLPAN 1 0 1 -1
      SOFFS 0 0
      PLAYRATE 1 1 0 -1 0 0.0025
      CHANMODE 0
      POOLCOLOR 30311944 R
      GUID {01C47AEA-5958-42A8-9EB2-B0CEC05F1E17}
      <SOURCE MIDIPOOL
        HASDATA 1 960 QN
        POOLEDEVTS {E6241A21-76DF-4F6F-9CE5-DCC4B2E0D4DE}
        GUID {0EB4185C-FC23-4258-BD66-2C86A24FF340}
        IGNTEMPO 0 120 4 4
        SRCCOLOR 14961
        VELLANE -1 100 0
        CFGEDITVIEW -299.5281 0.133751 56 12 0 -1 0 0 0 0.5
        KEYSNAP 1
        TRACKSEL -252
        EVTFILTER 0 -1 -1 -1 -1 0 0 0 0 -1 -1 -1 -1 0 -1 0 -1 -1
        CFGEDIT 1 1 0 1 0 0 1 1 1 1 1 0.25 423 61 1872 1023 0 0 0 0 0 0 0 0 0 0 0 0 1 64
      >
    >
    <ITEM
      POSITION 174.78263200004585
      SNAPOFFS 0
      LENGTH 2.608696
      LOOP 1
      ALLTAKES 0
      FADEIN 1 0 0 1 0 0
      FADEOUT 1 0 0 1 0 0
      MUTE 0
      SEL 0
      IGUID {40B779C0-6404-4134-B8B7-5F769F431702}
      IID 15
      NAME 16
      VOLPAN 1 0 1 -1
      SOFFS 0 0
      PLAYRATE 1 1 0 -1 0 0.0025
      CHANMODE 0
      POOLCOLOR 25042082 R
      GUID {AFB24A55-3738-4875-A944-D679B73E8D81}
      <SOURCE MIDIPOOL
        HASDATA 1 960 QN
        POOLEDEVTS {AD7E28FF-D52B-4703-8AF4-71731A781C4A}
        GUID {A6048492-82DE-4568-8AD2-53FE165E78F8}
        IGNTEMPO 0 120 4 4
        SRCCOLOR 14952
        VELLANE -1 100 0
        CFGEDITVIEW -299.5281 0.133751 56 12 0 -1 0 0 0 0.5
        KEYSNAP 1
        TRACKSEL -252
        EVTFILTER 0 -1 -1 -1 -1 0 0 0 0 -1 -1 -1 -1 0 -1 0 -1 -1
        CFGEDIT 1 1 0 1 0 0 1 1 1 1 1 0.25 423 61 1872 1023 0 0 0 0 0 0 0 0 0 0 0 0 1 64
      >
    >
    <ITEM
      POSITION 177.391328
      SNAPOFFS 0
      LENGTH 4.891305
      LOOP 1
      ALLTAKES 0
      FADEIN 1 0 0 1 0 0
      FADEOUT 1 0 0 1 0 0
      MUTE 0
      SEL 0
      IGUID {EE42FF34-7FD7-4924-BFC0-E2CEAE01EC2D}
      IID 80
      NAME 16-64
      VOLPAN 1 0 1 -1
      SOFFS 0 0
      PLAYRATE 1 1 0 -1 0 0.0025
      CHANMODE 0
      GUID {B15F93AF-0203-4153-B21B-A4B8A6FE7FFE}
      <SOURCE MIDI
        HASDATA 1 960 QN
        POOLEDEVTS {DDD3D90D-207D-4F93-B874-F2F8D027CE24}
        E 0 90 38 10
        E 240 80 38 00
        E 0 90 38 11
        E 240 80 38 00
        E 0 90 38 11
        E 240 80 38 00
        E 0 90 38 12
        E 240 80 38 00
        E 0 90 38 12
        E 240 80 38 00
        E 0 90 38 13
        E 240 80 38 00
        E 0 90 38 13
        E 240 80 38 00
        E 0 90 38 14
        E 240 80 38 00
        E 0 90 38 14
        E 240 80 38 00
        E 0 90 38 15
        E 240 80 38 00
        E 0 90 38 15
        E 240 80 38 00
        E 0 90 38 16
        E 240 80 38 00
        E 0 90 38 16
        E 240 80 38 00
        E 0 90 38 17
        E 240 80 38 00
        E 0 90 38 17
        E 240 80 38 00
        E 0 90 38 18
        E 240 80 38 00
        E 0 90 38 18
        E 240 80 38 00
        E 0 90 38 19
        E 240 80 38 00
        E 0 90 38 19
        E 240 80 38 00
        E 0 90 38 1a
        E 240 80 38 00
        E 0 90 38 1a
        E 240 80 38 00
        E 0 90 38 1b
        E 240 80 38 00
        E 0 90 38 1b
        E 240 80 38 00
        E 0 90 38 1c
        E 240 80 38 00
        E 0 90 38 1c
        E 240 80 38 00
        E 0 90 38 1d
        E 240 80 38 00
        E 0 90 38 1d
        E 240 80 38 00
        E 0 90 38 1e
        E 240 80 38 00
        E 0 90 38 1e
        E 240 80 38 00
        E 0 90 38 1f
        E 240 80 38 00
        E 0 90 38 1f
        E 240 80 38 00
        E 0 90 38 20
        E 240 80 38 00
        E 0 90 38 20
        E 240 80 38 00
        E 0 90 38 21
        E 240 80 38 00
        E 0 90 38 21
        E 240 80 38 00
        E 0 90 38 22
        E 240 80 38 00
        E 0 90 38 22
        E 240 80 38 00
        E 0 90 38 23
        E 240 80 38 00
        E 0 90 38 23
        E 240 80 38 00
        E 0 90 38 24
        E 240 80 38 00
        E 0 90 38 24
        E 240 80 38 00
        E 0 90 38 25
        E 240 80 38 00
        E 0 90 38 25
        E 240 80 38 00
        E 0 90 38 26
        E 240 80 38 00
        E 0 90 38 26
        E 240 80 38 00
        E 0 90 38 27
        E 240 80 38 00
        E 0 90 38 27
        E 240 80 38 00
        E 0 90 38 28
        E 240 80 38 00
        E 0 90 38 28
        E 240 80 38 00
        E 0 90 38 29
        E 240 80 38 00
        E 0 90 38 29
        E 240 80 38 00
        E 0 90 38 2a
        E 240 80 38 00
        E 0 90 38 2b
        E 240 80 38 00
        E 0 90 38 2e
        E 240 80 38 00
        E 0 90 38 31
        E 240 80 38 00
        E 0 90 38 34
        E 240 80 38 00
        E 0 90 38 37
        E 240 80 38 00
        E 0 90 38 39
        E 240 80 38 00
        E 0 90 38 3c
        E 240 80 38 00
        E 0 90 38 40
        E 240 80 38 00
        E 0 b0 7b 00
        GUID {B7406276-3747-48DB-9A4C-70D4B473035E}
        IGNTEMPO 0 120 4 4
        SRCCOLOR 15744
        VELLANE -1 100 0
        CFGEDITVIEW 949.280859 0.063259 61 12 0 -1 0 0 0 0.5
        KEYSNAP 1
        TRACKSEL -252
        EVTFILTER 0 -1 -1 -1 -1 0 0 0 0 -1 -1 -1 -1 0 -1 0 -1 -1
        CFGEDIT 1 1 0 1 0 0 1 1 1 1 1 0.25 423 61 1872 1023 0 0 0 0 0 0 1 0 0 0 0 0 1 64
      >
    >
    <ITEM
      POSITION 182.28263300005344
      SNAPOFFS 0
      LENGTH 0.32608699994654
      LOOP 1
      ALLTAKES 0
      FADEIN 1 0 0 1 0 0
      FADEOUT 1 0 0 1 0 0
      MUTE 0
      SEL 0
      IGUID {62ABC456-A9E0-4C0E-B456-59408FE95C59}
      IID 38
      NAME 1
      VOLPAN 1 0 1 -1
      SOFFS 0 0
      PLAYRATE 1 1 0 -1 0 0.0025
      CHANMODE 0
      POOLCOLOR 22981429 R
      GUID {9807DEB9-6B9B-47A2-A14B-4140419CC65D}
      <SOURCE MIDIPOOL
        HASDATA 1 960 QN
        POOLEDEVTS {F8B129CA-CEAA-4C39-AEA6-E72DE558BC5E}
        GUID {2C582BF7-55F3-4840-91C8-8D0E10889837}
        IGNTEMPO 0 120 4 4
        SRCCOLOR 15039
        VELLANE -1 100 0
        CFGEDITVIEW -1131.131967 0.035667 61 12 0 -1 0 0 0 0.5
        KEYSNAP 1
        TRACKSEL -252
        EVTFILTER 0 -1 -1 -1 -1 0 0 0 0 -1 -1 -1 -1 0 -1 0 -1 -1
        CFGEDIT 1 1 0 1 0 0 1 1 1 1 1 0.25 423 61 1872 1023 0 0 0 0 0 0 0 0 0 0 0 0 1 64
      >
    >
    <ITEM
      POSITION 182.60872000001837
      SNAPOFFS 0
      LENGTH 0.978261
      LOOP 1
      ALLTAKES 0
      FADEIN 1 0 0 1 0 0
      FADEOUT 1 0 0 1 0 0
      MUTE 0
      SEL 0
      IGUID {0F9ADFE4-FB62-4138-83C1-1DA01F8C7108}
      IID 230
      NAME 38-52
      VOLPAN 1 0 1 -1
      SOFFS 3.586957 11.00000000000182
      PLAYRATE 1 1 0 -1 0 0.0025
      CHANMODE 0
      GUID {5FF011C2-0BF5-42E9-9F17-33825F7B7AEF}
      <SOURCE MIDI
        HASDATA 1 960 QN
        POOLEDEVTS {FA08B022-B731-46F7-A5C6-7069D261279C}
        E 0 90 38 10
        E 240 80 38 00
        E 0 90 38 11
        E 240 80 38 00
        E 0 90 38 11
        E 240 80 38 00
        E 0 90 38 12
        E 240 80 38 00
        E 0 90 38 12
        E 240 80 38 00
        E 0 90 38 13
        E 240 80 38 00
        E 0 90 38 13
        E 240 80 38 00
        E 0 90 38 14
        E 240 80 38 00
        E 0 90 38 14
        E 240 80 38 00
        E 0 90 38 15
        E 240 80 38 00
        E 0 90 38 15
        E 240 80 38 00
        E 0 90 38 16
        E 240 80 38 00
        E 0 90 38 16
        E 240 80 38 00
        E 0 90 38 17
        E 240 80 38 00
        E 0 90 38 17
        E 240 80 38 00
        E 0 90 38 18
        E 240 80 38 00
        E 0 90 38 18
        E 240 80 38 00
        E 0 90 38 19
        E 240 80 38 00
        E 0 90 38 19
        E 240 80 38 00
        E 0 90 38 1a
        E 240 80 38 00
        E 0 90 38 1a
        E 240 80 38 00
        E 0 90 38 1b
        E 240 80 38 00
        E 0 90 38 1b
        E 240 80 38 00
        E 0 90 38 1c
        E 240 80 38 00
        E 0 90 38 1c
        E 240 80 38 00
        E 0 90 38 1d
        E 240 80 38 00
        E 0 90 38 1d
        E 240 80 38 00
        E 0 90 38 1e
        E 240 80 38 00
        E 0 90 38 1e
        E 240 80 38 00
        E 0 90 38 1f
        E 240 80 38 00
        E 0 90 38 1f
        E 240 80 38 00
        E 0 90 38 20
        E 240 80 38 00
        E 0 90 38 20
        E 240 80 38 00
        E 0 90 38 21
        E 240 80 38 00
        E 0 90 38 21
        E 240 80 38 00
        E 0 90 38 22
        E 240 80 38 00
        E 0 90 38 22
        E 240 80 38 00
        E 0 90 38 23
        E 240 80 38 00
        E 0 90 38 23
        E 240 80 38 00
        E 0 90 38 24
        E 240 80 38 00
        E 0 90 38 24
        E 240 80 38 00
        E 0 90 38 25
        E 240 80 38 00
        E 0 90 38 25
        E 240 80 38 00
        E 0 90 38 26
        E 240 80 38 00
        E 0 90 38 26
        E 240 80 38 00
        E 0 90 38 27
        E 240 80 38 00
        E 0 90 38 27
        E 240 80 38 00
        E 0 90 38 28
        E 240 80 38 00
        E 0 90 38 28
        E 240 80 38 00
        E 0 90 38 29
        E 240 80 38 00
        E 0 90 38 29
        E 240 80 38 00
        E 0 90 38 2a
        E 240 80 38 00
        E 0 90 38 2b
        E 240 80 38 00
        E 0 90 38 2e
        E 240 80 38 00
        E 0 90 38 31
        E 240 80 38 00
        E 0 90 38 34
        E 240 80 38 00
        E 0 b0 7b 00
        GUID {B19B43D9-E4FA-4289-8090-38CEF0953CD1}
        IGNTEMPO 0 120 4 4
        SRCCOLOR 16431
        VELLANE -1 100 0
        CFGEDITVIEW 9573.650927 0.213204 51 16 0 -1 0 0 0 0.5
        KEYSNAP 0
        TRACKSEL -252
        EVTFILTER 0 -1 -1 -1 -1 0 0 0 0 -1 -1 -1 -1 0 -1 0 -1 -1
        CFGEDIT 1 1 0 1 0 0 1 1 1 1 1 0.25 423 61 1872 1023 0 0 0 0 0 0 1 0 0 0 0 0 1 64
      >
    >
    <ITEM
      POSITION 183.58698100002948
      SNAPOFFS 0
      LENGTH 0.3260869999705
      LOOP 1
      ALLTAKES 0
      FADEIN 1 0 0 1 0 0
      FADEOUT 1 0 0 1 0 0
      MUTE 0
      SEL 0
      IGUID {78B0BFEF-638A-4E3E-A100-2B80ED034EE4}
      IID 15
      NAME 8
      VOLPAN 1 0 1 -1
      SOFFS 0 0
      PLAYRATE 1 1 0 -1 0 0.0025
      CHANMODE 0
      POOLCOLOR 25114249 R
      GUID {1B8814B3-2A58-4944-A522-5FB918417EF5}
      <SOURCE MIDIPOOL
        HASDATA 1 960 QN
        POOLEDEVTS {6A9550A6-F0DC-4334-9D2D-0B9B7BC5D41C}
        GUID {A6048492-82DE-4568-8AD2-53FE165E78F8}
        IGNTEMPO 0 120 4 4
        SRCCOLOR 14952
        VELLANE -1 100 0
        CFGEDITVIEW -1131.131967 0.035667 61 12 0 -1 0 0 0 0.5
        KEYSNAP 1
        TRACKSEL -252
        EVTFILTER 0 -1 -1 -1 -1 0 0 0 0 -1 -1 -1 -1 0 -1 0 -1 -1
        CFGEDIT 1 1 0 1 0 0 1 1 1 1 1 0.25 423 61 1872 1023 0 0 0 0 0 0 0 0 0 0 0 0 1 64
      >
    >
    <ITEM
      POSITION 183.91306799999438
      SNAPOFFS 0
      LENGTH 0.978261
      LOOP 1
      ALLTAKES 0
      FADEIN 1 0 0 1 0 0
      FADEOUT 1 0 0 1 0 0
      MUTE 0
      SEL 0
      IGUID {002A97EA-48F0-4261-9CDA-4AE2A3778F7D}
      IID 230
      NAME 42-64
      VOLPAN 1 0 1 -1
      SOFFS 3.586957 11.00000000000182
      PLAYRATE 1 1 0 -1 0 0.0025
      CHANMODE 0
      GUID {77F541FF-C984-4710-A163-092989E0FA93}
      <SOURCE MIDI
        HASDATA 1 960 QN
        POOLEDEVTS {7E21B32F-FE48-442C-8F33-3B3E29FECB7C}
        E 0 90 38 10
        E 240 80 38 00
        E 0 90 38 11
        E 240 80 38 00
        E 0 90 38 11
        E 240 80 38 00
        E 0 90 38 12
        E 240 80 38 00
        E 0 90 38 12
        E 240 80 38 00
        E 0 90 38 13
        E 240 80 38 00
        E 0 90 38 13
        E 240 80 38 00
        E 0 90 38 14
        E 240 80 38 00
        E 0 90 38 14
        E 240 80 38 00
        E 0 90 38 15
        E 240 80 38 00
        E 0 90 38 15
        E 240 80 38 00
        E 0 90 38 16
        E 240 80 38 00
        E 0 90 38 16
        E 240 80 38 00
        E 0 90 38 17
        E 240 80 38 00
        E 0 90 38 17
        E 240 80 38 00
        E 0 90 38 18
        E 240 80 38 00
        E 0 90 38 18
        E 240 80 38 00
        E 0 90 38 19
        E 240 80 38 00
        E 0 90 38 19
        E 240 80 38 00
        E 0 90 38 1a
        E 240 80 38 00
        E 0 90 38 1a
        E 240 80 38 00
        E 0 90 38 1b
        E 240 80 38 00
        E 0 90 38 1b
        E 240 80 38 00
        E 0 90 38 1c
        E 240 80 38 00
        E 0 90 38 1c
        E 240 80 38 00
        E 0 90 38 1d
        E 240 80 38 00
        E 0 90 38 1d
        E 240 80 38 00
        E 0 90 38 1e
        E 240 80 38 00
        E 0 90 38 1e
        E 240 80 38 00
        E 0 90 38 1f
        E 240 80 38 00
        E 0 90 38 1f
        E 240 80 38 00
        E 0 90 38 20
        E 240 80 38 00
        E 0 90 38 20
        E 240 80 38 00
        E 0 90 38 21
        E 240 80 38 00
        E 0 90 38 21
        E 240 80 38 00
        E 0 90 38 22
        E 240 80 38 00
        E 0 90 38 22
        E 240 80 38 00
        E 0 90 38 23
        E 240 80 38 00
        E 0 90 38 23
        E 240 80 38 00
        E 0 90 38 24
        E 240 80 38 00
        E 0 90 38 24
        E 240 80 38 00
        E 0 90 38 25
        E 240 80 38 00
        E 0 90 38 25
        E 240 80 38 00
        E 0 90 38 26
        E 240 80 38 00
        E 0 90 38 2a
        E 240 80 38 00
        E 0 90 38 2c
        E 240 80 38 00
        E 0 90 38 2e
        E 240 80 38 00
        E 0 90 38 30
        E 240 80 38 00
        E 0 90 38 32
        E 240 80 38 00
        E 0 90 38 34
        E 240 80 38 00
        E 0 90 38 36
        E 240 80 38 00
        E 0 90 38 38
        E 240 80 38 00
        E 0 90 38 3a
        E 240 80 38 00
        E 0 90 38 3c
        E 240 80 38 00
        E 0 90 38 3e
        E 240 80 38 00
        E 0 90 38 40
        E 240 80 38 00
        E 0 b0 7b 00
        GUID {B19B43D9-E4FA-4289-8090-38CEF0953CD1}
        IGNTEMPO 0 120 4 4
        SRCCOLOR 16431
        VELLANE -1 100 0
        CFGEDITVIEW 12240.045929 0.670666 51 16 0 -1 0 0 0 0.5
        KEYSNAP 0
        TRACKSEL -252
        EVTFILTER 0 -1 -1 -1 -1 0 0 0 0 -1 -1 -1 -1 0 -1 0 -1 -1
        CFGEDIT 1 1 0 1 0 0 1 1 1 1 1 0.25 423 61 1872 1023 0 0 0 0 0 0 1 0 0 0 0 0 1 64
      >
    >
    <ITEM
      POSITION 184.89132900000547
      SNAPOFFS 0
      LENGTH 0.32608699999452
      LOOP 1
      ALLTAKES 0
      FADEIN 1 0 0 1 0 0
      FADEOUT 1 0 0 1 0 0
      MUTE 0
      SEL 0
      IGUID {39D6F623-72A5-46D1-A039-246640CA60BF}
      IID 15
      NAME 16
      VOLPAN 1 0 1 -1
      SOFFS 0 0
      PLAYRATE 1 1 0 -1 0 0.0025
      CHANMODE 0
      POOLCOLOR 25042082 R
      GUID {7DE9B0F7-91E2-4FB5-A68E-0C8E4A80BBC1}
      <SOURCE MIDIPOOL
        HASDATA 1 960 QN
        POOLEDEVTS {AD7E28FF-D52B-4703-8AF4-71731A781C4A}
        GUID {A6048492-82DE-4568-8AD2-53FE165E78F8}
        IGNTEMPO 0 120 4 4
        SRCCOLOR 14952
        VELLANE -1 100 0
        CFGEDITVIEW 6708.027817 0.160091 51 16 0 -1 0 0 0 0.5
        KEYSNAP 0
        TRACKSEL -252
        EVTFILTER 0 -1 -1 -1 -1 0 0 0 0 -1 -1 -1 -1 0 -1 0 -1 -1
        CFGEDIT 1 1 0 1 0 0 1 1 1 1 1 0.25 423 61 1872 1023 0 0 0 0 0 0 1 0 0 0 0 0 1 64
      >
    >
    <ITEM
      POSITION 185.2174159999704
      SNAPOFFS 0
      LENGTH 1.30434800002959
      LOOP 1
      ALLTAKES 0
      FADEIN 1 0 0 1 0 0
      FADEOUT 1 0 0 1 0 0
      MUTE 0
      COLOR 16826624 R
      SEL 0
      IGUID {FD694FC9-1FA3-44E6-8011-C6EF52E4892E}
      IID 33
      NAME 64
      VOLPAN 1 0 1 -1
      SOFFS 0 0
      PLAYRATE 1 1 0 -1 0 0.0025
      CHANMODE 0
      POOLCOLOR 24477259 R
      GUID {03AA7DCC-92F1-4B44-A6D8-E48A42E25480}
      <SOURCE MIDIPOOL
        HASDATA 1 960 QN
        POOLEDEVTS {E025C6C0-356A-4568-B79D-7A7F8EDDB445}
        GUID {779B9D09-1A59-44C9-9BAB-90DA0F7B68F6}
        IGNTEMPO 0 120 4 4
        SRCCOLOR 15033
        VELLANE -1 100 0
        CFGEDITVIEW -299.5281 0.133751 56 12 0 -1 0 0 0 0.5
        KEYSNAP 1
        TRACKSEL -252
        EVTFILTER 0 -1 -1 -1 -1 0 0 0 0 -1 -1 -1 -1 0 -1 0 -1 -1
        CFGEDIT 1 1 0 1 0 0 1 1 1 1 1 0.25 423 61 1872 1023 0 0 0 0 0 0 0 0 0 0 0 0 1 64
      >
    >
    <ITEM
      POSITION 186.52176399994642
      SNAPOFFS 0
      LENGTH 1.304348
      LOOP 1
      ALLTAKES 0
      FADEIN 1 0 0 1 0 0
      FADEOUT 1 0 0 1 0 0
      MUTE 0
      SEL 0
      IGUID {B5C5C433-4DF4-4FB2-B99B-678A6762576C}
      IID 38
      NAME 1
      VOLPAN 1 0 1 -1
      SOFFS 0 0
      PLAYRATE 1 1 0 -1 0 0.0025
      CHANMODE 0
      POOLCOLOR 22981429 R
      GUID {FE9EAA6F-F57B-4B1D-9CAA-CCE185C0BD3B}
      <SOURCE MIDIPOOL
        HASDATA 1 960 QN
        POOLEDEVTS {F8B129CA-CEAA-4C39-AEA6-E72DE558BC5E}
        GUID {2C582BF7-55F3-4840-91C8-8D0E10889837}
        IGNTEMPO 0 120 4 4
        SRCCOLOR 15039
        VELLANE -1 100 0
        CFGEDITVIEW 6708.027817 0.160091 51 16 0 -1 0 0 0 0.5
        KEYSNAP 0
        TRACKSEL -252
        EVTFILTER 0 -1 -1 -1 -1 0 0 0 0 -1 -1 -1 -1 0 -1 0 -1 -1
        CFGEDIT 1 1 0 1 0 0 1 1 1 1 1 0.25 423 61 1872 1023 0 0 0 0 0 0 1 0 0 0 0 0 1 64
      >
    >
    <ITEM
      POSITION 187.82611199992243
      SNAPOFFS 0
      LENGTH 20.86956800007755
      LOOP 1
      ALLTAKES 0
      FADEIN 1 0 0 1 0 0
      FADEOUT 1 0 0 1 0 0
      MUTE 0
      COLOR 31054080 R
      SEL 0
      IGUID {E6D9D7E3-8A17-41F9-96F0-0F005093BF20}
      IID 33
      NAME 80
      VOLPAN 1 0 1 -1
      SOFFS 0 0
      PLAYRATE 1 1 0 -1 0 0.0025
      CHANMODE 0
      GUID {F893D1F7-E62C-48C0-8354-1F4C79F0EA86}
      <SOURCE MIDI
        HASDATA 1 960 QN
        POOLEDEVTS {EC6E6097-F0AC-4180-8BE1-23DE50CB42E2}
        E 0 90 38 50
        E 3840 80 38 00
        E 0 b0 7b 00
        GUID {779B9D09-1A59-44C9-9BAB-90DA0F7B68F6}
        IGNTEMPO 0 120 4 4
        SRCCOLOR 15033
        VELLANE -1 100 0
        CFGEDITVIEW -299.5281 0.133751 56 12 0 -1 0 0 0 0.5
        KEYSNAP 1
        TRACKSEL -252
        EVTFILTER 0 -1 -1 -1 -1 0 0 0 0 -1 -1 -1 -1 0 -1 0 -1 -1
        CFGEDIT 1 1 0 1 0 0 1 1 1 1 1 0.25 423 61 1872 1023 0 0 0 0 0 0 0 0 0 0 0 0 1 64
      >
    >
    <ITEM
      POSITION 208.69568000000439
      SNAPOFFS 0
      LENGTH 10.4347839999956
      LOOP 1
      ALLTAKES 0
      FADEIN 1 0 0 1 0 0
      FADEOUT 1 0 0 1 0 0
      MUTE 0
      COLOR 16826624 R
      SEL 0
      IGUID {32281E9D-F4B8-4661-9166-4486EB64650C}
      IID 33
      NAME 64
      VOLPAN 1 0 1 -1
      SOFFS 0 0
      PLAYRATE 1 1 0 -1 0 0.0025
      CHANMODE 0
      POOLCOLOR 24477259 R
      GUID {FBF3AA4C-BF34-427E-B33F-C3AED66055F0}
      <SOURCE MIDIPOOL
        HASDATA 1 960 QN
        POOLEDEVTS {E025C6C0-356A-4568-B79D-7A7F8EDDB445}
        GUID {779B9D09-1A59-44C9-9BAB-90DA0F7B68F6}
        IGNTEMPO 0 120 4 4
        SRCCOLOR 15033
        VELLANE -1 100 0
        CFGEDITVIEW -299.5281 0.133751 56 12 0 -1 0 0 0 0.5
        KEYSNAP 1
        TRACKSEL -252
        EVTFILTER 0 -1 -1 -1 -1 0 0 0 0 -1 -1 -1 -1 0 -1 0 -1 -1
        CFGEDIT 1 1 0 1 0 0 1 1 1 1 1 0.25 423 61 1872 1023 0 0 0 0 0 0 0 0 0 0 0 0 1 64
      >
    >
    <ITEM
      POSITION 219.13046400004535
      SNAPOFFS 0
      LENGTH 3.91304399997409
      LOOP 1
      ALLTAKES 0
      FADEIN 1 0 0 1 0 0
      FADEOUT 1 0 0 1 0 0
      MUTE 0
      SEL 0
      IGUID {5736284B-2799-4787-BCA5-D6EEA5297087}
      IID 33
      NAME 48
      VOLPAN 1 0 1 -1
      SOFFS 0 0
      PLAYRATE 1 1 0 -1 0 0.0025
      CHANMODE 0
      POOLCOLOR 31897489 R
      GUID {1D5CD7BC-F4DE-4E29-A070-E74CF3CB85DB}
      <SOURCE MIDIPOOL
        HASDATA 1 960 QN
        POOLEDEVTS {4C61F0D9-AA2B-432A-807F-1009520671D7}
        GUID {779B9D09-1A59-44C9-9BAB-90DA0F7B68F6}
        IGNTEMPO 0 120 4 4
        SRCCOLOR 15033
        VELLANE -1 100 0
        CFGEDITVIEW -299.5281 0.133751 56 12 0 -1 0 0 0 0.5
        KEYSNAP 1
        TRACKSEL -252
        EVTFILTER 0 -1 -1 -1 -1 0 0 0 0 -1 -1 -1 -1 0 -1 0 -1 -1
        CFGEDIT 1 1 0 1 0 0 1 1 1 1 1 0.25 423 61 1872 1023 0 0 0 0 0 0 0 0 0 0 0 0 1 64
      >
    >
    <ITEM
      POSITION 223.04350799997337
      SNAPOFFS 0
      LENGTH 1.304348
      LOOP 1
      ALLTAKES 0
      FADEIN 1 0 0 1 0 0
      FADEOUT 1 0 0 1 0 0
      MUTE 0
      SEL 0
      IGUID {BE7E8EAE-D7D4-4522-83A3-9FA0A4B3A223}
      IID 23
      NAME 32
      VOLPAN 1 0 1 -1
      SOFFS 0 0
      PLAYRATE 1 1 0 -1 0 0.0025
      CHANMODE 0
      POOLCOLOR 30311944 R
      GUID {73D3C630-0127-451C-9A39-C5B15CD89D27}
      <SOURCE MIDIPOOL
        HASDATA 1 960 QN
        POOLEDEVTS {E6241A21-76DF-4F6F-9CE5-DCC4B2E0D4DE}
        GUID {0EB4185C-FC23-4258-BD66-2C86A24FF340}
        IGNTEMPO 0 120 4 4
        SRCCOLOR 14961
        VELLANE -1 100 0
        CFGEDITVIEW -299.5281 0.133751 56 12 0 -1 0 0 0 0.5
        KEYSNAP 1
        TRACKSEL -252
        EVTFILTER 0 -1 -1 -1 -1 0 0 0 0 -1 -1 -1 -1 0 -1 0 -1 -1
        CFGEDIT 1 1 0 1 0 0 1 1 1 1 1 0.25 423 61 1872 1023 0 0 0 0 0 0 0 0 0 0 0 0 1 64
      >
    >
    <ITEM
      POSITION 224.347856
      SNAPOFFS 0
      LENGTH 5.217392
      LOOP 1
      ALLTAKES 0
      FADEIN 1 0 0 1 0 0
      FADEOUT 1 0 0 1 0 0
      MUTE 0
      SEL 0
      IGUID {F428284E-F337-47BA-94F7-52FA759BD6EE}
      IID 222
      NAME 24-2
      VOLPAN 1 0 1 -1
      SOFFS 0 0
      PLAYRATE 1 1 0 -1 0 0.0025
      CHANMODE 0
      GUID {2C71D6E2-0995-42A9-8EC8-1ED6AF710BF0}
      <SOURCE MIDI
        HASDATA 1 960 QN
        POOLEDEVTS {7B134BFB-DD6B-4582-A562-BA86AED007A3}
        E 0 90 38 18
        E 240 80 38 00
        E 0 90 38 18
        E 240 80 38 00
        E 0 90 38 18
        E 240 80 38 00
        E 0 90 38 18
        E 240 80 38 00
        E 0 90 38 17
        E 240 80 38 00
        E 0 90 38 17
        E 240 80 38 00
        E 0 90 38 17
        E 240 80 38 00
        E 0 90 38 16
        E 240 80 38 00
        E 0 90 38 16
        E 240 80 38 00
        E 0 90 38 16
        E 240 80 38 00
        E 0 90 38 15
        E 240 80 38 00
        E 0 90 38 15
        E 240 80 38 00
        E 0 90 38 15
        E 240 80 38 00
        E 0 90 38 14
        E 240 80 38 00
        E 0 90 38 14
        E 240 80 38 00
        E 0 90 38 13
        E 240 80 38 00
        E 0 90 38 13
        E 240 80 38 00
        E 0 90 38 13
        E 240 80 38 00
        E 0 90 38 12
        E 240 80 38 00
        E 0 90 38 12
        E 240 80 38 00
        E 0 90 38 12
        E 240 80 38 00
        E 0 90 38 11
        E 240 80 38 00
        E 0 90 38 11
        E 240 80 38 00
        E 0 90 38 11
        E 240 80 38 00
        E 0 90 38 10
        E 240 80 38 00
        E 0 90 38 10
        E 240 80 38 00
        E 0 90 38 10
        E 240 80 38 00
        E 0 90 38 0f
        E 240 80 38 00
        E 0 90 38 0f
        E 240 80 38 00
        E 0 90 38 0e
        E 240 80 38 00
        E 0 90 38 0e
        E 240 80 38 00
        E 0 90 38 0e
        E 240 80 38 00
        E 0 90 38 0d
        E 240 80 38 00
        E 0 90 38 0d
        E 240 80 38 00
        E 0 90 38 0d
        E 240 80 38 00
        E 0 90 38 0c
        E 240 80 38 00
        E 0 90 38 0c
        E 240 80 38 00
        E 0 90 38 0c
        E 240 80 38 00
        E 0 90 38 0b
        E 240 80 38 00
        E 0 90 38 0b
        E 240 80 38 00
        E 0 90 38 0b
        E 240 80 38 00
        E 0 90 38 0a
        E 240 80 38 00
        E 0 90 38 0a
        E 240 80 38 00
        E 0 90 38 09
        E 240 80 38 00
        E 0 90 38 09
        E 240 80 38 00
        E 0 90 38 09
        E 240 80 38 00
        E 0 90 38 08
        E 240 80 38 00
        E 0 90 38 08
        E 240 80 38 00
        E 0 90 38 08
        E 240 80 38 00
        E 0 90 38 07
        E 240 80 38 00
        E 0 90 38 07
        E 240 80 38 00
        E 0 90 38 07
        E 240 80 38 00
        E 0 90 38 06
        E 240 80 38 00
        E 0 90 38 06
        E 240 80 38 00
        E 0 90 38 06
        E 240 80 38 00
        E 0 90 38 05
        E 240 80 38 00
        E 0 90 38 05
        E 240 80 38 00
        E 0 90 38 04
        E 240 80 38 00
        E 0 90 38 04
        E 240 80 38 00
        E 0 90 38 04
        E 240 80 38 00
        E 0 90 38 03
        E 240 80 38 00
        E 0 90 38 03
        E 240 80 38 00
        E 0 90 38 03
        E 240 80 38 00
        E 0 90 38 02
        E 240 80 38 00
        E 0 b0 7b 00
        GUID {5860E963-C67C-4783-B1BC-2304E44CC569}
        IGNTEMPO 0 120 4 4
        SRCCOLOR 16416
        VELLANE -1 100 0
        CFGEDITVIEW 481.976756 0.059305 61 12 0 -1 0 0 0 0.5
        KEYSNAP 1
        TRACKSEL -252
        EVTFILTER 0 -1 -1 -1 -1 0 0 0 0 -1 -1 -1 -1 0 -1 0 -1 -1
        CFGEDIT 1 1 0 1 0 0 1 1 1 1 1 0.25 423 61 1872 1023 0 0 0 0 0 0 1 0 0 0 0 0 1 64
      >
    >
    <ITEM
      POSITION 229.565248
      SNAPOFFS 0
      LENGTH 2.119536580529
      LOOP 1
      ALLTAKES 0
      FADEIN 1 0 0 1 0 0
      FADEOUT 1 0 0 1 0 0
      MUTE 0
      SEL 0
      IGUID {61018D75-C18E-4675-8258-32237E4A636F}
      IID 38
      NAME 1
      VOLPAN 1 0 1 -1
      SOFFS 0 0
      PLAYRATE 1 1 0 -1 0 0.0025
      CHANMODE 0
      POOLCOLOR 22981429 R
      GUID {48768CBA-485A-4A9A-8678-B86093756243}
      <SOURCE MIDIPOOL
        HASDATA 1 960 QN
        POOLEDEVTS {F8B129CA-CEAA-4C39-AEA6-E72DE558BC5E}
        GUID {2C582BF7-55F3-4840-91C8-8D0E10889837}
        IGNTEMPO 0 120 4 4
        SRCCOLOR 15039
        VELLANE -1 100 0
        CFGEDITVIEW 481.976756 0.059305 61 12 0 -1 0 0 0 0.5
        KEYSNAP 1
        TRACKSEL -252
        EVTFILTER 0 -1 -1 -1 -1 0 0 0 0 -1 -1 -1 -1 0 -1 0 -1 -1
        CFGEDIT 1 1 0 1 0 0 1 1 1 1 1 0.25 423 61 1872 1023 0 0 0 0 0 0 1 0 0 0 0 0 1 64
      >
    >
  >
  <TRACK {A42D4552-2732-4960-BD47-A0E5B8450579}
    NAME Anti-Flash
    PEAKCOL 16576
    BEAT -1
    AUTOMODE 0
    VOLPAN 1 0 -1 -1 1
    MUTESOLO 0 0 0
    IPHASE 0
    ISBUS 0 0
    BUSCOMP 0 0
    SHOWINMIX 1 0.6667 0.5 1 0.5 0 0 0
    FREEMODE 0
    SEL 0
    REC 0 0 0 0 0 0 0
    VU 2
    TRACKHEIGHT 0 0
    INQ 0 0 0 0.5 100 0 0 100
    NCHAN 2
    FX 1
    TRACKID {A42D4552-2732-4960-BD47-A0E5B8450579}
    PERF 0
    MIDIOUT -1
    MAINSEND 1 0
    <ITEM
      POSITION 182.282633
      SNAPOFFS 0
      LENGTH 0.652174
      LOOP 1
      ALLTAKES 0
      FADEIN 1 0 0 1 0 0
      FADEOUT 1 0 0 1 0 0
      MUTE 0
      SEL 0
      IGUID {3EDE807E-9CEE-4179-911F-23CB66138059}
      IID 243
      NAME "Anti-Flash untitled MIDI item"
      VOLPAN 1 0 1 -1
      SOFFS 0 0
      PLAYRATE 0.5 1 0 -1 0 0.0025
      CHANMODE 0
      POOLCOLOR 22900594 R
      GUID {3B3BE2EE-1E89-4A2A-BB3E-22265235194B}
      <SOURCE MIDIPOOL
        HASDATA 1 960 QN
        POOLEDEVTS {C7A3628B-BA50-497D-A9A8-CCE81606F7D9}
        e 0 90 38 7f
        e 960 80 38 00
        E 0 b0 7b 00
        GUID {95CBCCE2-FDD7-4CFD-BC71-7E53F63AE04B}
        IGNTEMPO 0 120 4 4
        SRCCOLOR 17144
        VELLANE -1 100 0
        CFGEDITVIEW -175.872197 0.226503 61 12 0 -1 0 0 0 0.5
        KEYSNAP 1
        TRACKSEL -252
        EVTFILTER 0 -1 -1 -1 -1 0 0 0 0 -1 -1 -1 -1 0 -1 0 -1 -1
        CFGEDIT 1 1 0 1 0 0 1 1 1 1 1 0.25 439 77 1872 1023 0 0 0 0 0 0 1 0 0 0 0 0 1 64
      >
    >
    <ITEM
      POSITION 183.58698100002948
      SNAPOFFS 0
      LENGTH 0.6521739999705
      LOOP 1
      ALLTAKES 0
      FADEIN 1 0 0 1 0 0
      FADEOUT 1 0 0 1 0 0
      MUTE 0
      SEL 0
      IGUID {727E7E4A-3480-4726-8D61-830515ED41EC}
      IID 243
      NAME "Anti-Flash untitled MIDI item"
      VOLPAN 1 0 1 -1
      SOFFS 0 0
      PLAYRATE 0.50000000002262 1 0 -1 0 0.0025
      CHANMODE 0
      POOLCOLOR 22900594 R
      GUID {B35A42F0-2BCB-4E21-8BA0-4127423A52C2}
      <SOURCE MIDIPOOL
        HASDATA 1 960 QN
        POOLEDEVTS {C7A3628B-BA50-497D-A9A8-CCE81606F7D9}
        GUID {95CBCCE2-FDD7-4CFD-BC71-7E53F63AE04B}
        IGNTEMPO 0 120 4 4
        SRCCOLOR 17144
        VELLANE -1 100 0
        CFGEDITVIEW -175.872197 0.226503 61 12 0 -1 0 0 0 0.5
        KEYSNAP 1
        TRACKSEL -252
        EVTFILTER 0 -1 -1 -1 -1 0 0 0 0 -1 -1 -1 -1 0 -1 0 -1 -1
        CFGEDIT 1 1 0 1 0 0 1 1 1 1 1 0.25 439 77 1872 1023 0 0 0 0 0 0 1 0 0 0 0 0 1 64
      >
    >
    <ITEM
      POSITION 184.89132900000547
      SNAPOFFS 0
      LENGTH 0.32608699999452
      LOOP 1
      ALLTAKES 0
      FADEIN 1 0 0 1 0 0
      FADEOUT 1 0 0 1 0 0
      MUTE 0
      SEL 0
      IGUID {A4C53C10-4801-4E70-835E-D4B4622858C9}
      IID 243
      NAME "Anti-Flash untitled MIDI item"
      VOLPAN 1 0 1 -1
      SOFFS 0 0
      PLAYRATE 0.49999999999163 1 0 -1 0 0.0025
      CHANMODE 0
      GUID {6E61DBD2-A0D7-4F56-A604-15EC632ED7BA}
      <SOURCE MIDI
        HASDATA 1 960 QN
        POOLEDEVTS {4AF2EAA0-23C5-4A97-BFD1-07C6CA973B13}
        e 0 90 37 7f
        e 960 80 37 00
        E 0 b0 7b 00
        GUID {95CBCCE2-FDD7-4CFD-BC71-7E53F63AE04B}
        IGNTEMPO 0 120 4 4
        SRCCOLOR 17144
        VELLANE -1 100 0
        CFGEDITVIEW -175.872197 0.226503 61 12 0 -1 0 0 0 0.5
        KEYSNAP 1
        TRACKSEL -252
        EVTFILTER 0 -1 -1 -1 -1 0 0 0 0 -1 -1 -1 -1 0 -1 0 -1 -1
        CFGEDIT 1 1 0 1 0 0 1 1 1 1 1 0.25 439 77 1872 1023 0 0 0 0 0 0 1 0 0 0 0 0 1 64
      >
    >
    <ITEM
      POSITION 185.05437250004618
      SNAPOFFS 0
      LENGTH 0.65217399995379
      LOOP 1
      ALLTAKES 0
      FADEIN 1 0 0 1 0 0
      FADEOUT 1 0 0 1 0 0
      MUTE 0
      SEL 0
      IGUID {1AAB63F8-DA3C-48C2-AA99-B0C4479139BA}
      IID 243
      NAME "Anti-Flash untitled MIDI item"
      VOLPAN 1 0 1 -1
      SOFFS 0 0
      PLAYRATE 0.50000000003543 1 0 -1 0 0.0025
      CHANMODE 0
      POOLCOLOR 22900594 R
      GUID {2CC1AA2C-5A2C-438A-B3B4-DB1D97FECA1B}
      <SOURCE MIDIPOOL
        HASDATA 1 960 QN
        POOLEDEVTS {C7A3628B-BA50-497D-A9A8-CCE81606F7D9}
        GUID {95CBCCE2-FDD7-4CFD-BC71-7E53F63AE04B}
        IGNTEMPO 0 120 4 4
        SRCCOLOR 17144
        VELLANE -1 100 0
        CFGEDITVIEW -175.872197 0.226503 61 12 0 -1 0 0 0 0.5
        KEYSNAP 1
        TRACKSEL -252
        EVTFILTER 0 -1 -1 -1 -1 0 0 0 0 -1 -1 -1 -1 0 -1 0 -1 -1
        CFGEDIT 1 1 0 1 0 0 1 1 1 1 1 0.25 439 77 1872 1023 0 0 0 0 0 0 1 0 0 0 0 0 1 64
      >
    >
  >
  <TRACK {E7238CFB-D75F-4B1C-B2B0-7F73687E5456}
    NAME "Drum Breaks A"
    PEAKCOL 16576
    BEAT -1
    AUTOMODE 0
    VOLPAN 1 0 -1 -1 1
    MUTESOLO 0 0 0
    IPHASE 0
    ISBUS 0 0
    BUSCOMP 0 0
    SHOWINMIX 1 0.6667 0.5 1 0.5 0 0 0
    FREEMODE 0
    SEL 0
    REC 0 0 0 0 0 0 0
    VU 2
    TRACKHEIGHT 0 0
    INQ 0 0 0 0.5 100 0 0 100
    NCHAN 2
    FX 1
    TRACKID {E7238CFB-D75F-4B1C-B2B0-7F73687E5456}
    PERF 0
    MIDIOUT -1
    MAINSEND 1 0
    <ITEM
      POSITION 82.17392400000244
      SNAPOFFS 0
      LENGTH 1.30434799997599
      LOOP 1
      ALLTAKES 0
      FADEIN 1 0 0 1 0 0
      FADEOUT 1 0 0 1 0 0
      MUTE 0
      COLOR 16777216 R
      SEL 0
      IGUID {451ECB6C-AD07-493B-973E-1E7545B26E37}
      IID 243
      NAME "Full-Power Hold"
      VOLPAN 1 0 1 -1
      SOFFS 0 0
      PLAYRATE 0.25 1 0 -1 0 0.0025
      CHANMODE 0
      POOLCOLOR 33510789 R
      GUID {A5C10815-90F9-4742-BA21-73F39C768978}
      <SOURCE MIDIPOOL
        HASDATA 1 960 QN
        POOLEDEVTS {4BBF7162-CD17-4989-8EF8-BD2C6F502E01}
        E 0 90 7f 7f
        E 960 80 7f 00
        E 0 b0 7b 00
        GUID {95CBCCE2-FDD7-4CFD-BC71-7E53F63AE04B}
        IGNTEMPO 0 120 4 4
        SRCCOLOR 17144
        VELLANE -1 100 0
        CFGEDITVIEW -31.905261 1.263689 0 12 0 -1 0 0 0 0.5
        KEYSNAP 1
        TRACKSEL -252
        EVTFILTER 0 -1 -1 -1 -1 0 0 0 0 -1 -1 -1 -1 0 -1 0 -1 -1
        CFGEDIT 1 1 0 1 0 0 1 1 1 1 1 0.25 439 77 1872 1023 0 0 0 0 0 0 1 0 0 0 0 0 1 64
      >
    >
    <ITEM
      POSITION 186.52176399994642
      SNAPOFFS 0
      LENGTH 1.30434799997596
      LOOP 1
      ALLTAKES 0
      FADEIN 1 0 0 1 0 0
      FADEOUT 1 0 0 1 0 0
      MUTE 0
      COLOR 16777216 R
      SEL 0
      IGUID {78E19677-0588-49FE-B30D-FD327E039E78}
      IID 243
      NAME "Full-Power Hold"
      VOLPAN 1 0 1 -1
      SOFFS 0 0
      PLAYRATE 0.25 1 0 -1 0 0.0025
      CHANMODE 0
      POOLCOLOR 33510789 R
      GUID {09668DFF-ED33-4C62-8E2B-8BE114E625C9}
      <SOURCE MIDIPOOL
        HASDATA 1 960 QN
        POOLEDEVTS {4BBF7162-CD17-4989-8EF8-BD2C6F502E01}
        GUID {95CBCCE2-FDD7-4CFD-BC71-7E53F63AE04B}
        IGNTEMPO 0 120 4 4
        SRCCOLOR 17144
        VELLANE -1 100 0
        CFGEDITVIEW -99.214866 0.401726 0 12 0 -1 0 0 0 0.5
        KEYSNAP 1
        TRACKSEL -252
        EVTFILTER 0 -1 -1 -1 -1 0 0 0 0 -1 -1 -1 -1 0 -1 0 -1 -1
        CFGEDIT 1 1 0 1 0 0 1 1 1 1 1 0.25 439 77 1872 1023 0 0 0 0 0 0 1 0 0 0 0 0 1 64
      >
    >
    <ITEM
      POSITION 196.956548
      SNAPOFFS 0
      LENGTH 1.304348
      LOOP 1
      ALLTAKES 0
      FADEIN 1 0 0 1 0 0
      FADEOUT 1 0 0 1 0 0
      MUTE 0
      SEL 0
      IGUID {0A1A8912-3FBF-481A-AFF2-70F3C04F4EC1}
      IID 292
      NAME "Drum Breaks A untitled MIDI item"
      VOLPAN 1 0 1 -1
      SOFFS 0 0
      PLAYRATE 1 1 0 -1 0 0.0025
      CHANMODE 0
      GUID {0782F807-E88D-4748-893B-FF5C68081712}
      <SOURCE MIDI
        HASDATA 1 960 QN
        POOLEDEVTS {BF7097C6-7334-41C1-B72B-A3E80A69B30F}
        e 0 90 5c 7f
        e 480 80 5c 00
        e 0 90 5c 7f
        e 480 80 5c 00
        e 0 90 5c 7f
        e 480 80 5c 00
        e 0 90 5c 7f
        e 480 80 5c 00
        e 0 90 5c 7f
        e 480 80 5c 00
        e 0 90 5c 7f
        e 480 80 5c 00
        e 0 90 5c 7f
        e 480 80 5c 00
        e 0 90 5c 7f
        e 480 80 5c 00
        E 0 b0 7b 00
        GUID {34971C90-B18D-4C0A-916A-CF1B803A33D0}
        IGNTEMPO 0 120 4 4
        SRCCOLOR 17290
        VELLANE -1 100 0
        CFGEDITVIEW -937.510652 0.042519 13 12 0 -1 0 0 0 0.5
        KEYSNAP 1
        TRACKSEL -252
        EVTFILTER 0 -1 -1 -1 -1 0 0 0 0 -1 -1 -1 -1 0 -1 0 -1 -1
        CFGEDIT 1 1 0 1 0 0 1 1 1 1 1 0.25 455 93 1872 1023 0 0 0 0 0 0 1 0 0 0 0 0 1 64
      >
    >
    <ITEM
      POSITION 219.130464
      SNAPOFFS 0
      LENGTH 3.913044
      LOOP 1
      ALLTAKES 0
      FADEIN 1 0 0 1 0 0
      FADEOUT 1 0 0 1 0 0
      MUTE 0
      SEL 0
      IGUID {079CF981-20E8-49FA-B0CC-D9C0CB17B4E9}
      IID 293
      NAME "Drum Breaks B untitled MIDI item"
      VOLPAN 1 0 1 -1
      SOFFS 0 0
      PLAYRATE 1 1 0 -1 0 0.0025
      CHANMODE 0
      POOLCOLOR 24356351 R
      GUID {B9916A41-BA86-4078-94C4-286EE9C6E491}
      <SOURCE MIDI
        HASDATA 1 960 QN
        POOLEDEVTS {3D9412E3-F95F-458E-8337-50D51B063B91}
        e 0 90 68 59
        e 480 80 68 00
        e 0 90 68 57
        e 480 80 68 00
        e 0 90 68 56
        e 480 80 68 00
        e 0 90 68 55
        e 480 80 68 00
        e 0 90 68 53
        e 480 80 68 00
        e 0 90 68 52
        e 480 80 68 00
        e 0 90 68 51
        e 480 80 68 00
        e 0 90 68 4f
        e 480 80 68 00
        e 0 90 68 4e
        e 480 80 68 00
        e 0 90 68 4d
        e 480 80 68 00
        e 0 90 68 4b
        e 480 80 68 00
        e 0 90 68 4a
        e 480 80 68 00
        e 0 90 68 49
        e 480 80 68 00
        e 0 90 68 47
        e 480 80 68 00
        e 0 90 68 46
        e 480 80 68 00
        e 0 90 68 45
        e 480 80 68 00
        e 0 90 68 43
        e 480 80 68 00
        e 0 90 68 42
        e 480 80 68 00
        e 0 90 68 41
        e 480 80 68 00
        e 0 90 68 3f
        e 480 80 68 00
        e 0 90 68 3e
        e 480 80 68 00
        e 0 90 68 3d
        e 480 80 68 00
        e 0 90 68 3b
        e 480 80 68 00
        e 0 90 68 3a
        e 480 80 68 00
        E 0 b0 7b 00
        GUID {87DDA7BA-14D2-43ED-BF3C-996A99A26369}
        IGNTEMPO 0 120 4 4
        SRCCOLOR 17291
        VELLANE -1 100 0
        CFGEDITVIEW -894.609349 0.044584 5 12 0 -1 0 0 0 0.5
        KEYSNAP 1
        TRACKSEL -252
        EVTFILTER 0 -1 -1 -1 -1 0 0 0 0 -1 -1 -1 -1 0 -1 0 -1 -1
        CFGEDIT 1 1 0 1 0 0 1 1 1 1 1 0.25 455 93 1872 1023 0 0 0 0 0 0 1 0 0 0 0 0 1 64
      >
    >
    <ITEM
      POSITION 223.043508
      SNAPOFFS 0
      LENGTH 5.3804355
      LOOP 1
      ALLTAKES 0
      FADEIN 1 0 0 1 0 0
      FADEOUT 1 0 0 1 0 0
      MUTE 0
      SEL 0
      IGUID {2AA7E78B-FD70-43F0-B11F-E1C11C8BC5AF}
      IID 294
      NAME "Drum Breaks A untitled MIDI item"
      VOLPAN 1 0 1 -1
      SOFFS 0 0
      PLAYRATE 1 1 0 -1 0 0.0025
      CHANMODE 0
      GUID {CDE66E52-9DE6-46DF-93AB-5F06BBC20320}
      <SOURCE MIDI
        HASDATA 1 960 QN
        POOLEDEVTS {56FBA463-4112-4AEC-81F1-58485A4F777C}
        e 0 90 68 39
        e 480 80 68 00
        e 480 90 68 36
        e 480 80 68 00
        e 480 90 68 33
        e 480 80 68 00
        e 480 90 68 31
        e 480 80 68 00
        e 480 90 68 2e
        e 480 80 68 00
        e 1440 90 68 29
        e 480 80 68 00
        e 1440 90 68 24
        e 480 80 68 00
        e 1440 90 68 1e
        e 480 80 68 00
        e 480 90 68 1c
        e 480 80 68 00
        e 0 90 68 1a
        e 480 80 68 00
        e 0 90 68 19
        e 480 80 68 00
        e 1440 90 68 14
        e 480 80 68 00
        e 1440 90 68 0e
        e 480 80 68 00
        E 0 b0 7b 00
        GUID {BD53EF83-6C3C-406F-8687-75FCCF9439AF}
        IGNTEMPO 0 120 4 4
        SRCCOLOR 17292
        VELLANE -1 100 0
        CFGEDITVIEW 0 0.043182 15 12 0 -1 0 0 0 0.5
        KEYSNAP 1
        TRACKSEL -252
        EVTFILTER 0 -1 -1 -1 -1 0 0 0 0 -1 -1 -1 -1 0 -1 0 -1 -1
        CFGEDIT 1 1 0 1 0 0 1 1 1 1 1 0.25 455 93 1872 1023 0 0 0 0 0 0 1 0 0 0 0 0 1 64
      >
    >
  >
  <TRACK {516D480F-4F9C-47FF-89DF-DDEDAA9C14D7}
    NAME "Drum Breaks B"
    PEAKCOL 16576
    BEAT -1
    AUTOMODE 0
    VOLPAN 1 0 -1 -1 1
    MUTESOLO 0 0 0
    IPHASE 0
    ISBUS 0 0
    BUSCOMP 0 0
    SHOWINMIX 1 0.6667 0.5 1 0.5 0 0 0
    FREEMODE 0
    SEL 0
    REC 0 0 0 0 0 0 0
    VU 2
    TRACKHEIGHT 0 0
    INQ 0 0 0 0.5 100 0 0 100
    NCHAN 2
    FX 1
    TRACKID {516D480F-4F9C-47FF-89DF-DDEDAA9C14D7}
    PERF 0
    MIDIOUT -1
    MAINSEND 1 0
    <ITEM
      POSITION 82.17392400000244
      SNAPOFFS 0
      LENGTH 1.30434799997354
      LOOP 1
      ALLTAKES 0
      FADEIN 1 0 0 1 0 0
      FADEOUT 1 0 0 1 0 0
      MUTE 0
      COLOR 22764379 R
      SEL 0
      IGUID {B292EB19-E62C-4EC8-AB03-27E76C5280B5}
      IID 243
      NAME "Drum Break Pattern"
      VOLPAN 1 0 1 -1
      SOFFS 0 0
      PLAYRATE 0.25 1 0 -1 0 0.0025
      CHANMODE 0
      POOLCOLOR 26895161 R
      GUID {CA6ACC69-AAA9-4799-BBF0-697B15B4D50A}
      <SOURCE MIDIPOOL
        HASDATA 1 960 QN
        POOLEDEVTS {AFB81E35-8E3A-4F15-926E-A80FC0F852FB}
        E 0 90 37 7f
        E 120 80 37 00
        E 0 90 37 7f
        E 120 80 37 00
        E 0 90 37 7f
        E 120 80 37 00
        E 0 90 37 40
        E 60 80 37 00
        E 0 90 37 40
        E 60 80 37 00
        E 0 90 37 40
        E 60 80 37 00
        E 0 90 37 40
        E 60 80 37 00
        E 0 90 37 7f
        E 120 80 37 00
        E 0 90 37 7f
        E 120 80 37 00
        E 0 90 37 40
        E 60 80 37 00
        E 0 90 37 40
        E 60 80 37 00
        E 0 90 37 7f
        E 120 80 37 00
        E 0 90 37 7f
        E 120 80 37 00
        E 0 90 37 7f
        E 120 80 37 00
        E 0 90 37 40
        E 60 80 37 00
        E 0 90 37 40
        E 60 80 37 00
        E 0 90 37 40
        E 60 80 37 00
        E 0 90 37 40
        E 60 80 37 00
        E 0 90 37 7f
        E 120 80 37 00
        E 0 90 37 7f
        E 120 80 37 00
        E 0 90 37 40
        E 60 80 37 00
        E 0 90 37 40
        E 60 80 37 00
        E 0 90 37 7f
        E 120 80 37 00
        E 0 90 37 7f
        E 120 80 37 00
        E 0 90 37 7f
        E 120 80 37 00
        E 0 90 37 40
        E 60 80 37 00
        E 0 90 37 40
        E 60 80 37 00
        E 0 90 37 40
        E 60 80 37 00
        E 0 90 37 40
        E 60 80 37 00
        E 0 90 37 7f
        E 120 80 37 00
        E 0 90 37 7f
        E 120 80 37 00
        E 0 90 37 40
        E 60 80 37 00
        E 0 90 37 40
        E 60 80 37 00
        E 0 90 37 7f
        E 120 80 37 00
        E 0 90 37 7f
        E 120 80 37 00
        E 0 90 37 7f
        E 120 80 37 00
        E 0 90 37 40
        E 60 80 37 00
        E 0 90 37 40
        E 60 80 37 00
        E 0 90 37 40
        E 60 80 37 00
        E 0 90 37 40
        E 60 80 37 00
        E 0 90 37 40
        E 60 80 37 00
        E 0 90 37 40
        E 60 80 37 00
        E 0 90 37 40
        E 60 80 37 00
        E 0 90 37 40
        E 60 80 37 00
        E 0 90 37 40
        E 60 80 37 00
        E 0 90 37 40
        E 60 80 37 00
        E 0 b0 7b 00
        GUID {95CBCCE2-FDD7-4CFD-BC71-7E53F63AE04B}
        IGNTEMPO 0 120 4 4
        SRCCOLOR 17144
        VELLANE -1 100 0
        CFGEDITVIEW -559.948259 0.071073 47 12 0 -1 0 0 0 0.5
        KEYSNAP 1
        TRACKSEL -252
        EVTFILTER 0 -1 -1 -1 -1 0 0 0 0 -1 -1 -1 -1 0 -1 0 -1 -1
        CFGEDIT 1 1 0 1 0 0 1 1 1 1 1 0.25 439 77 1872 1023 0 0 0 0 0 0 1 0 0 0 0 0 1 64
      >
    >
    <ITEM
      POSITION 83.47827200002644
      SNAPOFFS 0
      LENGTH 20.869568
      LOOP 1
      ALLTAKES 0
      FADEIN 1 0 0 1 0 0
      FADEOUT 1 0 0 1 0 0
      MUTE 0
      COLOR 22764379 R
      SEL 0
      IGUID {77D9E2F6-A5B9-4BC0-A35A-EF409B801DE8}
      IID 243
      NAME "Drum Break Pattern"
      VOLPAN 1 0 1 -1
      SOFFS 0 0
      PLAYRATE 0.25 1 0 -1 0 0.0025
      CHANMODE 0
      POOLCOLOR 26895161 R
      GUID {D5DECC62-E0EC-4507-B665-C09C9B7AC671}
      <SOURCE MIDIPOOL
        HASDATA 1 960 QN
        POOLEDEVTS {AFB81E35-8E3A-4F15-926E-A80FC0F852FB}
        GUID {95CBCCE2-FDD7-4CFD-BC71-7E53F63AE04B}
        IGNTEMPO 0 120 4 4
        SRCCOLOR 17144
        VELLANE -1 100 0
        CFGEDITVIEW -559.948259 0.071073 47 12 0 -1 0 0 0 0.5
        KEYSNAP 1
        TRACKSEL -252
        EVTFILTER 0 -1 -1 -1 -1 0 0 0 0 -1 -1 -1 -1 0 -1 0 -1 -1
        CFGEDIT 1 1 0 1 0 0 1 1 1 1 1 0.25 439 77 1872 1023 0 0 0 0 0 0 1 0 0 0 0 0 1 64
      >
    >
    <ITEM
      POSITION 186.52176399994642
      SNAPOFFS 0
      LENGTH 1.30434799997354
      LOOP 1
      ALLTAKES 0
      FADEIN 1 0 0 1 0 0
      FADEOUT 1 0 0 1 0 0
      MUTE 0
      COLOR 22764379 R
      SEL 0
      IGUID {6CF81CC6-C67B-453E-917B-EC4CA7AF9F0F}
      IID 243
      NAME "Drum Break Pattern"
      VOLPAN 1 0 1 -1
      SOFFS 0 0
      PLAYRATE 0.25 1 0 -1 0 0.0025
      CHANMODE 0
      POOLCOLOR 26895161 R
      GUID {DE51B63F-D497-4FE9-90EC-00ECD1ADDEF3}
      <SOURCE MIDIPOOL
        HASDATA 1 960 QN
        POOLEDEVTS {AFB81E35-8E3A-4F15-926E-A80FC0F852FB}
        GUID {95CBCCE2-FDD7-4CFD-BC71-7E53F63AE04B}
        IGNTEMPO 0 120 4 4
        SRCCOLOR 17144
        VELLANE -1 100 0
        CFGEDITVIEW -559.948259 0.071073 47 12 0 -1 0 0 0 0.5
        KEYSNAP 1
        TRACKSEL -252
        EVTFILTER 0 -1 -1 -1 -1 0 0 0 0 -1 -1 -1 -1 0 -1 0 -1 -1
        CFGEDIT 1 1 0 1 0 0 1 1 1 1 1 0.25 439 77 1872 1023 0 0 0 0 0 0 1 0 0 0 0 0 1 64
      >
    >
    <ITEM
      POSITION 187.82611200003885
      SNAPOFFS 0
      LENGTH 9.13043599996115
      LOOP 1
      ALLTAKES 0
      FADEIN 1 0 0 1 0 0
      FADEOUT 1 0 0 1 0 0
      MUTE 0
      COLOR 22764379 R
      SEL 0
      IGUID {BA4E2FA9-0351-41FD-A211-102481A53359}
      IID 243
      NAME "Drum Break Pattern"
      VOLPAN 1 0 1 -1
      SOFFS 0 0
      PLAYRATE 0.25 1 0 -1 0 0.0025
      CHANMODE 0
      POOLCOLOR 26895161 R
      GUID {2872F90D-9898-4212-A583-E8E892431AFC}
      <SOURCE MIDIPOOL
        HASDATA 1 960 QN
        POOLEDEVTS {AFB81E35-8E3A-4F15-926E-A80FC0F852FB}
        GUID {95CBCCE2-FDD7-4CFD-BC71-7E53F63AE04B}
        IGNTEMPO 0 120 4 4
        SRCCOLOR 17144
        VELLANE -1 100 0
        CFGEDITVIEW 0 0 47 12 0 -1 0 0 0 0.5
        KEYSNAP 0
        TRACKSEL -252
        EVTFILTER 0 -1 -1 -1 -1 0 0 0 0 -1 -1 -1 -1 0 -1 0 -1 -1
        CFGEDIT 1 1 0 1 0 0 1 1 1 1 1 0.25 439 77 1872 1023 0 0 0 0 0 0 1 0 0 0 0 0 1 64
      >
    >
    <ITEM
      POSITION 198.260896
      SNAPOFFS 0
      LENGTH 10.43478400003887
      LOOP 1
      ALLTAKES 0
      FADEIN 1 0 0 1 0 0
      FADEOUT 1 0 0 1 0 0
      MUTE 0
      COLOR 22764379 R
      SEL 0
      IGUID {9E4D9E48-3EF8-403D-B7FF-E04C14ABFBCB}
      IID 291
      NAME "Drum Break Pattern"
      VOLPAN 1 0 1 -1
      SOFFS 1.30434799999031 3.9999999999709
      PLAYRATE 0.25 1 0 -1 0 0.0025
      CHANMODE 0
      POOLCOLOR 26895161 R
      GUID {36AD4855-8B85-4485-A675-CF8482796FA3}
      <SOURCE MIDIPOOL
        HASDATA 1 960 QN
        POOLEDEVTS {AFB81E35-8E3A-4F15-926E-A80FC0F852FB}
        GUID {A7D043D5-ACDA-40CC-AF6B-C7CEA7F0B1C2}
        IGNTEMPO 0 120 4 4
        SRCCOLOR 17223
        VELLANE -1 100 0
        CFGEDITVIEW -31.905261 1.263689 0 12 0 -1 0 0 0 0.5
        KEYSNAP 1
        TRACKSEL -252
        EVTFILTER 0 -1 -1 -1 -1 0 0 0 0 -1 -1 -1 -1 0 -1 0 -1 -1
        CFGEDIT 1 1 0 1 0 0 1 1 1 1 1 0.25 439 77 1872 1023 0 0 0 0 0 0 1 0 0 0 0 0 1 64
      >
    >
  >
  <TRACK {A11A8D4D-4803-47D5-B6B8-DE2922623C51}
    NAME "Lucky Hardcore =)"
    PEAKCOL 16576
    BEAT -1
    AUTOMODE 0
    VOLPAN 1 0 -1 -1 1
    MUTESOLO 0 0 0
    IPHASE 0
    ISBUS 0 0
    BUSCOMP 0 0
    SHOWINMIX 1 0.6667 0.5 1 0.5 0 0 0
    FREEMODE 0
    SEL 0
    REC 0 0 0 0 0 0 0
    VU 2
    TRACKHEIGHT 0 0
    INQ 0 0 0 0.5 100 0 0 100
    NCHAN 2
    FX 1
    TRACKID {A11A8D4D-4803-47D5-B6B8-DE2922623C51}
    PERF 0
    MIDIOUT -1
    MAINSEND 1 0
    <ITEM
      POSITION 0
      SNAPOFFS 0
      LENGTH 231.68478458049887
      LOOP 1
      ALLTAKES 0
      FADEIN 1 0 0 1 0 0
      FADEOUT 1 0 0 1 0 0
      MUTE 0
      SEL 0
      IGUID {165B3D95-7E90-478C-AD86-E54CE97E78A8}
      IID 13
      NAME "Lucky Hardcore =).ogg"
      VOLPAN 1 0 1 -1
      SOFFS 0
      PLAYRATE 1 1 0 -1 0 0.0025
      CHANMODE 0
      GUID {64A2449A-E27C-4447-A257-A396E37FD95A}
      <SOURCE VORBIS
        FILE "Lucky Hardcore =).ogg"
      >
    >
  >
  <EXTENSIONS
  >
>
